<?xml version="1.0" encoding="UTF-8"?>
<svg width="15px" height="12px" color='white' viewBox="0 0 15 12" version="1.1" xmlns="http://www.w3.org/2000/svg" xmlns:xlink="http://www.w3.org/1999/xlink">
    <!-- Generator: Sketch 51.3 (57544) - http://www.bohemiancoding.com/sketch -->
    <title>Calculator Icon</title>
    <desc>Created with Sketch.</desc>
    <defs></defs>
    <g id="Currency-Issuance-Factory---Mobile-(Principle)" stroke="none" stroke-width="1" fill="none" fill-rule="evenodd">
        <g id="New-Issuance---Mobile--Step-04" transform="translate(-319.000000, -221.000000)" fill="#000000">
            <g id="Group-5-Copy" transform="translate(315.875000, 216.063769)">
                <g id="Group-4">
                    <g id="Group-26">
                        <path fill='white' d="M17.3648778,10.0259938 C17.4335914,10.1872675 17.3997077,10.3741246 17.2787674,10.5008006 L15.878837,11.9676286 L14.4789065,13.4344201 C14.3965084,13.520732 14.282556,13.569563 14.163399,13.569563 C14.044242,13.569563 13.9302532,13.520732 13.8478551,13.4344201 L12.4479246,11.9676286 L11.0480306,10.5008006 C10.9270539,10.3741246 10.8932066,10.1872675 10.9618838,10.0259938 C11.0305974,9.86472011 11.1886241,9.76005095 11.3635017,9.76005095 L12.5161651,9.76005095 C12.615596,8.150197 11.3015576,6.23644485 9.00747683,6.06962382 C8.76366729,6.05137606 8.71999339,5.71196771 8.94928136,5.63897666 C11.5010017,4.81819238 14.8909334,6.26607921 15.7851201,9.76005095 L16.9632599,9.76005095 C17.1381739,9.76005095 17.2961642,9.86472011 17.3648778,10.0259938 Z M12.2925147,15.690909 C12.5363606,15.7091567 12.5799981,16.0485651 12.3507466,16.1215561 C9.79898982,16.9423769 6.40905816,15.4944901 5.51487147,12.0004818 L4.33673165,12.0004818 C4.16185407,12.0004818 4.00382735,11.8958492 3.93511375,11.7345755 C3.86640015,11.5732652 3.90032021,11.3864447 4.02122412,11.2597322 L5.42115456,9.79294072 L6.82108501,8.32611272 C6.9034831,8.23976431 7.01747197,8.1909698 7.13662893,8.1909698 C7.25574949,8.1909698 7.36973837,8.23976431 7.45213645,8.32611272 L8.85210329,9.79294072 L10.2520337,11.2597322 C10.3729376,11.3864447 10.4068213,11.5732652 10.3381441,11.7345755 C10.2694305,11.8958492 10.1113674,12.0004818 9.93648982,12.0004818 L8.78382643,12.0004818 C8.68439552,13.6103358 9.99843396,15.5241244 12.2925147,15.690909 Z" id="Calculator-Icon"></path>
                    </g>
                </g>
            </g>
        </g>
    </g>
</svg>
