<?xml version="1.0" encoding="UTF-8"?>
<svg width="209px" height="207px" viewBox="0 0 209 207" version="1.1" xmlns="http://www.w3.org/2000/svg" xmlns:xlink="http://www.w3.org/1999/xlink">
    <!-- Generator: Sketch 51.1 (57501) - http://www.bohemiancoding.com/sketch -->
    <title>Coin 01</title>
    <desc>Created with Sketch.</desc>
    <defs></defs>
    <g id="Style-guides" stroke="none" stroke-width="1" fill="none" fill-rule="evenodd">
        <g id="Coin-01" transform="translate(0.000000, -1.000000)">
            <path d="M104.185049,11.4818831 C52.2082857,11.4818831 9.92238562,53.3572404 9.92238562,104.829375 C9.92238562,156.30151 52.2082857,198.176867 104.185049,198.176867 C156.161812,198.176867 198.447712,156.30151 198.447712,104.829375 C198.447712,53.3572404 156.161812,11.4818831 104.185049,11.4818831 M104.185049,208.002919 C46.7377437,208.002919 0,161.718939 0,104.829375 C0,47.9398105 46.7377437,1.65583131 104.185049,1.65583131 C161.632354,1.65583131 208.370098,47.9398105 208.370098,104.829375 C208.370098,161.718939 161.632354,208.002919 104.185049,208.002919" id="Fill-1" fill="#FF4A7B"></path>
            <path d="M90.978053,35.6216016 C88.6113723,35.6216016 86.5135572,33.94518 86.0820446,31.5554573 C85.6007421,28.8764698 87.403137,26.3125309 90.1083891,25.8359012 C92.4219606,25.4250135 94.7820026,25.1127389 97.1354059,24.9056515 C99.8638933,24.662406 102.296961,26.6642507 102.539271,29.3761092 C102.784902,32.0879677 100.763431,34.4842646 98.0249858,34.72751 C95.9603639,34.9115877 93.8857841,35.1844171 91.8609942,35.5427112 C91.565574,35.5953048 91.2701538,35.6216016 90.978053,35.6216016 M123.992087,36.9364421 C123.570532,36.9364421 123.139019,36.8838485 122.714145,36.772087 C120.732507,36.252725 118.69112,35.8155406 116.643095,35.4671078 C113.934524,35.0069137 112.112213,32.4561231 112.576919,29.7738485 C113.041624,27.0882867 115.637339,25.2935295 118.325994,25.7471494 C120.66612,26.1448887 122.996288,26.6478152 125.263389,27.2394934 C127.918851,27.9363589 129.50549,30.635069 128.801792,33.2680371 C128.210952,35.4769691 126.19612,36.9364421 123.992087,36.9364421 M66.1196076,44.6677042 C64.4035152,44.6677042 62.7372127,43.7900482 61.8111202,42.2155267 C60.4269606,39.8619622 61.2335572,36.8444033 63.6068765,35.473682 C65.6316664,34.3100482 67.7427589,33.2088693 69.8804059,32.2095905 C72.3665824,31.0426695 75.3340614,32.1011162 76.5091034,34.5664421 C77.6808261,37.0284809 76.6153219,39.9671494 74.1291454,41.1274962 C72.2470866,42.0084393 70.3949017,42.97156 68.6190614,43.9971356 C67.8323807,44.4507555 66.9693555,44.6677042 66.1196076,44.6677042 M148.040616,47.9580926 C147.058095,47.9580926 146.065616,47.6721148 145.195952,47.0705752 C143.503095,45.9003672 141.733893,44.7926141 139.941456,43.7736127 C137.558179,42.419327 136.731666,39.4083422 138.099229,37.0449164 C139.470112,34.6847777 142.507297,33.8662895 144.897213,35.2205752 C146.938599,36.380922 148.95675,37.646456 150.891919,38.9810191 C153.145742,40.5391051 153.70007,43.6125447 152.130028,45.8477736 C151.160784,47.2217819 149.613977,47.9580926 148.040616,47.9580926 M45.8617505,61.5995628 C44.7364984,61.5995628 43.6046076,61.2248332 42.6718765,60.4523644 C40.5641034,58.7069137 40.2819606,55.5973159 42.0445236,53.5067195 C43.5548177,51.7152493 45.1613723,49.9730856 46.8210362,48.3196737 C48.7628429,46.3901453 51.9128849,46.380284 53.8646496,48.2999511 C55.813095,50.2229053 55.8197337,53.3456515 53.8812463,55.27518 C52.4240614,56.7247916 51.0133471,58.2598679 49.685616,59.8311023 C48.703095,60.9980232 47.2857421,61.5995628 45.8617505,61.5995628 M166.861204,66.44475 C165.297801,66.44475 163.760952,65.7215877 162.791708,64.3640149 C161.59675,62.6908804 160.31549,61.0506168 158.98112,59.4892438 C157.201961,57.4117958 157.464187,54.302198 159.562003,52.5403117 C161.659818,50.7817125 164.80654,51.0413935 166.579061,53.1188415 C168.099313,54.8971633 169.559818,56.7642368 170.920742,58.6674684 C172.507381,60.892836 171.976288,63.9695628 169.732423,65.5407971 C168.85612,66.152198 167.853683,66.44475 166.861204,66.44475 M32.6541454,84.3561647 C32.093179,84.3561647 31.5222547,84.2608388 30.9612883,84.0603256 C28.375532,83.1366501 27.0345236,80.3097431 27.970574,77.7490912 C28.770532,75.5500205 29.6800278,73.3640981 30.6725068,71.2472049 C31.8309521,68.7785919 34.7851538,67.7037098 37.2846076,68.8541952 C39.7807421,70.0013935 40.8628429,72.9334879 39.7043975,75.4021009 C38.8347337,77.256026 38.038095,79.172406 37.3377169,81.0953603 C36.6041454,83.1037791 34.6922127,84.3561647 32.6541454,84.3561647 M178.150238,90.177621 C175.959482,90.177621 173.951288,88.7312965 173.347171,86.5355128 C172.812759,84.5731134 172.175448,82.6008526 171.458473,80.6713242 C170.505826,78.1139594 171.826919,75.2804781 174.409356,74.3370801 C176.988473,73.4002562 179.849734,74.7052354 180.802381,77.2593131 C181.622255,79.4616709 182.345868,81.7133353 182.959944,83.9551383 C183.680238,86.5815322 182.110196,89.2901037 179.458053,90.0034046 C179.019902,90.1217403 178.58175,90.177621 178.150238,90.177621 M28.1299017,110.127038 C25.3814984,110.127038 23.1509101,108.000284 23.1509101,105.275277 L23.1509101,105.117496 C23.1509101,102.842822 23.25049,100.541851 23.443011,98.2803256 C23.6720446,95.56518 26.0586412,93.5501869 28.8203219,93.780284 C31.5620866,94.007094 33.5935152,96.3935295 33.3644816,99.105388 C33.1951958,101.094084 33.1088933,103.118939 33.1088933,105.117496 C33.1088933,107.839216 30.8816244,110.127038 28.1299017,110.127038 M180.536835,116.632212 C180.394103,116.632212 180.251372,116.625638 180.105322,116.615776 C177.363557,116.379105 175.335448,113.989382 175.57112,111.277524 C175.750364,109.239521 175.839986,107.16536 175.839986,105.117496 C175.839986,102.392489 178.070574,100.022489 180.818977,100.022489 C183.5707,100.022489 185.797969,102.070353 185.797969,104.792073 L180.818977,104.792073 L185.797969,105.041893 C185.797969,107.448051 185.698389,109.804903 185.49591,112.125596 C185.270196,114.696109 183.092717,116.632212 180.536835,116.632212 M32.7636832,136.045832 C30.735574,136.045832 28.8269606,134.806595 28.0900698,132.811324 C27.2768345,130.612253 26.5532211,128.357302 25.9457841,126.108925 C25.2321286,123.479244 26.80549,120.773959 29.4609521,120.067233 C32.1197337,119.370367 34.8482211,120.921879 35.5618765,123.55156 C36.0962883,125.520534 36.7269606,127.492794 37.440616,129.419036 C38.3866244,131.973113 37.0588933,134.806595 34.4797757,135.743419 C33.9121706,135.947219 33.3346076,136.045832 32.7636832,136.045832 M173.689061,141.985624 C172.985364,141.985624 172.268389,141.837704 171.587927,141.522143 C169.095112,140.36837 168.01965,137.436276 169.184734,134.967663 C170.057717,133.117025 170.857675,131.200645 171.564692,129.27769 C172.504061,126.713751 175.358683,125.395624 177.94444,126.329161 C180.530196,127.256123 181.861246,130.086317 180.921877,132.646969 C180.11528,134.842753 179.202465,137.028675 178.203347,139.142281 C177.360238,140.933751 175.564482,141.985624 173.689061,141.985624 M46.0708681,158.736692 C44.6501958,158.736692 43.2461202,158.138439 42.2602799,156.98138 C40.7400278,155.196484 39.2828429,153.326123 37.9285572,151.419604 C36.3485572,149.19095 36.8896076,146.11751 39.1367925,144.549563 C41.390616,142.981615 44.4941874,143.5207 46.0741874,145.746068 C47.2625068,147.415915 48.5371286,149.059466 49.8748177,150.627413 C51.6440194,152.708148 51.3784732,155.817746 49.2773387,157.576345 C48.3412883,158.355388 47.2027589,158.736692 46.0708681,158.736692 M158.483221,163.479979 C157.211919,163.479979 155.937297,163.000062 154.964734,162.036941 C153.019608,160.113987 153.019608,156.987954 154.964734,155.065 C156.421919,153.618675 157.835952,152.090173 159.167003,150.518939 C160.932885,148.434916 164.072969,148.162087 166.184061,149.914112 C168.288515,151.66285 168.564019,154.772448 166.794818,156.859757 C165.281204,158.64794 163.668011,160.393391 162.005028,162.036941 C161.032465,163.000062 159.757843,163.479979 158.483221,163.479979 M66.3851538,175.586373 C65.5387253,175.586373 64.685658,175.372711 63.9022967,174.925665 C61.8642295,173.762032 59.8560362,172.496498 57.9208681,171.15536 C55.6670446,169.597274 55.1160362,166.523835 56.6893975,164.291893 C58.2627589,162.063238 61.3696496,161.511005 63.6234732,163.072378 C65.322969,164.249161 67.0888513,165.363488 68.877969,166.382489 C71.2612463,167.743349 72.0778009,170.760908 70.7035992,173.11776 C69.7808261,174.702143 68.1045656,175.586373 66.3851538,175.586373 M136.801372,178.561199 C134.929271,178.561199 133.133515,177.509327 132.287087,175.717857 C131.125322,173.252531 132.197465,170.317149 134.69028,169.163377 C136.552423,168.302156 138.407927,167.342323 140.200364,166.31346 C142.573683,164.946026 145.620826,165.751366 147.004986,168.108217 C148.382507,170.461782 147.572591,173.479341 145.192633,174.843488 C143.147927,176.016983 141.033515,177.111588 138.905826,178.097718 C138.225364,178.41328 137.508389,178.561199 136.801372,178.561199 M91.3133051,184.530575 C91.0311622,184.530575 90.7423807,184.507566 90.4535992,184.458259 C88.1367085,184.057233 85.8032211,183.551019 83.5294816,182.952767 C80.8707,182.255901 79.2907,179.557191 79.9943975,176.924223 C80.698095,174.291255 83.4265824,172.733169 86.0820446,173.42346 C88.0802799,173.949396 90.1249858,174.389868 92.1597337,174.741588 C94.8683051,175.208356 96.6839774,177.759147 96.2126328,180.444708 C95.7910782,182.841005 93.6866244,184.530575 91.3133051,184.530575 M111.202717,185.358925 C108.646835,185.358925 106.469356,183.422822 106.246961,180.855596 C106.007969,178.14045 108.039398,175.750728 110.777843,175.517344 C112.832507,175.33984 114.907087,175.070298 116.941835,174.715291 C119.643767,174.248523 122.232843,176.033419 122.707507,178.715693 C123.18549,181.397968 121.376456,183.955333 118.667885,184.428675 C116.350994,184.832989 113.984313,185.138689 111.637549,185.342489 C111.491498,185.352351 111.345448,185.358925 111.202717,185.358925" id="Fill-3" fill="#5FDDBB"></path>
        </g>
    </g>
</svg>