<?xml version="1.0" encoding="UTF-8"?>
<svg width="208px" height="207px" viewBox="0 0 208 207" version="1.1" xmlns="http://www.w3.org/2000/svg" xmlns:xlink="http://www.w3.org/1999/xlink">
    <!-- Generator: Sketch 51.1 (57501) - http://www.bohemiancoding.com/sketch -->
    <title>Coin 03</title>
    <desc>Created with Sketch.</desc>
    <defs></defs>
    <g id="Style-guides" stroke="none" stroke-width="1" fill="none" fill-rule="evenodd">
        <g id="Coin-03" transform="translate(0.000000, -1.000000)">
            <g id="Group-17">
                <g id="Group-9" transform="translate(0.377562, 0.419316)" fill="#FF4A7B">
                    <path d="M103.720527,10.6432518 C52.2483927,10.6432518 10.3730353,52.5186091 10.3730353,103.990744 C10.3730353,155.462878 52.2483927,197.338236 103.720527,197.338236 C155.192662,197.338236 197.068019,155.462878 197.068019,103.990744 C197.068019,52.5186091 155.192662,10.6432518 103.720527,10.6432518 M103.720527,207.164287 C46.8309628,207.164287 0.546983549,160.880308 0.546983549,103.990744 C0.546983549,47.1011792 46.8309628,0.817199973 103.720527,0.817199973 C160.610092,0.817199973 206.894071,47.1011792 206.894071,103.990744 C206.894071,160.880308 160.610092,207.164287 103.720527,207.164287" id="Fill-7"></path>
                </g>
                <g id="Group-18" transform="translate(24.466019, 24.466019)" fill="#5FDDBB">
                    <path d="M45.7733207,151.248648 C18.3565675,138.202496 0.637868964,110.217642 0.637868964,79.9536612 C0.637868964,49.6896803 18.3565675,21.7048262 45.7733207,8.66203538 L50.1063509,17.7684582 C26.182242,29.1506462 10.7225011,53.5588174 10.7225011,79.9536612 C10.7225011,106.348505 26.182242,130.760038 50.1063509,142.142226 L45.7733207,151.248648 Z" id="Fill-30"></path>
                    <path d="M109.161956,142.142226 C133.086065,130.760038 148.545806,106.348505 148.545806,79.9536612 C148.545806,53.5588174 133.086065,29.1506462 109.161956,17.7684582 L113.494987,8.66203538 C140.915101,21.7048262 158.630438,49.6930418 158.630438,79.9536612 C158.630438,110.217642 140.915101,138.202496 113.494987,151.248648 L109.161956,142.142226 Z" id="Fill-32"></path>
                    <path d="M65.7244206,157.700796 C63.4486553,157.287326 61.1594438,156.766287 58.917294,156.151124 L61.5964446,146.426177 C63.5495016,146.964024 65.5428972,147.417833 67.5228467,147.777518 L65.7244206,157.700796 Z M93.5143051,157.707519 L91.7158791,147.784241 C93.7092747,147.421194 95.7026703,146.970748 97.6456427,146.432901 L100.321432,156.157847 C98.0893665,156.77301 95.8001551,157.294049 93.5143051,157.707519 Z M79.6344898,158.95129 C78.4579494,158.95129 77.2881321,158.924398 76.1250379,158.870613 L76.5822078,148.796066 C78.6024958,148.890189 80.6496761,148.886828 82.663241,148.799428 L83.1069648,158.873975 C81.9573167,158.924398 80.7975841,158.95129 79.6344898,158.95129 Z" id="Fill-36"></path>
                    <path d="M82.6881164,11.1109202 C80.67119,11.0201585 78.6240097,11.0201585 76.6104448,11.1109202 L76.1633595,1.0330112 C78.4761018,0.932164878 80.8291826,0.932164878 83.1452864,1.03637274 L82.6881164,11.1109202 Z M61.6246815,13.4740857 L58.9488925,3.75250032 C61.1843193,3.13733776 63.4735307,2.61629844 65.7560191,2.20282852 L67.5578067,12.1261065 C65.5644111,12.4857917 63.5710155,12.9396002 61.6246815,13.4740857 Z M97.6738797,13.4841703 C95.7241842,12.9463232 93.7307886,12.4925148 91.744116,12.129468 L93.5492652,2.20955161 C95.828392,2.62302153 98.114242,3.14406085 100.349669,3.75922341 L97.6738797,13.4841703 Z" id="Fill-42"></path>
                </g>
            </g>
        </g>
    </g>
</svg>