<?xml version="1.0" encoding="UTF-8"?>
<svg width="209px" height="207px" viewBox="0 0 209 207" version="1.1" xmlns="http://www.w3.org/2000/svg" xmlns:xlink="http://www.w3.org/1999/xlink">
    <!-- Generator: Sketch 51.1 (57501) - http://www.bohemiancoding.com/sketch -->
    <title>Coin 02</title>
    <desc>Created with Sketch.</desc>
    <defs></defs>
    <g id="Style-guides" stroke="none" stroke-width="1" fill="none" fill-rule="evenodd">
        <g id="Coin-02" transform="translate(0.000000, -1.000000)">
            <g id="Group-19">
                <path d="M104.417382,11.4818831 C52.4406182,11.4818831 10.1547181,53.3572404 10.1547181,104.829375 C10.1547181,156.30151 52.4406182,198.176867 104.417382,198.176867 C156.394145,198.176867 198.680045,156.30151 198.680045,104.829375 C198.680045,53.3572404 156.394145,11.4818831 104.417382,11.4818831 M104.417382,208.002919 C46.9700763,208.002919 0.232332516,161.718939 0.232332516,104.829375 C0.232332516,47.9398105 46.9700763,1.65583131 104.417382,1.65583131 C161.864687,1.65583131 208.602431,47.9398105 208.602431,104.829375 C208.602431,161.718939 161.864687,208.002919 104.417382,208.002919" id="Fill-5" fill="#FF4A7B"></path>
                <path d="M119.609546,19.3135739 C117.965738,19.0384444 116.312007,18.8026192 114.641738,18.6159242 C113.325369,23.0343722 109.280343,26.2212883 104.418374,26.2212883 C99.5564048,26.2212883 95.5080715,23.0343722 94.1950091,18.6159242 C92.5247409,18.8026192 90.8677025,19.0384444 89.2238939,19.3135739 C87.5767779,19.5887033 85.9461992,19.9129631 84.3288504,20.2732516 C86.4588558,29.3820016 94.6150568,36.0473401 104.418374,36.0473401 C114.218383,36.0473401 122.377892,29.3820016 124.50459,20.2732516 C122.890548,19.9129631 121.25997,19.5887033 119.609546,19.3135739" id="Fill-10" fill="#5FDDBB"></path>
                <path d="M65.950277,26.8029906 C64.4586117,27.5366691 62.9801762,28.3096518 61.5182781,29.1317648 C63.0760926,33.4716044 61.6935735,38.4042824 57.7610014,41.2341853 C53.8251217,44.0640882 48.6621737,43.8413643 44.9743538,41.0343889 C43.7340556,42.1545588 42.5334469,43.3107576 41.3692203,44.4866084 C40.1983788,45.66901 39.0705343,46.8808897 37.9790719,48.1156969 C45.1066522,54.2438778 55.6640705,54.8891219 63.5920566,49.1834612 C71.5233502,43.4778004 74.1660123,33.337315 70.4814997,24.7296936 C68.9600673,25.3782131 67.4485572,26.0660367 65.950277,26.8029906" id="Fill-12" fill="#5FDDBB"></path>
                <path d="M26.9844071,64.0954773 C26.2137685,65.5562837 25.4762045,67.0432929 24.7783301,68.5597802 C28.6182933,71.1636839 30.4274749,75.9587972 28.9225798,80.5377373 C27.4209921,85.1166775 23.1113693,87.943305 18.4610779,87.8188417 C18.1237168,89.4499663 17.8392751,91.0810909 17.5945229,92.7122155 C17.3497707,94.3498908 17.1546304,95.9842907 17.0057947,97.6186907 C26.4122162,98.4277023 35.3324409,92.8072006 38.3587685,83.5739873 C41.3884036,74.3440494 37.5120583,64.5998813 29.4186991,59.7818406 C28.5719888,61.1902414 27.7583532,62.6281203 26.9844071,64.0954773" id="Fill-14" fill="#5FDDBB"></path>
                <path d="M17.5948536,116.94719 C17.8396058,118.578314 18.1240475,120.209439 18.4614086,121.840563 C23.1117,121.7161 27.4213228,124.539452 28.9229105,129.121668 C30.4244982,133.700608 28.618624,138.495721 24.7786608,141.099625 C25.4765353,142.616112 26.2107918,144.103121 26.9847379,145.563928 C27.758684,147.031285 28.5723196,148.469164 29.4190298,149.877564 C37.5090816,145.059524 41.3887343,135.315356 38.3590993,126.085418 C35.3327717,116.852204 26.412547,111.228427 17.0061254,112.037439 C17.1549612,113.671839 17.3501014,115.309514 17.5948536,116.94719" id="Fill-16" fill="#5FDDBB"></path>
                <path d="M41.3688896,165.170831 C42.5364236,166.349958 43.7337248,167.502881 44.974023,168.626326 C48.661843,165.816076 53.8280984,165.593352 57.7606706,168.42653 C61.6932428,171.256433 63.0757618,176.189111 61.5179473,180.525675 C62.9798455,181.347788 64.4582809,182.124046 65.9499462,182.854449 C67.4482264,183.594679 68.9597365,184.279227 70.481169,184.931022 C74.1656815,176.320125 71.5230195,166.179639 63.5917259,160.473979 C55.6637398,154.771593 45.1063215,155.413562 37.9787411,161.545018 C39.0702036,162.779826 40.1980481,163.98843 41.3688896,165.170831" id="Fill-18" fill="#5FDDBB"></path>
                <path d="M89.2252169,190.345176 C90.8690255,190.620306 92.5227564,190.856131 94.1930246,191.042826 C95.5093945,186.624378 99.5544203,183.437462 104.416389,183.437462 C109.278358,183.437462 113.326692,186.624378 114.643061,191.042826 C116.31333,190.856131 117.967061,190.620306 119.610869,190.345176 C121.257985,190.070047 122.888564,189.745787 124.505913,189.385498 C122.375907,180.276748 114.219706,173.61141 104.416389,173.61141 C94.6163798,173.61141 86.4601788,180.276748 84.3301733,189.385498 C85.9475222,189.745787 87.5781009,190.070047 89.2252169,190.345176" id="Fill-20" fill="#5FDDBB"></path>
                <path d="M142.88614,182.855759 C144.377805,182.122081 145.856241,181.349098 147.318139,180.526985 C145.760324,176.187146 147.142843,171.254468 151.075415,168.424565 C155.011295,165.594662 160.174243,165.817386 163.862063,168.624361 C165.102361,167.504191 166.30297,166.347992 167.467196,165.172142 C168.638038,163.98974 169.762575,162.77786 170.857345,161.543053 C163.729765,155.414872 153.172346,154.769628 145.24436,160.475289 C137.313067,166.18095 134.670405,176.321435 138.354917,184.929056 C139.87635,184.280537 141.38786,183.592713 142.88614,182.855759" id="Fill-22" fill="#5FDDBB"></path>
                <path d="M181.85201,145.563273 C182.622648,144.102466 183.360212,142.615457 184.054779,141.09897 C180.218124,138.495066 178.408942,133.699953 179.913837,129.121013 C181.415425,124.542073 185.725048,121.715445 190.375339,121.839908 C190.7127,120.208784 190.997142,118.577659 191.238586,116.946535 C191.486646,115.308859 191.678479,113.674459 191.830622,112.040059 C182.424201,111.231048 173.503976,116.851549 170.474341,126.084763 C167.448013,135.314701 171.324359,145.058869 179.417718,149.876909 C180.264428,148.468509 181.078064,147.03063 181.85201,145.563273" id="Fill-24" fill="#5FDDBB"></path>
                <path d="M191.239909,92.7115604 C190.998465,91.0804358 190.710716,89.4493112 190.373354,87.8181866 C185.726371,87.9426499 181.41344,85.1192977 179.911853,80.5370823 C178.410265,75.9581421 180.219446,71.1630289 184.056102,68.5591251 C183.361535,67.0426378 182.623971,65.5556286 181.853333,64.0948223 C181.076079,62.6274652 180.265751,61.1895863 179.415733,59.7811855 C171.325682,64.5992263 167.446029,74.3433943 170.475664,83.5733323 C173.505299,92.8065456 182.425524,98.4303225 191.831945,97.6213109 C191.679802,95.986911 191.484662,94.3492357 191.239909,92.7115604" id="Fill-26" fill="#5FDDBB"></path>
                <path d="M167.465874,44.4879186 C166.301647,43.3087923 165.101038,42.1558689 163.86074,41.0324237 C160.17292,43.8426745 155.009972,44.0653983 151.074092,41.2322201 C147.14152,38.4023172 145.759001,33.4696392 147.316816,29.133075 C145.854918,28.310962 144.376482,27.5347039 142.884817,26.8043007 C141.389844,26.0640715 139.878334,25.3795232 138.353594,24.7277284 C134.669082,33.3386251 137.315051,43.4791106 145.243037,49.1847713 C153.174331,54.8871567 163.728442,54.245188 170.856022,48.1137317 C169.76456,46.8789245 168.636715,45.6703201 167.465874,44.4879186" id="Fill-28" fill="#5FDDBB"></path>
            </g>
        </g>
    </g>
</svg>