<?xml version="1.0" encoding="UTF-8"?>
<svg width="19px" height="17px" viewBox="0 0 19 17" version="1.1" xmlns="http://www.w3.org/2000/svg" xmlns:xlink="http://www.w3.org/1999/xlink">
    <!-- Generator: Sketch 51.3 (57544) - http://www.bohemiancoding.com/sketch -->
    <title>continue arrow</title>
    <desc>Created with Sketch.</desc>
    <defs></defs>
    <g id="Currency-Issuance-Factory---Mobile-(Principle)" stroke="none" stroke-width="1" fill="none" fill-rule="evenodd">
        <g id="New-Issuance---Mobile--Step-01-Scroll/keyboard" transform="translate(-178.000000, -297.000000)" fill="#000000">
            <g id="Group-3" transform="translate(165.000000, 283.000000)">
                <path d="M22.3501463,16.9216204 L26.4583103,21.0297369 L14.7681991,21.0297369 C13.9122505,21.0297369 13.2183908,21.7236441 13.2183908,22.5795926 C13.2183908,23.4355412 13.9122505,24.1294009 14.7681991,24.1294009 L26.4061628,24.1294009 L22.2980464,28.2375648 C21.6927756,28.8428356 21.6927756,29.8241467 22.2980464,30.4293701 C22.9033171,31.0346408 23.8846283,31.0346408 24.4898991,30.4294175 L31.2698239,23.6494452 C31.8750472,23.0441745 31.8750472,22.0628633 31.2698239,21.45764 L24.5419516,14.7298152 C23.9367283,14.1245444 22.9554171,14.1245444 22.3501463,14.7298152 C21.744923,15.3350859 21.744923,16.3163971 22.3501463,16.9216204 Z" id="continue-arrow"></path>
            </g>
        </g>
    </g>
</svg>