<?xml version="1.0" encoding="UTF-8"?>
<svg width="65px" height="48px" viewBox="0 0 65 48" version="1.1" xmlns="http://www.w3.org/2000/svg" xmlns:xlink="http://www.w3.org/1999/xlink">
    <!-- Generator: Sketch 51.3 (57544) - http://www.bohemiancoding.com/sketch -->
    <title>Group 15</title>
    <desc>Created with Sketch.</desc>
    <defs></defs>
    <g id="Page-12" stroke="none" stroke-width="1" fill="none" fill-rule="evenodd">
        <g id="Group-15" transform="translate(5.000000, 5.000000)" fill-rule="nonzero">
            <path d="M38.476924,9.54807294 C35.5713766,5.60421175 30.9469143,3.19354839 25.9032258,3.19354839 C17.2804575,3.19354839 10.2903226,10.1836833 10.2903226,18.8064516 C10.2903226,27.42922 17.2804575,34.4193548 25.9032258,34.4193548 C29.6362452,34.4193548 33.1608656,33.1050378 35.9467009,30.7608171 C36.1935484,31.2258065 36.9032258,31.9354839 37.1566285,32.5235992 C34.0169228,35.1033667 30.0721755,36.5483871 25.9032258,36.5483871 C16.1046254,36.5483871 8.16129032,28.605052 8.16129032,18.8064516 C8.16129032,9.00785121 16.1046254,1.06451613 25.9032258,1.06451613 C31.9809558,1.06451613 37.5250486,4.14675982 40.7688763,9.1182026 C40.8318787,9.21475918 38.5153016,9.60016497 38.476924,9.54807294 Z" id="Oval-2" fill="#5FDDBB"></path>
            <g id="Group-42" transform="translate(32.645161, 11.354839)" fill="#C095FF">
                <g id="Group-11">
                    <path d="M7.90847988,-0.535828423 C12.8079119,-0.535828423 16.7794476,3.43570728 16.7794476,8.33513932 C16.7794476,11.4789077 15.7795469,13.2467434 13.1383309,16.0550799 C13.0004427,16.2015679 13.0004427,16.2015679 12.8635105,16.3470195 C10.5852095,18.7689616 9.75894722,20.1415188 9.55951188,22.5865102 C9.48870889,23.4459798 8.78076098,24.1208741 7.90847988,24.1208741 C7.03619878,24.1208741 6.32825087,23.4459798 6.25737781,22.5856554 C6.05801254,20.1415188 5.23175022,18.7689616 2.95344921,16.3470195 C2.8165171,16.2015679 2.8165171,16.2015679 2.67862886,16.0550799 C0.0374128777,13.2467434 -0.962487861,11.4789077 -0.962487861,8.33513932 C-0.962487861,3.43570728 3.00904784,-0.535828423 7.90847988,-0.535828423 Z M11.3127742,14.8882546 C11.450819,14.7416208 11.450819,14.7416208 11.5874394,14.5964799 C13.8909425,12.1472249 14.6504154,10.8044683 14.6504154,8.33513932 C14.6504154,4.61153933 11.6320799,1.59320384 7.90847988,1.59320384 C4.18487989,1.59320384 1.1665444,4.61153933 1.1665444,8.33513932 C1.1665444,10.8044683 1.9260173,12.1472249 4.22952037,14.5964799 C4.36614074,14.7416208 4.36614074,14.7416208 4.50418558,14.8882546 C6.29731837,16.7944398 7.34993866,18.2159053 7.90851496,19.9267448 C8.46713879,18.2157464 9.51974163,16.7943333 11.3127742,14.8882546 Z" id="Stroke-16"></path>
                    <path d="M9.46062622,8.70068912 C9.46062622,7.98908307 8.88360747,7.41206432 8.17200142,7.41206432 C7.46039536,7.41206432 6.88337661,7.98908307 6.88337661,8.70068912 C6.88337661,9.41229518 7.46039536,9.98931393 8.17200142,9.98931393 C8.88360747,9.98931393 9.46062622,9.41229518 9.46062622,8.70068912 Z M11.5896585,8.70068912 C11.5896585,10.5881272 10.0594395,12.1183462 8.17200142,12.1183462 C6.28456331,12.1183462 4.75434435,10.5881272 4.75434435,8.70068912 C4.75434435,6.81325102 6.28456331,5.28303206 8.17200142,5.28303206 C10.0594395,5.28303206 11.5896585,6.81325102 11.5896585,8.70068912 Z" id="Stroke-20"></path>
                </g>
            </g>
            <path d="M18.2128649,6.70441739 L22.910894,6.74155904 L25.0399263,8.87059134 L19.094739,8.83344969 L17.1910283,10.7371604 L17.0872057,10.8017691 C16.067723,11.4361923 15.3485007,11.9663809 14.9440283,12.3708533 C14.9025794,12.4123022 14.8659878,12.4509159 14.8341913,12.4862268 C15.0762298,12.6892146 15.5163068,12.9237888 16.1665244,13.1511971 L16.3959527,13.2314377 L16.9657067,13.8011917 L18.3850616,13.8011917 L20.0176222,15.4337524 C21.4354259,16.2466057 22.6414045,16.6399014 23.621544,16.6399014 C23.9798127,16.6399014 26.6088512,15.4487072 28.563814,14.526977 C28.6516052,14.485585 29.0704585,16.6375658 28.8327781,16.7523813 C27.0100036,17.632903 24.3201537,18.7689337 23.621544,18.7689337 C22.1874815,18.7689337 20.5940766,18.2377988 18.8261336,17.2040046 L18.7077355,17.134772 L17.5031875,15.930224 L16.0838326,15.930224 L15.2297521,15.0761435 C13.975812,14.6056089 13.1346143,14.0141148 12.7339278,13.2127417 C12.0674873,11.8798607 13.1924622,10.7293087 15.8579351,9.05934726 L18.2128649,6.70441739 Z" id="Stroke-1" fill="#5FDDBB" transform="translate(20.725594, 12.736676) scale(-1, 1) rotate(-3.000000) translate(-20.725594, -12.736676) "></path>
            <path d="M20.1452724,30.1612903 C19.2747014,30.1612903 18.4918376,29.6312657 18.1685156,28.8229608 L16.7491607,25.2745737 C16.4328574,24.4838154 16.6182409,23.5806414 17.2204644,22.9784178 L19.3494967,20.8493856 C19.7487677,20.4501146 20.2902954,20.2258065 20.8549498,20.2258065 L23.6936595,20.2258065 C24.258314,20.2258065 24.7998417,20.4501146 25.1991127,20.8493856 L28.6173883,24.2676612 C30.0759516,25.7262245 30.8272841,27.4493877 30.488175,29.4840422 L28.3011579,31.2258065 L28.3011579,29.4840422 C28.5272306,28.1276059 28.0843107,26.7454899 27.1119352,25.7731144 L23.6936595,22.3548387 L20.8549498,22.3548387 L18.7259176,24.483871 L20.1452724,28.0322581 L22.2743047,28.0322581 L23.6936595,29.4516129 L23.6936595,32.6451613 L21.5646272,33 L21.5646272,30.3334869 L21.3924306,30.1612903 L20.1452724,30.1612903 Z M21.5646272,29.8925499 L21.8764168,30.6452765 L21.5646272,30.3334869 L21.5646272,29.8925499 Z" id="Path" fill="#5FDDBB" transform="translate(23.582797, 26.612903) scale(-1, 1) translate(-23.582797, -26.612903) "></path>
            <path d="M49.7873296,25.3445158 C49.3977052,25.3870951 49.0473349,25.1057596 49.0047556,24.7161353 C48.9621763,24.3265109 49.2435118,23.9761406 49.6331361,23.9335613 C50.8423086,23.8014192 51.894632,23.2091493 52.8153882,22.1272607 C53.0694145,21.8287799 53.5173099,21.7927423 53.8157907,22.0467685 C54.1142715,22.3007947 54.1503091,22.7486902 53.8962829,23.047171 C52.7484222,24.3959073 51.3703437,25.1715191 49.7873296,25.3445158 Z" id="Path-2-Copy" fill="#C095FF" transform="translate(51.533011, 23.613151) rotate(320.000000) translate(-51.533011, -23.613151) "></path>
            <path d="M-0.0462875777,26.7139281 L1.57149125,25.3298869 C2.01058828,25.8431389 2.47448039,26.3348205 2.96136536,26.8030482 L1.48560142,28.3376163 C0.948973877,27.8215521 0.437686738,27.2796362 -0.0462875777,26.7139281 Z M3.17272701,29.8087148 L4.49201054,28.1377063 C5.02223636,28.5563267 5.57253607,28.9488698 6.14090234,29.3137769 L4.99066321,31.1053484 C4.36397268,30.7029955 3.7572612,30.2702123 3.17272701,29.8087148 Z M6.93080944,32.2206015 L7.89993731,30.3249302 C8.50078961,30.6321052 9.11655969,30.9097225 9.7452499,31.1566427 L8.96694232,33.1383126 C8.27318183,32.8658359 7.59373254,32.559509 6.93080944,32.2206015 Z M11.1154993,33.8604198 L11.6919923,31.8109237 C12.3404998,31.9933392 12.9988114,32.1440762 13.6651346,32.2624015 L13.2928861,34.3586384 C12.5576706,34.2280793 11.8311974,34.061735 11.1154993,33.8604198 Z M15.4872756,34.6393774 L15.6550886,32.516969 C16.2010511,32.5601368 16.7505459,32.5819423 17.3023798,32.5821511 C17.5164088,32.5821527 17.5164088,32.5821527 17.7073836,32.5821527 L17.7073836,34.711185 C17.5164043,34.711185 17.5164043,34.711185 17.3019655,34.7111833 C16.6939909,34.7109533 16.088784,34.686937 15.4872756,34.6393774 Z" id="Oval-6" fill="#5FDDBB" transform="translate(8.830548, 30.020536) rotate(34.000000) translate(-8.830548, -30.020536) "></path>
            <path d="M13.8173465,-0.321165909 L14.5643369,0.885719991 C8.64513997,4.54934963 4.96774194,11.0061846 4.96774194,18.0967742 L3.5483871,18.0967742 C3.5483871,10.5094469 7.48438396,3.59855998 13.8173465,-0.321165909 Z" id="Oval-6-Copy" fill="#5FDDBB"></path>
        </g>
    </g>
</svg>