<?xml version="1.0" encoding="UTF-8"?>
<svg width="51px" height="52px" viewBox="0 0 51 52" version="1.1" xmlns="http://www.w3.org/2000/svg" xmlns:xlink="http://www.w3.org/1999/xlink">
    <!-- Generator: Sketch 53.2 (72643) - https://sketchapp.com -->
    <title>coin</title>
    <desc>Created with Sketch.</desc>
    <g id="Curency-type\mint\burn" stroke="none" stroke-width="1" fill="none" fill-rule="evenodd">
        <g id="Mintable-burnable-token" transform="translate(-691.000000, -273.000000)" fill="#05273D" fill-rule="nonzero">
            <g id="coin" transform="translate(691.000000, 273.000000)">
                <path d="M28.1842105,0 C27.2706842,0 26.3723684,0.068137931 25.4865789,0.188275862 C24.5632105,0.0645517241 23.6854737,0 22.8157895,0 C16.2287368,0 10.2885789,3.20158621 6.12,8.30565517 C6.07794737,8.34331034 6.04752632,8.38813793 6.01352632,8.43296552 C4.68484211,10.0817241 3.54315789,11.9277241 2.61978947,13.9252414 C2.59652632,13.9691724 2.57594737,14.0122069 2.55894737,14.0597241 C1.92278947,15.4556552 1.39221053,16.9224138 0.984210526,18.4501379 C0.943947368,18.5362069 0.926052632,18.6303448 0.914421053,18.728069 C0.323,21.0375862 0,23.4762069 0,26 C0,29.9484138 0.780210526,33.6915172 2.16794737,37.0464138 C2.18047368,37.0822759 2.19210526,37.1163448 2.20910526,37.1504138 C3.04121053,39.1389655 4.08805263,40.9876552 5.31652632,42.6597241 C5.34784211,42.7027586 5.37378947,42.7484828 5.41226316,42.7852414 C6.65594737,44.4573103 8.08126316,45.9464828 9.65331579,47.216 C9.69805263,47.2653103 9.75173684,47.302069 9.80721053,47.3406207 C13.4997895,50.2741379 17.9833158,52 22.8157895,52 C23.6854737,52 24.5632105,51.9354483 25.4865789,51.8117241 C26.3723684,51.9318621 27.2706842,52 28.1842105,52 C40.7651053,52 51,40.3367586 51,26 C51,11.6632414 40.7651053,0 28.1842105,0 Z M18.7357895,2.34358621 C18.4396316,2.4977931 18.1470526,2.65917241 17.8580526,2.82682759 C17.6961053,2.92096552 17.5332632,3.01151724 17.374,3.11013793 C17.1261579,3.26255172 16.8836842,3.42393103 16.6421053,3.5862069 L14.9197368,3.5862069 C16.2278421,2.97296552 17.5932105,2.48972414 19.0167368,2.18937931 C18.921,2.23689655 18.8306316,2.29427586 18.7357895,2.34358621 Z M9.71684211,41.2413793 L6.50831579,41.2413793 C5.71915789,40.1242759 5.01857895,38.9237931 4.41015789,37.6551724 L7.79942105,37.6551724 C7.93989474,37.9725517 8.08394737,38.2872414 8.23515789,38.5974483 C8.30047368,38.7310345 8.36847368,38.8628276 8.43647368,38.9955172 C8.61989474,39.355931 8.80957895,39.710069 9.00731579,40.0588276 C9.08068421,40.1888276 9.15136842,40.3206207 9.22742105,40.4497241 C9.38489474,40.7177931 9.55042105,40.9795862 9.71684211,41.2413793 Z M3.99768421,15.2413793 L7.42184211,15.2413793 C7.26526316,15.6331724 7.11673684,16.0294483 6.97626316,16.4311034 C6.93778947,16.5422759 6.89842105,16.6525517 6.86084211,16.7637241 C6.732,17.1492414 6.61210526,17.5383448 6.49847368,17.9310345 L3.00363158,17.9310345 C3.28815789,17.0066897 3.621,16.1101379 3.99768421,15.2413793 Z M1.78947368,26 C1.78947368,25.3957241 1.82168421,24.8004138 1.85926316,24.2068966 L5.42657895,24.2068966 C5.42568421,24.2212414 5.42568421,24.2355862 5.42478947,24.249931 C5.39168421,24.8291034 5.36842105,25.4109655 5.36842105,26 C5.36842105,26.3003448 5.37915789,26.598 5.38810526,26.8965517 L1.82436842,26.8965517 C1.81452632,26.5971034 1.78947368,26.3021379 1.78947368,26 Z M5.49010526,28.6896552 C5.52410526,29.0671034 5.56794737,29.4418621 5.61626316,29.8148276 C5.61984211,29.8417241 5.62163158,29.8695172 5.62521053,29.8973103 C5.69142105,30.3957931 5.77194737,30.8897931 5.86231579,31.3793103 L2.33347368,31.3793103 C2.159,30.4988966 2.02121053,29.6032414 1.93263158,28.6896552 L5.49010526,28.6896552 Z M6.04484211,19.7241379 C6.02157895,19.829931 6.00189474,19.9375172 5.98042105,20.0433103 C5.95626316,20.1616552 5.93121053,20.2791034 5.90794737,20.3974483 C5.79878947,20.9595862 5.70215789,21.5271034 5.62610526,22.1026897 C5.62252632,22.1295862 5.62073684,22.1573793 5.61715789,22.1851724 C5.60642105,22.2613793 5.60015789,22.3375862 5.59031579,22.4137931 L2.03910526,22.4137931 C2.15721053,21.5011034 2.30663158,20.6009655 2.51152632,19.7241379 L6.04484211,19.7241379 Z M6.25868421,33.1724138 C6.28642105,33.2817931 6.31236842,33.3929655 6.341,33.5014483 C6.35173684,33.5408966 6.36068421,33.5821379 6.37142105,33.6215862 C6.51905263,34.1675862 6.68457895,34.7046207 6.86173684,35.2353793 C6.89931579,35.3474483 6.93868421,35.4568276 6.97715789,35.568 C7.01026316,35.6666207 7.04336842,35.7652414 7.07826316,35.862069 L3.63084211,35.862069 C3.29173684,34.9915172 3.00005263,34.0931724 2.75131579,33.1724138 L6.25868421,33.1724138 Z M9.22652632,11.5511724 C9.15136842,11.6793793 9.07978947,11.812069 9.00642105,11.942069 C8.80868421,12.2908276 8.61810526,12.6458621 8.43557895,13.0053793 C8.36847368,13.138069 8.29957895,13.2689655 8.23426316,13.4034483 C8.22710526,13.4177931 8.21905263,13.4330345 8.21189474,13.4482759 L4.85752632,13.4482759 C5.53484211,12.1688966 6.31505263,10.972 7.18026316,9.86206897 L10.3145263,9.86206897 C10.2053684,10.0189655 10.0953158,10.1749655 9.98884211,10.3345517 C9.72489474,10.7317241 9.47078947,11.1369655 9.22652632,11.5511724 Z M11.8391579,5.37931034 L14.3104211,5.37931034 C14.0885263,5.57386207 13.8666316,5.76931034 13.651,5.97282759 C13.4711579,6.14317241 13.2966842,6.3197931 13.1213158,6.49641379 C12.9441579,6.67482759 12.7687895,6.85593103 12.597,7.03972414 C12.4314737,7.21634483 12.2659474,7.39206897 12.1048947,7.57406897 C11.9617368,7.73544828 11.8248421,7.90310345 11.6861579,8.06896552 L8.73173684,8.06896552 C9.69268421,7.06751724 10.7296842,6.16468966 11.8391579,5.37931034 Z M7.89515789,43.0344828 L10.9658947,43.0344828 C11.067,43.1671724 11.1672105,43.2998621 11.271,43.4298621 C11.5412105,43.7705517 11.8194737,44.1022759 12.1048947,44.425931 C12.2650526,44.607931 12.4314737,44.7836552 12.597,44.9602759 C12.7696842,45.1449655 12.9450526,45.326069 13.1231053,45.5044828 C13.1946842,45.5762069 13.2626842,45.6533103 13.3351579,45.7241379 L10.6437895,45.7241379 C9.66047368,44.9181379 8.74157895,44.018 7.89515789,43.0344828 Z M19.0158421,49.8106207 C16.9642105,49.3775862 15.0253158,48.5832414 13.2268947,47.5172414 L15.3912632,47.5172414 C15.5057895,47.606 15.6238947,47.6893793 15.7393158,47.7754483 C15.9245263,47.9135172 16.1097368,48.0524828 16.2985263,48.1842759 C16.6501579,48.429931 17.0089474,48.6657241 17.3731053,48.8898621 C17.5323684,48.9875862 17.6952105,49.0790345 17.8571579,49.1731724 C18.1461579,49.3408276 18.4387368,49.5022069 18.7348947,49.6564138 C18.8306316,49.7057241 18.921,49.7631034 19.0158421,49.8106207 Z M28.1842105,50.2068966 C27.4728947,50.2068966 26.7705263,50.1647586 26.078,50.0849655 L25.7317368,50.0365517 C25.6834211,50.0302759 25.636,50.0222069 25.5885789,50.015931 C25.279,49.972 24.9721053,49.9208966 24.6678947,49.8617241 C24.6419474,49.8563448 24.6168947,49.8509655 24.5918421,49.8455862 C24.2956842,49.7873103 24.0022105,49.7218621 23.7114211,49.6492414 C23.6675789,49.6384828 23.6237368,49.625931 23.5798947,49.6142759 C23.3087895,49.5443448 23.0385789,49.4708276 22.7719474,49.3892414 C22.6905263,49.3641379 22.6091053,49.3354483 22.5276842,49.3094483 C22.2995263,49.2368276 22.0722632,49.1624138 21.8476842,49.0808276 C21.6651579,49.0144828 21.4853158,48.9409655 21.3054737,48.8692414 C21.1828947,48.8208276 21.0585263,48.7751034 20.9377368,48.724 C16.1267368,46.6843448 12.1371053,42.674069 9.70968421,37.5475862 C9.68731579,37.5009655 9.66673684,37.4516552 9.64526316,37.4050345 C9.51552632,37.1262069 9.38936842,36.8446897 9.26857895,36.5595862 C9.22026316,36.4457241 9.17552632,36.330069 9.129,36.2153103 C9.03863158,35.9929655 8.94915789,35.7697241 8.86505263,35.5437931 C8.81047368,35.3985517 8.75947368,35.2506207 8.70757895,35.1035862 C8.63689474,34.9045517 8.56710526,34.7046207 8.50178947,34.5028966 C8.44810526,34.337931 8.39710526,34.1711724 8.34610526,34.0053103 C8.28794737,33.8161379 8.23157895,33.626069 8.17789474,33.4351034 C8.12778947,33.2602759 8.08036842,33.0827586 8.03473684,32.9061379 C7.98642105,32.7187586 7.93989474,32.5295862 7.89515789,32.3404138 C7.85221053,32.1593103 7.81105263,31.9782069 7.77168421,31.7953103 C7.73052632,31.6043448 7.69294737,31.4124828 7.65626316,31.2197241 C7.62136842,31.035931 7.58647368,30.8521379 7.55426316,30.6665517 C7.52026316,30.4684138 7.49073684,30.2693793 7.46121053,30.0694483 C7.43436842,29.8883448 7.40663158,29.7081379 7.38336842,29.5252414 C7.35563158,29.310069 7.33415789,29.0922069 7.31178947,28.8752414 C7.29389474,28.7057931 7.27421053,28.5372414 7.25989474,28.3668966 C7.23842105,28.1176552 7.22410526,27.8666207 7.20978947,27.6146897 C7.20173684,27.4730345 7.19010526,27.3331724 7.18384211,27.1915172 C7.16773684,26.7970345 7.15789474,26.3998621 7.15789474,26 C7.15789474,25.6001379 7.16773684,25.2029655 7.18384211,24.8075862 C7.19010526,24.665931 7.20173684,24.5251724 7.20978947,24.3844138 C7.22410526,24.1333793 7.23842105,23.8814483 7.25989474,23.6322069 C7.27421053,23.4618621 7.29389474,23.2933103 7.31178947,23.1238621 C7.33415789,22.9068966 7.35652632,22.689931 7.38336842,22.4738621 C7.40663158,22.2918621 7.43436842,22.1107586 7.46121053,21.9296552 C7.49073684,21.7297241 7.52026316,21.5306897 7.55426316,21.3325517 C7.58557895,21.1469655 7.62047368,20.9631724 7.65626316,20.7793793 C7.69294737,20.5866207 7.73142105,20.3947586 7.77168421,20.2037931 C7.81105263,20.0208966 7.85221053,19.8397931 7.89515789,19.6586897 C7.93989474,19.4695172 7.98642105,19.2803448 8.03473684,19.0929655 C8.08036842,18.9154483 8.12778947,18.7388276 8.177,18.5631034 C8.23068421,18.3721379 8.28705263,18.182069 8.34521053,17.9928966 C8.39621053,17.8261379 8.44721053,17.6602759 8.50089474,17.4953103 C8.56710526,17.2935862 8.63689474,17.0936552 8.70757895,16.8937241 C8.75947368,16.7466897 8.81047368,16.5996552 8.86505263,16.4544138 C8.95005263,16.2284828 9.03863158,16.0052414 9.129,15.7828966 C9.17552632,15.6681379 9.22026316,15.5524828 9.26857895,15.4386207 C9.38936842,15.1535172 9.51552632,14.872 9.64526316,14.5931724 C9.66763158,14.5456552 9.68731579,14.4972414 9.70968421,14.4506207 C12.1371053,9.32413793 16.1267368,5.31475862 20.9377368,3.2742069 C21.0594211,3.22310345 21.1828947,3.17737931 21.3054737,3.12896552 C21.4853158,3.05724138 21.6651579,2.98372414 21.8476842,2.91737931 C22.0722632,2.8357931 22.2995263,2.76227586 22.5276842,2.68875862 C22.6091053,2.66275862 22.6896316,2.63406897 22.7719474,2.60896552 C23.0385789,2.52737931 23.3087895,2.45296552 23.5798947,2.38393103 C23.6228421,2.37406897 23.6666842,2.36062069 23.7105263,2.34986207 C24.0013158,2.27724138 24.2947895,2.21268966 24.5909474,2.15351724 C24.6168947,2.14813793 24.6419474,2.14275862 24.667,2.13737931 C24.9712105,2.0782069 25.2781053,2.02710345 25.5876842,1.98317241 C25.6351053,1.976 25.6834211,1.96882759 25.7308421,1.96255172 L26.0771053,1.91413793 C26.7705263,1.83524138 27.4728947,1.79310345 28.1842105,1.79310345 C39.7782105,1.79310345 49.2105263,12.6521379 49.2105263,26 C49.2105263,39.3478621 39.7782105,50.2068966 28.1842105,50.2068966 Z" id="Shape"></path>
                <path d="M11.9257661,25.9817795 C11.9257661,25.34766 11.9498382,24.7105161 11.9970194,24.0874861 C12.0384234,23.5330096 11.6436414,23.0470866 11.1130928,23.0027285 C10.5806185,22.9624029 10.1193975,23.3737237 10.0770306,23.9282002 C10.0259978,24.6026452 10,25.2942286 10,25.9817795 L10,26.0029504 C10,26.5594432 10.4313716,27 10.962883,27 C11.4943945,27 11.9257661,26.5382723 11.9257661,25.9817795 Z" id="Path"></path>
                <path d="M43.4628263,20.4186067 C43.5517721,20.7677503 43.8693241,21 44.2188654,21 C44.2820637,21 44.3460423,20.9923096 44.4100208,20.9769288 C44.8274418,20.8731086 45.0810153,20.4555205 44.976465,20.0433158 C44.845387,19.5295979 44.6916825,19.017418 44.5184723,18.520619 C44.3788118,18.1191807 43.9356433,17.9030808 43.527585,18.0422769 C43.120307,18.1799348 42.9026239,18.6175179 43.0422844,19.0189561 C43.2006703,19.4749961 43.3418912,19.9464169 43.4628263,20.4186067 Z" id="Path"></path>
                <path d="M39.3964772,38.3187388 C39.0353702,38.7434589 38.6534996,39.1500506 38.2616985,39.5290183 C37.910522,39.8674132 37.9132303,40.4138518 38.2671151,40.7496569 C38.4431547,40.9162645 38.6733604,41 38.9026634,41 C39.1346746,41 39.3675886,40.914538 39.5436282,40.7444774 C39.9778594,40.3258001 40.3994518,39.8760457 40.7975722,39.408163 C41.112638,39.0378279 41.0530554,38.493979 40.6666709,38.1935673 C40.2802865,37.8922923 39.711543,37.9492669 39.3964772,38.3187388 Z" id="Path"></path>
                <path d="M12.5400385,31.5837724 C12.4361038,31.1717144 12.0102059,30.9195596 11.5929041,31.0233428 C11.1740393,31.1255886 10.919282,31.5430278 11.0232168,31.9550857 C11.1529398,32.4678518 11.3061068,32.9806179 11.4788103,33.4787775 C11.5897782,33.7985836 11.8929863,34 12.2180753,34 C12.301692,34 12.3868716,33.9861622 12.4704882,33.9584867 C12.8784125,33.8216466 13.0972224,33.3849882 12.9581218,32.9829242 C12.8002661,32.526278 12.6596025,32.0550252 12.5400385,31.5837724 Z" id="Path"></path>
                <path d="M36.6334615,8.15501764 C36.162072,7.77257026 35.6696961,7.42023685 35.1708627,7.1080554 C34.7721189,6.85710567 34.2878146,7.05886925 34.0868284,7.55173451 C33.8858421,8.04660736 34.0456625,8.65089429 34.4435992,8.89983642 C34.8899662,9.17989631 35.3298759,9.49508916 35.7520278,9.83738458 C35.887633,9.94780246 36.040996,10 36.1919375,10 C36.4558833,10 36.7141789,9.83939218 36.8691562,9.5442753 C37.1121155,9.08052022 37.0071829,8.4581649 36.6334615,8.15501764 Z" id="Path"></path>
                <path d="M33.8525367,42.1186072 C33.4149137,42.4235448 32.9631232,42.6963837 32.5097584,42.9285643 C32.102832,43.1361358 31.8974011,43.7535007 32.050884,44.3066682 C32.1697348,44.7357208 32.4688296,45 32.7876017,45 C32.8796914,45 32.9733553,44.9775309 33.0654451,44.9304528 C33.5746933,44.6693834 34.0815803,44.3644459 34.5719384,44.0220598 C34.9584003,43.7524308 35.1118832,43.107247 34.912749,42.5818984 C34.7136149,42.0565497 34.2389986,41.8479082 33.8525367,42.1186072 Z" id="Path"></path>
                <path d="M41.8379203,13.6954563 C41.471773,13.2146149 41.0783293,12.7471534 40.667943,12.3047793 C40.3375633,11.9485385 39.7436327,11.8966913 39.342659,12.1910499 C38.9416853,12.4845722 38.8842689,13.0114071 39.2146486,13.3684842 C39.5873848,13.7707185 39.9450608,14.1963676 40.2782643,14.632888 C40.4599261,14.8720544 40.7564208,15 41.058563,15 C41.2402248,15 41.4237691,14.9531702 41.5856646,14.8561657 C42.0167584,14.5969295 42.1297087,14.0776207 41.8379203,13.6954563 Z" id="Path"></path>
                <path d="M45.0356578,25 C44.5033408,25 44.0713155,25.4864454 44.0713155,26.0458576 C44.0713155,26.6670889 44.0481713,27.2944008 44.0028472,27.9085381 C43.9623448,28.4669369 44.3586895,28.9543957 44.8900421,28.9969597 C44.915115,28.9989866 44.9401879,29 44.9652608,29 C45.4638257,29 45.887172,28.5966557 45.9257456,28.064606 C45.9749271,27.3977705 46,26.7187738 46,26.0448442 L46,25.9789714 C46,25.4205726 45.568939,25 45.0356578,25 Z" id="Path"></path>
                <path d="M43.4973526,32.0408221 C43.1110772,31.9036572 42.6938408,32.1234328 42.5633623,32.5310309 C42.4144546,32.9978594 42.2456434,33.4615704 42.0613517,33.9096945 C41.899175,34.3040438 42.0694606,34.7638581 42.4432041,34.9353143 C42.5390358,34.979737 42.6392905,35 42.7373337,35 C43.0218801,35 43.2924203,34.8246471 43.4133156,34.5316129 C43.6145622,34.0429628 43.7988539,33.5363877 43.9610306,33.0274745 C44.0915091,32.6198764 43.883628,32.1779871 43.4973526,32.0408221 Z" id="Path"></path>
                <path d="M30.1044357,6.11268939 C29.4188306,6.03787879 28.7221023,6 28.0324524,6 L27.9899813,6 C27.4317896,6 27,6.42424242 27,6.9469697 C27,7.46969697 27.4742607,7.89393939 28.0324524,7.89393939 C28.6442386,7.89393939 29.2631033,7.92708333 29.8718558,7.99337121 C29.9112932,7.99810606 29.9507307,8 29.9901682,8 C30.4957766,8 30.9336335,7.64488636 30.9932952,7.16193182 C31.0570019,6.64204545 30.6595937,6.17234848 30.1044357,6.11268939 Z" id="Path"></path>
                <path d="M14.7234958,37.3688071 C14.4323399,36.985283 13.8462589,36.8850152 13.4156496,37.1432047 C12.984098,37.4013941 12.8700854,37.9202797 13.1612414,38.3029683 C13.5268353,38.783418 13.9197546,39.2513341 14.3286921,39.6941834 C14.5152581,39.8955544 14.7856845,40 15.0579954,40 C15.2681177,40 15.4801245,39.9381682 15.6553834,39.8103268 C16.0577252,39.5170437 16.1161449,38.9914735 15.7863565,38.6338519 C15.4141668,38.2327809 15.0561109,37.806643 14.7234958,37.3688071 Z" id="Path"></path>
                <path d="M12.5583507,17.0651154 C12.1851567,16.893667 11.7523399,17.0721292 11.5889295,17.4672398 C11.3865067,17.9574263 11.2017499,18.463199 11.0390756,18.9697511 C10.9087889,19.3773306 11.1148921,19.8199792 11.4998635,19.9586965 C11.5778883,19.9867517 11.6581213,20 11.7361461,20 C12.0430927,20 12.3294289,19.7950413 12.4332166,19.4708479 C12.5819054,19.0055994 12.7519405,18.5419094 12.9374334,18.0914678 C13.1015799,17.6971365 12.9315448,17.2373431 12.5583507,17.0651154 Z" id="Path"></path>
                <path d="M27.9614681,44.1094005 C27.3427259,44.1094005 26.7209994,44.0744419 26.1131996,44.0054695 C25.5710541,43.9506695 25.0726782,44.3134832 25.0070239,44.8321934 C24.9423643,45.3499588 25.3313164,45.8204828 25.8774409,45.8828414 C26.563827,45.9603173 27.2661292,46 27.9624629,46 L28.0480124,46 C28.5971212,46 29,45.5767174 29,45.0551727 C29,44.533628 28.5105769,44.1094005 27.9614681,44.1094005 Z" id="Path"></path>
                <path d="M15.4582177,11.2541358 C15.0244093,11.6731868 14.6014236,12.1216146 14.2036908,12.5890509 C13.8880298,12.9588526 13.9457507,13.5031869 14.3317589,13.8047309 C14.4995102,13.9360623 14.7015332,14 14.9017525,14 C15.1633002,14 15.4221422,13.8919972 15.6007161,13.6829037 C15.9623734,13.2586685 16.3447741,12.8517138 16.7379975,12.4732718 C17.0888321,12.1345749 17.0870283,11.5876486 16.7343899,11.2506797 C16.3808496,10.9145748 15.8108561,10.9171669 15.4582177,11.2541358 Z" id="Path"></path>
                <path d="M21.9377241,7.06853379 C21.4277783,7.32889427 20.9201934,7.63318389 20.4299215,7.97390255 C20.0427405,8.24176314 19.8884976,8.88784286 20.0860229,9.41499249 C20.2245267,9.78678298 20.5007473,10 20.7879853,10 C20.9083891,10 21.0303669,9.96249952 21.1444751,9.88321279 C21.5820212,9.57999461 22.0345193,9.30784825 22.4885914,9.07641671 C22.8954463,8.8685569 23.102415,8.25140612 22.9497461,7.69747043 C22.798651,7.14139186 22.343792,6.86067397 21.9377241,7.06853379 Z" id="Path"></path>
                <path d="M21.5578702,43.1039069 C21.1136828,42.8241555 20.6735334,42.5073044 20.2503439,42.1633806 C19.8764189,41.8605672 19.3773137,41.9909174 19.1317992,42.453159 C18.8878999,42.9164033 18.9920821,43.5380731 19.3651995,43.8408865 C19.8376534,44.2249181 20.3294901,44.5788688 20.8261724,44.8917091 C20.9432763,44.9659084 21.0684564,45 21.1912137,45 C21.4859926,45 21.769465,44.7994613 21.9124126,44.4515268 C22.114316,43.9582016 21.9552161,43.3545803 21.5578702,43.1039069 Z" id="Path"></path>
            </g>
        </g>
    </g>
</svg>