<?xml version="1.0" encoding="UTF-8"?>
<svg width="65px" height="48px" viewBox="0 0 65 48" version="1.1" xmlns="http://www.w3.org/2000/svg" xmlns:xlink="http://www.w3.org/1999/xlink">
    <!-- Generator: Sketch 51.3 (57544) - http://www.bohemiancoding.com/sketch -->
    <title>Group 14</title>
    <desc>Created with Sketch.</desc>
    <defs></defs>
    <g id="Page-12" stroke="none" stroke-width="1" fill="none" fill-rule="evenodd">
        <g id="Group-14">
            <path d="M0.967499021,27.8639718 C0.433439561,27.8639718 0,28.2974114 0,28.8314708 C0,29.3664978 0.433439561,29.7989698 0.967499021,29.7989698 C1.50155848,29.7989698 1.93499804,29.3664978 1.93499804,28.8314708 C1.93499804,28.2974114 1.50155848,27.8639718 0.967499021,27.8639718" id="Fill-3" fill="#5FDDBB"></path>
            <path d="M5.32221211,26.3159734 C4.52015543,26.3159734 3.86999608,26.9661327 3.86999608,27.7672219 C3.86999608,28.5692786 4.52015543,29.2184704 5.32221211,29.2184704 C6.1233013,29.2184704 6.77249315,28.5692786 6.77249315,27.7672219 C6.77249315,26.9661327 6.1233013,26.3159734 5.32221211,26.3159734" id="Fill-5" fill="#5FDDBB"></path>
            <path d="M62.5981542,14.7059851 C61.7960975,14.7059851 61.1459381,15.3561445 61.1459381,16.1572337 C61.1459381,16.9592903 61.7960975,17.6084822 62.5981542,17.6084822 C63.3992434,17.6084822 64.0484352,16.9592903 64.0484352,16.1572337 C64.0484352,15.3561445 63.3992434,14.7059851 62.5981542,14.7059851" id="Fill-5-Copy-3" fill="#5FDDBB"></path>
            <path d="M29.4119702,1.16099883 C29.4119702,1.80264418 29.9320977,2.32199765 30.5737431,2.32199765 C31.2146144,2.32199765 31.7339679,1.80264418 31.7339679,1.16099883 C31.7339679,0.520127474 31.2146144,0 30.5737431,0 C29.9320977,0 29.4119702,0.520127474 29.4119702,1.16099883 Z" id="Fill-5-Copy-2" fill="#5FDDBB"></path>
            <path d="M39.6674599,2.32199765 C39.1334004,2.32199765 38.6999608,2.75543721 38.6999608,3.28949667 C38.6999608,3.82452363 39.1334004,4.25699569 39.6674599,4.25699569 C40.2015193,4.25699569 40.6349589,3.82452363 40.6349589,3.28949667 C40.6349589,2.75543721 40.2015193,2.32199765 39.6674599,2.32199765" id="Fill-3-Copy" fill="#5FDDBB"></path>
            <path d="M19.5434802,44.1179554 C19.0094208,44.1179554 18.5759812,44.5513949 18.5759812,45.0854544 C18.5759812,45.6204813 19.0094208,46.0529534 19.5434802,46.0529534 C20.0775397,46.0529534 20.5109792,45.6204813 20.5109792,45.0854544 C20.5109792,44.5513949 20.0775397,44.1179554 19.5434802,44.1179554" id="Fill-3-Copy-2" fill="#5FDDBB"></path>
            <path d="M23.4134763,45.6659538 C22.8794169,45.6659538 22.4459773,46.0993934 22.4459773,46.6334528 C22.4459773,47.1684798 22.8794169,47.6009518 23.4134763,47.6009518 C23.9475358,47.6009518 24.3809753,47.1684798 24.3809753,46.6334528 C24.3809753,46.0993934 23.9475358,45.6659538 23.4134763,45.6659538" id="Fill-3-Copy-3" fill="#5FDDBB"></path>
            <path d="M57.4694419,23.2199765 C56.9353824,23.2199765 56.5019428,23.6534161 56.5019428,24.1874755 C56.5019428,24.7225025 56.9353824,25.1549745 57.4694419,25.1549745 C58.0035013,25.1549745 58.4369409,24.7225025 58.4369409,24.1874755 C58.4369409,23.6534161 58.0035013,23.2199765 57.4694419,23.2199765" id="Fill-3-Copy-4" fill="#5FDDBB"></path>
            <path d="M35.5081816,0 C34.7061249,0 34.0559655,0.650159342 34.0559655,1.45124853 C34.0559655,2.25330522 34.7061249,2.90249706 35.5081816,2.90249706 C36.3092708,2.90249706 36.9584626,2.25330522 36.9584626,1.45124853 C36.9584626,0.650159342 36.3092708,0 35.5081816,0" id="Fill-5-Copy" fill="#5FDDBB"></path>
            <path d="M47.3338242,8.29164214 C46.9088861,8.33808067 46.5267599,8.03124621 46.4803214,7.60630818 C46.4338829,7.18137016 46.7407174,6.79924396 47.1656554,6.75280543 C48.4844215,6.60868662 49.6321225,5.96273611 50.6363317,4.78279028 C50.9133817,4.45725659 51.4018723,4.41795275 51.727406,4.6950027 C52.0529396,4.97205265 52.0922435,5.46054321 51.8151935,5.7860769 C50.5632962,7.25705628 49.0603153,8.1029659 47.3338242,8.29164214 Z" id="Path-2-Copy" fill="#C095FF" fill-rule="nonzero" transform="translate(49.237726, 6.403354) rotate(210.000000) translate(-49.237726, -6.403354) "></path>
            <g id="Group-13" transform="translate(31.346968, 23.993976) scale(-1, 1) translate(-31.346968, -23.993976) translate(8.513991, 5.417995)" fill-rule="nonzero">
                <path d="M36.7549266,28.0078615 C38.7553296,25.3075031 39.8609597,22.0286799 39.8609597,18.5759812 C39.8609597,9.81288795 32.757069,2.70899726 23.9939757,2.70899726 C18.0573025,2.70899726 12.7063068,5.99751749 9.97366142,11.1395944 C9.94553211,11.1925259 8.03118444,9.84923703 8.07863117,9.76366591 C11.2547867,4.03540686 17.3003533,0.386999608 23.9939757,0.386999608 C34.0394729,0.386999608 42.1829573,8.53048405 42.1829573,18.5759812 C42.1829573,22.2613199 41.0819207,25.7780038 39.0775074,28.7446456 C38.9882615,28.8767346 36.7088833,28.0700158 36.7549266,28.0078615 Z M8.16772302,17.4295434 C8.14061942,17.8095594 8.12699178,18.1918625 8.12699178,18.5759812 C8.12699178,27.3390745 15.2308825,34.4429652 23.9939757,34.4429652 C25.4496676,34.4429652 26.8749,34.2465976 28.2395791,33.8688533 C29.2500397,33.5891569 30.2273021,33.210021 31.1591495,32.7375309 C31.2490026,32.6919711 33.9544102,33.7991604 33.7870859,33.9062927 C30.8961811,35.7572459 27.5208054,36.7649628 23.9939757,36.7649628 C13.9484786,36.7649628 5.80499413,28.6214784 5.80499413,18.5759812 C5.80499413,17.7589376 5.85893844,16.9483924 5.96576453,16.1480482 C6.19199373,16.2539836 7.73999217,17.0279828 8.16772302,17.4295434 Z" id="Oval-5" fill="#5FDDBB"></path>
                <path d="M2.95303714,14.9843818 L3.61335448,17.2105117 C2.38486676,17.5749072 1.44580377,17.9659946 0.847094614,18.3525963 C0.420212011,18.6282452 0.281899531,18.8101269 0.281899531,18.8345473 C0.281899531,19.2882432 2.49775809,20.4626188 6.22073644,21.3748337 C10.5491212,22.435387 16.306009,23.0998892 22.2947676,23.1716573 L22.2669432,25.4934883 C9.15548279,25.336363 -2.04009812,22.5931896 -2.04009812,18.8345473 C-2.04009812,17.0966961 -0.231914211,15.9291059 2.95303714,14.9843818 Z M45.1512552,18.3840675 C44.59232,18.01169 43.7111129,17.6322309 42.5541388,17.276115 L43.2372224,15.0568652 C46.2670259,15.9894367 47.9904589,17.1376336 47.9904589,18.8345473 C47.9904589,21.574289 42.3201902,23.5102952 33.7110225,24.6872493 L33.396509,22.3866506 C37.0477236,21.8874953 40.2871969,21.1880329 42.5872476,20.402724 C43.7168939,20.0170276 44.5871809,19.6210971 45.1463283,19.2451105 C45.5389826,18.9810785 45.6672517,18.8144028 45.6684528,18.8342526 C45.6673775,18.8126749 45.5426695,18.6448381 45.1512552,18.3840675 Z" id="Oval-5" fill="#C095FF" transform="translate(22.975180, 20.238935) rotate(32.000000) translate(-22.975180, -20.238935) "></path>
                <path d="M25.1549745,29.7989698 C23.0176347,29.7989698 21.2849785,28.0663136 21.2849785,25.9289738 C21.2849785,23.7916339 23.0176347,22.0589777 25.1549745,22.0589777 C27.2923144,22.0589777 29.0249706,23.7916339 29.0249706,25.9289738 C29.0249706,28.0663136 27.2923144,29.7989698 25.1549745,29.7989698 Z M25.1549745,27.4769722 C26.0099105,27.4769722 26.702973,26.7839097 26.702973,25.9289738 C26.702973,25.0740378 26.0099105,24.3809753 25.1549745,24.3809753 C24.3000386,24.3809753 23.6069761,25.0740378 23.6069761,25.9289738 C23.6069761,26.7839097 24.3000386,27.4769722 25.1549745,27.4769722 Z" id="Oval-5" fill="#C095FF"></path>
            </g>
        </g>
    </g>
</svg>