<svg xmlns="http://www.w3.org/2000/svg" xmlns:xlink="http://www.w3.org/1999/xlink" width="421" height="101" viewBox="0 0 421 101">
    <defs>
        <circle id="d" cx="196" cy="45" r="11"/>
        <filter id="c" width="181.8%" height="181.8%" x="-40.9%" y="-40.9%" filterUnits="objectBoundingBox">
            <feOffset in="SourceAlpha" result="shadowOffsetOuter1"/>
            <feGaussianBlur in="shadowOffsetOuter1" result="shadowBlurOuter1" stdDeviation="3"/>
            <feColorMatrix in="shadowBlurOuter1" values="0 0 0 0 0.274509804 0 0 0 0 0.784313725 0 0 0 0 0.956862745 0 0 0 0.306216033 0"/>
        </filter>
        <path id="a" d="M151.395 29.477C135.864 32.963 126 38.175 126 44c0 10.493 32.012 19 71.5 19S269 54.493 269 44c0-6.58-12.584-12.377-31.705-15.787"/>
        <filter id="e" width="132.2%" height="232.2%" x="-16.1%" y="-66.1%" filterUnits="objectBoundingBox">
            <feGaussianBlur in="SourceGraphic" stdDeviation="6"/>
        </filter>
        <mask id="f" width="153" height="44.787" x="-5" y="-5">
            <path fill="#fff" d="M121 23.213h153V68H121z"/>
            <use xlink:href="#a"/>
        </mask>
        <path id="b" d="M151.395 29.477C135.864 32.963 126 38.175 126 44c0 10.493 32.012 19 71.5 19S269 54.493 269 44c0-6.58-12.584-12.377-31.705-15.787"/>
        <mask id="g" width="147" height="38.787" x="-2" y="-2">
            <path fill="#fff" d="M124 26.213h147V65H124z"/>
            <use xlink:href="#b"/>
        </mask>
    </defs>
    <g fill="none" fill-rule="evenodd" transform="translate(0 6)">
        <circle cx="196" cy="45" r="35" fill="#FF4A7B" opacity=".141"/>
        <circle cx="196" cy="45" r="23" fill="#FF4A7B" opacity=".141"/>
        <use fill="#000" filter="url(#c)" xlink:href="#d"/>
        <use fill="#FF4A7B" xlink:href="#d"/>
        <use stroke="#C095FF" stroke-dasharray="1" stroke-linecap="round" stroke-width="10" filter="url(#e)" mask="url(#f)" opacity=".326" transform="rotate(-20 197.5 45.606)" xlink:href="#a"/>
        <use stroke="#C095FF" stroke-dasharray="2,10" stroke-linecap="round" stroke-width="4" mask="url(#g)" transform="rotate(-20 197.5 45.606)" xlink:href="#b"/>
        <g transform="translate(86)">
            <path fill="#5FDDBB" d="M13.935 9.871c0-2.565-2.21-4.645-4.935-4.645-2.726 0-4.935 2.08-4.935 4.645v2.613h9.87V9.87z"/>
            <path fill="#5FDDBB" fill-opacity=".801" fill-rule="nonzero" d="M16.548 13.065H1.452v-2.73c0-4.708 2.923-8.303 7.548-8.303s7.548 3.595 7.548 8.303v2.73zm-.58-2.73c0-4.41-2.694-7.722-6.968-7.722s-6.968 3.311-6.968 7.722v2.149h13.936v-2.149z"/>
            <path fill="#5FDDBB" fill-opacity=".8" fill-rule="nonzero" d="M9.29 2.323h-.58V0h.58z"/>
            <rect width="18" height="3.484" y="12.774" fill="#C095FF" fill-rule="nonzero" rx="1.742"/>
            <rect width="1.327" height="3.047" x="4.645" y="15.677" fill="#C095FF" rx=".664"/>
            <rect width="1.327" height="1.161" x="4.645" y="19.742" fill="#C095FF" rx=".581"/>
            <rect width="1.327" height="4.789" x="8.184" y="16.983" fill="#C095FF" rx=".664"/>
            <rect width="1.327" height="1.959" x="11.724" y="16.113" fill="#C095FF" rx=".664"/>
            <rect width="1.327" height="2.394" x="11.724" y="18.507" fill="#C095FF" rx=".664"/>
        </g>
        <g transform="translate(281 69)">
            <path fill="#5FDDBB" d="M13.935 9.871c0-2.565-2.21-4.645-4.935-4.645-2.726 0-4.935 2.08-4.935 4.645v2.613h9.87V9.87z"/>
            <path fill="#5FDDBB" fill-opacity=".801" fill-rule="nonzero" d="M16.548 13.065H1.452v-2.73c0-4.708 2.923-8.303 7.548-8.303s7.548 3.595 7.548 8.303v2.73zm-.58-2.73c0-4.41-2.694-7.722-6.968-7.722s-6.968 3.311-6.968 7.722v2.149h13.936v-2.149z"/>
            <path fill="#5FDDBB" fill-opacity=".8" fill-rule="nonzero" d="M9.29 2.323h-.58V0h.58z"/>
            <rect width="18" height="3.484" y="12.774" fill="#C095FF" fill-rule="nonzero" rx="1.742"/>
            <rect width="1.327" height="3.047" x="4.645" y="15.677" fill="#C095FF" rx=".664"/>
            <rect width="1.327" height="1.161" x="4.645" y="19.742" fill="#C095FF" rx=".581"/>
            <rect width="1.327" height="4.789" x="8.184" y="16.983" fill="#C095FF" rx=".664"/>
            <rect width="1.327" height="1.959" x="11.724" y="16.113" fill="#C095FF" rx=".664"/>
            <rect width="1.327" height="2.394" x="11.724" y="18.507" fill="#C095FF" rx=".664"/>
        </g>
        <g transform="translate(329 37)">
            <path fill="#5FDDBB" d="M13.935 9.871c0-2.565-2.21-4.645-4.935-4.645-2.726 0-4.935 2.08-4.935 4.645v2.613h9.87V9.87z"/>
            <path fill="#5FDDBB" fill-opacity=".801" fill-rule="nonzero" d="M16.548 13.065H1.452v-2.73c0-4.708 2.923-8.303 7.548-8.303s7.548 3.595 7.548 8.303v2.73zm-.58-2.73c0-4.41-2.694-7.722-6.968-7.722s-6.968 3.311-6.968 7.722v2.149h13.936v-2.149z"/>
            <path fill="#5FDDBB" fill-opacity=".8" fill-rule="nonzero" d="M9.29 2.323h-.58V0h.58z"/>
            <rect width="18" height="3.484" y="12.774" fill="#C095FF" fill-rule="nonzero" rx="1.742"/>
            <rect width="1.327" height="3.047" x="4.645" y="15.677" fill="#C095FF" rx=".664"/>
            <rect width="1.327" height="1.161" x="4.645" y="19.742" fill="#C095FF" rx=".581"/>
            <rect width="1.327" height="4.789" x="8.184" y="16.983" fill="#C095FF" rx=".664"/>
            <rect width="1.327" height="1.959" x="11.724" y="16.113" fill="#C095FF" rx=".664"/>
            <rect width="1.327" height="2.394" x="11.724" y="18.507" fill="#C095FF" rx=".664"/>
        </g>
        <g transform="translate(0 27)">
            <path fill="#5FDDBB" d="M13.935 9.871c0-2.565-2.21-4.645-4.935-4.645-2.726 0-4.935 2.08-4.935 4.645v2.613h9.87V9.87z"/>
            <path fill="#5FDDBB" fill-opacity=".801" fill-rule="nonzero" d="M16.548 13.065H1.452v-2.73c0-4.708 2.923-8.303 7.548-8.303s7.548 3.595 7.548 8.303v2.73zm-.58-2.73c0-4.41-2.694-7.722-6.968-7.722s-6.968 3.311-6.968 7.722v2.149h13.936v-2.149z"/>
            <path fill="#5FDDBB" fill-opacity=".8" fill-rule="nonzero" d="M9.29 2.323h-.58V0h.58z"/>
            <rect width="18" height="3.484" y="12.774" fill="#C095FF" fill-rule="nonzero" rx="1.742"/>
            <rect width="1.327" height="3.047" x="4.645" y="15.677" fill="#C095FF" rx=".664"/>
            <rect width="1.327" height="1.161" x="4.645" y="19.742" fill="#C095FF" rx=".581"/>
            <rect width="1.327" height="4.789" x="8.184" y="16.983" fill="#C095FF" rx=".664"/>
            <rect width="1.327" height="1.959" x="11.724" y="16.113" fill="#C095FF" rx=".664"/>
            <rect width="1.327" height="2.394" x="11.724" y="18.507" fill="#C095FF" rx=".664"/>
        </g>
        <circle cx="297" cy="43" r="2" fill="#C095FF"/>
        <circle cx="137" cy="3" r="2" fill="#C095FF"/>
        <circle cx="47" cy="53" r="2" fill="#C095FF"/>
        <circle cx="67" cy="73" r="2" fill="#C095FF"/>
        <circle cx="89.5" cy="51.5" r="4.5" fill="#C095FF" opacity=".192"/>
        <circle cx="416.5" cy="29.5" r="4.5" fill="#C095FF" opacity=".192"/>
        <circle cx="9.5" cy="89.5" r="4.5" fill="#C095FF" opacity=".192"/>
        <circle cx="363" cy="20" r="2" fill="#C095FF"/>
        <circle cx="375" cy="27" r="2" fill="#C095FF"/>
    </g>
</svg>
