<?xml version="1.0" encoding="UTF-8"?>
<svg width="80px" height="80px" viewBox="0 0 80 80" version="1.1" xmlns="http://www.w3.org/2000/svg" xmlns:xlink="http://www.w3.org/1999/xlink">
    <!-- Generator: Sketch 53.2 (72643) - https://sketchapp.com -->
    <title>Group 2</title>
    <desc>Created with Sketch.</desc>
    <defs>
        <linearGradient x1="10.9063232%" y1="20.0421875%" x2="88.3651367%" y2="80.9158936%" id="linearGradient-1">
            <stop stop-color="#05283E" offset="0%"></stop>
            <stop stop-color="#2EBA72" offset="100%"></stop>
        </linearGradient>
    </defs>
    <g id="Curency-type\mint\burn" stroke="none" stroke-width="1" fill="none" fill-rule="evenodd">
        <g id="Mintable-burnable-token-Copy-3" transform="translate(-627.000000, -511.000000)" stroke-width="2">
            <g id="Group-2" transform="translate(626.603960, 510.603960)">
                <g id="Group-18-Copy-3" transform="translate(0.396040, 0.396040)" fill="url(#linearGradient-1)" stroke="#05283E">
                    <path d="M39.6039604,78.2079208 C60.8891737,78.2079208 78.2079208,60.8891737 78.2079208,39.6039604 C78.2079208,18.3187471 60.8891737,1 39.6039604,1 C18.3187471,1 1,18.3187471 1,39.6039604 C1,60.8891737 18.3187471,78.2079208 39.6039604,78.2079208 Z" id="Path"></path>
                </g>
                <path d="M40,71 C57.0924137,71 71,57.0924137 71,40 C71,22.9075863 57.0924137,9 40,9 C22.9075863,9 9,22.9075863 9,40 C9,57.0924137 22.9075863,71 40,71 Z" id="Path" stroke="#34D080"></path>
            </g>
        </g>
    </g>
</svg>