<?xml version="1.0" encoding="UTF-8"?>
<svg width="35px" height="35px" viewBox="0 0 35 35" version="1.1" xmlns="http://www.w3.org/2000/svg" xmlns:xlink="http://www.w3.org/1999/xlink">
    <!-- Generator: Sketch 53.2 (72643) - https://sketchapp.com -->
    <title>Group 3</title>
    <desc>Created with Sketch.</desc>
    <g id="Fuse-Dashboard" stroke="none" stroke-width="1" fill="none" fill-rule="evenodd">
        <g id="Fuse--New-Business-Form-01" transform="translate(-644.000000, -329.000000)" fill="#E1E3EA">
            <g id="Group-12" transform="translate(129.000000, 143.000000)">
                <g id="upload-button" transform="translate(515.000000, 186.000000)">
                    <g id="Group-3">
                        <path d="M32.6536148,8.71568095 C31.0886663,6.03464513 28.9659135,3.9118924 26.2847979,2.34702371 C23.6032034,0.78223482 20.6758686,2.13162821e-14 17.5005587,2.13162821e-14 C14.325568,2.13162821e-14 11.3973553,0.78223482 8.71623964,2.34702371 C6.03496438,3.91165297 3.91221165,6.0344057 2.34726314,8.71568095 C0.78223482,11.3971158 0,14.3253286 0,17.5000798 C0,20.6749907 0.782474255,23.6027245 2.34702371,26.284319 C3.9118924,28.9653549 6.03464513,31.0881076 8.71592039,32.6531359 C11.3973553,34.217845 14.3253286,35.0001596 17.5002394,35.0001596 C20.6751503,35.0001596 23.6034429,34.217845 26.2847181,32.6531359 C28.9658337,31.0886663 31.0885067,28.9653549 32.6532955,26.284319 C34.217845,23.602964 35,20.674831 35,17.5000798 C35.0000798,14.3250093 34.217845,11.3967168 32.6536148,8.71568095 Z M30.5079947,25.0394514 C29.1640101,27.3407868 27.3413991,29.1633988 25.040065,30.5080612 C22.7387309,31.8520465 20.225652,32.523362 17.5003446,32.523362 C14.7757144,32.523362 12.262442,31.8520465 9.96081769,30.5080612 C7.65948357,29.1633988 5.8368726,27.3407868 4.49288805,25.0394514 C3.14861332,22.738116 2.47671778,20.2249389 2.47671778,17.5001137 C2.47671778,14.7750949 3.14890351,12.2619179 4.49288805,9.96058247 C5.8365824,7.65924705 7.65967703,5.83624813 9.96081769,4.49235956 C12.2621518,3.14827753 14.7753275,2.47647834 17.5003446,2.47647834 C20.2255553,2.47647834 22.7387309,3.14827753 25.040065,4.49235956 C27.3413991,5.83634486 29.1641068,7.65924705 30.5079947,9.96058247 C31.8520759,12.2619179 32.5236813,14.7750949 32.5236813,17.5001137 C32.5236813,20.2249389 31.8520759,22.738116 30.5079947,25.0394514 Z" id="Shape" fill-rule="nonzero"></path>
                        <path d="M18.0180629,8.28325113 C17.8449443,8.13641391 17.6648119,8.06269494 17.4762628,8.06269494 C17.2877963,8.06269494 17.1070862,8.13641391 16.9343802,8.28325113 L9.41915234,16.0993506 C9.26195935,16.2951049 9.18365166,16.4915458 9.18365166,16.6873002 C9.18365166,16.916095 9.25420284,17.1037823 9.39571779,17.250877 C9.53706771,17.3978859 9.71777777,17.4712616 9.93760041,17.4712616 L14.4607979,17.4712616 L14.4607979,24.7499704 C14.4607979,24.9787653 14.531349,25.16671 14.672864,25.313204 C14.8141314,25.4600412 14.994924,25.5335027 15.2147466,25.5335027 L19.7382741,25.5335027 C19.9579317,25.5335027 20.1387243,25.4600412 20.2796616,25.313204 C20.4208465,25.16671 20.4919753,24.9787653 20.4919753,24.7499704 L20.4919753,17.4712616 L25.0150902,17.4712616 C25.3607498,17.4712616 25.5960029,17.307947 25.7215923,16.9810604 C25.8472642,16.6709086 25.7927211,16.3850438 25.5567253,16.1236375 L18.0180629,8.28325113 Z" id="Path"></path>
                    </g>
                </g>
            </g>
        </g>
    </g>
</svg>