<?xml version="1.0" encoding="UTF-8"?>
<svg width="31px" height="28px" viewBox="0 0 31 28" version="1.1" xmlns="http://www.w3.org/2000/svg" xmlns:xlink="http://www.w3.org/1999/xlink">
    <!-- Generator: Sketch 53.2 (72643) - https://sketchapp.com -->
    <title>Shape</title>
    <desc>Created with Sketch.</desc>
    <g id="Symbols" stroke="none" stroke-width="1" fill="none" fill-rule="evenodd">
        <g id="coin-wallet-02-copy" fill="#FFFFFF" fill-rule="nonzero">
            <path d="M30.416698,15.2443719 L29.6417397,15.2443719 L29.6417397,11.303861 C29.6417397,9.17275166 27.8735014,7.44010265 25.6986184,7.44010265 L3.94312134,7.44010265 C3.76146444,7.44010265 3.60147304,7.52338738 3.49481211,7.65076403 C3.41148325,7.74874606 3.35981936,7.87448968 3.35981936,8.01166453 C3.35981936,8.32684008 3.62147196,8.58322641 3.94312134,8.58322641 L25.6986184,8.58322641 C27.2302027,8.58322641 28.4751357,9.80310276 28.4751357,11.303861 L28.4751357,15.2427388 L25.7852804,15.2427388 C24.1836998,15.2427388 22.8804365,16.5197714 22.8804365,18.089117 C22.8804365,19.6584626 24.1836998,20.9354952 25.7852804,20.9354952 L28.4751357,20.9354952 L28.4751357,24.1329756 C28.4751357,25.6337338 27.2302027,26.8536102 25.6986184,26.8536102 L3.94312134,26.8536102 C2.41153701,26.8568762 1.16660395,25.6369999 1.16660395,24.1362417 L1.16660395,5.77440803 L1.16660395,5.30409425 C1.16660395,5.19631401 1.17493683,5.09179984 1.18660287,4.98728566 C1.34659427,3.63513356 2.5215311,2.58182667 3.94312134,2.58182667 L5.70969303,2.58182667 C5.69636041,2.60142307 5.68136122,2.61938645 5.6680286,2.63898285 C4.95973335,3.63350052 4.54308908,4.84194564 4.54308908,6.14510673 C4.54308908,6.4129243 4.76474383,6.62848478 5.03639589,6.62848478 C5.30804795,6.62848478 5.5297027,6.41129126 5.5297027,6.14510673 C5.5297027,6.14510673 5.5297027,6.14510673 5.5297027,6.14510673 C5.5297027,3.28893036 7.90124187,0.966756095 10.8144186,0.966756095 C11.2393957,0.966756095 11.6510403,1.01738015 12.0476856,1.11046308 C10.4277727,2.2225592 9.36616311,4.06462149 9.36616311,6.14510673 C9.36616311,6.14510673 9.36616311,6.14510673 9.36616311,6.14510673 C9.36616311,6.4129243 9.58781786,6.62848478 9.85946992,6.62848478 C10.131122,6.62848478 10.3527767,6.41129126 10.3527767,6.14510673 C10.3527767,6.14510673 10.3527767,6.14510673 10.3527767,6.14510673 C10.3527767,4.14137408 11.5210473,2.4005599 13.2259556,1.53995101 C13.4092791,1.44686807 13.5976023,1.36358334 13.7925918,1.29336288 C13.9909145,1.21987636 14.1959034,1.1594541 14.4042256,1.11046308 C14.7992043,1.01738015 15.2125155,0.966756095 15.6374926,0.966756095 C16.0624698,0.966756095 16.4741143,1.01738015 16.8707596,1.11046308 C16.4107844,1.42563863 15.9958067,1.79960341 15.6374926,2.22092616 C15.5291651,2.34830281 15.4275039,2.48057856 15.3308424,2.61448734 C15.2308478,2.75492826 15.1358529,2.89863525 15.0458577,3.04724134 C14.500887,3.95684125 14.1875706,5.01504724 14.1875706,6.14510673 C14.1875706,6.14510673 14.1875706,6.14510673 14.1875706,6.14510673 C14.1875706,6.4129243 14.4092253,6.62848478 14.6808774,6.62848478 C14.9525294,6.62848478 15.1741842,6.41129126 15.1741842,6.14510673 C15.1741842,6.14510673 15.1741842,6.14510673 15.1741842,6.14510673 C15.1741842,5.39391112 15.3391753,4.67864225 15.635826,4.03359384 C15.7208215,3.84906101 15.8141498,3.66942727 15.9208107,3.49632567 C16.0158056,3.34118745 16.1174668,3.19094833 16.2274609,3.04724134 C16.7074351,2.41852327 17.3307349,1.90085151 18.0490296,1.53831798 C18.2323531,1.44523504 18.4206763,1.36195031 18.6156658,1.29172985 C18.8139885,1.21824332 19.0189775,1.15782107 19.2272996,1.10883005 C19.6222784,1.01574711 20.0355895,0.965123061 20.4605666,0.965123061 C23.3754099,0.965123061 25.7452825,3.28893036 25.7452825,6.1434737 C25.7452825,6.1434737 25.7452825,6.1434737 25.7452825,6.1434737 C25.7452825,6.41129126 25.9669373,6.62685174 26.2385893,6.62685174 C26.5102414,6.62685174 26.7318961,6.40965823 26.7318961,6.1434737 C26.7385624,2.7565613 23.9237138,0 20.4655664,0 C19.6106123,0 18.7973227,0.168202496 18.0540294,0.473579844 C17.310736,0.168202496 16.4957798,0 15.6408258,0 C14.7858717,0 13.9725821,0.168202496 13.2292887,0.473579844 C12.4859954,0.168202496 11.6710392,0 10.8177517,0 C9.28450083,0 7.87957637,0.542167269 6.78796839,1.44033594 L3.94312134,1.44033594 C1.76823827,1.44033594 0,3.17298495 0,5.30409425 L0,24.1362417 C0,26.267351 1.76823827,28 3.94312134,28 L25.6986184,28 C27.8735014,28 29.6417397,26.267351 29.6417397,24.1362417 L29.6417397,20.9387612 L30.416698,20.9387612 C30.7383474,20.9387612 31,20.6823749 31,20.3671993 L31,15.8159337 C31,15.5007582 30.7383474,15.2443719 30.416698,15.2443719 Z M29.8333961,19.7956375 L29.6417397,19.7956375 L29.0584377,19.7956375 L28.4751357,19.7956375 L25.7852804,19.7956375 C24.8269985,19.7956375 24.0470405,19.0313776 24.0470405,18.0923831 C24.0470405,17.1533885 24.8269985,16.3891287 25.7852804,16.3891287 L28.4751357,16.3891287 L29.0584377,16.3891287 L29.6417397,16.3891287 L29.8333961,16.3891287 L29.8333961,19.7956375 L29.8333961,19.7956375 Z" id="Shape"></path>
        </g>
    </g>
</svg>