<?xml version="1.0" encoding="UTF-8"?>
<svg width="41px" height="30px" viewBox="0 0 41 30" version="1.1" xmlns="http://www.w3.org/2000/svg" xmlns:xlink="http://www.w3.org/1999/xlink">
    <!-- Generator: Sketch 53.2 (72643) - https://sketchapp.com -->
    <title>Group Copy</title>
    <desc>Created with Sketch.</desc>
    <g id="Page-1" stroke="none" stroke-width="1" fill="none" fill-rule="evenodd">
        <g id="Group-Copy" transform="translate(1.000000, 0.000000)">
            <g id="Group-2-Copy-2">
                <path d="M7,25.6254017 C7.43005085,25.5527843 7.84552938,25.4369129 8.24186872,25.2823841 L8.24186872,25.860259 C8.24186872,27.4682142 9.56712005,28.7752245 11.1975163,28.7717252 L34.3565937,28.7717252 C35.9869899,28.7717252 37.3122413,27.4647148 37.3122413,25.8567596 L37.3122413,22.4308877 L34.4488468,22.4308877 C32.7439385,22.4308877 31.3565937,21.0626385 31.3565937,19.3811968 C31.3565937,17.699755 32.7439385,16.3315059 34.4488468,16.3315059 L37.3122413,16.3315059 L37.3122413,12.1112796 C37.3122413,10.5033244 35.9869899,9.19631401 34.3565937,9.19631401 L11.1975163,9.19631401 C10.8551153,9.19631401 10.5765819,8.92161437 10.5765819,8.58392628 C10.5765819,8.43695323 10.6315789,8.30222792 10.7202839,8.19724717 C10.8338261,8.06077219 11.0041396,7.97153855 11.1975163,7.97153855 L34.3565937,7.97153855 C36.6717918,7.97153855 38.55411,9.82794821 38.55411,12.1112796 L38.55411,16.3332556 L39.3790656,16.3332556 C39.7214666,16.3332556 40,16.6079552 40,16.9456433 L40,21.8219993 C40,22.1596874 39.7214666,22.434387 39.3790656,22.434387 L38.55411,22.434387 L38.55411,25.860259 C38.55411,28.1435903 36.6717918,30 34.3565937,30 L11.1975163,30 C8.88231815,30 7,28.1435903 7,25.860259 L7,25.6254017 Z M7,12.9460269 L7,5.68295812 C7,3.39962674 8.88231815,1.54321708 11.1975163,1.54321708 L14.2259018,1.54321708 C15.3879361,0.580893503 16.8835009,0 18.5156712,0 C19.4240095,0 20.2915435,0.18021696 21.0827912,0.507406975 C21.874039,0.18021696 22.7397989,0 23.6499113,0 C24.5600237,0 25.4275577,0.18021696 26.2188054,0.507406975 C27.0100532,0.18021696 27.8758131,0 28.7859255,0 C32.4671792,0 35.463631,2.95345853 35.4565346,6.58229325 C35.4565346,6.86749096 35.2205795,7.1001983 34.9314015,7.1001983 C34.6422235,7.1001983 34.4062685,6.86924064 34.4062685,6.58229325 C34.4062685,3.52385396 31.8835009,1.03406042 28.7806032,1.03406042 C28.3282082,1.03406042 27.8882318,1.08830048 27.4677705,1.18803219 C27.2460083,1.24052257 27.0277942,1.3052607 26.8166765,1.38399627 C26.609107,1.45923247 26.4086339,1.54846611 26.2134831,1.64819783 C25.4488468,2.03662662 24.7853341,2.59127493 24.2743938,3.26490143 C24.1573034,3.41887321 24.0490834,3.5798437 23.9479598,3.74606322 C23.8344175,3.93152922 23.735068,4.12399393 23.644589,4.32170769 C23.3287995,5.01283098 23.1531638,5.77919048 23.1531638,6.58404293 C23.1531638,6.86924064 22.9172088,7.10194798 22.6280308,7.10194798 C22.3388527,7.10194798 22.1028977,6.87099032 22.1028977,6.58404293 C22.1028977,5.3732649 22.4364281,4.23947276 23.0165582,3.26490143 C23.1123596,3.10568063 23.2134831,2.95170885 23.319929,2.80123644 C23.4228267,2.65776274 23.5310467,2.51603873 23.6463631,2.37956375 C24.0277942,1.92814651 24.4695446,1.52746996 24.9591957,1.18978187 C24.5369604,1.09005016 24.0987581,1.0358101 23.6463631,1.0358101 C23.1939681,1.0358101 22.7539917,1.09005016 22.3335305,1.18978187 C22.1117682,1.24227225 21.8935541,1.30701038 21.6824364,1.38574595 C21.4748669,1.46098215 21.2743938,1.55021579 21.0792431,1.64994751 C19.2643406,2.57202846 18.0206978,4.43718652 18.0206978,6.58404293 C18.0206978,6.86924064 17.7847428,7.10194798 17.4955648,7.10194798 C17.2063868,7.10194798 16.9704317,6.87099032 16.9704317,6.58404293 C16.9704317,4.35495159 18.1005322,2.38131343 19.8249556,1.18978187 C19.4027203,1.09005016 18.964518,1.0358101 18.512123,1.0358101 C15.4109994,1.0358101 12.8864577,3.52385396 12.8864577,6.58404293 C12.8864577,6.86924064 12.6505027,7.10194798 12.3613247,7.10194798 C12.0721467,7.10194798 11.8361916,6.87099032 11.8361916,6.58404293 C11.8361916,5.1877989 12.2797161,3.89303628 13.0337079,2.82748163 C13.0479007,2.80648548 13.0638675,2.78723901 13.0780603,2.76624286 L11.1975163,2.76624286 C9.68421053,2.76624286 8.43347132,3.89478596 8.26315789,5.34352035 C8.25073921,5.45549983 8.24186872,5.5674793 8.24186872,5.68295812 L8.24186872,6.18686574 L8.24186872,13.2890445 C7.84552938,13.1345156 7.43005085,13.0186443 7,12.9460269 Z M29.0944202,2.14285714 C31.5794973,2.14285714 33.6022757,4.36088176 33.6129032,7.09300514 C33.6129032,7.09884717 33.6129032,7.1046892 33.6129032,7.11053124 C33.6129032,7.32473906 33.4534899,7.5 33.2586513,7.5 C33.0638128,7.5 32.9043994,7.32473906 32.9043994,7.11053124 C32.9043994,7.1046892 32.9043994,7.09884717 32.9043994,7.09300514 C32.8955431,4.92755881 31.3846588,3.14573921 29.461071,2.94321545 C29.3406253,2.93153139 29.2201797,2.92374202 29.0961915,2.92374202 C28.9987722,2.92374202 28.9031242,2.92958405 28.8074762,2.93737342 C28.6020101,2.95295217 28.4000865,2.98800436 28.2017054,3.04058265 C27.6703276,3.17884406 27.1743749,3.44173547 26.7351026,3.82341486 C26.581003,3.95583424 26.3595956,3.92857143 26.2373787,3.75915252 C26.116933,3.5897336 26.1417306,3.34631563 26.2958302,3.2119489 C26.7014486,2.85947967 27.1495773,2.59074622 27.6260461,2.41159059 C27.8226559,2.33564418 28.0263508,2.27917121 28.2335881,2.23632965 C28.4479105,2.19154074 28.6675467,2.16427792 28.8889541,2.15259386 C28.9580333,2.14869917 29.0253411,2.14285714 29.0944202,2.14285714 Z M38.7581313,21.2096116 L38.7581313,17.5597807 L38.55411,17.5597807 L37.9331756,17.5597807 L37.3122413,17.5597807 L34.4488468,17.5597807 C33.4287404,17.5597807 32.5984624,18.3786306 32.5984624,19.3846961 C32.5984624,20.3907617 33.4287404,21.2096116 34.4488468,21.2096116 L37.3122413,21.2096116 L37.9331756,21.2096116 L38.55411,21.2096116 L38.7581313,21.2096116 Z" id="Combined-Shape" fill="#FFFFFF" fill-rule="nonzero"></path>
                <path d="M6.5,26 C7.82114768,26 9.05023593,25.6058467 10.0760872,24.9287176 C11.8377012,23.765937 13,21.7687032 13,19.5 C13,15.9101491 10.0898509,13 6.5,13 C2.91014913,13 0,15.9101491 0,19.5 C0,23.0898509 2.91014913,26 6.5,26 Z" id="Oval-Copy" stroke="#FFFFFF"></path>
            </g>
            <path d="M4,17.5808824 C4.0152906,17.0514679 4.08027466,16.6488984 4.19495413,16.3731618 C4.3096336,16.0974251 4.493118,15.851104 4.74541284,15.6341912 C4.99770768,15.4172783 5.27866818,15.2573535 5.58830275,15.1544118 C5.89793733,15.0514701 6.22476892,15 6.56880734,15 C7.26452947,15 7.84365212,15.1966892 8.30619266,15.5900735 C8.7687332,15.9834578 9,16.5073497 9,17.1617647 C9,17.4558838 8.94074983,17.7224253 8.82224771,17.9613971 C8.70374558,18.2003688 8.45145453,18.49816 8.06536697,18.8547794 C7.67927942,19.2113988 7.42316577,19.4650728 7.29701835,19.6158088 C7.17087093,19.7665449 7.07530614,19.9466901 7.0103211,20.15625 C6.94533607,20.3658099 6.91666663,20.6470571 6.92431193,21 L6.02981651,21 C6.02981651,20.5882332 6.06421984,20.2591924 6.13302752,20.0128676 C6.20183521,19.7665429 6.28593222,19.5514715 6.3853211,19.3676471 C6.48470998,19.1838226 6.71406548,18.9136047 7.0733945,18.5569853 C7.43272351,18.2003659 7.69074845,17.9411773 7.84747706,17.7794118 C8.00420568,17.6176463 8.08256881,17.369487 8.08256881,17.0349265 C8.08256881,16.700366 7.95260069,16.4044131 7.69266055,16.1470588 C7.43272041,15.8897046 7.05046124,15.7610294 6.54587156,15.7610294 C5.42965803,15.7610294 4.87155963,16.367641 4.87155963,17.5808824 L4,17.5808824 Z M6.935,22.96 L6.065,22.96 L6.065,22.04 L6.935,22.04 L6.935,22.96 Z" id="?" fill="#FFFFFF" fill-rule="nonzero"></path>
        </g>
    </g>
</svg>