<?xml version="1.0" encoding="UTF-8"?>
<svg width="36px" height="36px" viewBox="0 0 36 36" version="1.1" xmlns="http://www.w3.org/2000/svg" xmlns:xlink="http://www.w3.org/1999/xlink">
    <title>Group 23</title>
    <g id="Page-1" stroke="none" stroke-width="1" fill="none" fill-rule="evenodd">
        <g id="First-time-use-Copy-2" transform="translate(-530.000000, -685.000000)">
            <g id="Group-23" transform="translate(531.000000, 686.000000)">
                <circle id="Oval" stroke="#CCDBE3" stroke-width="2" fill="#FFFFFF" cx="16.632" cy="16.632" r="16.632"></circle>
                <path d="M16.66728,9.072 C17.3436742,9.072 17.892,9.62032582 17.892,10.29672 L17.892,15.372 L22.96728,15.372 C23.6436742,15.372 24.192,15.9203258 24.192,16.59672 L24.192,16.66728 C24.192,17.3436742 23.6436742,17.892 22.96728,17.892 L17.892,17.892 L17.892,22.96728 C17.892,23.6436742 17.3436742,24.192 16.66728,24.192 L16.59672,24.192 C15.9203258,24.192 15.372,23.6436742 15.372,22.96728 L15.372,17.892 L10.29672,17.892 C9.62032582,17.892 9.072,17.3436742 9.072,16.66728 L9.072,16.59672 C9.072,15.9203258 9.62032582,15.372 10.29672,15.372 L15.372,15.372 L15.372,10.29672 C15.372,9.62032582 15.9203258,9.072 16.59672,9.072 L16.66728,9.072 Z" id="Combined-Shape" fill="#92A9B6"></path>
            </g>
        </g>
    </g>
</svg>