<?xml version="1.0" encoding="UTF-8"?>
<svg width="144px" height="154px" viewBox="0 0 144 154" version="1.1" xmlns="http://www.w3.org/2000/svg" xmlns:xlink="http://www.w3.org/1999/xlink">
    <!-- Generator: Sketch 55.2 (78181) - https://sketchapp.com -->
    <title>Group 9</title>
    <desc>Created with Sketch.</desc>
    <defs>
        <polygon id="path-1" points="0.119300478 0.56899224 14.0909351 0.56899224 14.0909351 45.5998242 0.119300478 45.5998242"></polygon>
    </defs>
    <g id="Buisniss-list" stroke="none" stroke-width="1" fill="none" fill-rule="evenodd">
        <g id="buisniss-list--copy-2" transform="translate(-1053.000000, -282.000000)">
            <g id="Group-9" transform="translate(1053.000000, 282.000000)">
                <path d="M14.6872634,144.96289 C14.7351407,144.904477 14.7885422,144.849308 14.8382609,144.791644 C14.8621995,144.821849 14.8842967,144.853302 14.9082353,144.883008 C14.8566752,144.919704 14.8069565,144.959645 14.753555,144.995092 C14.6927877,145.035033 14.6320205,145.071978 14.5694118,145.109173 C14.6080818,145.060745 14.6467519,145.010569 14.6872634,144.96289 Z M135.851991,139.098517 C133.967583,138.518057 131.953926,138.076115 129.944016,137.666428 C129.054261,137.484903 128.160759,137.307847 127.27475,137.119061 C126.832682,137.024668 126.392487,136.925388 125.954166,136.825969 C125.927941,136.819964 125.90359,136.814658 125.881112,136.809632 C125.87362,136.807816 125.868,136.806001 125.860507,136.804046 C125.579532,136.72627 125.292937,136.655196 125.011962,136.575884 C124.174655,136.339483 123.3617,136.073619 122.595574,135.765306 C122.503788,135.728303 122.310852,135.638239 122.241545,135.606263 C122.170364,135.570936 122.097311,135.536306 122.02613,135.500141 C121.597175,135.280775 121.188824,135.048284 120.780473,134.815374 C119.251967,133.940565 117.656027,133.048721 115.689199,132.513502 C111.525145,131.380789 107.128817,131.431755 102.674421,131.790755 C98.2930782,132.143751 93.947326,132.691955 89.5997006,133.159172 C88.1236434,133.317657 86.6494593,133.476141 85.1734021,133.634626 C82.0676878,133.519847 78.9544808,133.472651 75.8412738,133.493875 C70.1430935,133.532554 42.7202148,132.106282 42.7202148,132.106282 C44.5559205,131.622728 40.379781,131.489619 39.3364258,130.550019 C38.1132464,129.451097 29.8980561,130.252544 27.9368481,130.769889 C23.9132809,131.830411 19.8428845,132.845972 15.8773856,133.979104 C12.1104426,135.055964 8.3753435,136.372436 5.51876067,138.18475 C2.47486094,140.114915 0.436852995,142.452673 0.0472338287,145.075425 C-0.333019492,147.633386 1.5869788,150.503011 5.64988251,151.743661 C9.69967403,152.980263 14.1540701,152.46194 18.4155297,151.966657 C18.8482318,151.91611 19.282807,151.86626 19.7192554,151.820181 C19.8972064,151.80133 20.8319178,151.72509 20.6783179,151.729698 C21.6954487,151.668259 22.7144527,151.630977 23.7390762,151.629999 C24.7374753,151.629022 25.7358744,151.65653 26.7305272,151.705541 C27.2812389,151.73263 27.8300774,151.769075 28.378916,151.805938 C28.7067206,151.834145 29.0363983,151.862909 29.3660761,151.893908 C33.620043,152.294659 37.7897174,152.948147 42.0249526,153.40908 C46.6235827,153.90925 51.2072274,154.134201 55.8770379,153.917768 C58.3795917,153.801732 60.8671603,153.602753 63.3528556,153.402936 C64.420562,153.317061 65.4901415,153.229929 66.5578479,153.143635 C66.5878186,153.141401 66.614043,153.139446 66.6309015,153.13805 C66.9287354,153.115708 67.2284424,153.093088 67.5262763,153.071444 C68.1912513,153.023131 68.8562263,152.978029 69.5230745,152.936278 C74.1516753,152.646677 78.8027541,152.513047 83.4538329,152.439459 C92.8252977,152.291168 102.206128,152.273015 111.58134,152.202081 C116.284867,152.166335 120.986521,152.130728 125.690049,152.095121 C127.928486,152.078086 130.168796,152.075712 132.407233,152.041781 C134.806763,152.005336 137.301824,151.830514 139.405393,151.10651 C143.365272,149.744098 144.625915,147.010198 143.721174,144.515072 C142.840785,142.087809 139.506544,140.225087 135.851991,139.098517 Z" id="Combined-Shape" fill="#EBEBEB"></path>
                <g id="Group-8" transform="translate(22.000000, 0.000000)">
                    <path d="M47.2173967,51.8721883 C46.9319152,52.2086358 46.6707301,52.5597114 46.3913227,52.9010349 C46.8590264,52.0946581 45.7717672,51.0140035 45.0064339,51.7350494 L43.9009525,52.7834002 C43.4575451,52.5773871 44.599471,49.1696375 46.0693968,47.2819965 C46.3123597,46.9681008 45.8142857,46.6066635 45.5713227,46.9211688 C42.5039155,50.8591889 39.7827305,55.0361354 37.4502862,59.4294567 C36.2962122,61.6127082 35.2332493,63.8453297 34.2796198,66.1181786 C33.799768,67.2536888 33.3502865,68.4013891 32.9251013,69.557013 C32.7368051,70.0568082 32.2022866,71.0301897 32.0625829,71.7427025 C31.2061385,72.9336778 30.1856941,74.0143325 29.4932497,75.3198949 C28.7825831,76.6675133 28.2541387,78.9031823 29.1409534,80.2837141 C29.189546,80.3653879 29.3292497,80.4184149 29.4264349,80.3940347 C30.1917682,80.1971642 30.3011015,79.3017994 30.5683608,78.6490182 C30.7991756,78.0894914 30.99962,77.077711 31.4005089,76.6297239 C31.5098422,76.2725532 31.5462866,76.2938859 31.5159163,76.6949411 C31.5462866,76.9472767 31.5159163,77.1935172 31.4187311,77.4336627 C31.3215459,77.898716 31.1575459,78.2997711 30.9631756,78.7325206 C30.8416941,78.9970463 31.1332496,79.2054974 31.3762126,79.1238236 C32.4513236,78.7629959 32.6639162,77.6853888 32.8765088,76.7010361 C33.1619902,75.3985212 33.4596198,74.3282282 33.4474717,73.0074281 C33.9030272,72.7965389 38.3249528,65.6677535 38.5193232,65.3538577 C41.3619897,60.8282736 44.2471747,56.3276792 47.7215448,52.233016 C47.9766559,51.9294819 47.4785819,51.5698732 47.2173967,51.8721883" id="Fill-1" fill="#E9B399"></path>
                    <path d="M40.7992721,70.9779012 C40.7250693,70.9217219 40.6570502,70.8608609 40.589031,70.8 C39.4388886,72.017219 38.4804366,73.0781892 38.4433352,73.2695501 C37.1447873,73.5826328 36.1801518,74.1268702 34.9743573,74.7126568 C34.0653738,75.1550691 33.0636369,75.6191338 32.9956177,76.7076085 C32.977067,76.9528079 33.2553273,77.1728436 33.4841191,76.996698 C33.8551327,76.7070233 34.2075957,76.4536311 34.640445,76.2488106 C34.8506861,76.101925 35.0794779,76.0123892 35.3391874,75.9802031 C35.7225682,75.8502884 35.7534861,75.8795485 35.4319409,76.0679833 C35.0980286,76.5537005 34.1581272,76.9885052 33.6696259,77.3407964 C33.1007383,77.752193 32.2535904,78.0763946 32.2597403,78.8383269 C32.2597403,78.9319591 32.3525273,79.0513402 32.4452808,79.0794299 C34.0282725,79.5598803 36.0812148,78.5152957 37.2128065,77.5186977 C38.3134804,76.5519449 39.1049763,75.3341407 40.0510612,74.245666 C40.7127022,73.9390205 41.5227487,73.1969851 41.9679652,72.9014584 C42.3204281,72.6632814 42.660524,72.4075483 43.012987,72.1641045 C42.2585925,71.8937415 41.5165652,71.5116049 40.7992721,70.9779012" id="Fill-3" fill="#E9B399"></path>
                    <path d="M52.5642386,122.480627 C52.7492204,121.398709 49.3039345,120.768611 49.2461277,121.545006 C49.1305141,123.097116 47.8414222,135.524882 47.8009575,137.082435 C47.7778347,138.115361 47.7315893,139.116305 48.6911823,139.19932 C50.0149583,139.314997 52.194275,124.638339 52.5642386,122.480627" id="Fill-7" fill="#E9B399"></path>
                    <path d="M67.3141894,121.808824 C67.2331209,120.769947 63.18645,121.226102 63.3283199,121.948883 C63.6188155,123.393802 65.476636,135.081649 65.8549558,136.509222 C66.0981614,137.456225 66.3210999,138.379457 67.4155251,138.170011 C68.9423158,137.878972 67.4763265,123.881438 67.3141894,121.808824" id="Fill-11" fill="#E9B399"></path>
                    <path d="M47.8087043,141.541781 C47.1501041,142.013653 43.3711453,144.901298 43.0130714,142.90364 C42.853217,142.012325 44.2023884,141.020133 44.7203167,140.538305 C45.7881443,139.549431 46.9007312,138.620288 48.0516831,137.736274 C48.2882676,137.555754 49.4072486,137.545799 49.7205633,137.638714 C50.3663752,137.831179 50.1617616,138.563875 50.033878,139.019156 C49.7397459,140.102272 48.2243259,141.243791 47.8087043,141.541781 Z" id="Fill-5" fill="#25435A"></path>
                    <path d="M68.1026099,137.802724 C68.0960756,138.894798 66.9133574,140.368261 66.5801054,140.759941 C66.057357,141.378011 63.0972945,145.095435 62.2151567,143.327407 C61.8230954,142.538259 62.8881952,141.247451 63.2737221,140.657037 C64.064379,139.446623 64.913845,138.278014 65.8090516,137.142849 C65.9920135,136.909385 66.2664564,136.907455 66.4690214,137.015505 C66.7696017,136.770464 67.0963194,136.597456 67.4295714,136.6 C68.1163321,136.605174 68.1091443,137.343513 68.1026099,137.802724" id="Fill-9" fill="#25435A"></path>
                    <path d="M67.8784192,76.263268 C67.6296411,75.1371427 65.8578556,75.5572763 66.1127014,76.6834017 C66.2522599,77.3124087 66.1187692,78.4994057 65.9063976,78.5644548 C65.8760588,78.2171284 63.910105,76.2996717 63.9889859,77.4657814 C64.0011214,77.7426877 64.0193247,78.0189972 64.037528,78.2965002 C63.9283083,77.8853183 63.8190887,77.4729427 63.709869,77.0617608 C63.533904,76.4082858 62.6965533,76.2483485 62.2293359,76.568223 C61.8288638,76.0394752 60.742735,76.0985565 60.6092443,76.8397583 C60.5849733,76.9513563 60.5728378,77.0635511 60.5546345,77.1745523 C60.5000247,77.178133 60.4514826,77.1841008 60.4029405,77.1948429 C60.3968728,77.1297938 60.390805,77.0653414 60.3847372,77.0002923 C60.2937209,75.8801348 58.5583419,75.7673432 58.5644096,76.9435982 C58.5644096,77.2449725 58.5765452,77.5445564 58.5826129,77.8453339 C58.4248512,77.7844623 58.2610217,77.7588007 58.10326,77.7767042 C57.8302108,77.551121 57.4358065,77.4932333 57.1142153,77.6066216 C56.8533017,77.221698 53.9711163,77.5940892 54.0014551,77.3356831 C54.1228103,76.2179127 49.1593837,77.0026795 48.9591476,78.1407404 C47.4300725,87.0226292 47.2055654,111.969857 46.738348,116.434374 C46.258995,120.971699 47.13882,127.189558 47.3511916,131.735834 C47.3754626,132.155968 47.6788506,132.447794 48.0611194,132.565956 C49.1654514,132.904331 50.1120218,133.090527 51.2588282,133.19377 C51.7685199,133.239722 52.2053985,133.033236 52.3510248,132.515827 C53.6070508,127.946873 54.8206025,123.361209 56.1433739,118.808368 C56.7501498,116.70949 57.6299748,101.153205 58.80712,93.0602606 C59.9478586,100.854218 61.4951371,116.122855 61.6832376,118.245007 C62.0776419,122.79009 63.1516352,127.236107 64.2256285,131.66243 C64.3287804,132.071225 64.6807104,132.300986 65.0811825,132.346938 C66.2279889,132.475246 67.1988302,132.484197 68.3456366,132.373196 C68.8492606,132.32426 69.2436649,132.041386 69.2800715,131.50667 C69.6502047,126.786731 69.9657282,122.059034 70.3965391,117.343272 C70.8091467,112.804157 69.8929151,85.2161737 67.8784192,76.263268" id="Fill-13" fill="#25435A"></path>
                    <path d="M50.0689646,37.273916 C50.1811571,37.1571686 50.3045689,37.0652734 50.4448096,37.015569 C50.4392,36.8514291 50.4223711,36.6919129 50.4167615,36.5260391 C50.4055422,36.1792646 50.5570022,35.9584849 50.7645584,35.8376918 C50.6916332,35.6013072 50.6243177,35.3655006 50.5513925,35.129694 C50.2484727,34.1084432 51.3367403,33.4258755 51.9089223,34.1668169 C51.7350239,33.6183353 51.5611254,33.0686978 51.3816173,32.5184824 C51.0338205,31.424409 52.514762,30.6262498 52.8681685,31.7278366 C53.838634,34.7730942 54.8147091,37.8148841 55.779565,40.8612977 C56.3405277,42.635049 56.4639395,43.6418508 54.7922706,44.4550369 C53.7600992,44.9572819 51.4882003,46.4027534 51.0786975,45.011032 C50.3662748,42.5789871 49.1658146,40.0729638 48.9919162,38.3107716 C48.9246007,37.5848571 49.5640982,37.1068863 50.0689646,37.273916" id="Fill-15" fill="#E9B399"></path>
                    <path d="M65.4170664,48.5109543 C63.0430862,44.0769781 60.692669,41.3327272 55.4911193,40.8631291 C55.4381024,40.858989 55.396867,40.8660862 55.3497408,40.8649034 C50.124628,40.246264 46.1130138,44.1603702 43.267772,47.9088751 C38.8791485,53.7019652 33.3536064,62.1020937 32.2755955,69.4133934 C32.1990155,69.931489 32.3993017,70.3070492 32.8882356,70.504588 C33.029614,70.6311547 33.1709925,70.7577215 33.3064802,70.8842882 C33.5774556,71.3627578 34.3196926,71.4881417 34.6967019,71.0646754 C38.531593,66.7625889 42.3664842,62.4616852 46.2013753,58.1595987 C46.5724938,61.717662 47.2676046,65.1864189 47.0378646,68.8740061 C46.8375785,71.9879029 45.7006599,76.2864408 48.027514,78.8473474 C49.5178787,80.582613 52.5339528,81.2396955 54.0066453,81.4951948 C55.1494546,81.6927335 56.2569194,81.5827269 57.3938379,81.3987911 C60.1330459,80.9563989 62.7897831,80.1017777 65.3110325,78.9508483 C67.1489527,78.1104214 67.5730881,79.3459258 68.497939,77.3675811 C69.5818406,75.0527108 70.3358592,57.6965064 65.4170664,48.5109543" id="Fill-17" fill="#FC6E4C"></path>
                    <path d="M50.9119317,29.7427667 C52.140718,30.5279603 53.3576892,33.3201734 53.6117171,35.5765198 C54.4919535,43.2982108 51.3609113,44.050533 50.5279359,44.2620267 C44.9275056,45.6823217 42.150921,35.7520409 43.2497396,32.1554075 C44.2067751,29.0481246 47.8281504,27.7686186 50.9119317,29.7427667" id="Fill-19" fill="#E9B399"></path>
                    <path d="M61.8311733,56.6612404 C59.0643317,59.9647046 56.0379144,63.0017015 52.6988264,65.6803669 C52.799117,65.2770157 52.510044,64.8529799 52.102982,64.6838523 C53.0179865,63.6392762 53.9200123,62.5855745 54.8049296,61.5154468 C55.3476789,60.8657047 54.8285274,60.001207 54.2149847,59.9379362 C56.3977808,57.014705 58.344599,53.8901024 60.0318413,50.5793377 C60.5568923,49.5396287 59.028935,48.6155104 58.4979846,49.6570446 C54.0380013,58.4376889 47.7196915,65.9261495 39.867525,71.6485038 C39.5430553,71.8833357 39.3483735,72.2653938 39.460463,72.6796957 C39.6669437,73.4316445 39.867525,74.18481 40.0740057,74.9379755 C40.209693,75.4283239 40.6934479,75.6844489 41.1654038,75.5749418 C46.2094326,74.3989572 51.0351818,72.3037213 55.1470977,69.0312841 C58.568778,66.303949 62.5332077,62.1219945 63.3119349,57.5488563 C63.4476223,56.7397205 62.4689037,55.9038163 61.8311733,56.6612404 M56.0025177,65.9517011 C55.8019365,65.8245512 55.5600591,65.7661474 55.3181817,65.8184675 C56.8225411,64.5305423 58.2620067,63.1702208 59.6424777,61.7460201 C58.633672,63.2839865 57.3534915,64.7033202 56.0025177,65.9517011" id="Fill-21" fill="#FC6E4C"></path>
                    <path d="M55.8932036,40.5400322 C55.4632259,39.6443703 54.5090288,39.3251653 53.7786556,39.8615004 C53.4546998,40.0992816 53.3133373,40.4650987 53.0011617,40.3671541 C52.6889861,40.2715696 52.4121511,40.3034311 52.1765469,40.4155364 C51.9998437,40.3105114 51.8054702,40.2485585 51.5875363,40.2485585 C50.8807237,40.2485585 50.1209,41.0604365 50.1856912,42.0186414 C50.397735,45.1499179 53.3663483,46.8580478 55.2276216,44.4955773 C55.9756651,43.5438627 56.4939944,41.7796802 55.8932036,40.5400322" id="Fill-23" fill="#E9B399"></path>
                    <g id="Group-27" transform="translate(77.662338, 98.400000)">
                        <mask id="mask-2" fill="white">
                            <use xlink:href="#path-1"></use>
                        </mask>
                        <g id="Clip-26"></g>
                        <path d="M13.8127247,17.5126496 C13.4423351,13.1149856 13.2690883,7.3882336 11.0527247,3.4866976 C9.46363377,0.6941536 5.93895844,-0.5911584 3.50752987,1.8925216 C3.28051688,2.1223456 2.31272468,3.8429856 2.01402338,4.6054176 C1.14181558,6.8039456 0.896880519,9.6542496 0.68778961,11.2538976 C0.0545428571,16.1829536 0.00675064935,21.2998816 0.269607792,26.2605536 C0.472724675,30.0331936 2.58155584,48.6483296 9.58908831,45.1687456 C12.8628545,43.5441696 13.0540234,37.4422816 13.4423351,34.4028896 C14.1532442,28.8044256 14.2852701,23.1372576 13.8127247,17.5126496 M11.2498675,32.7223776 C11.0586987,34.4612576 10.2342831,44.8544096 6.88882857,42.0162656 C4.83376364,40.2700896 4.0212961,35.7052256 3.49558182,33.1668256 C2.80856883,29.8684256 2.60545195,26.4770016 2.56363377,23.1141536 C2.52778961,20.1440736 2.57558182,17.1600096 2.79064675,14.1978336 C2.86233506,13.1849056 3.16103636,8.6765856 4.05714026,6.0026016 C4.46934805,4.7872096 4.63662078,3.8703456 6.57817922,3.5882336 C7.45038701,3.4611616 8.57947792,4.2473056 8.98571169,4.7136416 C9.45168571,5.4949216 9.66077662,6.4798816 9.86986753,7.3657376 C10.2528026,8.9696416 10.5395558,10.6057696 10.7898675,12.2358176 C11.3215558,15.6594656 11.6142831,19.1183776 11.6859714,22.5827616 C11.7576597,25.9656736 11.6202571,29.3583136 11.2498675,32.7223776" id="Fill-25" fill="#25435A" mask="url(#mask-2)"></path>
                    </g>
                    <path d="M84.4997738,118.521263 C84.2053945,116.907977 82.17628,117.59057 82.4706593,119.2045 C82.7860657,120.916769 82.8386334,122.655391 82.5915651,124.387585 C82.3655239,126.005371 84.3893815,126.700176 84.6206796,125.070178 C84.9308292,122.86621 84.9045453,120.705949 84.4997738,118.521263" id="Fill-28" fill="#25435A"></path>
                    <polygon id="Fill-30" fill="#805F4E" points="79.92924 68.4 14.4597736 68.4 11.9480519 68.4 11.9480519 70.9189836 11.9480519 134.4 14.4597736 134.4 14.4597736 70.9189836 79.92924 70.9189836 79.92924 134.4 82.4415584 134.4 82.4415584 70.9189836 82.4415584 68.4"></polygon>
                    <polygon id="Fill-32" fill="#805F4E" points="11.9480519 134.4 82.4415584 134.4 82.4415584 87.6 11.9480519 87.6"></polygon>
                    <path d="M6.72518422,118.446634 C6.47112287,116.964303 4.5482272,117.591692 4.80228855,119.071083 C5.13107382,120.992058 5.23568731,122.911857 5.1460186,124.867524 C5.07627627,126.379843 7.06891427,126.375139 7.1386566,124.867524 C7.2382885,122.70312 7.08884065,120.569879 6.72518422,118.446634" id="Fill-35" fill="#25435A"></path>
                    <polygon id="Fill-36" fill="#805F4E" points="14.3376623 69.5259303 11.9480519 72.8063965 10.7532468 34.8728554 13.3283986 34.8"></polygon>
                    <polygon id="Fill-37" fill="#F3E2D3" points="20.8980077 2.54224557 20.7971657 0 18.2998449 0.101448279 2.49732081 0.745161765 0 0.847213903 0.100841933 3.38945947 1.80329104 46.6577544 1.90413297 49.2 4.40145379 49.0979479 20.2039779 48.4542344 22.7012987 48.3521822"></polygon>
                    <path d="M21.2470998,39.5773703 C20.7392805,34.9784098 21.0640486,30.3457529 20.999095,25.7317493 C20.9223317,20.6207235 20.4499417,15.5271475 19.8299298,10.4582422 C19.6291641,8.79147255 19.4106837,7.12650804 19.1862985,5.46274698 C19.1036303,4.85921991 19.020962,4.25569284 18.9382938,3.65216577 C18.879245,3.22855355 18.690289,2.07745954 17.8577017,1.60631129 C16.8833974,1.05814264 15.2241276,1.22060755 14.7930717,1.22842994 C13.4467603,1.25310053 12.1004489,1.27777113 10.7541375,1.30184001 C8.82324343,1.33673988 6.60891543,1.06415986 4.71935553,1.46249976 C1.71967919,2.09430776 2.45778853,7.12349943 2.49912265,9.32399644 C2.65855427,18.1374172 4.58944829,26.8022126 4.83154815,35.612023 C4.8905969,37.6861584 4.87288227,39.7675145 5.09726751,41.8332258 C5.22126988,43.0210248 5.27441375,44.5560174 6.47310331,45.1499169 C7.75446112,45.7799197 9.70306976,45.5458499 11.0907153,45.5801481 C13.3522823,45.6367099 15.6197542,45.5735291 17.8754163,45.3761643 C19.0327718,45.2750751 20.3023198,45.2064788 21.0049999,44.1221759 C21.8553019,42.8188462 21.4006265,41.0046547 21.2470998,39.5773703 M18.4422843,44.7232961 C14.9347887,45.1414928 11.2088128,45.1812064 7.70131724,44.8003165 C5.38660637,44.5487967 5.62870623,41.6286403 5.54013311,39.8607814 C5.44565512,38.0652432 5.45746486,36.2672981 5.38660637,34.4729634 C5.09136263,27.383476 3.78048046,20.3932726 3.27266123,13.3230402 C3.13094424,11.3271287 3.05418087,9.32459816 3.08370524,7.32206766 C3.09551499,6.40263659 3.10732474,5.46816247 3.20180274,4.55294346 C3.36713923,2.86992729 3.89267307,2.19178671 5.67004035,1.99622709 C7.51826613,1.79224336 9.4609699,1.92702907 11.3151005,1.89273092 C12.4665511,1.87227237 13.6180017,1.85181383 14.7694522,1.83075356 C15.6906127,1.81330363 16.853873,1.7164264 17.5211238,2.35846367 C18.1234211,2.93491326 18.4245697,3.86698049 18.6194305,5.36827664 C18.7552426,6.42429858 18.8438158,7.33831415 18.8674353,7.53206861 C19.1213449,9.48104585 19.3634447,11.4330317 19.5760202,13.3880262 C19.9598371,16.9020821 20.2550808,20.4293759 20.3672734,23.9644921 C20.4853709,27.7011851 20.3023198,31.4372764 20.3849881,35.1733677 C20.4263222,36.8419426 20.5208002,38.5057036 20.7215659,40.1634475 C20.8042342,40.8030779 20.9105219,41.4517341 20.8928073,42.1003903 C20.8632829,43.7118015 20.0188858,44.5343554 18.4422843,44.7232961" id="Fill-38" fill="#25435A"></path>
                    <path d="M54.7121648,33.8560519 C54.2141501,31.5908285 53.3942478,28.959397 51.0985216,27.9391585 C49.3129567,27.1455036 47.5334651,27.8362773 46.2034015,29.0641154 C46.1851814,29.055542 46.160888,29.0506429 46.142668,29.0439066 C45.9118807,28.8932591 45.6203599,28.8185478 45.3652792,28.8663141 C45.3531325,28.8675388 45.3470592,28.8718255 45.3349125,28.8748875 C43.938042,28.8387566 42.6079783,30.0408743 42.0188634,31.3072928 C41.8427362,31.6747257 41.7334159,32.0580806 41.7030492,32.4653186 C41.6726824,32.7788613 41.7455626,33.0917916 41.7334159,33.4022724 C41.6969758,34.1285646 41.4176017,34.6558307 41.0896408,35.319047 C40.6159195,36.2792714 40.4580124,36.8873728 40.8284868,37.9664005 C41.0592741,38.6222681 41.4479685,39.4722628 42.2253573,39.5867793 C42.5776116,39.6388323 42.6626385,39.5249281 42.9420126,39.4575654 C43.4825407,39.3295763 44.0230689,39.1409608 44.5696704,39.1121786 C44.7215041,39.1036051 44.8794112,39.2089359 45.049465,39.1746422 C45.6203599,39.0564513 45.8086338,38.3589413 45.9604675,37.8745423 C46.4767022,36.2063973 46.3491619,33.8370679 48.347294,33.1603791 C48.4201742,33.1371083 48.468761,33.092404 48.4991278,33.0415758 C48.5112745,33.0525988 48.5173478,33.0672961 48.5355679,33.0770943 C49.0275092,33.4102334 49.179343,34.085085 49.7077244,34.3704579 C50.4000863,34.7403403 51.0560081,34.2320582 51.74837,34.8113773 C52.7140326,35.614218 52.1188443,37.4942493 53.345661,38.1372568 C55.5928005,39.3191657 54.9004386,34.6913492 54.7121648,33.8560519" id="Fill-39" fill="#804E4E"></path>
                    <path d="M59.149149,48.2021669 C57.5213954,52.5493834 54.4797537,56.055473 51.4559341,59.4815121 C51.2004837,59.7682599 51.6222739,60.1918104 51.8717835,59.9038678 C54.978773,56.3953886 58.056059,52.8134304 59.7194568,48.361073 C59.8560931,48.000846 59.2798446,47.8449269 59.149149,48.2021669" id="Fill-40" fill="#D85E41"></path>
                    <path d="M64.0059793,56.5425255 C62.4580467,59.6215943 60.2562943,62.2400946 57.4733686,64.2626643 C57.182782,64.4721668 57.4621922,64.960257 57.7527788,64.7473845 C60.6139394,62.666963 62.8995149,59.9945424 64.4865648,56.8256066 C64.6486227,56.5037703 64.1680372,56.2190042 64.0059793,56.5425255" id="Fill-41" fill="#D85E41"></path>
                    <path d="M13.0701742,16.0194108 C13.0424684,15.9930851 13.0203037,15.9711469 12.9925978,15.9479551 C12.9759743,15.9341654 12.964892,15.9197489 12.9482685,15.9053324 C12.9371862,15.8990644 12.931645,15.8990644 12.9261038,15.8934232 C12.0450583,15.1914023 10.6376018,15.8727386 9.73439156,16.6405739 C9.55153304,16.7985286 9.21906302,17.1670895 9.20243951,17.1940421 C8.55966412,17.8603351 7.87810056,18.7485168 7.49576003,19.6993789 C7.34060735,20.0873708 7.16883117,20.4346203 7.16883117,21.1667278 C7.16883117,24.4035452 10.0779439,24.6561473 12.0284348,22.9869675 C13.1809975,22.0022579 14.2393605,21.0181751 14.3280191,19.3207891 C14.4055955,17.8910485 14.0177138,16.8862812 13.0701742,16.0194108 M8.12191192,19.804682 C8.56520529,18.6664054 9.33542753,17.8145784 10.1887673,17.066174 C10.2220143,17.0379678 11.0310247,16.4412501 11.4576945,16.3221573 C12.8540687,15.9310314 13.1532917,17.6284175 12.6545867,18.7704549 C12.2112933,19.8009212 11.4854004,20.6897297 10.7151781,21.4262248 C10.1610614,21.9558744 8.99187516,22.9418376 8.20502943,22.2473384 C7.5013012,21.6261753 7.84485356,20.5217461 8.12191192,19.804682" id="Fill-42" fill="#25435A"></path>
                    <path d="M17.8548172,29.4323517 C17.866101,29.3954682 17.8717429,29.3604925 17.8830268,29.322973 C17.8886687,29.3013516 17.8943106,29.281638 17.8999525,29.2587448 C17.8999525,29.2479341 17.8943106,29.2390312 17.8999525,29.2294923 C18.0974194,28.0148796 16.9351858,26.8396941 15.9252838,26.2266644 C15.7165331,26.1001158 15.2708222,25.9118826 15.2426126,25.9099748 C14.4245356,25.5239696 13.4033498,25.1888383 12.4667926,25.2002849 C12.0831427,25.2047363 11.7277023,25.174212 11.1296598,25.4858143 C8.48360376,26.8670388 9.5217153,29.999595 11.7220604,31.3197709 C13.0196999,32.0981405 14.272204,32.7823935 15.6996074,32.1541017 C16.9013343,31.6243779 17.5557959,30.7932267 17.8548172,29.4323517 M12.6473338,25.8978923 C13.764432,25.8699117 14.7912598,26.312514 15.7673103,26.8823009 C15.8073679,26.9039223 16.6418064,27.4902432 16.91826,27.8819717 C17.8378915,29.1697156 16.5797454,30.2081777 15.4344376,30.1776534 C14.4019679,30.1503087 13.3644206,29.7725705 12.4329412,29.2854535 C11.7615538,28.93506 10.4582725,28.1414283 10.6895908,27.0247477 C10.8926996,26.0269846 11.9477368,25.9163341 12.6473338,25.8978923" id="Fill-43" fill="#25435A"></path>
                    <path d="M17.7263555,20.4730707 C16.916942,20.270538 16.8950659,19.1215671 16.8622519,18.3107935 C16.8513139,17.8986556 16.3208199,17.8941549 16.3153509,18.3107935 C16.3153509,19.1595018 16.2934748,20.0545032 15.7629809,20.6781752 C15.5551585,20.7026077 15.4239022,21.0928849 15.6536007,21.2857732 C16.2606608,21.7943552 16.2934748,22.979332 16.4411381,23.7701738 C16.5122352,24.1328037 16.9716321,24.0376455 16.9771011,23.68466 C16.9935081,23.0230533 16.9880391,21.2658414 17.7099484,21.1006005 C17.8247977,21.074882 17.8794878,20.9887253 17.8958948,20.8890664 C17.9560539,20.7263973 17.9177708,20.5200068 17.7263555,20.4730707" id="Fill-44" fill="#25435A"></path>
                    <path d="M8.16791391,13.2728992 C7.35850042,13.0703806 7.33662438,11.9208464 7.30381032,11.1107719 C7.2928723,10.6986626 6.76237833,10.6941622 6.75690932,11.1107719 C6.75690932,11.9600642 6.73503328,12.8543607 6.2045393,13.4786324 C5.99671692,13.5024203 5.86546068,13.8939562 6.0951591,14.0855453 C6.70221922,14.5947349 6.73503328,15.7789866 6.88269655,16.5697736 C6.95379368,16.9323783 7.41319052,16.8385125 7.41865953,16.4842657 C7.43506656,15.8233478 7.42959755,14.0662578 8.15150688,13.9010283 C8.26635609,13.8746688 8.32104619,13.788518 8.33745322,13.688866 C8.39761233,13.5262082 8.35932926,13.3198321 8.16791391,13.2728992" id="Fill-45" fill="#25435A"></path>
                    <path d="M8.1678908,31.2727329 C7.35838175,31.0695652 7.33650313,29.9212818 7.30915485,29.1105397 C7.29274588,28.6984178 6.76218928,28.6945602 6.76218928,29.1105397 C6.75671962,29.9598579 6.734841,30.8541817 6.20975404,31.4784724 C5.99643747,31.502904 5.86516573,31.893166 6.09489127,32.0854038 C6.70202306,32.5939661 6.734841,33.7795398 6.8825217,34.5697079 C6.95362723,34.9329667 7.41307831,34.8378122 7.42401762,34.4841974 C7.44042659,33.8226165 7.42948728,32.0661157 8.15148184,31.9002383 C8.26634461,31.8738779 8.32104116,31.7883675 8.33745013,31.6893553 C8.39761635,31.5254067 8.35932875,31.3203102 8.1678908,31.2727329" id="Fill-46" fill="#25435A"></path>
                    <path d="M21.0032964,84.2767646 C20.9020088,83.9549928 20.4394625,84.092743 20.5354444,84.4187696 C20.6849641,84.8931835 20.8296606,85.3697249 20.9261249,85.8616899 C20.9888267,86.1887802 21.0949375,86.5296988 20.9068321,86.809454 C20.7283731,87.0764448 20.4534498,87.0307054 20.1688801,87.042938 C19.9614818,87.0514477 19.7251442,87.1078242 19.6190335,86.8573209 C19.5370388,86.6552163 19.6383263,86.1334674 19.652796,85.909025 C19.6769121,85.3558966 19.720321,84.8043639 19.7733764,84.2538949 C19.8071389,83.9140401 19.3248173,83.9166993 19.2910548,84.2538949 C19.2379994,84.8043639 19.1945905,85.3558966 19.1704744,85.909025 C19.1511815,86.2855777 19.0691869,86.740313 19.1560048,87.1099516 C19.3055244,87.75775 20.101355,87.5934071 20.5450909,87.5471357 C21.0225892,87.4971414 21.442209,87.3790698 21.4952644,86.7823295 C21.5724358,85.9584874 21.2348107,85.0383797 21.0032964,84.2767646" id="Fill-47" fill="#25435A"></path>
                    <path d="M26.9773325,84.2767646 C26.8760444,83.9549928 26.4130132,84.092743 26.509478,84.4187696 C26.6589985,84.8931835 26.8036958,85.3697249 26.9001606,85.8616899 C26.9628627,86.1887802 27.068974,86.5296988 26.8808676,86.809454 C26.7024077,87.0764448 26.4274829,87.0307054 26.1429117,87.042938 C25.9355123,87.0514477 25.6991734,87.1078242 25.5930621,86.8573209 C25.511067,86.6552163 25.6171783,86.1334674 25.6268248,85.909025 C25.650941,85.3558966 25.6943502,84.8043639 25.7474059,84.2538949 C25.7811685,83.9140401 25.2988444,83.9166993 25.2650817,84.2538949 C25.212026,84.8043639 25.1686169,85.3558966 25.1445007,85.909025 C25.1252077,86.2855777 25.0432126,86.740313 25.1300309,87.1099516 C25.2790691,87.75775 26.0753863,87.5934071 26.5191245,87.5471357 C26.9966254,87.4971414 27.4162474,87.3790698 27.4693031,86.7823295 C27.546475,85.9584874 27.2083657,85.0383797 26.9773325,84.2767646" id="Fill-48" fill="#25435A"></path>
                    <polygon id="Fill-49" fill="#F7B500" points="17.9220779 85.2 28.6753247 85.2 28.6753247 76.8 17.9220779 76.8"></polygon>
                    <path d="M19.7142857,78 C18.9177489,78 18.9177489,80.4 19.7142857,80.4 C20.5108225,80.4 20.5108225,78 19.7142857,78" id="Fill-50" fill="#25435A"></path>
                    <path d="M22.1054398,78 C21.3068447,78 21.3068447,80.4 22.1054398,80.4 C22.8999183,80.4 22.8999183,78 22.1054398,78" id="Fill-51" fill="#25435A"></path>
                    <path d="M19.9151384,81.4182601 C19.9151384,81.4164989 19.9151384,81.4159118 19.9107972,81.4141505 C20.0974661,81.2280411 20.2103357,80.8528869 20.0583959,80.6016098 C19.8673858,80.2763588 19.459319,80.3567909 19.3551317,80.755429 C19.3507906,80.7718676 19.3507906,80.7888934 19.3507906,80.8059192 C19.3464494,80.8100289 19.3464494,80.8123772 19.3464494,80.8164869 C19.2856735,81.0636543 19.3464494,81.3284345 19.4897069,81.454073 C19.4853658,81.466402 19.4766835,81.472273 19.4723424,81.4869504 C19.2943558,82.0276656 19.0859812,82.6229808 19.1207103,83.230625 C19.1467571,83.6809275 19.428931,84.0472753 19.7718808,83.9950237 C20.7182487,83.8517723 20.18863,82.0435172 19.9151384,81.4182601" id="Fill-52" fill="#25435A"></path>
                    <path d="M23.4975286,81.4182601 L23.4975286,81.4141505 C23.6839101,81.2280411 23.7922715,80.8528869 23.6449001,80.6016098 C23.4498496,80.2763588 23.0467454,80.3567909 22.9427185,80.755429 C22.938384,80.7718676 22.938384,80.7888934 22.9340496,80.8059192 C22.9340496,80.8100289 22.9297151,80.8123772 22.9297151,80.8164869 C22.8690327,81.0636543 22.9340496,81.3284345 23.0727521,81.454073 C23.0684176,81.466402 23.0597487,81.472273 23.0554143,81.4869504 C22.8777016,82.0276656 22.6739823,82.6229808 22.7043235,83.230625 C22.7303302,83.6809275 23.0164042,84.0472753 23.3588261,83.9950237 C24.3037371,83.8517723 23.7705992,82.0435172 23.4975286,81.4182601" id="Fill-53" fill="#25435A"></path>
                    <path d="M26.058053,82.8251295 C25.9356765,82.4174339 26.0405706,82.0804555 26.0930177,81.6813317 C26.1979118,80.9457653 26.0755354,80.1957339 26.0318295,79.4585603 C26.0143471,79.1146173 25.1402294,79.1130101 25.1577118,79.4585603 C25.2101588,80.2310925 25.3150529,81.0089822 25.2014176,81.7788358 C25.1577118,82.0595618 25.0528176,82.3268944 25.1052647,82.612442 C25.1664529,83.0067442 25.4199471,83.3330078 25.4112059,83.7412392 C25.3937235,84.0862536 26.2678413,84.0862536 26.2853236,83.7412392 C26.2940648,83.4031894 26.154206,83.1562147 26.058053,82.8251295" id="Fill-54" fill="#25435A"></path>
                    <path d="M27.1937932,81.8026216 C27.1082714,81.4285159 27.2194497,81.083231 27.2451063,80.7062997 C27.2707628,80.3276731 27.1253758,79.9287024 27.2194497,79.5540316 C27.3135237,79.1991398 26.4839623,79.0459938 26.3984405,79.4042763 C26.2273969,80.0428555 26.3214709,80.7786344 26.2872622,81.4302112 C26.2701578,81.7658891 26.3984405,81.9868488 26.4925145,82.3083989 C26.6293494,82.7508834 26.518171,83.1826307 26.466858,83.6268106 C26.466858,83.6398082 26.4583058,83.6505454 26.4583058,83.6652384 L26.4583058,83.7268358 C26.4583058,84.0930299 27.2878672,84.0890741 27.3135237,83.7268358 C27.3391802,83.3645976 27.5102238,82.9927523 27.4760151,82.6265582 C27.4503586,82.3411755 27.2536584,82.0834834 27.1937932,81.8026216" id="Fill-55" fill="#25435A"></path>
                    <path d="M25.8060749,78.013918 C25.5455328,77.9564743 25.3594313,78.0836039 25.2477705,78.2710022 C25.2012451,78.3199706 25.1547197,78.3802394 25.1268045,78.4565171 C24.8662624,79.2268278 26.1038373,79.5244051 26.2713286,78.7343187 C26.3457692,78.4150823 26.1224474,78.079837 25.8060749,78.013918" id="Fill-56" fill="#25435A"></path>
                    <path d="M27.4549558,78.4243076 C27.2766578,77.7991844 26.497777,77.9125875 26.3100949,78.4533613 C26.2819426,78.5264641 26.2819426,78.5948809 26.2913267,78.6558 C26.2819426,78.7841986 26.3100949,78.9107228 26.403936,79.0091305 C26.8356048,79.4599315 27.6332538,79.050368 27.4549558,78.4243076" id="Fill-57" fill="#25435A"></path>
                    <path d="M35.340999,84.2767646 C35.239717,83.9549928 34.7767136,84.092743 34.8731726,84.4187696 C35.0222018,84.8931835 35.1673727,85.3697249 35.2633495,85.8616899 C35.3212249,86.1887802 35.4321528,86.5296988 35.2445399,86.809454 C35.0660907,87.0764448 34.7907001,87.0307054 34.5018053,87.042938 C34.298759,87.0514477 34.0629166,87.1078242 33.9563294,86.8573209 C33.8743392,86.6552163 33.9761035,86.1334674 33.9905723,85.909025 C34.0146871,85.3558966 34.0580937,84.8043639 34.1111461,84.2538949 C34.1449068,83.9140401 33.6626116,83.9166993 33.6288509,84.2538949 C33.5753161,84.8043639 33.5323919,85.3558966 33.5082771,85.909025 C33.4889853,86.2855777 33.4069951,86.740313 33.4933259,87.1099516 C33.6428375,87.75775 34.4386246,87.5934071 34.8828185,87.5471357 C35.3554678,87.4971414 35.7798877,87.3790698 35.8329401,86.7823295 C35.9101074,85.9584874 35.5720184,85.0383797 35.340999,84.2767646" id="Fill-58" fill="#25435A"></path>
                    <path d="M42.5097899,84.2767646 C42.4085023,83.9549928 41.9454736,84.092743 42.041938,84.4187696 C42.1914576,84.8931835 42.3361541,85.3697249 42.4326184,85.8616899 C42.490497,86.1887802 42.601431,86.5296988 42.4133256,86.809454 C42.2348666,87.0764448 41.9599433,87.0307054 41.6705503,87.042938 C41.4679753,87.0514477 41.2316377,87.1078242 41.125527,86.8573209 C41.0435323,86.6552163 41.1448198,86.1334674 41.1592895,85.909025 C41.1834056,85.3558966 41.2268145,84.8043639 41.2798699,84.2538949 C41.3136324,83.9140401 40.8313108,83.9166993 40.7975483,84.2538949 C40.7444929,84.8043639 40.701084,85.3558966 40.6769679,85.909025 C40.657675,86.2855777 40.5756804,86.740313 40.6624983,87.1099516 C40.8120179,87.75775 41.6078485,87.5934071 42.0515844,87.5471357 C42.5242595,87.4971414 42.9487025,87.3790698 43.0017579,86.7823295 C43.0789293,85.9584874 42.7413042,85.0383797 42.5097899,84.2767646" id="Fill-59" fill="#25435A"></path>
                    <polygon id="Fill-60" fill="#F7B500" points="32.2597403 85.2 43.012987 85.2 43.012987 76.8 32.2597403 76.8"></polygon>
                    <path d="M34.0533042,78 C33.2585757,78 33.2513509,79.2 34.0533042,79.2 C34.8480328,79.2 34.8480328,78 34.0533042,78" id="Fill-61" fill="#25435A"></path>
                    <path d="M35.2453971,78 C34.4506685,78 34.4506685,79.2 35.2453971,79.2 C36.0401256,79.2 36.0473504,78 35.2453971,78" id="Fill-62" fill="#25435A"></path>
                    <path d="M40.5270202,77.2775138 C40.3294467,77.0958931 40.1079248,76.9702514 39.8804158,76.8408777 C39.5391524,76.6486832 39.2397984,77.1860815 39.5750748,77.377654 C39.5930361,77.3869838 39.6109973,77.3963137 39.6229714,77.4056435 C39.5990231,77.435499 39.5750748,77.4690864 39.5571136,77.5144915 C39.4014496,77.987203 40.0720023,78.1825075 40.2576017,77.7900326 C40.5150461,77.8329498 40.7665034,77.4989418 40.5270202,77.2775138" id="Fill-63" fill="#25435A"></path>
                    <path d="M41.7218254,77.2775138 C41.5242519,77.0958931 41.30273,76.9702514 41.075221,76.8408777 C40.7339575,76.6486832 40.4346036,77.1860815 40.76988,77.377654 C40.7878413,77.3869838 40.8058025,77.3956917 40.8177766,77.4056435 C40.7938283,77.435499 40.76988,77.4697083 40.7519188,77.5144915 C40.5962548,77.987203 41.2668075,78.1825075 41.4524069,77.7900326 C41.7098513,77.8329498 41.9613086,77.4983198 41.7218254,77.2775138" id="Fill-64" fill="#25435A"></path>
                    <path d="M40.1437372,79.2139203 C39.8831952,79.1564673 39.6970937,79.2836173 39.5854328,79.4710456 C39.5389074,79.5200219 39.492382,79.5793585 39.4644668,79.6565903 C39.2039247,80.4270246 40.4414996,80.7246495 40.608991,79.9334946 C40.6834315,79.6151489 40.4601098,79.2798499 40.1437372,79.2139203" id="Fill-65" fill="#25435A"></path>
                    <path d="M42.9874234,79.6243704 C42.8091254,78.9992978 42.0302446,79.1126918 41.8425624,79.6524846 C41.8144101,79.7265187 41.8144101,79.7939928 41.8237942,79.855844 C41.8144101,79.9842323 41.8425624,80.1107462 41.9364035,80.2091459 C42.3680724,80.6599104 43.1657214,80.2503801 42.9874234,79.6243704" id="Fill-66" fill="#25435A"></path>
                    <path d="M36.9728304,83.3291837 C36.9795869,83.3296102 36.9795869,83.3296102 36.9795869,83.3300367 C36.9795869,83.3287571 36.9728304,83.3274776 36.9728304,83.3266245 C36.9593174,83.3155349 36.9458043,83.3052983 36.9322912,83.2954882 C36.7431085,83.141513 36.5404126,83.0050253 36.3174472,82.8668315 C36.263395,82.832283 36.2025862,82.8177812 36.1417775,82.8109568 C36.0066469,82.7849388 35.8512468,82.8019998 35.7566554,82.8975412 C35.6012553,83.0553552 35.3377507,83.0583408 35.0742461,83.0361616 C34.8850633,83.0208067 34.5877761,83.0024662 34.4729152,82.8971147 C34.2769758,82.7218133 33.8850972,82.8156486 33.8378015,82.9726095 C33.6891579,83.1338356 33.5675404,83.3006065 33.472949,83.4771875 C33.3378185,83.7382203 33.9864452,83.8499696 34.1283322,83.590643 C34.1756279,83.5023525 34.2296802,83.4187537 34.2972454,83.3364346 C34.4796717,83.4042519 34.689124,83.4447717 34.9120895,83.4635388 C34.9053329,83.573582 34.9053329,83.6844783 34.9120895,83.794948 C34.932359,84.0674969 35.6080118,84.069203 35.5877422,83.794948 C35.5742292,83.6755213 35.5809857,83.5573741 35.5877422,83.4396534 C35.7566554,83.4110763 35.9120556,83.3650117 36.0539426,83.3023126 C36.1620471,83.3726891 36.2701515,83.4439186 36.3647429,83.5223991 C36.4728474,83.6089835 36.5471692,83.6401198 36.7228389,83.653342 C37.0268826,83.6759478 37.1147175,83.4626857 36.9728304,83.3291837" id="Fill-67" fill="#25435A"></path>
                    <path d="M34.1955579,81.6135685 C33.852454,81.5379082 33.4921949,81.7875002 33.4578845,82.1423208 C33.4149965,82.5597569 33.7924109,82.8432656 34.1784028,82.7945647 C34.3585323,82.7719536 34.4700411,82.658898 34.5300843,82.5241009 C34.5472395,82.5084471 34.5558171,82.5032291 34.5729722,82.4849663 C34.770257,82.1544961 34.5643947,81.696186 34.1955579,81.6135685" id="Fill-68" fill="#25435A"></path>
                    <path d="M35.2489978,81.6 C34.4843225,81.6 34.4723745,82.8 35.2489978,82.8 C36.0136732,82.8 36.0136732,81.6 35.2489978,81.6" id="Fill-69" fill="#25435A"></path>
                    <path d="M39.3656979,83.3291837 L39.3656979,83.3300367 C39.3656979,83.3291837 39.3589481,83.3283306 39.3589481,83.327051 C39.3454485,83.3155349 39.3319488,83.3052983 39.3191242,83.2954882 C39.1294542,83.141513 38.9276346,83.0050253 38.7042155,82.8668315 C38.650217,82.832283 38.5894686,82.8177812 38.5287202,82.8109568 C38.3937238,82.7849388 38.2452277,82.8019998 38.1439804,82.8975412 C37.9887346,83.0553552 37.7254916,83.0579143 37.4622486,83.0361616 C37.2800034,83.0208067 36.9762615,83.0024662 36.8615146,82.8971147 C36.6657698,82.7222398 36.2742802,82.8156486 36.2270315,82.9726095 C36.0785354,83.1338356 35.9570387,83.3006065 35.8625412,83.4776141 C35.7275448,83.7382203 36.3755275,83.8499696 36.5172737,83.5902164 C36.5645225,83.5019259 36.618521,83.4187537 36.6860192,83.3364346 C36.8682644,83.4042519 37.0775088,83.4447717 37.3002529,83.4635388 C37.3002529,83.573582 37.2941781,83.6844783 37.3002529,83.794948 C37.3205024,84.0674969 37.9954844,84.069203 37.9752349,83.794948 C37.9684851,83.6759478 37.9684851,83.5578006 37.9752349,83.4396534 C38.1439804,83.4110763 38.3066511,83.3650117 38.4409725,83.3023126 C38.5489697,83.3726891 38.6569668,83.4443452 38.7582141,83.5228256 C38.8594614,83.6089835 38.9337094,83.6401198 39.1092047,83.653342 C39.4196965,83.6759478 39.5006943,83.4626857 39.3656979,83.3291837" id="Fill-70" fill="#25435A"></path>
                    <path d="M37.7799735,81.6135669 C37.4368696,81.5379066 37.0766105,81.7874988 37.0423001,82.1431895 C36.9994121,82.5597563 37.3768264,82.8432652 37.7628183,82.7945643 C37.9429479,82.7719532 38.0544567,82.6588975 38.1144998,82.5249699 C38.131655,82.5084464 38.1488102,82.5032284 38.1573878,82.4858353 C38.3546726,82.1544951 38.1488102,81.6961846 37.7799735,81.6135669" id="Fill-71" fill="#1B0D03"></path>
                    <path d="M37.6363636,81.6 C36.8716883,81.6 36.8716883,82.8 37.6363636,82.8 C38.401039,82.8 38.401039,81.6 37.6363636,81.6" id="Fill-72" fill="#25435A"></path>
                    <path d="M39.743251,80.4747775 C39.7316571,80.4795775 39.7316571,80.4855775 39.7200631,80.4903775 C39.0592083,80.8455775 39.6389055,81.8811775 40.2997603,81.5247775 C40.3113543,81.5199775 40.3229482,81.5151775 40.3345422,81.5103775 C40.995397,81.1551775 40.4041058,80.1195775 39.743251,80.4747775" id="Fill-73" fill="#25435A"></path>
                    <path d="M42.4516783,80.4012419 C42.4402114,80.4012419 42.4402114,80.4000814 42.4287445,80.4000814 C42.4058106,80.398921 42.3828768,80.4105256 42.3599429,80.4116861 C42.0732699,80.4047233 41.7865969,80.5880763 41.8209976,80.9675473 L41.8209976,81.0058426 C41.8209976,81.0673471 41.8553984,81.1114446 41.8783322,81.1659863 C41.8897992,81.2135653 41.9012661,81.2553419 41.9241999,81.2947976 C41.9356668,81.3238091 41.9586007,81.3516602 41.9700676,81.3771904 C42.0274022,81.434053 42.0847368,81.4781506 42.1535383,81.5048412 C42.1879391,81.5222481 42.199406,81.5535806 42.2452737,81.5651852 C42.2567406,81.5698271 42.2682076,81.5744689 42.2796745,81.5779503 C42.4986927,81.6522199 42.8186198,81.5326923 42.9218221,81.3122045 C42.933289,81.2994394 42.933289,81.2866744 42.9447559,81.2750697 C43.1396936,80.8596244 42.8988882,80.4406976 42.4516783,80.4012419" id="Fill-74" fill="#25435A"></path>
                    <path d="M39.4286604,82.194375 L39.4286604,82.205175 C39.4167142,82.977975 40.6113413,82.977975 40.6232876,82.205175 L40.6232876,82.194375 C40.6352339,81.422775 39.4406067,81.421575 39.4286604,82.194375" id="Fill-75" fill="#25435A"></path>
                    <path d="M42.0055516,81.77426 C42.0055516,81.7789962 41.9937679,81.7837325 41.9937679,81.7884687 C41.4517141,82.3283994 42.2883623,83.1655287 42.8304161,82.6255981 C42.8304161,82.6208618 42.8304161,82.6161256 42.8421999,82.6113894 C43.3724699,82.0726427 42.5476054,81.2343293 42.0055516,81.77426" id="Fill-76" fill="#25435A"></path>
                    <path d="M11.9480519,93.6 L82.4415584,93.6 L82.4415584,92.4 L11.9480519,92.4 L11.9480519,93.6 Z M82.4415584,99.6 L11.9480519,99.6183161 L11.9480519,100.8 L82.4415584,100.781684 L82.4415584,99.6 Z M11.9480519,108 L82.4415584,108 L82.4415584,106.8 L11.9480519,106.8 L11.9480519,108 Z M11.9480519,115.2 L82.4415584,115.2 L82.4415584,114 L11.9480519,114 L11.9480519,115.2 Z M11.9480519,122.4 L82.4415584,122.4 L82.4415584,121.2 L11.9480519,121.2 L11.9480519,122.4 Z M11.9480519,129.6 L82.4415584,129.6 L82.4415584,128.4 L11.9480519,128.4 L11.9480519,129.6 Z" id="Fill-77" fill="#6B5042"></path>
                    <circle id="Oval" fill="#6B5042" cx="48" cy="111" r="13"></circle>
                    <path d="M48.9391675,104.349509 C48.9159789,104.327571 48.8974281,104.309289 48.8742395,104.289963 C48.8603264,104.278471 48.8510509,104.266457 48.8371378,104.254444 C48.8278623,104.24922 48.8232246,104.24922 48.8185869,104.244519 C48.0811901,103.659502 46.9032102,104.227282 46.1472625,104.867145 C45.9942179,104.998774 45.7159549,105.305908 45.7020418,105.328368 C45.1640667,105.883613 44.5936276,106.623764 44.2736252,107.416149 C44.1437692,107.739476 44,108.02885 44,108.63894 C44,111.336288 46.4348009,111.546789 48.0672769,110.155806 C49.0319218,109.335215 49.9177256,108.515146 49.9919291,107.100658 C50.0568571,105.909207 49.732217,105.071901 48.9391675,104.349509 M44.7976871,107.503902 C45.1687044,106.555338 45.813347,105.845482 46.5275552,105.221812 C46.5553815,105.198307 47.232488,104.701042 47.5895922,104.601798 C48.7582966,104.27586 49.0087333,105.690348 48.5913388,106.642046 C48.2203215,107.500768 47.6127808,108.241441 46.9681382,108.855187 C46.5043666,109.296562 45.5258086,110.118198 44.8672529,109.539449 C44.278263,109.021813 44.5658014,108.101455 44.7976871,107.503902" id="Fill-42" fill="#F3E2D3"></path>
                    <path d="M52.9437057,115.52696 C52.9531498,115.496224 52.9578718,115.467077 52.9673159,115.435811 C52.9720379,115.417793 52.9767599,115.401365 52.981482,115.382287 C52.981482,115.373278 52.9767599,115.365859 52.981482,115.35791 C53.1467532,114.345733 52.1740142,113.366412 51.3287701,112.855554 C51.1540549,112.750096 50.7810142,112.593236 50.757404,112.591646 C50.0727091,112.269975 49.218021,111.990699 48.4341634,112.000237 C48.1130651,112.003947 47.815577,111.97851 47.3150414,112.238179 C45.1004075,113.389199 45.9692617,115.999662 47.8108549,117.099809 C48.8969227,117.74845 49.9452142,118.318661 51.1398888,117.795085 C52.145682,117.353648 52.6934379,116.661022 52.9437057,115.52696 M48.5852685,112.581577 C49.5202312,112.55826 50.3796413,112.927095 51.1965532,113.401917 C51.2300796,113.419935 51.9284684,113.908536 52.1598481,114.234976 C52.9295396,115.308096 51.8765261,116.173481 50.9179532,116.148044 C50.053821,116.125257 49.185439,115.810475 48.4058312,115.404545 C47.8439092,115.11255 46.7531193,114.45119 46.9467227,113.520623 C47.1167159,112.689154 47.9997363,112.596945 48.5852685,112.581577" id="Fill-43" fill="#F3E2D3"></path>
                    <path d="M52.8361888,108.060892 C52.1587449,107.892115 52.1404356,106.934639 52.1129717,106.258995 C52.103817,105.915546 51.6598166,105.911796 51.6552393,106.258995 C51.6552393,106.966251 51.63693,107.712086 51.1929296,108.231813 C51.0189913,108.252173 50.9091356,108.577404 51.1013832,108.738144 C51.6094661,109.161963 51.63693,110.149443 51.7605178,110.808478 C51.820023,111.11067 52.2045182,111.031371 52.2090955,110.737217 C52.2228275,110.185878 52.2182501,108.721534 52.8224568,108.583834 C52.9185806,108.562402 52.9643539,108.490604 52.9780858,108.407555 C53.0284364,108.271998 52.9963951,108.100006 52.8361888,108.060892" id="Fill-44" fill="#F3E2D3"></path>
                    <path d="M44.8361888,102.060749 C44.1587449,101.891984 44.1404356,100.934039 44.1129717,100.258977 C44.103817,99.9155522 43.6598166,99.9118018 43.6552393,100.258977 C43.6552393,100.96672 43.63693,101.711967 43.1929296,102.232194 C43.0189913,102.252017 42.9091356,102.578297 43.1013832,102.737954 C43.6094661,103.162279 43.63693,104.149156 43.7605178,104.808145 C43.820023,105.110315 44.2045182,105.032094 44.2090955,104.736888 C44.2228275,104.186123 44.2182501,102.721881 44.8224568,102.58419 C44.9185806,102.562224 44.9643539,102.490432 44.9780858,102.407388 C45.0284364,102.27184 44.9963951,102.09986 44.8361888,102.060749" id="Fill-45" fill="#F3E2D3"></path>
                    <path d="M44.8361695,117.060611 C44.1586456,116.891304 44.1403341,115.934401 44.1174448,115.258783 C44.1037112,114.915348 43.6596584,114.912134 43.6596584,115.258783 C43.6550806,115.966548 43.6367691,116.711818 43.1972941,117.23206 C43.0187574,117.25242 42.9088887,117.577638 43.101159,117.737837 C43.6093019,118.161638 43.6367691,119.149616 43.7603714,119.80809 C43.8198837,120.110806 44.2044242,120.03151 44.21358,119.736831 C44.2273136,119.185514 44.2181578,117.721763 44.8224359,117.583532 C44.918571,117.561565 44.9643497,117.490306 44.9780833,117.407796 C45.0284398,117.271172 44.9963947,117.100258 44.8361695,117.060611" id="Fill-46" fill="#F3E2D3"></path>
                    <path d="M11.2136492,102.476832 C9.58293866,99.723408 5.96594916,98.4561018 3.47083945,100.904988 C3.24401129,101.131593 2.2508718,102.828128 1.93821678,103.57988 C1.04929563,105.747609 0.791815019,108.557983 0.583378336,110.135821 C-0.0664536769,114.995227 -0.115497602,120.040473 0.154243988,124.931651 C0.362680671,128.651441 2.52061339,147.005799 9.71780945,143.57496 C13.0773183,141.973143 13.273494,135.956736 13.6719759,132.959922 C14.4015043,127.439886 14.5363751,121.852109 14.0520664,116.306296 C13.6719759,111.970238 13.4941917,106.323711 11.2136492,102.476832 Z M6.94682766,140.466643 C4.83793887,138.744929 4.00419214,134.244014 3.46470896,131.740574 C2.75970253,128.488981 2.55126584,125.145067 2.50835241,121.829329 C2.47156947,118.900856 2.52061339,115.958596 2.74131106,113.037916 C2.81487694,112.039178 3.12140148,107.594015 4.04097508,104.957491 C4.46397894,103.759125 4.63563268,102.855105 6.62804215,102.576945 C7.52309379,102.451653 8.68175653,103.226784 9.09862989,103.686587 C9.57680817,104.456923 9.78524485,105.428084 10.0059425,106.301531 C10.3982939,107.882966 10.6925575,109.496173 10.9500381,111.103386 C11.4956518,114.479073 11.7960458,117.889529 11.8696117,121.305381 C11.9370471,124.640902 11.7960458,127.986015 11.4220859,131.302952 C11.2259102,133.017472 10.3799024,143.265028 6.94682766,140.466643 Z" id="Fill-34" fill="#25435A"></path>
                </g>
            </g>
        </g>
    </g>
</svg>