<?xml version="1.0" encoding="UTF-8"?>
<svg width="27px" height="24px" viewBox="0 0 27 24" version="1.1" xmlns="http://www.w3.org/2000/svg" xmlns:xlink="http://www.w3.org/1999/xlink">
    <!-- Generator: Sketch 60.1 (88133) - https://sketch.com -->
    <title>Group 9</title>
    <desc>Created with Sketch.</desc>
    <g id="New-Dapp" stroke="none" stroke-width="1" fill="none" fill-rule="evenodd">
        <g id="Issue-a-community-currency" transform="translate(-449.000000, -517.000000)" fill="#4A687B">
            <g id="Group-9" transform="translate(449.000000, 517.000000)">
                <path d="M1.03846154,22.9461667 L1.03846154,4.72486168 L25.9610192,4.72486168 L25.9599808,22.9461667 L1.03846154,22.9461667 Z M1.03846154,3.67102837 L25.9615385,3.67102837 L25.9615385,1.0533064 L1.03846154,1.0533064 L1.03846154,3.67102837 Z M1.03846154,0 C0.46575,0 0,0.472644243 0,1.05383332 L0,22.9461667 C0,23.5273558 0.46575,24 1.03846154,24 L25.9615385,24 C26.53425,24 27,23.5273558 27,22.9461667 L27,1.05383332 C27,0.472644243 26.53425,0 25.9615385,0 L1.03846154,0 Z" id="Fill-1"></path>
                <path d="M9.59052821,16 C9.52152772,16 9.45138673,15.9843463 9.38694826,15.9515241 L5.20472045,13.813537 C5.07812452,13.7489025 5,13.6292277 5,13.4999588 C5,13.3701849 5.07812452,13.2510151 5.20472045,13.1863806 L9.38694826,11.0483934 C9.58311493,10.948412 9.83288528,11.0085018 9.94522492,11.181197 C10.0581348,11.3538923 9.99084508,11.5755683 9.79524866,11.6755498 L6.2271822,13.4999588 L9.79524866,15.3243678 C9.99084508,15.4243492 10.0581348,15.6455203 9.94522492,15.8187205 C9.86938141,15.9348606 9.73195069,16 9.59052821,16" id="Fill-3"></path>
                <path d="M17.4095185,16 C17.2680799,16 17.1306335,15.9348606 17.0547813,15.8187205 C16.9418586,15.6455203 17.009156,15.4243492 17.2047747,15.3243678 L20.7732481,13.4999588 L17.2047747,11.6755498 C17.009156,11.5755683 16.9418586,11.3538923 17.0547813,11.181197 C17.1671338,11.0085018 17.4169326,10.948412 17.6131217,11.0483934 L21.7952562,13.1863806 C21.9218666,13.2510151 22,13.3701849 22,13.4999588 C22,13.6292277 21.9218666,13.7489025 21.7952562,13.813537 L17.6131217,15.9515241 C17.5492462,15.9843463 17.4785269,16 17.4095185,16" id="Fill-5"></path>
                <path d="M11.3817388,19 C11.334897,19 11.2875229,18.9918462 11.2412133,18.9745195 C11.0453294,18.9001165 10.9495166,18.6881189 11.0266991,18.5005825 L15.2632216,8.23143709 C15.3404041,8.04339111 15.5623704,7.95166136 15.7587867,8.02555477 C15.9546706,8.09995779 16.0504834,8.31195543 15.9733009,8.5 L11.7367784,18.7686372 C11.6776938,18.9123471 11.5334424,19 11.3817388,19" id="Fill-7"></path>
            </g>
        </g>
    </g>
</svg>