<?xml version="1.0" encoding="UTF-8"?>
<svg width="47px" height="47px" viewBox="0 0 47 47" version="1.1" xmlns="http://www.w3.org/2000/svg" xmlns:xlink="http://www.w3.org/1999/xlink">
    <!-- Generator: Sketch 55.1 (78136) - https://sketchapp.com -->
    <title>user</title>
    <desc>Created with Sketch.</desc>
    <g id="DApp-home-page" stroke="none" stroke-width="1" fill="none" fill-rule="evenodd">
        <g id="Fuse--Home-wallet-open" transform="translate(-1762.000000, -74.000000)">
            <g id="Group-14" transform="translate(1650.000000, 58.000000)">
                <g id="user" transform="translate(110.000000, 15.000000)">
                    <g transform="translate(2.000000, 1.000000)" id="Path">
                        <path d="M16.5058679,36.848 L9.494,40.6727358 C9.0825283,40.8970943 8.71273585,41.1728868 8.36866038,41.4735094 C12.4567736,44.9204717 17.7340755,47 23.5,47 C29.2233585,47 34.4669623,44.9515094 38.5435472,41.5515472 C38.1675472,41.2340755 37.7596226,40.9485283 37.3073585,40.723283 L29.7988868,36.9694906 C28.8287358,36.4844151 28.2159623,35.4929811 28.2159623,34.408434 L28.2159623,31.4625094 C28.4270189,31.2221887 28.6682264,30.9135849 28.926283,30.5491132 C29.9496415,29.1036415 30.7238113,27.5136226 31.2603208,25.845566 C32.2233774,25.5484906 32.9328113,24.6590377 32.9328113,23.6019811 L32.9328113,20.4574151 C32.9328113,19.765717 32.6250943,19.1476226 32.1471132,18.7148679 L32.1471132,14.1691698 C32.1471132,14.1691698 33.0809057,7.09522642 23.5008868,7.09522642 C13.9208679,7.09522642 14.8546604,14.1691698 14.8546604,14.1691698 L14.8546604,18.7148679 C14.3757925,19.1476226 14.0689623,19.765717 14.0689623,20.4574151 L14.0689623,23.6019811 C14.0689623,24.4302453 14.5043774,25.1591887 15.1561698,25.5804151 C15.9418679,29.0007736 17.9992264,31.4625094 17.9992264,31.4625094 L17.9992264,34.335717 C17.9983396,35.3821321 17.4254717,36.3460755 16.5058679,36.848 Z" fill="#E7ECED" fill-rule="nonzero"></path>
                        <path d="M23.901717,0.00354716981 C10.925283,-0.218150943 0.225245283,10.1218491 0.00354716981,23.098283 C-0.122377358,30.456 3.15698113,37.0688113 8.37841509,41.4664151 C8.71983019,41.1684528 9.08607547,40.8953208 9.49311321,40.6736226 L16.5049811,36.8488868 C17.4245849,36.3469623 17.9974528,35.3830189 17.9974528,34.3348302 L17.9974528,31.4616226 C17.9974528,31.4616226 15.9392075,28.9998868 15.1543962,25.5795283 C14.5034906,25.1583019 14.0671887,24.4302453 14.0671887,23.6010943 L14.0671887,20.4565283 C14.0671887,19.7648302 14.3749057,19.1467358 14.8528868,18.7139811 L14.8528868,14.168283 C14.8528868,14.168283 13.9190943,7.09433962 23.4991132,7.09433962 C33.0791321,7.09433962 32.1453396,14.168283 32.1453396,14.168283 L32.1453396,18.7139811 C32.6242075,19.1467358 32.9310377,19.7648302 32.9310377,20.4565283 L32.9310377,23.6010943 C32.9310377,24.6581509 32.2216038,25.5476038 31.2585472,25.8446792 C30.7220377,27.5127358 29.9478679,29.1027547 28.9245094,30.5482264 C28.6664528,30.9126981 28.4252453,31.2213019 28.2141887,31.4616226 L28.2141887,34.4075472 C28.2141887,35.4920943 28.8269623,36.4844151 29.7971132,36.9686038 L37.3055849,40.7223962 C37.7560755,40.9476415 38.1631132,41.2323019 38.5382264,41.5488868 C43.6018113,37.3259811 46.8731887,31.0120189 46.9946792,23.901717 C47.2181509,10.925283 36.8790377,0.225245283 23.901717,0.00354716981 Z" fill="#C7CAD4" fill-rule="nonzero"></path>
                    </g>
                </g>
            </g>
        </g>
    </g>
</svg>