<?xml version="1.0" encoding="UTF-8"?>
<svg width="121px" height="136px" viewBox="0 0 121 136" version="1.1" xmlns="http://www.w3.org/2000/svg" xmlns:xlink="http://www.w3.org/1999/xlink">
    <!-- Generator: Sketch 56.3 (81716) - https://sketch.com -->
    <title>Group 7</title>
    <desc>Created with Sketch.</desc>
    <defs>
        <linearGradient x1="50%" y1="2.85885653%" x2="50%" y2="100%" id="linearGradient-1">
            <stop stop-color="#E0E0E0" offset="0%"></stop>
            <stop stop-color="#7A7A7A" offset="100%"></stop>
        </linearGradient>
        <circle id="path-2" cx="25" cy="25" r="25"></circle>
        <filter x="-16.0%" y="-14.0%" width="132.0%" height="132.0%" filterUnits="objectBoundingBox" id="filter-3">
            <feOffset dx="0" dy="1" in="SourceAlpha" result="shadowOffsetOuter1"></feOffset>
            <feGaussianBlur stdDeviation="2.5" in="shadowOffsetOuter1" result="shadowBlurOuter1"></feGaussianBlur>
            <feColorMatrix values="0 0 0 0 0   0 0 0 0 0   0 0 0 0 0  0 0 0 0.2 0" type="matrix" in="shadowBlurOuter1"></feColorMatrix>
        </filter>
        <linearGradient x1="86.4389273%" y1="14.0362079%" x2="0%" y2="94.7178231%" id="linearGradient-4">
            <stop stop-color="#FAE83E" offset="0%"></stop>
            <stop stop-color="#F7B500" offset="100%"></stop>
        </linearGradient>
        <circle id="path-5" cx="25" cy="25" r="21.6666667"></circle>
        <filter x="-2.3%" y="-2.3%" width="104.6%" height="104.6%" filterUnits="objectBoundingBox" id="filter-6">
            <feGaussianBlur stdDeviation="0.5" in="SourceAlpha" result="shadowBlurInner1"></feGaussianBlur>
            <feOffset dx="1" dy="1" in="shadowBlurInner1" result="shadowOffsetInner1"></feOffset>
            <feComposite in="shadowOffsetInner1" in2="SourceAlpha" operator="arithmetic" k2="-1" k3="1" result="shadowInnerInner1"></feComposite>
            <feColorMatrix values="0 0 0 0 0.780995245   0 0 0 0 0.572308256   0 0 0 0 0  0 0 0 0.45 0" type="matrix" in="shadowInnerInner1"></feColorMatrix>
        </filter>
        <path d="M33.3049714,23.8768399 L31.1140576,22.8867244 L33.304601,21.8969776 C33.8365848,21.656916 34.1666667,21.1465548 34.1666667,20.565392 C34.1666667,19.9845979 33.8365848,19.4742367 33.3049714,19.2338064 L28.061078,16.8645354 C26.2480357,16.0451549 24.168631,16.0451549 22.3555886,16.8645354 L17.1116952,19.2338064 C16.5800819,19.4742367 16.25,19.9845979 16.25,20.565392 C16.25,21.1465548 16.5804523,21.656916 17.1120657,21.8969776 L19.3022386,22.8867244 L17.1116952,23.8768399 C16.5800819,24.1169015 16.25,24.6272627 16.25,25.2084255 C16.25,25.7895883 16.5804523,26.2995808 17.1120657,26.5396424 L19.3022386,27.5297579 L17.1116952,28.5195047 C16.5800819,28.759935 16.25,29.2702963 16.25,29.8510903 C16.25,30.4322531 16.5804523,30.9426144 17.1120657,31.1826759 L22.3555886,33.5523156 C23.2621098,33.9620059 24.2353142,34.1666667 25.2081481,34.1666667 C26.1813525,34.1666667 27.1545569,33.9620059 28.061078,33.5523156 L33.304601,31.1826759 C33.8365848,30.9426144 34.1666667,30.4322531 34.1666667,29.8510903 C34.1666667,29.2702963 33.8365848,28.759935 33.3049714,28.5195047 L31.1140576,27.5297579 L33.304601,26.5396424 C33.8365848,26.2995808 34.1666667,25.7895883 34.1666667,25.2084255 C34.1666667,24.6272627 33.8365848,24.1169015 33.3049714,23.8768399 Z M27.9747603,27.5275454 L32.7674307,29.6976869 C32.8496733,29.7349315 32.8667146,29.8016767 32.8667146,29.8510903 C32.8667146,29.9005039 32.8496733,29.9672491 32.7674307,30.0044937 L27.5239077,32.3741334 C26.0524316,33.0390043 24.3642351,33.0390043 22.8927589,32.3741334 L17.649236,30.0044937 C17.5669934,29.9672491 17.5499521,29.9005039 17.5499521,29.8510903 C17.5499521,29.8016767 17.5669934,29.7349315 17.649236,29.6976869 L20.874851,28.2403548 L22.3544773,28.9089133 C23.2613689,29.3186036 24.2345733,29.5236331 25.2081481,29.5236331 C26.1817229,29.5236331 27.1556682,29.3186036 28.0621894,28.9089133 L28.4867392,28.7171591 L26.8567052,27.9811179 C25.5560122,28.3793766 24.1456623,28.2971436 22.8916475,27.7307311 L17.649236,25.3614601 C17.5669934,25.3245843 17.5499521,25.2578391 17.5499521,25.2084255 C17.5499521,25.1586432 17.5669934,25.091898 17.649236,25.0546534 L20.874851,23.5973213 L22.3559591,24.266986 C23.2624803,24.6763075 24.2353142,24.8813371 25.2081481,24.8813371 C26.1813525,24.8813371 27.1541864,24.6763075 28.0607076,24.266986 L28.4852573,24.074863 L26.8548529,23.3388218 C25.5552712,23.7367118 24.1460328,23.6544788 22.8934999,23.0888038 L17.649236,20.7187953 C17.5669934,20.6815508 17.5499521,20.6148056 17.5499521,20.565392 C17.5499521,20.5159784 17.5669934,20.4492332 17.649236,20.4119886 L22.8931294,18.0423489 C24.3646055,17.377478 26.0520611,17.377478 27.5235373,18.0423489 L32.7674307,20.4119886 C32.8496733,20.4492332 32.8667146,20.5159784 32.8667146,20.565392 C32.8667146,20.6148056 32.8496733,20.6815508 32.7674307,20.7187953 L27.972908,22.8856181 L32.7674307,25.0546534 C32.8496733,25.091898 32.8667146,25.1586432 32.8667146,25.2084255 C32.8667146,25.2578391 32.8496733,25.3245843 32.7674307,25.3614601 L27.9747603,27.5275454 Z" id="path-7"></path>
        <filter x="-36.3%" y="-30.7%" width="172.6%" height="172.6%" filterUnits="objectBoundingBox" id="filter-8">
            <feOffset dx="0" dy="1" in="SourceAlpha" result="shadowOffsetOuter1"></feOffset>
            <feGaussianBlur stdDeviation="2" in="shadowOffsetOuter1" result="shadowBlurOuter1"></feGaussianBlur>
            <feColorMatrix values="0 0 0 0 0   0 0 0 0 0   0 0 0 0 0  0 0 0 0.15 0" type="matrix" in="shadowBlurOuter1"></feColorMatrix>
        </filter>
        <circle id="path-9" cx="19.25" cy="19.25" r="19.25"></circle>
        <filter x="-16.9%" y="-14.3%" width="133.8%" height="133.8%" filterUnits="objectBoundingBox" id="filter-10">
            <feOffset dx="0" dy="1" in="SourceAlpha" result="shadowOffsetOuter1"></feOffset>
            <feGaussianBlur stdDeviation="2" in="shadowOffsetOuter1" result="shadowBlurOuter1"></feGaussianBlur>
            <feColorMatrix values="0 0 0 0 0   0 0 0 0 0   0 0 0 0 0  0 0 0 0.2 0" type="matrix" in="shadowBlurOuter1"></feColorMatrix>
        </filter>
        <circle id="path-11" cx="19.25" cy="19.25" r="16.6833333"></circle>
        <filter x="-3.0%" y="-3.0%" width="106.0%" height="106.0%" filterUnits="objectBoundingBox" id="filter-12">
            <feGaussianBlur stdDeviation="0.5" in="SourceAlpha" result="shadowBlurInner1"></feGaussianBlur>
            <feOffset dx="1" dy="1" in="shadowBlurInner1" result="shadowOffsetInner1"></feOffset>
            <feComposite in="shadowOffsetInner1" in2="SourceAlpha" operator="arithmetic" k2="-1" k3="1" result="shadowInnerInner1"></feComposite>
            <feColorMatrix values="0 0 0 0 0.780995245   0 0 0 0 0.572308256   0 0 0 0 0  0 0 0 0.45 0" type="matrix" in="shadowInnerInner1"></feColorMatrix>
        </filter>
        <path d="M25.644828,18.3851667 L23.9578243,17.6227778 L25.6445427,16.8606727 C26.0541703,16.6758253 26.3083333,16.2828472 26.3083333,15.8353518 C26.3083333,15.3881404 26.0541703,14.9951622 25.644828,14.8100309 L21.6070301,12.9856923 C20.2109875,12.3547692 18.6098459,12.3547692 17.2138033,12.9856923 L13.1760053,14.8100309 C12.766663,14.9951622 12.5125,15.3881404 12.5125,15.8353518 C12.5125,16.2828472 12.7669483,16.6758253 13.1762906,16.8606727 L14.8627237,17.6227778 L13.1760053,18.3851667 C12.766663,18.5700141 12.5125,18.9629923 12.5125,19.4104877 C12.5125,19.857983 12.7669483,20.2506772 13.1762906,20.4355246 L14.8627237,21.1979136 L13.1760053,21.9600186 C12.766663,22.14515 12.5125,22.5381281 12.5125,22.9853395 C12.5125,23.4328349 12.7669483,23.8258131 13.1762906,24.0106605 L17.2138033,25.835283 C17.9118246,26.1507445 18.6611919,26.3083333 19.410274,26.3083333 C20.1596414,26.3083333 20.9090088,26.1507445 21.6070301,25.835283 L25.6445427,24.0106605 C26.0541703,23.8258131 26.3083333,23.4328349 26.3083333,22.9853395 C26.3083333,22.5381281 26.0541703,22.14515 25.644828,21.9600186 L23.9578243,21.1979136 L25.6445427,20.4355246 C26.0541703,20.2506772 26.3083333,19.857983 26.3083333,19.4104877 C26.3083333,18.9629923 26.0541703,18.5700141 25.644828,18.3851667 Z M21.5405654,21.1962099 L25.2309216,22.8672189 C25.2942484,22.8958973 25.3073702,22.9472911 25.3073702,22.9853395 C25.3073702,23.023388 25.2942484,23.0747818 25.2309216,23.1034602 L21.193409,24.9280827 C20.0603723,25.4400333 18.760461,25.4400333 17.6274244,24.9280827 L13.5899117,23.1034602 C13.5265849,23.0747818 13.5134631,23.023388 13.5134631,22.9853395 C13.5134631,22.9472911 13.5265849,22.8958973 13.5899117,22.8672189 L16.0736352,21.7450732 L17.2129475,22.2598633 C17.911254,22.5753248 18.6606214,22.7331975 19.410274,22.7331975 C20.1599267,22.7331975 20.9098645,22.5753248 21.6078858,22.2598633 L21.9347892,22.1122125 L20.679663,21.5454608 C19.6781294,21.85212 18.59216,21.7888006 17.6265686,21.3526629 L13.5899117,19.5283243 C13.5265849,19.4999299 13.5134631,19.4485361 13.5134631,19.4104877 C13.5134631,19.3721552 13.5265849,19.3207614 13.5899117,19.2920831 L16.0736352,18.1699374 L17.2140885,18.6855792 C17.9121098,19.0007568 18.6611919,19.1586295 19.410274,19.1586295 C20.1596414,19.1586295 20.9087235,19.0007568 21.6067448,18.6855792 L21.9336481,18.5376445 L20.6782367,17.9708928 C19.6775589,18.2772681 18.5924452,18.2139487 17.6279949,17.7783789 L13.5899117,15.9534724 C13.5265849,15.9247941 13.5134631,15.8734003 13.5134631,15.8353518 C13.5134631,15.7973033 13.5265849,15.7459095 13.5899117,15.7172312 L17.6277096,13.8926086 C18.7607462,13.380658 20.0600871,13.380658 21.1931237,13.8926086 L25.2309216,15.7172312 C25.2942484,15.7459095 25.3073702,15.7973033 25.3073702,15.8353518 C25.3073702,15.8734003 25.2942484,15.9247941 25.2309216,15.9534724 L21.5391392,17.6219259 L25.2309216,19.2920831 C25.2942484,19.3207614 25.3073702,19.3721552 25.3073702,19.4104877 C25.3073702,19.4485361 25.2942484,19.4999299 25.2309216,19.5283243 L21.5405654,21.1962099 Z" id="path-13"></path>
        <filter x="-36.2%" y="-29.0%" width="172.5%" height="172.5%" filterUnits="objectBoundingBox" id="filter-14">
            <feOffset dx="0" dy="1" in="SourceAlpha" result="shadowOffsetOuter1"></feOffset>
            <feGaussianBlur stdDeviation="1.5" in="shadowOffsetOuter1" result="shadowBlurOuter1"></feGaussianBlur>
            <feColorMatrix values="0 0 0 0 0   0 0 0 0 0   0 0 0 0 0  0 0 0 0.15 0" type="matrix" in="shadowBlurOuter1"></feColorMatrix>
        </filter>
        <circle id="path-15" cx="9.625" cy="9.625" r="9.625"></circle>
        <filter x="-18.2%" y="-13.0%" width="136.4%" height="136.4%" filterUnits="objectBoundingBox" id="filter-16">
            <feOffset dx="0" dy="1" in="SourceAlpha" result="shadowOffsetOuter1"></feOffset>
            <feGaussianBlur stdDeviation="1" in="shadowOffsetOuter1" result="shadowBlurOuter1"></feGaussianBlur>
            <feColorMatrix values="0 0 0 0 0   0 0 0 0 0   0 0 0 0 0  0 0 0 0.2 0" type="matrix" in="shadowBlurOuter1"></feColorMatrix>
        </filter>
        <circle id="path-17" cx="9.625" cy="9.625" r="8.34166667"></circle>
        <filter x="-6.0%" y="-6.0%" width="112.0%" height="112.0%" filterUnits="objectBoundingBox" id="filter-18">
            <feGaussianBlur stdDeviation="0.5" in="SourceAlpha" result="shadowBlurInner1"></feGaussianBlur>
            <feOffset dx="1" dy="1" in="shadowBlurInner1" result="shadowOffsetInner1"></feOffset>
            <feComposite in="shadowOffsetInner1" in2="SourceAlpha" operator="arithmetic" k2="-1" k3="1" result="shadowInnerInner1"></feComposite>
            <feColorMatrix values="0 0 0 0 0.780995245   0 0 0 0 0.572308256   0 0 0 0 0  0 0 0 0.45 0" type="matrix" in="shadowInnerInner1"></feColorMatrix>
        </filter>
        <path d="M12.822414,9.19258337 L11.9789122,8.81138888 L12.8222714,8.43033636 C13.0270851,8.33791267 13.1541667,8.14142359 13.1541667,7.91767591 C13.1541667,7.6940702 13.0270851,7.49758112 12.822414,7.40501545 L10.803515,6.49284614 C10.1054937,6.17738462 9.30492293,6.17738462 8.60690163,6.49284614 L6.58800267,7.40501545 C6.38333152,7.49758112 6.25625,7.6940702 6.25625,7.91767591 C6.25625,8.14142359 6.38347415,8.33791267 6.58814529,8.43033636 L7.43136187,8.81138888 L6.58800267,9.19258337 C6.38333152,9.28500707 6.25625,9.48149615 6.25625,9.70524383 C6.25625,9.92899151 6.38347415,10.1253386 6.58814529,10.2177623 L7.43136187,10.5989568 L6.58800267,10.9800093 C6.38333152,11.072575 6.25625,11.2690641 6.25625,11.4926698 C6.25625,11.7164175 6.38347415,11.9129065 6.58814529,12.0053302 L8.60690163,12.9176415 C8.95591228,13.0753723 9.33059596,13.1541667 9.70513702,13.1541667 C10.0798207,13.1541667 10.4545044,13.0753723 10.803515,12.9176415 L12.8222714,12.0053302 C13.0270851,11.9129065 13.1541667,11.7164175 13.1541667,11.4926698 C13.1541667,11.2690641 13.0270851,11.072575 12.822414,10.9800093 L11.9789122,10.5989568 L12.8222714,10.2177623 C13.0270851,10.1253386 13.1541667,9.92899151 13.1541667,9.70524383 C13.1541667,9.48149615 13.0270851,9.28500707 12.822414,9.19258337 Z M10.7702827,10.598105 L12.6154608,11.4336095 C12.6471242,11.4479486 12.6536851,11.4736455 12.6536851,11.4926698 C12.6536851,11.511694 12.6471242,11.5373909 12.6154608,11.5517301 L10.5967045,12.4640414 C10.0301862,12.7200167 9.3802305,12.7200167 8.81371219,12.4640414 L6.79495585,11.5517301 C6.76329244,11.5373909 6.75673156,11.511694 6.75673156,11.4926698 C6.75673156,11.4736455 6.76329244,11.4479486 6.79495585,11.4336095 L8.03681762,10.8725366 L8.60647374,11.1299316 C8.95562702,11.2876624 9.33031071,11.3665987 9.70513702,11.3665987 C10.0799633,11.3665987 10.4549323,11.2876624 10.8039429,11.1299316 L10.9673946,11.0561062 L10.3398315,10.7727304 C9.83906469,10.92606 9.29607999,10.8944003 8.8132843,10.6763315 L6.79495585,9.76416216 C6.76329244,9.74996497 6.75673156,9.72426806 6.75673156,9.70524383 C6.75673156,9.68607762 6.76329244,9.66038071 6.79495585,9.64604155 L8.03681762,9.08496869 L8.60704425,9.34278962 C8.9560549,9.50037841 9.33059596,9.57931477 9.70513702,9.57931477 C10.0798207,9.57931477 10.4543618,9.50037841 10.8033724,9.34278962 L10.9668241,9.26882227 L10.3391184,8.9854464 C9.83877943,9.13863406 9.29622262,9.10697433 8.81399744,8.88918947 L6.79495585,7.97673621 C6.76329244,7.96239705 6.75673156,7.93670014 6.75673156,7.91767591 C6.75673156,7.89865167 6.76329244,7.87295476 6.79495585,7.8586156 L8.81385481,6.94630431 C9.38037312,6.69032902 10.0300435,6.69032902 10.5965619,6.94630431 L12.6154608,7.8586156 C12.6471242,7.87295476 12.6536851,7.89865167 12.6536851,7.91767591 C12.6536851,7.93670014 12.6471242,7.96239705 12.6154608,7.97673621 L10.7695696,8.81096296 L12.6154608,9.64604155 C12.6471242,9.66038071 12.6536851,9.68607762 12.6536851,9.70524383 C12.6536851,9.72426806 12.6471242,9.74996497 12.6154608,9.76416216 L10.7702827,10.598105 Z" id="path-19"></path>
        <filter x="-50.7%" y="-36.2%" width="201.5%" height="201.5%" filterUnits="objectBoundingBox" id="filter-20">
            <feOffset dx="0" dy="1" in="SourceAlpha" result="shadowOffsetOuter1"></feOffset>
            <feGaussianBlur stdDeviation="1" in="shadowOffsetOuter1" result="shadowBlurOuter1"></feGaussianBlur>
            <feColorMatrix values="0 0 0 0 0   0 0 0 0 0   0 0 0 0 0  0 0 0 0.15 0" type="matrix" in="shadowBlurOuter1"></feColorMatrix>
        </filter>
        <polygon id="path-21" points="27 78.6745336 62.7071018 92.9583309 95.1684977 80.0941547 93.2602163 66.8825026 28.7841797 71.9139957"></polygon>
        <circle id="path-23" cx="11.55" cy="11.55" r="11.55"></circle>
        <filter x="-15.2%" y="-10.8%" width="130.3%" height="130.3%" filterUnits="objectBoundingBox" id="filter-24">
            <feOffset dx="0" dy="1" in="SourceAlpha" result="shadowOffsetOuter1"></feOffset>
            <feGaussianBlur stdDeviation="1" in="shadowOffsetOuter1" result="shadowBlurOuter1"></feGaussianBlur>
            <feColorMatrix values="0 0 0 0 0   0 0 0 0 0   0 0 0 0 0  0 0 0 0.2 0" type="matrix" in="shadowBlurOuter1"></feColorMatrix>
        </filter>
        <circle id="path-25" cx="11.55" cy="11.55" r="10.01"></circle>
        <filter x="-5.0%" y="-5.0%" width="110.0%" height="110.0%" filterUnits="objectBoundingBox" id="filter-26">
            <feGaussianBlur stdDeviation="0.5" in="SourceAlpha" result="shadowBlurInner1"></feGaussianBlur>
            <feOffset dx="1" dy="1" in="shadowBlurInner1" result="shadowOffsetInner1"></feOffset>
            <feComposite in="shadowOffsetInner1" in2="SourceAlpha" operator="arithmetic" k2="-1" k3="1" result="shadowInnerInner1"></feComposite>
            <feColorMatrix values="0 0 0 0 0.780995245   0 0 0 0 0.572308256   0 0 0 0 0  0 0 0 0.45 0" type="matrix" in="shadowInnerInner1"></feColorMatrix>
        </filter>
        <path d="M15.3868968,11.0311 L14.3746946,10.5736667 L15.3867256,10.1164036 C15.6325022,10.0054952 15.785,9.7697083 15.785,9.50121109 C15.785,9.23288424 15.6325022,8.99709734 15.3868968,8.88601854 L12.964218,7.79141536 C12.1265925,7.41286155 11.1659075,7.41286155 10.328282,7.79141536 L7.9056032,8.88601854 C7.65999783,8.99709734 7.5075,9.23288424 7.5075,9.50121109 C7.5075,9.7697083 7.66016898,10.0054952 7.90577435,10.1164036 L8.91763425,10.5736667 L7.9056032,11.0311 C7.65999783,11.1420085 7.5075,11.3777954 7.5075,11.6462926 C7.5075,11.9147898 7.66016898,12.1504063 7.90577435,12.2613148 L8.91763425,12.7187482 L7.9056032,13.1760112 C7.65999783,13.28709 7.5075,13.5228769 7.5075,13.7912037 C7.5075,14.0597009 7.66016898,14.2954878 7.90577435,14.4063963 L10.328282,15.5011698 C10.7470947,15.6904467 11.1967152,15.785 11.6461644,15.785 C12.0957848,15.785 12.5454053,15.6904467 12.964218,15.5011698 L15.3867256,14.4063963 C15.6325022,14.2954878 15.785,14.0597009 15.785,13.7912037 C15.785,13.5228769 15.6325022,13.28709 15.3868968,13.1760112 L14.3746946,12.7187482 L15.3867256,12.2613148 C15.6325022,12.1504063 15.785,11.9147898 15.785,11.6462926 C15.785,11.3777954 15.6325022,11.1420085 15.3868968,11.0311 Z M12.9243393,12.717726 L15.138553,13.7203314 C15.1765491,13.7375384 15.1844221,13.7683747 15.1844221,13.7912037 C15.1844221,13.8140328 15.1765491,13.8448691 15.138553,13.8620761 L12.7160454,14.9568496 C12.0362234,15.26402 11.2562766,15.26402 10.5764546,14.9568496 L8.15394703,13.8620761 C8.11595093,13.8448691 8.10807787,13.8140328 8.10807787,13.7912037 C8.10807787,13.7683747 8.11595093,13.7375384 8.15394703,13.7203314 L9.64418114,13.0470439 L10.3277685,13.355918 C10.7467524,13.5451949 11.1963728,13.6399185 11.6461644,13.6399185 C12.095956,13.6399185 12.5459187,13.5451949 12.9647315,13.355918 L13.1608735,13.2673275 L12.4077978,12.9272765 C11.8068776,13.111272 11.155296,13.0732803 10.5759412,12.8115978 L8.15394703,11.7169946 C8.11595093,11.699958 8.10807787,11.6691217 8.10807787,11.6462926 C8.10807787,11.6232931 8.11595093,11.5924569 8.15394703,11.5752499 L9.64418114,10.9019624 L10.3284531,11.2113475 C10.7472659,11.4004541 11.1967152,11.4951777 11.6461644,11.4951777 C12.0957848,11.4951777 12.5452341,11.4004541 12.9640469,11.2113475 L13.1601889,11.1225867 L12.406942,10.7825357 C11.8065353,10.9663609 11.1554671,10.9283692 10.5767969,10.6670274 L8.15394703,9.57208345 C8.11595093,9.55487646 8.10807787,9.52404017 8.10807787,9.50121109 C8.10807787,9.47838201 8.11595093,9.44754572 8.15394703,9.43033873 L10.5766258,8.33556518 C11.2564477,8.02839482 12.0360523,8.02839482 12.7158742,8.33556518 L15.138553,9.43033873 C15.1765491,9.44754572 15.1844221,9.47838201 15.1844221,9.50121109 C15.1844221,9.52404017 15.1765491,9.55487646 15.138553,9.57208345 L12.9234835,10.5731556 L15.138553,11.5752499 C15.1765491,11.5924569 15.1844221,11.6232931 15.1844221,11.6462926 C15.1844221,11.6691217 15.1765491,11.699958 15.138553,11.7169946 L12.9243393,12.717726 Z" id="path-27"></path>
        <filter x="-42.3%" y="-30.2%" width="184.6%" height="184.6%" filterUnits="objectBoundingBox" id="filter-28">
            <feOffset dx="0" dy="1" in="SourceAlpha" result="shadowOffsetOuter1"></feOffset>
            <feGaussianBlur stdDeviation="1" in="shadowOffsetOuter1" result="shadowBlurOuter1"></feGaussianBlur>
            <feColorMatrix values="0 0 0 0 0   0 0 0 0 0   0 0 0 0 0  0 0 0 0.15 0" type="matrix" in="shadowBlurOuter1"></feColorMatrix>
        </filter>
        <circle id="path-29" cx="7.7" cy="7.7" r="7.7"></circle>
        <filter x="-22.7%" y="-16.2%" width="145.5%" height="145.5%" filterUnits="objectBoundingBox" id="filter-30">
            <feOffset dx="0" dy="1" in="SourceAlpha" result="shadowOffsetOuter1"></feOffset>
            <feGaussianBlur stdDeviation="1" in="shadowOffsetOuter1" result="shadowBlurOuter1"></feGaussianBlur>
            <feColorMatrix values="0 0 0 0 0   0 0 0 0 0   0 0 0 0 0  0 0 0 0.2 0" type="matrix" in="shadowBlurOuter1"></feColorMatrix>
        </filter>
        <circle id="path-31" cx="7.7" cy="7.7" r="6.67333333"></circle>
        <filter x="-7.5%" y="-7.5%" width="115.0%" height="115.0%" filterUnits="objectBoundingBox" id="filter-32">
            <feGaussianBlur stdDeviation="0.5" in="SourceAlpha" result="shadowBlurInner1"></feGaussianBlur>
            <feOffset dx="1" dy="1" in="shadowBlurInner1" result="shadowOffsetInner1"></feOffset>
            <feComposite in="shadowOffsetInner1" in2="SourceAlpha" operator="arithmetic" k2="-1" k3="1" result="shadowInnerInner1"></feComposite>
            <feColorMatrix values="0 0 0 0 0.780995245   0 0 0 0 0.572308256   0 0 0 0 0  0 0 0 0.45 0" type="matrix" in="shadowInnerInner1"></feColorMatrix>
        </filter>
        <path d="M10.2579312,7.3540667 L9.58312973,7.0491111 L10.2578171,6.74426909 C10.4216681,6.67033013 10.5233333,6.51313887 10.5233333,6.33414072 C10.5233333,6.15525616 10.4216681,5.99806489 10.2579312,5.92401236 L8.64281203,5.19427691 C8.08439499,4.9419077 7.44393834,4.9419077 6.8855213,5.19427691 L5.27040213,5.92401236 C5.10666522,5.99806489 5.005,6.15525616 5.005,6.33414072 C5.005,6.51313887 5.10677932,6.67033013 5.27051623,6.74426909 L5.9450895,7.0491111 L5.27040213,7.3540667 C5.10666522,7.42800565 5.005,7.58519692 5.005,7.76419506 C5.005,7.94319321 5.10677932,8.10027089 5.27051623,8.17420985 L5.9450895,8.47916544 L5.27040213,8.78400746 C5.10666522,8.85805999 5.005,9.01525125 5.005,9.19413582 C5.005,9.37313396 5.10677932,9.53032523 5.27051623,9.60426418 L6.8855213,10.3341132 C7.16472982,10.4602978 7.46447677,10.5233333 7.76410962,10.5233333 C8.06385656,10.5233333 8.36360351,10.4602978 8.64281203,10.3341132 L10.2578171,9.60426418 C10.4216681,9.53032523 10.5233333,9.37313396 10.5233333,9.19413582 C10.5233333,9.01525125 10.4216681,8.85805999 10.2579312,8.78400746 L9.58312973,8.47916544 L10.2578171,8.17420985 C10.4216681,8.10027089 10.5233333,7.94319321 10.5233333,7.76419506 C10.5233333,7.58519692 10.4216681,7.42800565 10.2579312,7.3540667 Z M8.61622618,8.47848398 L10.0923686,9.14688758 C10.1176994,9.15835891 10.1229481,9.17891643 10.1229481,9.19413582 C10.1229481,9.2093552 10.1176994,9.22991273 10.0923686,9.24138406 L8.47736358,9.97123309 C8.02414894,10.1760133 7.5041844,10.1760133 7.05096975,9.97123309 L5.43596468,9.24138406 C5.41063396,9.22991273 5.40538525,9.2093552 5.40538525,9.19413582 C5.40538525,9.17891643 5.41063396,9.15835891 5.43596468,9.14688758 L6.42945409,8.69802929 L6.88517899,8.9039453 C7.16450162,9.03012991 7.46424856,9.093279 7.76410962,9.093279 C8.06397067,9.093279 8.36394582,9.03012991 8.64315434,8.9039453 L8.77391567,8.844885 L8.2718652,8.6181843 C7.87125175,8.74084801 7.43686399,8.71552022 7.05062744,8.54106518 L5.43596468,7.81132972 C5.41063396,7.79997197 5.40538525,7.77941445 5.40538525,7.76419506 C5.40538525,7.7488621 5.41063396,7.72830457 5.43596468,7.71683324 L6.42945409,7.26797495 L6.8856354,7.4742317 C7.16484392,7.60030272 7.46447677,7.66345182 7.76410962,7.66345182 C8.06385656,7.66345182 8.36348941,7.60030272 8.64269793,7.4742317 L8.77345926,7.41505782 L8.27129469,7.18835712 C7.87102354,7.31090725 7.4369781,7.28557946 7.05119795,7.11135158 L5.43596468,6.38138897 C5.41063396,6.36991764 5.40538525,6.34936011 5.40538525,6.33414072 C5.40538525,6.31892134 5.41063396,6.29836381 5.43596468,6.28689248 L7.05108385,5.55704345 C7.5042985,5.35226321 8.02403483,5.35226321 8.47724948,5.55704345 L10.0923686,6.28689248 C10.1176994,6.29836381 10.1229481,6.31892134 10.1229481,6.33414072 C10.1229481,6.34936011 10.1176994,6.36991764 10.0923686,6.38138897 L8.61565567,7.04877037 L10.0923686,7.71683324 C10.1176994,7.72830457 10.1229481,7.7488621 10.1229481,7.76419506 C10.1229481,7.77941445 10.1176994,7.79997197 10.0923686,7.81132972 L8.61622618,8.47848398 Z" id="path-33"></path>
        <filter x="-63.4%" y="-45.3%" width="226.8%" height="226.8%" filterUnits="objectBoundingBox" id="filter-34">
            <feOffset dx="0" dy="1" in="SourceAlpha" result="shadowOffsetOuter1"></feOffset>
            <feGaussianBlur stdDeviation="1" in="shadowOffsetOuter1" result="shadowBlurOuter1"></feGaussianBlur>
            <feColorMatrix values="0 0 0 0 0   0 0 0 0 0   0 0 0 0 0  0 0 0 0.15 0" type="matrix" in="shadowBlurOuter1"></feColorMatrix>
        </filter>
    </defs>
    <g id="Currency-Isuser" stroke="none" stroke-width="1" fill="none" fill-rule="evenodd">
        <g id="Summery--new-Copy-8" transform="translate(-930.000000, -340.000000)">
            <g id="Group-7" transform="translate(929.000000, 338.000000)">
                <g id="open-box" transform="translate(1.000000, 61.000000)" fill-rule="nonzero">
                    <g id="Group-8">
                        <g transform="translate(0.255774, 0.002508)">
                            <path d="M61.3362946,57.899045 L61.3362946,14.9127175 L20.7442256,31.9558233 L20.9224762,76.6939759 L59.7221331,60.331586 C60.7003525,59.9190563 61.3362946,58.9606918 61.3362946,57.899045 Z" id="Path-Copy" fill="#C3C3C3" transform="translate(41.040260, 45.803347) scale(-1, 1) translate(-41.040260, -45.803347) "></path>
                            <path d="M101.523176,57.8998658 L101.523176,14.9127175 L61.3373275,31.9558233 L61.158044,76.6939759 L99.9100644,60.3319636 C100.887724,59.9191729 101.523176,58.9610981 101.523176,57.8998658 Z" id="Path" fill="#D8D8D8"></path>
                            <path d="M3.57634131,33.6621692 L38.5877631,50.366838 C39.5544997,50.828088 40.7041176,50.659491 41.4977048,49.9400811 L61.3362946,31.9558233 L19.0354018,14.9127175 L2.95217781,29.3126283 C1.86591652,30.2851986 1.77375175,31.9542113 2.74632203,33.0404726 C2.97917182,33.300542 3.26128687,33.5118503 3.57634131,33.6621692 Z" id="Path" fill="#D8D8D8"></path>
                            <path d="M84.0848261,50.366838 L119.096248,33.6621692 C120.412172,33.0343149 120.969962,31.4585714 120.342108,30.1426476 C120.191789,29.8275931 119.980481,29.5454781 119.720411,29.3126283 L103.637187,14.9127175 L61.3362946,31.9558233 L81.1748844,49.9400811 C81.9684716,50.659491 83.1180894,50.828088 84.0848261,50.366838 Z" id="Path" fill="#C3C3C3"></path>
                            <polygon id="Path" fill="url(#linearGradient-1)" points="61.3362946 0 19.0354018 14.9127175 61.3362946 31.9558233 103.637187 14.9127175"></polygon>
                        </g>
                    </g>
                </g>
                <g id="Group-5-Copy" transform="translate(31.000000, 31.000000) rotate(-16.000000) translate(-31.000000, -31.000000) translate(6.000000, 6.000000)">
                    <g id="Oval">
                        <use fill="black" fill-opacity="1" filter="url(#filter-3)" xlink:href="#path-2"></use>
                        <use fill="#F7B500" fill-rule="evenodd" xlink:href="#path-2"></use>
                    </g>
                    <g id="Oval">
                        <use fill="url(#linearGradient-4)" fill-rule="evenodd" xlink:href="#path-5"></use>
                        <use fill="black" fill-opacity="1" filter="url(#filter-6)" xlink:href="#path-5"></use>
                    </g>
                    <g id="Fill-10">
                        <use fill="black" fill-opacity="1" filter="url(#filter-8)" xlink:href="#path-7"></use>
                        <use fill="#FFFFFF" fill-rule="evenodd" xlink:href="#path-7"></use>
                    </g>
                </g>
                <g id="Group-5-Copy-7" transform="translate(65.000000, 15.077524)">
                    <g id="Group-5-Copy-6" transform="translate(24.500000, 24.500000) rotate(-345.000000) translate(-24.500000, -24.500000) translate(5.000000, 5.000000)">
                        <g id="Oval">
                            <use fill="black" fill-opacity="1" filter="url(#filter-10)" xlink:href="#path-9"></use>
                            <use fill="#F7B500" fill-rule="evenodd" xlink:href="#path-9"></use>
                        </g>
                        <g id="Oval">
                            <use fill="url(#linearGradient-4)" fill-rule="evenodd" xlink:href="#path-11"></use>
                            <use fill="black" fill-opacity="1" filter="url(#filter-12)" xlink:href="#path-11"></use>
                        </g>
                        <g id="Fill-10">
                            <use fill="black" fill-opacity="1" filter="url(#filter-14)" xlink:href="#path-13"></use>
                            <use fill="#FFFFFF" fill-rule="evenodd" xlink:href="#path-13"></use>
                        </g>
                    </g>
                </g>
                <g id="Group-5-Copy-8" transform="translate(49.000000, 52.077524)">
                    <g id="Group-5-Copy-6" transform="translate(12.426777, 12.556186) rotate(-345.000000) translate(-12.426777, -12.556186) translate(2.426777, 2.556186)">
                        <g id="Oval">
                            <use fill="black" fill-opacity="1" filter="url(#filter-16)" xlink:href="#path-15"></use>
                            <use fill="#F7B500" fill-rule="evenodd" xlink:href="#path-15"></use>
                        </g>
                        <g id="Oval">
                            <use fill="url(#linearGradient-4)" fill-rule="evenodd" xlink:href="#path-17"></use>
                            <use fill="black" fill-opacity="1" filter="url(#filter-18)" xlink:href="#path-17"></use>
                        </g>
                        <g id="Fill-10">
                            <use fill="black" fill-opacity="1" filter="url(#filter-20)" xlink:href="#path-19"></use>
                            <use fill="#FFFFFF" fill-rule="evenodd" xlink:href="#path-19"></use>
                        </g>
                    </g>
                </g>
                <mask id="mask-22" fill="white">
                    <use xlink:href="#path-21"></use>
                </mask>
                <g id="Mask"></g>
                <g id="Group-5-Copy-10" mask="url(#mask-22)">
                    <g transform="translate(83.000000, 82.077524) rotate(-31.000000) translate(-83.000000, -82.077524) translate(68.000000, 67.077524)" id="Group-5-Copy-6">
                        <g transform="translate(14.912132, 15.067423) rotate(-345.000000) translate(-14.912132, -15.067423) translate(2.912132, 3.067423)">
                            <g id="Oval">
                                <use fill="black" fill-opacity="1" filter="url(#filter-24)" xlink:href="#path-23"></use>
                                <use fill="#F7B500" fill-rule="evenodd" xlink:href="#path-23"></use>
                            </g>
                            <g id="Oval">
                                <use fill="url(#linearGradient-4)" fill-rule="evenodd" xlink:href="#path-25"></use>
                                <use fill="black" fill-opacity="1" filter="url(#filter-26)" xlink:href="#path-25"></use>
                            </g>
                            <g id="Fill-10">
                                <use fill="black" fill-opacity="1" filter="url(#filter-28)" xlink:href="#path-27"></use>
                                <use fill="#FFFFFF" fill-rule="evenodd" xlink:href="#path-27"></use>
                            </g>
                        </g>
                    </g>
                </g>
                <g id="Group-5-Copy-9" mask="url(#mask-22)">
                    <g transform="translate(42.000000, 81.077524) rotate(-3.000000) translate(-42.000000, -81.077524) translate(32.000000, 71.077524)" id="Group-5-Copy-6">
                        <g transform="translate(9.941421, 10.044949) rotate(-345.000000) translate(-9.941421, -10.044949) translate(1.941421, 2.044949)">
                            <g id="Oval">
                                <use fill="black" fill-opacity="1" filter="url(#filter-30)" xlink:href="#path-29"></use>
                                <use fill="#F7B500" fill-rule="evenodd" xlink:href="#path-29"></use>
                            </g>
                            <g id="Oval">
                                <use fill="url(#linearGradient-4)" fill-rule="evenodd" xlink:href="#path-31"></use>
                                <use fill="black" fill-opacity="1" filter="url(#filter-32)" xlink:href="#path-31"></use>
                            </g>
                            <g id="Fill-10">
                                <use fill="black" fill-opacity="1" filter="url(#filter-34)" xlink:href="#path-33"></use>
                                <use fill="#FFFFFF" fill-rule="evenodd" xlink:href="#path-33"></use>
                            </g>
                        </g>
                    </g>
                </g>
            </g>
        </g>
    </g>
</svg>