<?xml version="1.0" encoding="UTF-8"?>
<svg width="22px" height="9px" viewBox="0 0 22 9" version="1.1" xmlns="http://www.w3.org/2000/svg" xmlns:xlink="http://www.w3.org/1999/xlink">
    <!-- Generator: Sketch 54.1 (76490) - https://sketchapp.com -->
    <title>unlink</title>
    <desc>Created with Sketch.</desc>
    <g id="New-Onboarding-NEW-existing-token" stroke="none" stroke-width="1" fill="none" fill-rule="evenodd">
        <g id="contracts--open-community-on" transform="translate(-420.000000, -264.000000)" fill="#375365" fill-rule="nonzero">
            <g id="unlink" transform="translate(431.020815, 268.020815) rotate(45.000000) translate(-431.020815, -268.020815) translate(422.520815, 259.520815)">
                <path d="M15.8171091,1.17485455 C14.2506364,-0.391618182 11.7015636,-0.391 10.1347818,1.17485455 L7.29361818,4.01601818 C7.05221818,4.25741818 7.05221818,4.64872727 7.29361818,4.89012727 C7.53501818,5.13152727 7.92632727,5.13152727 8.16772727,4.89012727 L11.0088909,2.04896364 C11.5315636,1.5266 12.2301091,1.23852727 12.9756364,1.23852727 C13.7214727,1.23852727 14.4200182,1.5266 14.9426909,2.04927273 C15.4653636,2.57194545 15.7534364,3.27049091 15.7534364,4.01632727 C15.7534364,4.76185455 15.4653636,5.4604 14.9426909,5.98307273 L11.2277273,9.69896364 C10.1428182,10.7832545 8.37821818,10.7832545 7.29330909,9.69896364 C7.05190909,9.45756364 6.6606,9.45756364 6.4192,9.69896364 C6.1778,9.94036364 6.1778,10.3319818 6.4192,10.5730727 C7.20243636,11.3563091 8.2314,11.7479273 9.26036364,11.7479273 C10.2893273,11.7479273 11.3182909,11.3563091 12.1015273,10.5730727 L15.8171091,6.85749091 C16.5734545,6.10145455 16.9901091,5.09227273 16.9901091,4.01632727 C16.9901091,2.94007273 16.5734545,1.9312 15.8171091,1.17485455 Z" id="Path"></path>
                <path d="M8.38625455,12.5398182 L5.98214545,14.9439273 C5.45947273,15.4666 4.76092727,15.7546727 4.01509091,15.7546727 C3.26956364,15.7546727 2.57070909,15.4666 2.04803636,14.9439273 C0.963436364,13.8593273 0.963436364,12.0944182 2.04803636,11.0098182 L5.54509091,7.51276364 C6.06776364,6.9904 6.76630909,6.70232727 7.51214545,6.70232727 C8.25767273,6.70232727 8.95621818,6.9904 9.47889091,7.51276364 C9.72029091,7.75416364 10.1116,7.75416364 10.353,7.51276364 C10.5944,7.27136364 10.5944,6.88005455 10.353,6.63865455 C8.78683636,5.07249091 6.23776364,5.07218182 4.67067273,6.63865455 L1.17361818,10.1360182 C0.417581818,10.8920545 0.000927272727,11.9012364 0.000927272727,12.9771818 C0.000927272727,14.0528182 0.417581818,15.062 1.17392727,15.8180364 C1.92996364,16.5743818 2.93914545,16.9910364 4.01478182,16.9910364 C5.09072727,16.9910364 6.09990909,16.5743818 6.85594545,15.8180364 L9.26005455,13.4139273 C9.50145455,13.1725273 9.50145455,12.7812182 9.26005455,12.5398182 C9.01865455,12.2984182 8.62765455,12.2984182 8.38625455,12.5398182 Z" id="Path"></path>
            </g>
        </g>
    </g>
</svg>