<?xml version="1.0" encoding="UTF-8"?>
<svg width="13px" height="13px" color='white' viewBox="0 0 13 13" version="1.1" xmlns="http://www.w3.org/2000/svg" xmlns:xlink="http://www.w3.org/1999/xlink">
    <!-- Generator: Sketch 51.3 (57544) - http://www.bohemiancoding.com/sketch -->
    <title>Calculator</title>
    <desc>Created with Sketch.</desc>
    <defs></defs>
    <g id="Presenting-new-CC's" stroke="none" stroke-width="1" fill="none" fill-rule="evenodd">
        <g id="Artboard-2" transform="translate(-226.000000, -303.000000)" fill="#000000">
            <path fill='white' d="M232.606544,312.642429 C231.762912,312.642429 231.079208,313.326592 231.079208,314.169766 C231.079208,315.013399 231.762912,315.697561 232.606544,315.697561 C233.450177,315.697561 234.133881,315.013399 234.133881,314.169766 C234.133881,313.326592 233.450177,312.642429 232.606544,312.642429 Z M227.527337,312.642429 C226.683704,312.642429 226,313.326592 226,314.169766 C226,315.013399 226.683704,315.697561 227.527337,315.697561 C228.370969,315.697561 229.055132,315.013399 229.055132,314.169766 C229.055132,313.326592 228.370969,312.642429 227.527337,312.642429 Z M232.606544,307.9454 C231.762912,307.9454 231.079208,308.629562 231.079208,309.472736 C231.079208,310.316369 231.762912,311.000531 232.606544,311.000531 C233.450177,311.000531 234.133881,310.316369 234.133881,309.472736 C234.133881,308.629562 233.450177,307.9454 232.606544,307.9454 Z M227.527337,307.9454 C228.370969,307.9454 229.055132,308.629562 229.055132,309.472736 C229.055132,310.316369 228.370969,311.000531 227.527337,311.000531 C226.683704,311.000531 226,310.316369 226,309.472736 C226,308.629562 226.683704,307.9454 227.527337,307.9454 Z M237.472663,312.642429 C238.316296,312.642429 239,313.326592 239,314.169766 C239,315.013399 238.316296,315.697561 237.472663,315.697561 C236.629031,315.697561 235.945327,315.013399 235.945327,314.169766 C235.945327,313.326592 236.629031,312.642429 237.472663,312.642429 Z M237.472663,307.9454 C238.316296,307.9454 239,308.629562 239,309.472736 C239,310.316369 238.316296,311.000531 237.472663,311.000531 C236.629031,311.000531 235.945327,310.316369 235.945327,309.472736 C235.945327,308.629562 236.629031,307.9454 237.472663,307.9454 Z M226,305.491667 L238.786849,305.491667 L238.786849,303 L226,303 L226,305.491667 Z" id="Fill-1"></path>
        </g>
    </g>
</svg>
