<?xml version="1.0" encoding="UTF-8"?>
<svg width="17px" height="14px" viewBox="0 0 17 14" version="1.1" xmlns="http://www.w3.org/2000/svg" xmlns:xlink="http://www.w3.org/1999/xlink">
    <!-- Generator: Sketch 60.1 (88133) - https://sketch.com -->
    <title>Shape</title>
    <desc>Created with Sketch.</desc>
    <g id="Wizard-new" stroke="none" stroke-width="1" fill="none" fill-rule="evenodd">
        <g id="Currency-existing-token" transform="translate(-802.000000, -717.000000)" fill="#B0B0B0" fill-rule="nonzero">
            <path d="M810.5,722.25 C809.09155,722.25 807.95,723.42565 807.95,724.875 C807.95,726.324875 809.09155,727.5 810.5,727.5 C811.90811,727.5 813.05,726.324875 813.05,724.875 C813.05,723.42565 811.90811,722.25 810.5,722.25 Z M817.3,719.625 L815.26,719.625 C814.9795,719.625 814.67724,719.401 814.58867,719.12695 L814.06133,717.497875 C813.97242,717.224 813.6705,717 813.39,717 L807.61,717 C807.3295,717 807.02724,717.224 806.93867,717.49805 L806.41133,719.127125 C806.32242,719.401 806.0205,719.625 805.74,719.625 L803.7,719.625 C802.765,719.625 802,720.4125 802,721.375 L802,729.25 C802,730.2125 802.765,731 803.7,731 L817.3,731 C818.235,731 819,730.2125 819,729.25 L819,721.375 C819,720.4125 818.235,719.625 817.3,719.625 Z M810.5,729.25 C808.15281,729.25 806.25,727.291225 806.25,724.875 C806.25,722.45895 808.15281,720.5 810.5,720.5 C812.84685,720.5 814.75,722.45895 814.75,724.875 C814.75,727.291225 812.84685,729.25 810.5,729.25 Z M816.705,722.598775 C816.37656,722.598775 816.11,722.324725 816.11,721.986275 C816.11,721.648175 816.37656,721.373775 816.705,721.373775 C817.03378,721.373775 817.3,721.648175 817.3,721.986275 C817.3,722.324725 817.03361,722.598775 816.705,722.598775 Z" id="Shape"></path>
        </g>
    </g>
</svg>