<?xml version="1.0" encoding="UTF-8"?>
<svg width="24px" height="10px" viewBox="0 0 24 10" version="1.1" xmlns="http://www.w3.org/2000/svg" xmlns:xlink="http://www.w3.org/1999/xlink">
    <!-- Generator: Sketch 60.1 (88133) - https://sketch.com -->
    <title>Group 3</title>
    <desc>Created with Sketch.</desc>
    <defs>
        <polygon id="path-1" points="0.000118040901 3.6e-05 23.5636038 3.6e-05 23.5636038 9.16195571 0.000118040901 9.16195571"></polygon>
    </defs>
    <g id="Wizard-new" stroke="none" stroke-width="1" fill="none" fill-rule="evenodd">
        <g id="plugins" transform="translate(-986.000000, -577.000000)">
            <g id="Group-3" transform="translate(986.000000, 577.000000)">
                <mask id="mask-2" fill="white">
                    <use xlink:href="#path-1"></use>
                </mask>
                <g id="Clip-2"></g>
                <path d="M21.780504,0.625248 C21.315384,2.074968 20.637864,3.442608 19.840464,4.800168 C19.450584,5.463648 19.043784,6.103008 18.579024,6.631128 C18.463464,6.762528 18.343224,6.890328 18.215424,7.010208 C18.162864,7.059528 17.879184,7.276968 18.042624,7.164648 C17.950104,7.228008 17.856864,7.284528 17.757504,7.337088 C17.964864,7.227288 17.817264,7.323048 17.752824,7.330608 C17.647704,7.342488 17.547624,7.365888 17.438544,7.367328 C16.371144,7.381728 15.659424,6.509808 15.091704,5.716368 C14.428584,4.789368 13.775544,3.849048 12.937464,3.068568 C11.178864,1.431648 8.594064,0.536688 6.353064,1.763928 C5.212944,2.388528 4.326984,3.432528 3.428064,4.348368 C2.372184,5.424408 1.316304,6.500088 0.260784,7.576488 C-0.551376,8.403768 0.720504,9.677808 1.533384,8.849088 C2.485584,7.878528 3.438144,6.907968 4.390344,5.937768 C5.212584,5.100048 6.009624,4.102848 7.008264,3.468528 C9.015984,2.193048 11.176704,3.658248 12.493224,5.219568 C13.247064,6.113448 13.805784,7.175448 14.655024,7.988328 C15.495624,8.793288 16.621704,9.277488 17.796384,9.138168 C19.373184,8.951328 20.392704,7.339248 21.156624,6.104088 C22.117824,4.549608 22.956984,2.846808 23.516064,1.104048 C23.871024,-0.001512 22.133304,-0.475272 21.780504,0.625248" id="Fill-1" fill="#0F2334" mask="url(#mask-2)"></path>
            </g>
        </g>
    </g>
</svg>