<?xml version="1.0" encoding="UTF-8"?>
<svg width="74px" height="76px" viewBox="0 0 74 76" version="1.1" xmlns="http://www.w3.org/2000/svg" xmlns:xlink="http://www.w3.org/1999/xlink">
    <!-- Generator: Sketch 54.1 (76490) - https://sketchapp.com -->
    <title>coin copy 2</title>
    <desc>Created with Sketch.</desc>
    <g id="New-Onboarding-NEW-existing-token" stroke="none" stroke-width="1" fill="none" fill-rule="evenodd">
        <g id="Drop-down-existing-token" transform="translate(-151.000000, -536.000000)" fill="#05273D" fill-rule="nonzero">
            <g id="coin-copy-2" transform="translate(151.000000, 536.000000)">
                <path d="M40.8947368,0 C39.5692281,0 38.2657895,0.0995862069 36.9805263,0.275172414 C35.6407368,0.0943448276 34.3671579,0 33.1052632,0 C23.5475789,0 14.9285263,4.67924138 8.88,12.1390345 C8.81898246,12.194069 8.77484211,12.2595862 8.72550877,12.3251034 C6.79761404,14.7348276 5.14105263,17.4328276 3.80126316,20.3522759 C3.76750877,20.4164828 3.73764912,20.4793793 3.71298246,20.5488276 C2.78992982,22.5890345 2.02007018,24.7327586 1.42807018,26.9655862 C1.36964912,27.0913793 1.34368421,27.2289655 1.32680702,27.3717931 C0.468666667,30.7472414 0,34.3113793 0,38 C0,43.7707586 1.13207018,49.2414483 3.14564912,54.1447586 C3.16382456,54.1971724 3.18070175,54.2469655 3.20536842,54.2967586 C4.41273684,57.2031034 5.93168421,59.9050345 7.71417544,62.3488276 C7.75961404,62.4117241 7.79726316,62.4785517 7.85308772,62.5322759 C9.65764912,64.976069 11.7257544,67.1525517 14.0067719,69.008 C14.0716842,69.080069 14.1495789,69.1337931 14.2300702,69.1901379 C19.5879298,73.4775862 26.0934386,76 33.1052632,76 C34.3671579,76 35.6407368,75.9056552 36.9805263,75.7248276 C38.2657895,75.9004138 39.5692281,76 40.8947368,76 C59.1493684,76 74,58.9537241 74,38 C74,17.0462759 59.1493684,0 40.8947368,0 Z M27.1852632,3.42524138 C26.7555439,3.65062069 26.3310175,3.88648276 25.9116842,4.13151724 C25.6767018,4.26910345 25.4404211,4.40144828 25.2093333,4.54558621 C24.8497193,4.76834483 24.4978947,5.0042069 24.1473684,5.24137931 L21.6482456,5.24137931 C23.5462807,4.34510345 25.5274035,3.63882759 27.5929123,3.19986207 C27.454,3.26931034 27.3228772,3.35317241 27.1852632,3.42524138 Z M14.0989474,60.2758621 L9.4434386,60.2758621 C8.29838596,58.6431724 7.28185965,56.8886207 6.39905263,55.0344828 L11.316807,55.0344828 C11.5206316,55.4983448 11.7296491,55.9582759 11.9490526,56.4116552 C12.0438246,56.6068966 12.1424912,56.7995172 12.2411579,56.9934483 C12.5072982,57.5202069 12.7825263,58.0377931 13.0694386,58.5475172 C13.1758947,58.7375172 13.2784561,58.9301379 13.388807,59.1188276 C13.6172982,59.5106207 13.8574737,59.8932414 14.0989474,60.2758621 Z M5.8005614,22.2758621 L10.7689474,22.2758621 C10.5417544,22.8484828 10.3262456,23.4276552 10.1224211,24.0146897 C10.0665965,24.1771724 10.0094737,24.3383448 9.95494737,24.5008276 C9.768,25.0642759 9.59403509,25.6329655 9.42915789,26.2068966 L4.35821053,26.2068966 C4.77105263,24.855931 5.254,23.5455862 5.8005614,22.2758621 Z M2.59649123,38 C2.59649123,37.1168276 2.64322807,36.2467586 2.69775439,35.3793103 L7.87385965,35.3793103 C7.8725614,35.4002759 7.8725614,35.4212414 7.87126316,35.4422069 C7.82322807,36.2886897 7.78947368,37.1391034 7.78947368,38 C7.78947368,38.4389655 7.80505263,38.874 7.81803509,39.3103448 L2.64712281,39.3103448 C2.63284211,38.8726897 2.59649123,38.4415862 2.59649123,38 Z M7.96603509,41.9310345 C8.01536842,42.4826897 8.07898246,43.0304138 8.14908772,43.5755172 C8.1542807,43.6148276 8.15687719,43.6554483 8.16207018,43.696069 C8.25814035,44.4246207 8.37498246,45.1466207 8.50610526,45.862069 L3.38582456,45.862069 C3.13266667,44.5753103 2.93273684,43.2662759 2.80421053,41.9310345 L7.96603509,41.9310345 Z M8.77094737,28.8275862 C8.73719298,28.9822069 8.70863158,29.1394483 8.67747368,29.294069 C8.64242105,29.4670345 8.60607018,29.6386897 8.57231579,29.8116552 C8.41392982,30.6332414 8.2737193,31.4626897 8.16336842,32.303931 C8.15817544,32.3432414 8.15557895,32.3838621 8.15038596,32.4244828 C8.13480702,32.5358621 8.1257193,32.6472414 8.1114386,32.7586207 L2.95870175,32.7586207 C3.13007018,31.4246897 3.34687719,30.1091034 3.64417544,28.8275862 L8.77094737,28.8275862 Z M9.08122807,48.4827586 C9.12147368,48.6426207 9.15912281,48.8051034 9.20066667,48.9636552 C9.21624561,49.0213103 9.22922807,49.0815862 9.24480702,49.1392414 C9.45901754,49.9372414 9.69919298,50.7221379 9.95624561,51.4978621 C10.0107719,51.6616552 10.0678947,51.8215172 10.1237193,51.984 C10.1717544,52.1281379 10.2197895,52.2722759 10.2704211,52.4137931 L5.2682807,52.4137931 C4.77624561,51.1414483 4.35301754,49.8284828 3.99210526,48.4827586 L9.08122807,48.4827586 Z M13.3875088,16.8824828 C13.2784561,17.0698621 13.1745965,17.2637931 13.0681404,17.4537931 C12.7812281,17.9635172 12.5047018,18.4824138 12.2398596,19.0078621 C12.1424912,19.2017931 12.0425263,19.3931034 11.9477544,19.5896552 C11.9373684,19.6106207 11.9256842,19.6328966 11.9152982,19.6551724 L7.04817544,19.6551724 C8.03094737,17.7853103 9.16301754,16.036 10.4184211,14.4137931 L14.9661754,14.4137931 C14.8077895,14.6431034 14.6481053,14.8711034 14.493614,15.1043448 C14.1106316,15.6848276 13.7419298,16.2771034 13.3875088,16.8824828 Z M17.178386,7.86206897 L20.7641404,7.86206897 C20.4421754,8.14641379 20.1202105,8.43206897 19.8073333,8.72951724 C19.546386,8.97848276 19.2932281,9.23662069 19.0387719,9.49475862 C18.7817193,9.75551724 18.5272632,10.0202069 18.278,10.2888276 C18.0378246,10.5469655 17.7976491,10.8037931 17.5639649,11.0697931 C17.3562456,11.3056552 17.157614,11.5506897 16.956386,11.7931034 L12.6695789,11.7931034 C14.0638947,10.3294483 15.5685614,9.00993103 17.178386,7.86206897 Z M11.4557193,62.8965517 L15.9112982,62.8965517 C16.058,63.0904828 16.2034035,63.2844138 16.354,63.4744138 C16.7460702,63.9723448 17.1498246,64.4571724 17.5639649,64.9302069 C17.7963509,65.1962069 18.0378246,65.4530345 18.278,65.7111724 C18.5285614,65.9811034 18.7830175,66.2457931 19.0413684,66.5065517 C19.1452281,66.6113793 19.2438947,66.724069 19.3490526,66.8275862 L15.4439298,66.8275862 C14.0171579,65.6495862 12.6838596,64.334 11.4557193,62.8965517 Z M27.591614,72.8001379 C24.6147368,72.1672414 21.8014386,71.0062759 19.1919649,69.4482759 L22.3324211,69.4482759 C22.4985965,69.578 22.6699649,69.6998621 22.8374386,69.8256552 C23.1061754,70.0274483 23.3749123,70.2305517 23.6488421,70.4231724 C24.1590526,70.7822069 24.6796491,71.1268276 25.2080351,71.4544138 C25.4391228,71.5972414 25.6754035,71.7308966 25.910386,71.8684828 C26.3297193,72.1135172 26.7542456,72.3493793 27.1839649,72.5747586 C27.3228772,72.6468276 27.454,72.7306897 27.591614,72.8001379 Z M40.8947368,73.3793103 C39.8626316,73.3793103 38.8435088,73.3177241 37.8386667,73.2011034 L37.3362456,73.1303448 C37.2661404,73.1211724 37.1973333,73.1093793 37.1285263,73.1002069 C36.6793333,73.036 36.2340351,72.9613103 35.7926316,72.8748276 C35.7549825,72.8669655 35.7186316,72.8591034 35.6822807,72.8512414 C35.2525614,72.766069 34.8267368,72.6704138 34.404807,72.5642759 C34.341193,72.5485517 34.2775789,72.5302069 34.2139649,72.5131724 C33.8205965,72.4109655 33.4285263,72.3035172 33.0416491,72.1842759 C32.9235088,72.1475862 32.8053684,72.1056552 32.6872281,72.0676552 C32.3561754,71.9615172 32.0264211,71.8527586 31.7005614,71.7335172 C31.4357193,71.6365517 31.1747719,71.5291034 30.9138246,71.4242759 C30.7359649,71.3535172 30.5555088,71.2866897 30.3802456,71.212 C23.3995789,68.2309655 17.6107018,62.3697931 14.0885614,54.8772414 C14.0561053,54.8091034 14.0262456,54.7370345 13.9950877,54.6688966 C13.8068421,54.2613793 13.6237895,53.849931 13.4485263,53.4332414 C13.3784211,53.2668276 13.3135088,53.0977931 13.246,52.930069 C13.1148772,52.6051034 12.9850526,52.2788276 12.8630175,51.9486207 C12.7838246,51.7363448 12.7098246,51.5201379 12.6345263,51.3052414 C12.5319649,51.0143448 12.4307018,50.7221379 12.3359298,50.4273103 C12.2580351,50.1862069 12.1840351,49.9424828 12.1100351,49.700069 C12.0256491,49.4235862 11.9438596,49.1457931 11.8659649,48.8666897 C11.7932632,48.6111724 11.7244561,48.3517241 11.6582456,48.0935862 C11.5881404,47.8197241 11.5206316,47.5432414 11.4557193,47.2667586 C11.3934035,47.002069 11.3336842,46.7373793 11.2765614,46.470069 C11.2168421,46.1909655 11.1623158,45.9105517 11.1090877,45.6288276 C11.0584561,45.3602069 11.0078246,45.0915862 10.9610877,44.8203448 C10.9117544,44.5307586 10.8689123,44.2398621 10.8260702,43.9476552 C10.7871228,43.6829655 10.7468772,43.4195862 10.7131228,43.1522759 C10.6728772,42.8377931 10.6417193,42.5193793 10.6092632,42.2022759 C10.5832982,41.9546207 10.5547368,41.7082759 10.5339649,41.4593103 C10.502807,41.0950345 10.4820351,40.7281379 10.4612632,40.359931 C10.4495789,40.1528966 10.4327018,39.9484828 10.423614,39.7414483 C10.4002456,39.1648966 10.3859649,38.5844138 10.3859649,38 C10.3859649,37.4155862 10.4002456,36.8351034 10.423614,36.2572414 C10.4327018,36.0502069 10.4495789,35.8444828 10.4612632,35.6387586 C10.4820351,35.2718621 10.502807,34.9036552 10.5339649,34.5393793 C10.5547368,34.2904138 10.5832982,34.044069 10.6092632,33.7964138 C10.6417193,33.4793103 10.6741754,33.1622069 10.7131228,32.8464138 C10.7468772,32.5804138 10.7871228,32.3157241 10.8260702,32.0510345 C10.8689123,31.7588276 10.9117544,31.467931 10.9610877,31.1783448 C11.0065263,30.9071034 11.0571579,30.6384828 11.1090877,30.3698621 C11.1623158,30.0881379 11.2181404,29.8077241 11.2765614,29.5286207 C11.3336842,29.2613103 11.3934035,28.9966207 11.4557193,28.731931 C11.5206316,28.4554483 11.5881404,28.1789655 11.6582456,27.9051034 C11.7244561,27.6456552 11.7932632,27.3875172 11.8646667,27.1306897 C11.9425614,26.8515862 12.0243509,26.5737931 12.1087368,26.2973103 C12.1827368,26.0535862 12.2567368,25.8111724 12.3346316,25.570069 C12.4307018,25.2752414 12.5319649,24.9830345 12.6345263,24.6908276 C12.7098246,24.475931 12.7838246,24.2610345 12.8630175,24.0487586 C12.9863509,23.7185517 13.1148772,23.3922759 13.246,23.0673103 C13.3135088,22.8995862 13.3784211,22.7305517 13.4485263,22.5641379 C13.6237895,22.1474483 13.8068421,21.736 13.9950877,21.3284828 C14.0275439,21.2590345 14.0561053,21.1882759 14.0885614,21.1201379 C17.6107018,13.6275862 23.3995789,7.76772414 30.3802456,4.78537931 C30.556807,4.71068966 30.7359649,4.64386207 30.9138246,4.57310345 C31.1747719,4.46827586 31.4357193,4.36082759 31.7005614,4.26386207 C32.0264211,4.14462069 32.3561754,4.03717241 32.6872281,3.92972414 C32.8053684,3.89172414 32.9222105,3.8497931 33.0416491,3.81310345 C33.4285263,3.69386207 33.8205965,3.58510345 34.2139649,3.4842069 C34.2762807,3.4697931 34.3398947,3.45013793 34.4035088,3.43441379 C34.8254386,3.32827586 35.2512632,3.23393103 35.6809825,3.14744828 C35.7186316,3.13958621 35.7549825,3.13172414 35.7913333,3.12386207 C36.2327368,3.03737931 36.6780351,2.96268966 37.1272281,2.89848276 C37.1960351,2.888 37.2661404,2.87751724 37.3349474,2.86834483 L37.8373684,2.79758621 C38.8435088,2.68227586 39.8626316,2.62068966 40.8947368,2.62068966 C57.7174035,2.62068966 71.4035088,18.4915862 71.4035088,38 C71.4035088,57.5084138 57.7174035,73.3793103 40.8947368,73.3793103 Z" id="Shape"></path>
            </g>
        </g>
    </g>
</svg>