<?xml version="1.0" encoding="UTF-8"?>
<svg width="96px" height="96px" viewBox="0 0 96 96" version="1.1" xmlns="http://www.w3.org/2000/svg" xmlns:xlink="http://www.w3.org/1999/xlink">
    <!-- Generator: Sketch 60.1 (88133) - https://sketch.com -->
    <title>Group 27 Copy</title>
    <desc>Created with Sketch.</desc>
    <defs>
        <linearGradient x1="50%" y1="71.2421124%" x2="50%" y2="100%" id="linearGradient-1">
            <stop stop-color="#0C4764" offset="0%"></stop>
            <stop stop-color="#052235" offset="100%"></stop>
        </linearGradient>
        <rect id="path-2" x="0" y="0" width="95.3667" height="95.3667" rx="18.4041"></rect>
        <path d="M4.68,0 L219.96,0 C222.544693,-4.74800333e-16 224.64,2.09530737 224.64,4.68 L224.64,93.6 L224.64,93.6 L0,93.6 L0,4.68 C-3.16533556e-16,2.09530737 2.09530737,6.69204927e-15 4.68,0 Z" id="path-4"></path>
        <linearGradient x1="6.2474301%" y1="66.5347451%" x2="88.3223684%" y2="18.6934622%" id="linearGradient-6">
            <stop stop-color="#BFBFBF" offset="0%"></stop>
            <stop stop-color="#FFFFFF" offset="100%"></stop>
        </linearGradient>
        <text id="text-7" font-family="GothamSSm-Bold, Gotham SSm" font-size="23.670504" font-weight="bold" line-spacing="32.391216" fill="#D1D1D1">
            <tspan x="13.7457108" y="34.212344">10</tspan>
        </text>
        <filter x="-7.0%" y="-6.2%" width="114.0%" height="112.3%" filterUnits="objectBoundingBox" id="filter-8">
            <feGaussianBlur stdDeviation="1.5" in="SourceAlpha" result="shadowBlurInner1"></feGaussianBlur>
            <feOffset dx="0" dy="1" in="shadowBlurInner1" result="shadowOffsetInner1"></feOffset>
            <feComposite in="shadowOffsetInner1" in2="SourceAlpha" operator="arithmetic" k2="-1" k3="1" result="shadowInnerInner1"></feComposite>
            <feColorMatrix values="0 0 0 0 0   0 0 0 0 0   0 0 0 0 0  0 0 0 0.2 0" type="matrix" in="shadowInnerInner1"></feColorMatrix>
        </filter>
        <filter x="-7.0%" y="-6.2%" width="114.0%" height="112.3%" filterUnits="objectBoundingBox" id="filter-9">
            <feGaussianBlur stdDeviation="1.5" in="SourceAlpha" result="shadowBlurInner1"></feGaussianBlur>
            <feOffset dx="0" dy="1" in="shadowBlurInner1" result="shadowOffsetInner1"></feOffset>
            <feComposite in="shadowOffsetInner1" in2="SourceAlpha" operator="arithmetic" k2="-1" k3="1" result="shadowInnerInner1"></feComposite>
            <feColorMatrix values="0 0 0 0 0   0 0 0 0 0   0 0 0 0 0  0 0 0 0.2 0" type="matrix" in="shadowInnerInner1"></feColorMatrix>
        </filter>
    </defs>
    <g id="New-Dapp" stroke="none" stroke-width="1" fill="none" fill-rule="evenodd">
        <g id="Issue-a-community-currency" transform="translate(-336.000000, -209.000000)">
            <g id="Group-27-Copy" transform="translate(336.000000, 209.000000)">
                <rect id="Rectangle" fill="url(#linearGradient-1)" x="1.0658141e-13" y="-7.10542736e-15" width="95.3667" height="95.3667" rx="18.4041"></rect>
                <g id="Group-21">
                    <mask id="mask-3" fill="white">
                        <use xlink:href="#path-2"></use>
                    </mask>
                    <g id="Mask"></g>
                    <g mask="url(#mask-3)">
                        <g transform="translate(-64.350000, 0.000000)">
                            <g id="Group-23" opacity="0.40297154">
                                <mask id="mask-5" fill="white">
                                    <use xlink:href="#path-4"></use>
                                </mask>
                                <g id="Mask"></g>
                                <g mask="url(#mask-5)">
                                    <g transform="translate(-15.912000, 0.000000)">
                                        <g id="user-copy-5" transform="translate(71.660160, 0.000000)">
                                            <path d="M11.3327904,25.2995276 L6.51850072,27.9255591 C6.23598771,28.0796018 5.98209132,28.2689585 5.74585198,28.4753635 C8.5527162,30.8420189 12.1760674,32.2698056 16.1349028,32.2698056 C20.0645127,32.2698056 23.664727,30.8633291 26.463676,28.5289436 C26.2055176,28.3109702 25.92544,28.1149159 25.6149192,27.9602644 L20.4596656,25.382942 C19.7935681,25.0498932 19.3728429,24.369183 19.3728429,23.624542 L19.3728429,21.6018949 C19.5177526,21.4368927 19.6833637,21.225008 19.8605432,20.9747648 C20.5631725,19.982316 21.094711,18.8906224 21.4630739,17.7453487 C22.1243005,17.5413792 22.6113919,16.9306884 22.6113919,16.2049222 L22.6113919,14.0458895 C22.6113919,13.5709754 22.400116,13.146597 22.0719381,12.8494713 L22.0719381,9.72843308 C22.0719381,9.72843308 22.7130722,4.87152291 16.1355116,4.87152291 C9.55795109,4.87152291 10.1990852,9.72843308 10.1990852,9.72843308 L10.1990852,12.8494713 C9.87029845,13.146597 9.65963142,13.5709754 9.65963142,14.0458895 L9.65963142,16.2049222 C9.65963142,16.7736014 9.95858377,17.2740878 10.406099,17.5632983 C10.9455527,19.9116878 12.3581178,21.6018949 12.3581178,21.6018949 L12.3581178,23.5746151 C12.3575089,24.293075 11.9641826,24.9549104 11.3327904,25.2995276 Z" id="Path" fill="#DFDFDF" fill-rule="nonzero"></path>
                                            <path d="M16.4107183,0.00243545702 C7.50120763,-0.149780607 0.154651521,6.94957662 0.00243545702,15.8590873 C-0.0840232673,20.910834 2.16755675,25.4511348 5.75254949,28.4704926 C5.98696223,28.2659142 6.23842317,28.078384 6.51789186,27.926168 L11.3321815,25.3001364 C11.9635738,24.9555193 12.3569001,24.2936838 12.3569001,23.5740063 L12.3569001,21.6012861 C12.3569001,21.6012861 10.9437261,19.9110789 10.4048813,17.5626895 C9.95797491,17.2734789 9.65841369,16.7736014 9.65841369,16.2043133 L9.65841369,14.0452807 C9.65841369,13.5703665 9.86968959,13.1459882 10.1978674,12.8488624 L10.1978674,9.72782422 C10.1978674,9.72782422 9.55673336,4.87091405 16.1342939,4.87091405 C22.7118545,4.87091405 22.0707204,9.72782422 22.0707204,9.72782422 L22.0707204,12.8488624 C22.3995071,13.1459882 22.6101741,13.5703665 22.6101741,14.0452807 L22.6101741,16.2043133 C22.6101741,16.9300795 22.1230827,17.5407704 21.4618562,17.7447399 C21.0934933,18.8900135 20.5619548,19.9817072 19.8593254,20.9741559 C19.6821459,21.2243991 19.5165349,21.4362839 19.3716252,21.6012861 L19.3716252,23.6239331 C19.3716252,24.3685741 19.7923504,25.0498932 20.4584479,25.3823331 L25.6137015,27.9596555 C25.9230046,28.114307 26.2024733,28.3097524 26.4600228,28.527117 C29.9366377,25.6277054 32.182738,21.2925919 32.2661524,16.4107183 C32.4195862,7.50120763 25.3208378,0.154651521 16.4107183,0.00243545702 Z" id="Path" fill="#25435A" fill-rule="nonzero"></path>
                                        </g>
                                        <g id="user-copy-8" transform="translate(147.438720, 0.000000)">
                                            <path d="M11.3327904,25.2995276 L6.51850072,27.9255591 C6.23598771,28.0796018 5.98209132,28.2689585 5.74585198,28.4753635 C8.5527162,30.8420189 12.1760674,32.2698056 16.1349028,32.2698056 C20.0645127,32.2698056 23.664727,30.8633291 26.463676,28.5289436 C26.2055176,28.3109702 25.92544,28.1149159 25.6149192,27.9602644 L20.4596656,25.382942 C19.7935681,25.0498932 19.3728429,24.369183 19.3728429,23.624542 L19.3728429,21.6018949 C19.5177526,21.4368927 19.6833637,21.225008 19.8605432,20.9747648 C20.5631725,19.982316 21.094711,18.8906224 21.4630739,17.7453487 C22.1243005,17.5413792 22.6113919,16.9306884 22.6113919,16.2049222 L22.6113919,14.0458895 C22.6113919,13.5709754 22.400116,13.146597 22.0719381,12.8494713 L22.0719381,9.72843308 C22.0719381,9.72843308 22.7130722,4.87152291 16.1355116,4.87152291 C9.55795109,4.87152291 10.1990852,9.72843308 10.1990852,9.72843308 L10.1990852,12.8494713 C9.87029845,13.146597 9.65963142,13.5709754 9.65963142,14.0458895 L9.65963142,16.2049222 C9.65963142,16.7736014 9.95858377,17.2740878 10.406099,17.5632983 C10.9455527,19.9116878 12.3581178,21.6018949 12.3581178,21.6018949 L12.3581178,23.5746151 C12.3575089,24.293075 11.9641826,24.9549104 11.3327904,25.2995276 Z" id="Path" fill="#DFDFDF" fill-rule="nonzero"></path>
                                            <path d="M16.4107183,0.00243545702 C7.50120763,-0.149780607 0.154651521,6.94957662 0.00243545702,15.8590873 C-0.0840232673,20.910834 2.16755675,25.4511348 5.75254949,28.4704926 C5.98696223,28.2659142 6.23842317,28.078384 6.51789186,27.926168 L11.3321815,25.3001364 C11.9635738,24.9555193 12.3569001,24.2936838 12.3569001,23.5740063 L12.3569001,21.6012861 C12.3569001,21.6012861 10.9437261,19.9110789 10.4048813,17.5626895 C9.95797491,17.2734789 9.65841369,16.7736014 9.65841369,16.2043133 L9.65841369,14.0452807 C9.65841369,13.5703665 9.86968959,13.1459882 10.1978674,12.8488624 L10.1978674,9.72782422 C10.1978674,9.72782422 9.55673336,4.87091405 16.1342939,4.87091405 C22.7118545,4.87091405 22.0707204,9.72782422 22.0707204,9.72782422 L22.0707204,12.8488624 C22.3995071,13.1459882 22.6101741,13.5703665 22.6101741,14.0452807 L22.6101741,16.2043133 C22.6101741,16.9300795 22.1230827,17.5407704 21.4618562,17.7447399 C21.0934933,18.8900135 20.5619548,19.9817072 19.8593254,20.9741559 C19.6821459,21.2243991 19.5165349,21.4362839 19.3716252,21.6012861 L19.3716252,23.6239331 C19.3716252,24.3685741 19.7923504,25.0498932 20.4584479,25.3823331 L25.6137015,27.9596555 C25.9230046,28.114307 26.2024733,28.3097524 26.4600228,28.527117 C29.9366377,25.6277054 32.182738,21.2925919 32.2661524,16.4107183 C32.4195862,7.50120763 25.3208378,0.154651521 16.4107183,0.00243545702 Z" id="Path" fill="#25435A" fill-rule="nonzero"></path>
                                        </g>
                                        <g id="user-copy-6" transform="translate(71.660160, 62.599680)">
                                            <path d="M11.3327904,25.2995276 L6.51850072,27.9255591 C6.23598771,28.0796018 5.98209132,28.2689585 5.74585198,28.4753635 C8.5527162,30.8420189 12.1760674,32.2698056 16.1349028,32.2698056 C20.0645127,32.2698056 23.664727,30.8633291 26.463676,28.5289436 C26.2055176,28.3109702 25.92544,28.1149159 25.6149192,27.9602644 L20.4596656,25.382942 C19.7935681,25.0498932 19.3728429,24.369183 19.3728429,23.624542 L19.3728429,21.6018949 C19.5177526,21.4368927 19.6833637,21.225008 19.8605432,20.9747648 C20.5631725,19.982316 21.094711,18.8906224 21.4630739,17.7453487 C22.1243005,17.5413792 22.6113919,16.9306884 22.6113919,16.2049222 L22.6113919,14.0458895 C22.6113919,13.5709754 22.400116,13.146597 22.0719381,12.8494713 L22.0719381,9.72843308 C22.0719381,9.72843308 22.7130722,4.87152291 16.1355116,4.87152291 C9.55795109,4.87152291 10.1990852,9.72843308 10.1990852,9.72843308 L10.1990852,12.8494713 C9.87029845,13.146597 9.65963142,13.5709754 9.65963142,14.0458895 L9.65963142,16.2049222 C9.65963142,16.7736014 9.95858377,17.2740878 10.406099,17.5632983 C10.9455527,19.9116878 12.3581178,21.6018949 12.3581178,21.6018949 L12.3581178,23.5746151 C12.3575089,24.293075 11.9641826,24.9549104 11.3327904,25.2995276 Z" id="Path" fill="#DFDFDF" fill-rule="nonzero"></path>
                                            <path d="M16.4107183,0.00243545702 C7.50120763,-0.149780607 0.154651521,6.94957662 0.00243545702,15.8590873 C-0.0840232673,20.910834 2.16755675,25.4511348 5.75254949,28.4704926 C5.98696223,28.2659142 6.23842317,28.078384 6.51789186,27.926168 L11.3321815,25.3001364 C11.9635738,24.9555193 12.3569001,24.2936838 12.3569001,23.5740063 L12.3569001,21.6012861 C12.3569001,21.6012861 10.9437261,19.9110789 10.4048813,17.5626895 C9.95797491,17.2734789 9.65841369,16.7736014 9.65841369,16.2043133 L9.65841369,14.0452807 C9.65841369,13.5703665 9.86968959,13.1459882 10.1978674,12.8488624 L10.1978674,9.72782422 C10.1978674,9.72782422 9.55673336,4.87091405 16.1342939,4.87091405 C22.7118545,4.87091405 22.0707204,9.72782422 22.0707204,9.72782422 L22.0707204,12.8488624 C22.3995071,13.1459882 22.6101741,13.5703665 22.6101741,14.0452807 L22.6101741,16.2043133 C22.6101741,16.9300795 22.1230827,17.5407704 21.4618562,17.7447399 C21.0934933,18.8900135 20.5619548,19.9817072 19.8593254,20.9741559 C19.6821459,21.2243991 19.5165349,21.4362839 19.3716252,21.6012861 L19.3716252,23.6239331 C19.3716252,24.3685741 19.7923504,25.0498932 20.4584479,25.3823331 L25.6137015,27.9596555 C25.9230046,28.114307 26.2024733,28.3097524 26.4600228,28.527117 C29.9366377,25.6277054 32.182738,21.2925919 32.2661524,16.4107183 C32.4195862,7.50120763 25.3208378,0.154651521 16.4107183,0.00243545702 Z" id="Path" fill="#25435A" fill-rule="nonzero"></path>
                                        </g>
                                        <g id="user-copy-9" transform="translate(147.438720, 62.599680)">
                                            <path d="M11.3327904,25.2995276 L6.51850072,27.9255591 C6.23598771,28.0796018 5.98209132,28.2689585 5.74585198,28.4753635 C8.5527162,30.8420189 12.1760674,32.2698056 16.1349028,32.2698056 C20.0645127,32.2698056 23.664727,30.8633291 26.463676,28.5289436 C26.2055176,28.3109702 25.92544,28.1149159 25.6149192,27.9602644 L20.4596656,25.382942 C19.7935681,25.0498932 19.3728429,24.369183 19.3728429,23.624542 L19.3728429,21.6018949 C19.5177526,21.4368927 19.6833637,21.225008 19.8605432,20.9747648 C20.5631725,19.982316 21.094711,18.8906224 21.4630739,17.7453487 C22.1243005,17.5413792 22.6113919,16.9306884 22.6113919,16.2049222 L22.6113919,14.0458895 C22.6113919,13.5709754 22.400116,13.146597 22.0719381,12.8494713 L22.0719381,9.72843308 C22.0719381,9.72843308 22.7130722,4.87152291 16.1355116,4.87152291 C9.55795109,4.87152291 10.1990852,9.72843308 10.1990852,9.72843308 L10.1990852,12.8494713 C9.87029845,13.146597 9.65963142,13.5709754 9.65963142,14.0458895 L9.65963142,16.2049222 C9.65963142,16.7736014 9.95858377,17.2740878 10.406099,17.5632983 C10.9455527,19.9116878 12.3581178,21.6018949 12.3581178,21.6018949 L12.3581178,23.5746151 C12.3575089,24.293075 11.9641826,24.9549104 11.3327904,25.2995276 Z" id="Path" fill="#DFDFDF" fill-rule="nonzero"></path>
                                            <path d="M16.4107183,0.00243545702 C7.50120763,-0.149780607 0.154651521,6.94957662 0.00243545702,15.8590873 C-0.0840232673,20.910834 2.16755675,25.4511348 5.75254949,28.4704926 C5.98696223,28.2659142 6.23842317,28.078384 6.51789186,27.926168 L11.3321815,25.3001364 C11.9635738,24.9555193 12.3569001,24.2936838 12.3569001,23.5740063 L12.3569001,21.6012861 C12.3569001,21.6012861 10.9437261,19.9110789 10.4048813,17.5626895 C9.95797491,17.2734789 9.65841369,16.7736014 9.65841369,16.2043133 L9.65841369,14.0452807 C9.65841369,13.5703665 9.86968959,13.1459882 10.1978674,12.8488624 L10.1978674,9.72782422 C10.1978674,9.72782422 9.55673336,4.87091405 16.1342939,4.87091405 C22.7118545,4.87091405 22.0707204,9.72782422 22.0707204,9.72782422 L22.0707204,12.8488624 C22.3995071,13.1459882 22.6101741,13.5703665 22.6101741,14.0452807 L22.6101741,16.2043133 C22.6101741,16.9300795 22.1230827,17.5407704 21.4618562,17.7447399 C21.0934933,18.8900135 20.5619548,19.9817072 19.8593254,20.9741559 C19.6821459,21.2243991 19.5165349,21.4362839 19.3716252,21.6012861 L19.3716252,23.6239331 C19.3716252,24.3685741 19.7923504,25.0498932 20.4584479,25.3823331 L25.6137015,27.9596555 C25.9230046,28.114307 26.2024733,28.3097524 26.4600228,28.527117 C29.9366377,25.6277054 32.182738,21.2925919 32.2661524,16.4107183 C32.4195862,7.50120763 25.3208378,0.154651521 16.4107183,0.00243545702 Z" id="Path" fill="#25435A" fill-rule="nonzero"></path>
                                        </g>
                                        <g id="user-copy-4" transform="translate(32.947200, 30.476160)"></g>
                                        <g id="user-copy-7" transform="translate(112.020480, 30.476160)">
                                            <path d="M11.3327904,25.2995276 L6.51850072,27.9255591 C6.23598771,28.0796018 5.98209132,28.2689585 5.74585198,28.4753635 C8.5527162,30.8420189 12.1760674,32.2698056 16.1349028,32.2698056 C20.0645127,32.2698056 23.664727,30.8633291 26.463676,28.5289436 C26.2055176,28.3109702 25.92544,28.1149159 25.6149192,27.9602644 L20.4596656,25.382942 C19.7935681,25.0498932 19.3728429,24.369183 19.3728429,23.624542 L19.3728429,21.6018949 C19.5177526,21.4368927 19.6833637,21.225008 19.8605432,20.9747648 C20.5631725,19.982316 21.094711,18.8906224 21.4630739,17.7453487 C22.1243005,17.5413792 22.6113919,16.9306884 22.6113919,16.2049222 L22.6113919,14.0458895 C22.6113919,13.5709754 22.400116,13.146597 22.0719381,12.8494713 L22.0719381,9.72843308 C22.0719381,9.72843308 22.7130722,4.87152291 16.1355116,4.87152291 C9.55795109,4.87152291 10.1990852,9.72843308 10.1990852,9.72843308 L10.1990852,12.8494713 C9.87029845,13.146597 9.65963142,13.5709754 9.65963142,14.0458895 L9.65963142,16.2049222 C9.65963142,16.7736014 9.95858377,17.2740878 10.406099,17.5632983 C10.9455527,19.9116878 12.3581178,21.6018949 12.3581178,21.6018949 L12.3581178,23.5746151 C12.3575089,24.293075 11.9641826,24.9549104 11.3327904,25.2995276 Z" id="Path" fill="#DFDFDF" fill-rule="nonzero"></path>
                                            <path d="M16.4107183,0.00243545702 C7.50120763,-0.149780607 0.154651521,6.94957662 0.00243545702,15.8590873 C-0.0840232673,20.910834 2.16755675,25.4511348 5.75254949,28.4704926 C5.98696223,28.2659142 6.23842317,28.078384 6.51789186,27.926168 L11.3321815,25.3001364 C11.9635738,24.9555193 12.3569001,24.2936838 12.3569001,23.5740063 L12.3569001,21.6012861 C12.3569001,21.6012861 10.9437261,19.9110789 10.4048813,17.5626895 C9.95797491,17.2734789 9.65841369,16.7736014 9.65841369,16.2043133 L9.65841369,14.0452807 C9.65841369,13.5703665 9.86968959,13.1459882 10.1978674,12.8488624 L10.1978674,9.72782422 C10.1978674,9.72782422 9.55673336,4.87091405 16.1342939,4.87091405 C22.7118545,4.87091405 22.0707204,9.72782422 22.0707204,9.72782422 L22.0707204,12.8488624 C22.3995071,13.1459882 22.6101741,13.5703665 22.6101741,14.0452807 L22.6101741,16.2043133 C22.6101741,16.9300795 22.1230827,17.5407704 21.4618562,17.7447399 C21.0934933,18.8900135 20.5619548,19.9817072 19.8593254,20.9741559 C19.6821459,21.2243991 19.5165349,21.4362839 19.3716252,21.6012861 L19.3716252,23.6239331 C19.3716252,24.3685741 19.7923504,25.0498932 20.4584479,25.3823331 L25.6137015,27.9596555 C25.9230046,28.114307 26.2024733,28.3097524 26.4600228,28.527117 C29.9366377,25.6277054 32.182738,21.2925919 32.2661524,16.4107183 C32.4195862,7.50120763 25.3208378,0.154651521 16.4107183,0.00243545702 Z" id="Path" fill="#25435A" fill-rule="nonzero"></path>
                                        </g>
                                    </g>
                                </g>
                            </g>
                            <g id="Group-17" transform="translate(85.176000, 19.656000)">
                                <g id="Group-7">
                                    <circle id="Oval" fill="#DFDFDF" cx="27.407952" cy="27.407952" r="27.407952"></circle>
                                    <circle id="Oval" stroke="#CACACA" stroke-width="1.245816" fill="url(#linearGradient-6)" cx="27.407952" cy="27.407952" r="23.670504"></circle>
                                </g>
                                <g id="10" fill="#D1D1D1" fill-opacity="1">
                                    <use filter="url(#filter-8)" xlink:href="#text-7"></use>
                                    <use filter="url(#filter-9)" xlink:href="#text-7"></use>
                                </g>
                            </g>
                        </g>
                    </g>
                </g>
            </g>
        </g>
    </g>
</svg>