<?xml version="1.0" encoding="UTF-8"?>
<svg width="98px" height="110px" viewBox="0 0 98 110" version="1.1" xmlns="http://www.w3.org/2000/svg" xmlns:xlink="http://www.w3.org/1999/xlink">
    <!-- Generator: Sketch 56.3 (81716) - https://sketch.com -->
    <title>Group</title>
    <desc>Created with Sketch.</desc>
    <g id="Currency-Isuser" stroke="none" stroke-width="1" fill="none" fill-rule="evenodd">
        <g id="Summery--new-Copy-8" transform="translate(-634.000000, -179.000000)">
            <g id="Group" transform="translate(633.500000, 179.000000)">
                <polygon id="Path-4" fill="#34D080" points="94.3630661 20 98 22.6531954 91.7456614 30 88 26.8028404"></polygon>
                <polygon id="Path-4-Copy-6" fill="#34D080" points="32.3630661 50 36 52.6531954 29.7456614 60 26 56.8028404"></polygon>
                <polygon id="Path-4-Copy" fill="#FFE700" transform="translate(70.000000, 94.000000) rotate(-90.000000) translate(-70.000000, -94.000000) " points="71.6356793 88 76 91.1838345 68.4947936 100 64 96.1634084"></polygon>
                <polygon id="Path-4-Copy-8" fill="#FFE700" transform="translate(70.000000, 6.000000) rotate(-90.000000) translate(-70.000000, -6.000000) " points="71.6356793 0 76 3.18383449 68.4947936 12 64 8.16340843"></polygon>
                <polygon id="Path-4-Copy-5" fill="#34D080" transform="translate(6.500000, 101.000000) rotate(-90.000000) translate(-6.500000, -101.000000) " points="8.81721239 95 15 98.1838345 4.3676243 107 -2 103.163408"></polygon>
            </g>
        </g>
    </g>
</svg>