<?xml version="1.0" encoding="UTF-8"?>
<svg width="9px" height="11px" viewBox="0 0 9 11" version="1.1" xmlns="http://www.w3.org/2000/svg" xmlns:xlink="http://www.w3.org/1999/xlink">
    <!-- Generator: Sketch 54.1 (76490) - https://sketchapp.com -->
    <title>Group 7</title>
    <desc>Created with Sketch.</desc>
    <g id="New-Onboarding" stroke="none" stroke-width="1" fill="none" fill-rule="evenodd" opacity="0.8">
        <g id="Summery" transform="translate(-710.000000, -331.000000)" stroke="#05283E" stroke-width="0.72">
            <g id="Group-7" transform="translate(710.000000, 331.000000)">
                <g id="Group-6">
                    <rect id="Rectangle" x="1.86" y="1.82666667" width="6.78" height="8.81333333" rx="0.72"></rect>
                    <path d="M8.28,1.82666667 L7.14,1.82666667 L7.14,0.72 C7.14,0.52117749 6.97882251,0.36 6.78,0.36 L0.72,0.36 C0.52117749,0.36 0.36,0.52117749 0.36,0.72 L0.36,8.81333333 C0.36,9.01215584 0.52117749,9.17333333 0.72,9.17333333 L1.86,9.17333333 L1.86,10.28 C1.86,10.4788225 2.02117749,10.64 2.22,10.64 L8.28,10.64 C8.47882251,10.64 8.64,10.4788225 8.64,10.28 L8.64,2.18666667 C8.64,1.98784416 8.47882251,1.82666667 8.28,1.82666667 Z" id="Combined-Shape"></path>
                    <path d="M8.28,1.82666667 L7.14,1.82666667 L7.14,0.72 C7.14,0.52117749 6.97882251,0.36 6.78,0.36 L0.72,0.36 C0.52117749,0.36 0.36,0.52117749 0.36,0.72 L0.36,8.81333333 C0.36,9.01215584 0.52117749,9.17333333 0.72,9.17333333 L1.86,9.17333333 L1.86,10.28 C1.86,10.4788225 2.02117749,10.64 2.22,10.64 L8.28,10.64 C8.47882251,10.64 8.64,10.4788225 8.64,10.28 L8.64,2.18666667 C8.64,1.98784416 8.47882251,1.82666667 8.28,1.82666667 Z" id="Combined-Shape"></path>
                    <path d="M3.375,4.03333333 L7.12335205,4.03333333" id="Line-2" stroke-linecap="square"></path>
                    <path d="M3.375,6.23333333 L7.12335205,6.23333333" id="Line-2-Copy" stroke-linecap="square"></path>
                    <path d="M3.375,8.43333333 L7.12335205,8.43333333" id="Line-2-Copy-2" stroke-linecap="square"></path>
                </g>
            </g>
        </g>
    </g>
</svg>