<?xml version="1.0" encoding="UTF-8"?>
<svg width="54px" height="54px" viewBox="0 0 54 54" version="1.1" xmlns="http://www.w3.org/2000/svg" xmlns:xlink="http://www.w3.org/1999/xlink">
    <title>Group 6</title>
    <defs>
        <path d="M20.9,0 C9.35724873,0 0,9.35724873 0,20.9 C0,32.4427513 9.35724873,41.8 20.9,41.8 C32.4427513,41.8 41.8,32.4427513 41.8,20.9 C41.8,9.35724873 32.4427513,0 20.9,0 Z" id="path-1"></path>
        <filter x="-9.6%" y="-9.6%" width="119.1%" height="119.1%" filterUnits="objectBoundingBox" id="filter-2">
            <feGaussianBlur stdDeviation="4" in="SourceAlpha" result="shadowBlurInner1"></feGaussianBlur>
            <feOffset dx="0" dy="0" in="shadowBlurInner1" result="shadowOffsetInner1"></feOffset>
            <feComposite in="shadowOffsetInner1" in2="SourceAlpha" operator="arithmetic" k2="-1" k3="1" result="shadowInnerInner1"></feComposite>
            <feColorMatrix values="0 0 0 0 0.145098039   0 0 0 0 0.262745098   0 0 0 0 0.352941176  0 0 0 0.304141171 0" type="matrix" in="shadowInnerInner1"></feColorMatrix>
        </filter>
    </defs>
    <g id="Wizard-new-flow" stroke="none" stroke-width="1" fill="none" fill-rule="evenodd">
        <g id="currency-" transform="translate(-750.000000, -288.000000)" fill-rule="nonzero">
            <g id="Group-6" transform="translate(750.000000, 288.000000)">
                <g id="Group-4">
                    <g id="Group-5" fill="#DBE8F0">
                        <path d="M26.62,0 C11.91818,0 0,11.91818 0,26.62 C0,41.32182 11.91818,53.24 26.62,53.24 C41.32182,53.24 53.24,41.32182 53.24,26.62 C53.24,11.91818 41.32182,0 26.62,0 Z" id="Path-Copy"></path>
                    </g>
                    <g id="Group-5" transform="translate(5.500000, 5.500000)">
                        <g id="Path-Copy">
                            <use fill="#DBE8F0" xlink:href="#path-1"></use>
                            <use fill="black" fill-opacity="1" filter="url(#filter-2)" xlink:href="#path-1"></use>
                        </g>
                    </g>
                    <path d="M26.6107,24.249 C26.7348333,24.249 26.8393667,24.2065333 26.9243,24.1216 C27.0092333,24.0366667 27.0517,23.9321333 27.0517,23.808 L27.0517,23.808 L27.0517,17.9574 C27.0517,17.781 26.9896333,17.6291 26.8655,17.5017 C26.7413667,17.3743 26.5911,17.3106 26.4147,17.3106 L26.4147,17.3106 L26.0913,17.3106 C25.9606333,17.3106 25.8414,17.3498 25.7336,17.4282 C25.6258,17.5066 25.5457667,17.6046 25.4935,17.7222 L25.4935,17.7222 L23.2689,23.269 L21.0443,17.7222 C20.9920333,17.6046 20.912,17.5066 20.8042,17.4282 C20.6964,17.3498 20.5771667,17.3106 20.4465,17.3106 L20.4465,17.3106 L20.1231,17.3106 C19.9467,17.3106 19.7964333,17.3743 19.6723,17.5017 C19.5481667,17.6291 19.4861,17.781 19.4861,17.9574 L19.4861,17.9574 L19.4861,23.808 C19.4861,23.9321333 19.5285667,24.0366667 19.6135,24.1216 C19.6984333,24.2065333 19.8029667,24.249 19.9271,24.249 C20.0512333,24.249 20.1574,24.2065333 20.2456,24.1216 C20.3338,24.0366667 20.3779,23.9321333 20.3779,23.808 L20.3779,23.808 L20.3779,18.2416 L22.6417,23.8374 C22.6939667,23.9615333 22.7772667,24.0611667 22.8916,24.1363 C23.0059333,24.2114333 23.1317,24.249 23.2689,24.249 C23.4061,24.249 23.5318667,24.2114333 23.6462,24.1363 C23.7605333,24.0611667 23.8438333,23.9615333 23.8961,23.8374 L23.8961,23.8374 L26.1599,18.2416 L26.1599,23.808 C26.1599,23.9321333 26.204,24.0366667 26.2922,24.1216 C26.3804,24.2065333 26.4865667,24.249 26.6107,24.249 Z M31.1383,24.249 C31.2624333,24.249 31.3669667,24.2065333 31.4519,24.1216 C31.5368333,24.0366667 31.5793,23.9321333 31.5793,23.808 L31.5793,23.808 L31.5793,21.309 L33.9313,18.026 C33.9835667,17.9410667 34.0097,17.8528667 34.0097,17.7614 C34.0162333,17.6372667 33.9770333,17.5311 33.8921,17.4429 C33.8071667,17.3547 33.7026333,17.3106 33.5785,17.3106 C33.4151667,17.3106 33.2845,17.3857333 33.1865,17.536 L33.1865,17.536 L31.1383,20.5152 L29.0901,17.536 C28.9921,17.3857333 28.8614333,17.3106 28.6981,17.3106 C28.5739667,17.3106 28.4710667,17.3547 28.3894,17.4429 C28.3077333,17.5311 28.2669,17.6372667 28.2669,17.7614 C28.2669,17.8528667 28.2930333,17.9410667 28.3453,18.026 L28.3453,18.026 L30.6875,21.309 L30.6875,23.808 C30.6875,23.9321333 30.7316,24.0366667 30.8198,24.1216 C30.908,24.2065333 31.0141667,24.249 31.1383,24.249 Z M17.6535,35.198 C18.0977667,35.198 18.4946667,35.1457333 18.8442,35.0412 C19.1937333,34.9366667 19.5416333,34.7864 19.8879,34.5904 C20.0316333,34.512 20.1035,34.3878667 20.1035,34.218 C20.1035,34.1134667 20.0675667,34.0252667 19.9957,33.9534 C19.9238333,33.8815333 19.8291,33.8456 19.7115,33.8456 C19.6461667,33.8456 19.5873667,33.8586667 19.5351,33.8848 C19.2476333,34.0350667 18.9667,34.1494 18.6923,34.2278 C18.4179,34.3062 18.1010333,34.3454 17.7417,34.3454 C17.1798333,34.3454 16.7012667,34.2294333 16.306,33.9975 C15.9107333,33.7655667 15.6134667,33.4487 15.4142,33.0469 C15.2149333,32.6451 15.1153,32.1894 15.1153,31.6798 C15.1153,31.1702 15.2149333,30.7145 15.4142,30.3127 C15.6134667,29.9109 15.9107333,29.5940333 16.306,29.3621 C16.7012667,29.1301667 17.1798333,29.0142 17.7417,29.0142 C18.1010333,29.0142 18.4179,29.0534 18.6923,29.1318 C18.9667,29.2102 19.2476333,29.3245333 19.5351,29.4748 C19.5873667,29.5009333 19.6461667,29.514 19.7115,29.514 C19.8291,29.514 19.9238333,29.4764333 19.9957,29.4013 C20.0675667,29.3261667 20.1035,29.2396 20.1035,29.1416 C20.1035,28.9717333 20.0316333,28.8476 19.8879,28.7692 C19.5416333,28.5732 19.1937333,28.4229333 18.8442,28.3184 C18.4946667,28.2138667 18.0977667,28.1616 17.6535,28.1616 C17.0001667,28.1616 16.4138,28.3037 15.8944,28.5879 C15.375,28.8721 14.9666667,29.2804333 14.6694,29.8129 C14.3721333,30.3453667 14.2235,30.9676667 14.2235,31.6798 C14.2235,32.3919333 14.3721333,33.0142333 14.6694,33.5467 C14.9666667,34.0791667 15.375,34.4875 15.8944,34.7717 C16.4138,35.0559 17.0001667,35.198 17.6535,35.198 Z M24.4743,35.198 C25.1603,35.198 25.7597333,35.0477333 26.2726,34.7472 C26.7854667,34.4466667 27.184,34.0301667 27.4682,33.4977 C27.7524,32.9652333 27.9010333,32.3592667 27.9141,31.6798 C27.9010333,31.0003333 27.7524,30.3943667 27.4682,29.8619 C27.184,29.3294333 26.7854667,28.9129333 26.2726,28.6124 C25.7597333,28.3118667 25.1603,28.1616 24.4743,28.1616 C23.7883,28.1616 23.1872333,28.3118667 22.6711,28.6124 C22.1549667,28.9129333 21.7564333,29.3278 21.4755,29.857 C21.1945667,30.3862 21.0475667,30.9938 21.0345,31.6798 C21.0475667,32.3658 21.1945667,32.9734 21.4755,33.5026 C21.7564333,34.0318 22.1549667,34.4466667 22.6711,34.7472 C23.1872333,35.0477333 23.7883,35.198 24.4743,35.198 Z M24.4743,34.365 C23.9451,34.365 23.4894,34.2474 23.1072,34.0122 C22.725,33.777 22.4326333,33.4568667 22.2301,33.0518 C22.0275667,32.6467333 21.9263,32.1894 21.9263,31.6798 C21.9263,31.1702 22.0275667,30.7128667 22.2301,30.3078 C22.4326333,29.9027333 22.725,29.5826 23.1072,29.3474 C23.4894,29.1122 23.9451,28.9946 24.4743,28.9946 C24.9969667,28.9946 25.4510333,29.1122 25.8365,29.3474 C26.2219667,29.5826 26.5159667,29.9027333 26.7185,30.3078 C26.9210333,30.7128667 27.0223,31.1702 27.0223,31.6798 C27.0223,32.1894 26.9210333,32.6467333 26.7185,33.0518 C26.5159667,33.4568667 26.2219667,33.777 25.8365,34.0122 C25.4510333,34.2474 24.9969667,34.365 24.4743,34.365 Z M29.8447,35.149 C29.9688333,35.149 30.075,35.1065333 30.1632,35.0216 C30.2514,34.9366667 30.2955,34.8321333 30.2955,34.708 L30.2955,34.708 L30.2955,28.6614 C30.2955,28.5372667 30.2514,28.4311 30.1632,28.3429 C30.075,28.2547 29.9688333,28.2106 29.8447,28.2106 C29.7205667,28.2106 29.6160333,28.2547 29.5311,28.3429 C29.4461667,28.4311 29.4037,28.5372667 29.4037,28.6614 L29.4037,28.6614 L29.4037,34.708 C29.4037,34.8321333 29.4461667,34.9366667 29.5311,35.0216 C29.6160333,35.1065333 29.7205667,35.149 29.8447,35.149 Z M37.5181,35.149 C37.6945,35.149 37.8464,35.0869333 37.9738,34.9628 C38.1012,34.8386667 38.1649,34.6884 38.1649,34.512 L38.1649,34.512 L38.1649,28.6614 C38.1649,28.5372667 38.1208,28.4311 38.0326,28.3429 C37.9444,28.2547 37.8382333,28.2106 37.7141,28.2106 C37.5899667,28.2106 37.4854333,28.2547 37.4005,28.3429 C37.3155667,28.4311 37.2731,28.5372667 37.2731,28.6614 L37.2731,28.6614 L37.2731,33.9534 L33.5001,28.5046 C33.3498333,28.3086 33.1701667,28.2106 32.9611,28.2106 L32.9611,28.2106 L32.8337,28.2106 C32.6573,28.2106 32.5070333,28.2743 32.3829,28.4017 C32.2587667,28.5291 32.1967,28.681 32.1967,28.8574 L32.1967,28.8574 L32.1967,34.708 C32.1967,34.8321333 32.2391667,34.9366667 32.3241,35.0216 C32.4090333,35.1065333 32.5135667,35.149 32.6377,35.149 C32.7618333,35.149 32.868,35.1065333 32.9562,35.0216 C33.0444,34.9366667 33.0885,34.8321333 33.0885,34.708 L33.0885,34.708 L33.0885,29.4062 L36.8811,34.8844 C36.9399,34.9628 37.0150333,35.0265 37.1065,35.0755 C37.1979667,35.1245 37.2959667,35.149 37.4005,35.149 L37.4005,35.149 L37.5181,35.149 Z" id="MYCOIN" fill="#62869E"></path>
                </g>
            </g>
        </g>
    </g>
</svg>