<?xml version="1.0" encoding="UTF-8"?>
<svg width="80px" height="80px" viewBox="0 0 80 80" version="1.1" xmlns="http://www.w3.org/2000/svg" xmlns:xlink="http://www.w3.org/1999/xlink">
    <!-- Generator: Sketch 55.2 (78181) - https://sketchapp.com -->
    <title>Group 9</title>
    <desc>Created with Sketch.</desc>
    <defs>
        <linearGradient x1="6.99563419%" y1="0%" x2="83.7247243%" y2="50%" id="linearGradient-1">
            <stop stop-color="#98FAAC" offset="0%"></stop>
            <stop stop-color="#FAE83E" offset="100%"></stop>
        </linearGradient>
        <linearGradient x1="6.99563419%" y1="34.9209224%" x2="83.7247243%" y2="50%" id="linearGradient-2">
            <stop stop-color="#98FAAC" offset="0%"></stop>
            <stop stop-color="#FAE83E" offset="100%"></stop>
        </linearGradient>
    </defs>
    <g id="New-Onboarding-NEW!!!" stroke="none" stroke-width="1" fill="none" fill-rule="evenodd">
        <g id="Wizard--ATTRIBUTES-new" transform="translate(-600.000000, -1190.000000)">
            <g id="Group-9" transform="translate(600.000000, 1190.000000)">
                <g id="Group-6-Copy-2" transform="translate(21.000000, 22.000000)" fill-rule="nonzero">
                    <g id="dai">
                        <polygon id="Path" fill="#05283E" points="19.4724523 0.328017771 38.2099257 19.065412 19.4724523 37.8029645 0.734978998 19.065412"></polygon>
                        <polygon id="Path" fill="#05283E" points="19.472294 25.1797254 0.719305331 19.0646204 19.472294 0.327463651 38.2252827 19.0646204"></polygon>
                        <polygon id="Path" fill="#FBEF5B" points="7.24208401 17.8415994 15.803231 17.8415994 19.472294 13.7648627 23.5490307 17.8415994 32.1101777 17.8415994 19.472294 4.1849273"></polygon>
                    </g>
                    <polygon id="Path" fill="#E7E7E7" opacity="0.42" points="19 38 19 0 39 19 19 38"></polygon>
                </g>
                <g id="Group-2-Copy" fill="url(#linearGradient-1)">
                    <g id="Group-18-Copy-3" transform="translate(0.396040, 0.396040)">
                        <path d="M39.6039604,79.2079208 C17.7664624,79.2079208 0,61.4414584 0,39.6039604 C0,17.7664624 17.7664624,0 39.6039604,0 C61.4414584,0 79.2079208,17.7664624 79.2079208,39.6039604 C79.2079208,61.4414584 61.4414584,79.2079208 39.6039604,79.2079208" id="Path"></path>
                    </g>
                </g>
                <g id="Group-6-Copy-3" transform="translate(21.000000, 22.000000)">
                    <g id="dai">
                        <polygon id="Path" fill="#05283E" fill-rule="nonzero" points="19.4724523 0.328017771 38.2099257 19.065412 19.4724523 37.8029645 0.734978998 19.065412"></polygon>
                        <polygon id="Path" fill="#05283E" fill-rule="nonzero" points="19.472294 25.1797254 0.719305331 19.0646204 19.472294 0.327463651 38.2252827 19.0646204"></polygon>
                        <polygon id="Path" fill="url(#linearGradient-2)" points="7.24208401 17.8415994 15.803231 17.8415994 19.472294 13.7648627 23.5490307 17.8415994 32.1101777 17.8415994 19.472294 4.1849273"></polygon>
                    </g>
                    <polygon id="Path" fill="#E7E7E7" fill-rule="nonzero" opacity="0.42" points="19 38 19 0 39 19 19 38"></polygon>
                </g>
            </g>
        </g>
    </g>
</svg>