<svg width="1920" height="79" viewBox="0 0 1920 79" fill="none" xmlns="http://www.w3.org/2000/svg">
<g clip-path="url(#clip0_1600_164)">
<rect width="1920" height="79" fill="url(#paint0_linear_1600_164)"/>
<g filter="url(#filter0_d_1600_164)">
<rect x="171" y="120.168" width="783" height="50" transform="rotate(-16.0262 171 120.168)" fill="url(#paint1_linear_1600_164)" fill-opacity="0.5" shape-rendering="crispEdges"/>
<rect x="171.619" y="120.511" width="782" height="49" transform="rotate(-16.0262 171.619 120.511)" stroke="white" shape-rendering="crispEdges"/>
</g>
<path d="M359.59 103.453L364.11 102.155L360.034 87.9632L360.124 87.9373L374.022 99.3079L377.957 98.1777L371.732 76.5071L367.211 77.8055L371.258 91.8922L371.168 91.9181L357.33 80.644L353.365 81.7828L359.59 103.453ZM388.624 95.4713C393.219 94.1513 394.661 90.7946 394.475 88.2795L394.473 88.1013L390.448 89.2574L390.444 89.3561C390.387 90.3478 389.576 91.6539 387.774 92.1715C385.536 92.8142 383.708 91.7136 382.925 89.1586L394.008 85.975L393.62 84.6234C392.222 79.7577 388.345 77.4087 383.63 78.7632C378.914 80.1177 376.836 84.2586 378.307 89.3797L378.311 89.3947C379.791 94.5458 383.698 96.8861 388.624 95.4713ZM384.645 82.0155C386.462 81.4936 388.101 82.2746 389.01 84.4196L382.177 86.3823C381.836 84.1228 382.843 82.5332 384.645 82.0155ZM401.339 91.4613L405.95 90.137L405.578 77.921L405.668 77.8951L411.852 88.4417L416.522 87.1001L416.163 69.776L411.838 71.0183L412.819 83.6606L412.729 83.6865L406.431 72.5713L402.226 73.7791L402.802 86.5378L402.712 86.5637L396.85 75.3234L392.435 76.5917L401.339 91.4613ZM421.954 77.6553L425.738 76.5683L421.966 62.0778L417.461 63.3719L421.954 77.6553ZM425.99 84.5756C427.357 84.1831 428.14 82.8363 427.761 81.5147C427.381 80.1931 426.002 79.4675 424.635 79.8601C423.269 80.2526 422.485 81.5994 422.865 82.921C423.244 84.2425 424.623 84.9682 425.99 84.5756Z" fill="white"/>
<path d="M438.403 80.8152L442.923 79.5168L438.847 65.325L438.937 65.2991L452.835 76.6697L456.77 75.5395L450.545 53.8689L446.025 55.1674L450.071 69.254L449.981 69.2799L436.143 58.0058L432.178 59.1446L438.403 80.8152ZM467.437 72.8331C472.032 71.5131 473.474 68.1564 473.288 65.6413L473.286 65.4631L469.261 66.6192L469.257 66.718C469.2 67.7096 468.389 69.0157 466.587 69.5333C464.349 70.1761 462.521 69.0755 461.738 66.5204L472.821 63.3369L472.433 61.9853C471.036 57.1195 467.158 54.7705 462.443 56.125C457.727 57.4795 455.649 61.6205 457.12 66.7415L457.124 66.7565C458.604 71.9076 462.511 74.248 467.437 72.8331ZM463.458 59.3773C465.275 58.8554 466.914 59.6364 467.823 61.7814L460.99 63.7442C460.65 61.4846 461.656 59.895 463.458 59.3773ZM480.152 68.8231L484.763 67.4988L484.391 55.2828L484.481 55.2569L490.665 65.8035L495.335 64.4619L494.976 47.1378L490.651 48.3802L491.632 61.0224L491.542 61.0483L485.244 49.9331L481.039 51.1409L481.615 63.8996L481.525 63.9255L475.663 52.6852L471.248 53.9535L480.152 68.8231ZM500.767 55.0172L504.551 53.9301L500.779 39.4396L496.274 40.7337L500.767 55.0172ZM504.803 61.9374C506.17 61.5449 506.953 60.1981 506.574 58.8765C506.194 57.555 504.815 56.8293 503.449 57.2219C502.082 57.6144 501.298 58.9612 501.678 60.2828C502.058 61.6044 503.436 62.33 504.803 61.9374Z" fill="white"/>
<path d="M517.216 58.1768L521.736 56.8783L517.66 42.6866L517.75 42.6607L531.648 54.0313L535.583 52.9011L529.358 31.2305L524.838 32.5289L528.884 46.6156L528.794 46.6415L514.956 35.3673L510.991 36.5062L517.216 58.1768ZM546.25 50.1946C550.846 48.8746 552.287 45.518 552.101 43.0029L552.099 42.8247L548.074 43.9808L548.07 44.0795C548.014 45.0712 547.202 46.3772 545.4 46.8949C543.162 47.5376 541.334 46.437 540.551 43.8819L551.635 40.6984L551.246 39.3468C549.849 34.4811 545.971 32.1321 541.256 33.4866C536.54 34.8411 534.462 38.982 535.933 44.1031L535.937 44.1181C537.417 49.2692 541.324 51.6095 546.25 50.1946ZM542.271 36.7389C544.088 36.2169 545.727 36.998 546.636 39.143L539.803 41.1057C539.463 38.8462 540.469 37.2566 542.271 36.7389ZM558.965 46.1847L563.576 44.8603L563.204 32.6444L563.295 32.6185L569.478 43.1651L574.148 41.8235L573.789 24.4994L569.464 25.7417L570.445 38.384L570.355 38.4099L564.058 27.2947L559.853 28.5025L560.429 41.2612L560.338 41.2871L554.476 30.0468L550.061 31.315L558.965 46.1847ZM579.58 32.3787L583.364 31.2917L579.592 16.8011L575.087 18.0953L579.58 32.3787ZM583.616 39.299C584.983 38.9065 585.766 37.5597 585.387 36.2381C585.007 34.9165 583.628 34.1909 582.262 34.5834C580.895 34.976 580.111 36.3228 580.491 37.6444C580.871 38.9659 582.25 39.6916 583.616 39.299Z" fill="white"/>
<path d="M596.029 35.5383L600.549 34.2399L596.473 20.0481L596.563 20.0223L610.461 31.3929L614.396 30.2627L608.171 8.59208L603.651 9.8905L607.697 23.9771L607.607 24.003L593.769 12.7289L589.804 13.8677L596.029 35.5383ZM625.063 27.5562C629.659 26.2362 631.1 22.8796 630.915 20.3644L630.912 20.1863L626.887 21.3424L626.883 21.4411C626.827 22.4327 626.015 23.7388 624.213 24.2565C621.975 24.8992 620.147 23.7986 619.365 21.2435L630.448 18.06L630.059 16.7084C628.662 11.8427 624.784 9.49368 620.069 10.8482C615.353 12.2027 613.275 16.3436 614.746 21.4647L614.75 21.4797C616.23 26.6308 620.137 28.9711 625.063 27.5562ZM621.084 14.1005C622.902 13.5785 624.54 14.3596 625.449 16.5046L618.616 18.4673C618.276 16.2078 619.282 14.6181 621.084 14.1005ZM637.778 23.5462L642.389 22.2219L642.018 10.0059L642.108 9.98005L648.291 20.5266L652.961 19.1851L652.602 1.86096L648.277 3.10331L649.259 15.7455L649.168 15.7714L642.871 4.65624L638.666 5.86408L639.242 18.6228L639.152 18.6487L633.289 7.40839L628.874 8.67662L637.778 23.5462ZM658.393 9.7403L662.178 8.65324L658.405 -5.83728L653.9 -4.54317L658.393 9.7403ZM662.429 16.6606C663.796 16.268 664.58 14.9212 664.2 13.5997C663.82 12.2781 662.441 11.5525 661.075 11.945C659.708 12.3376 658.925 13.6844 659.304 15.0059C659.684 16.3275 661.063 17.0531 662.429 16.6606Z" fill="white"/>
<path d="M674.842 12.9002L679.363 11.6017L675.286 -2.59003L675.376 -2.61592L689.274 8.75468L693.209 7.62449L686.984 -14.0461L682.464 -12.7477L686.51 1.33896L686.42 1.36484L672.582 -9.90926L668.618 -8.77044L674.842 12.9002ZM703.876 4.91803C708.472 3.59804 709.914 0.241396 709.728 -2.27376L709.725 -2.4519L705.7 -1.29582L705.696 -1.19709C705.64 -0.205436 704.828 1.10064 703.026 1.61828C700.788 2.26102 698.96 1.16042 698.178 -1.39467L709.261 -4.57819L708.873 -5.92978C707.475 -10.7955 703.598 -13.1445 698.882 -11.79C694.166 -10.4355 692.088 -6.29458 693.559 -1.17353L693.564 -1.15851C695.043 3.99258 698.951 6.33293 703.876 4.91803ZM699.897 -8.5377C701.715 -9.05966 703.353 -8.27859 704.262 -6.13361L697.429 -4.17087C697.089 -6.43041 698.095 -8.02006 699.897 -8.5377ZM716.592 0.908046L721.202 -0.416262L720.831 -12.6323L720.921 -12.6581L727.104 -2.11155L731.774 -3.45311L731.415 -20.7772L727.09 -19.5349L728.072 -6.89264L727.982 -6.86676L721.684 -17.9819L717.479 -16.7741L718.055 -4.01539L717.965 -3.98951L712.102 -15.2298L707.687 -13.9616L716.592 0.908046ZM737.206 -12.8979L740.991 -13.9849L737.219 -28.4755L732.713 -27.1814L737.206 -12.8979ZM741.242 -5.9776C742.609 -6.37014 743.393 -7.71695 743.013 -9.03852C742.633 -10.3601 741.254 -11.0857 739.888 -10.6932C738.521 -10.3006 737.738 -8.95381 738.117 -7.63225C738.497 -6.31069 739.876 -5.58505 741.242 -5.9776Z" fill="white"/>
<path d="M1620.14 28.546L1602.32 14L1596 21.7461L1613.82 36.2921L1620.14 28.546Z" fill="url(#paint2_linear_1600_164)"/>
<path d="M1580.93 52.38C1571.6 63.69 1556.33 59.06 1547 70.37C1547.62 65 1548.24 59.63 1548.87 54.26C1555.31 49.25 1565.38 54.01 1571.81 49C1574.85 50.12 1577.89 51.25 1580.93 52.37V52.38Z" fill="url(#paint3_linear_1600_164)"/>
<path d="M476.073 11.9999L462 15.1919L464.212 24.9442L478.285 21.7521L476.073 11.9999Z" fill="url(#paint4_linear_1600_164)"/>
<path d="M1620.02 58.7733L1613.99 47L1610 49.0436L1616.04 60.817L1620.02 58.7733Z" fill="url(#paint5_linear_1600_164)"/>
<path d="M433 -5.42761L434.692 15.1931L441.668 14.6208L439.977 -5.99996L433 -5.42761Z" fill="url(#paint6_linear_1600_164)"/>
<path d="M383.774 50.3499C383.774 50.3499 372.984 50.4399 373.014 40.3899L373.874 30.6199C373.874 30.6199 371.994 41.7199 383.344 42.8899L383.764 50.3499H383.774Z" fill="url(#paint7_linear_1600_164)"/>
<path d="M390.694 22.4599L391.084 30.0599C391.084 30.0599 374.574 27.2899 373.004 40.3899C373.004 40.3899 372.894 33.4199 373.864 30.6199C375.454 26.0399 379.984 20.3099 390.684 22.4699L390.694 22.4599Z" fill="url(#paint8_linear_1600_164)"/>
<path d="M622.022 69.7733L615.987 58L612 60.0436L618.035 71.8169L622.022 69.7733Z" fill="url(#paint9_linear_1600_164)"/>
<path d="M649.825 53.9999L641 57.7007L644.461 65.9544L653.287 62.2536L649.825 53.9999Z" fill="url(#paint10_linear_1600_164)"/>
<path d="M669.937 70.1357L662.02 80.7351L665.609 83.4161L673.527 72.8167L669.937 70.1357Z" fill="url(#paint11_linear_1600_164)"/>
<rect x="755.814" y="14" width="52" height="52" rx="26" fill="url(#paint12_linear_1600_164)"/>
<rect x="742" y="26.1802" width="27.6396" height="27.6396" rx="13.8198" fill="url(#paint13_linear_1600_164)" fill-opacity="0.5"/>
<rect x="805.244" y="14" width="8.66667" height="8.66667" rx="4.33333" fill="url(#paint14_linear_1600_164)" fill-opacity="0.5"/>
<path d="M825.162 52.3662C830.274 52.3662 833.98 49.1582 834.391 44.6611L834.405 44.5H830.099L830.069 44.6465C829.498 47.1514 827.711 48.6162 825.162 48.6162C821.778 48.6162 819.61 45.8623 819.61 41.4092V41.3945C819.61 36.9707 821.778 34.2461 825.162 34.2461C827.799 34.2461 829.527 35.7695 830.025 38.0986L830.084 38.3477H834.391L834.376 38.2158C833.966 33.7334 830.289 30.4961 825.162 30.4961C818.995 30.4961 815.099 34.5977 815.099 41.4092V41.4238C815.099 48.2354 818.98 52.3662 825.162 52.3662ZM836.881 52H841.158V43.0059C841.158 40.9551 842.374 39.5195 844.264 39.5195C846.212 39.5195 847.296 40.8232 847.296 43.0205V52H851.573V42.1416C851.573 38.3477 849.464 35.9746 846.065 35.9746C843.707 35.9746 842.052 37.0586 841.246 39.0068H841.158V30.8623H836.881V52ZM859 52.249C861.065 52.249 862.735 51.2676 863.629 49.6562H863.717V52H867.994V41.2334C867.994 38.0693 865.372 35.9746 861.314 35.9746C857.169 35.9746 854.679 38.0547 854.444 40.9551L854.43 41.1309H858.341L858.37 40.999C858.575 39.9883 859.542 39.2412 861.139 39.2412C862.809 39.2412 863.717 40.1055 863.717 41.4971V42.4639L859.835 42.6982C855.938 42.9473 853.727 44.6172 853.727 47.4736V47.5029C853.727 50.2715 855.851 52.249 859 52.249ZM857.96 47.2832V47.2539C857.96 46.1406 858.824 45.4375 860.479 45.335L863.717 45.1299V46.2578C863.717 47.8984 862.311 49.1289 860.392 49.1289C858.912 49.1289 857.96 48.4404 857.96 47.2832ZM870.763 52H875.04V43.2109C875.04 40.9258 876.271 39.666 878.38 39.666C878.995 39.666 879.581 39.7539 879.933 39.9004V36.1357C879.61 36.0479 879.171 35.9746 878.702 35.9746C876.871 35.9746 875.597 37.1025 875.128 39.0361H875.04V36.2969H870.763V52ZM888.502 57.4492C893.219 57.4492 896.163 55.0615 896.163 51.5605V36.2969H891.886V38.9775H891.798C890.948 37.1465 889.234 35.9746 887.022 35.9746C883.053 35.9746 880.592 38.9482 880.592 43.958V43.9727C880.592 48.8506 883.023 51.7803 886.949 51.7803C889.22 51.7803 890.978 50.7402 891.798 49.0996H891.886V51.502C891.886 53.2598 890.714 54.4023 888.502 54.4023C886.715 54.4023 885.572 53.7285 885.235 52.9521L885.191 52.8496H881.031L881.046 52.9814C881.456 55.501 884.181 57.4492 888.502 57.4492ZM888.429 48.6455C886.29 48.6455 884.942 46.9023 884.942 44.0752V44.0605C884.942 41.248 886.305 39.5195 888.429 39.5195C890.509 39.5195 891.9 41.2627 891.9 44.0605V44.0752C891.9 46.8877 890.523 48.6455 888.429 48.6455ZM906.124 52.3223C910.606 52.3223 912.774 49.6709 913.258 47.3564L913.302 47.1953H909.376L909.347 47.2832C909.039 48.1621 907.97 49.1289 906.212 49.1289C904.029 49.1289 902.667 47.6641 902.623 45.1592H913.434V43.8408C913.434 39.0947 910.548 35.9746 905.948 35.9746C901.349 35.9746 898.404 39.168 898.404 44.1631V44.1777C898.404 49.2021 901.319 52.3223 906.124 52.3223ZM906.021 39.168C907.794 39.168 909.068 40.2959 909.332 42.4639H902.667C902.945 40.3398 904.264 39.168 906.021 39.168Z" fill="#071927"/>
<path d="M818.41 55.2056V59.4331H818.938V57.9243H819.913C820.707 57.9243 821.272 57.3647 821.272 56.562C821.272 55.7622 820.713 55.2056 819.919 55.2056H818.41ZM818.938 55.6743H819.781C820.388 55.6743 820.73 56.0024 820.73 56.562C820.73 57.1245 820.385 57.4556 819.781 57.4556H818.938V55.6743ZM822.916 59.4858C823.757 59.4858 824.325 58.8794 824.325 57.9097C824.325 56.937 823.757 56.3335 822.916 56.3335C822.072 56.3335 821.504 56.937 821.504 57.9097C821.504 58.8794 822.072 59.4858 822.916 59.4858ZM822.916 59.0376C822.377 59.0376 822.022 58.6274 822.022 57.9097C822.022 57.1919 822.377 56.7817 822.916 56.7817C823.455 56.7817 823.807 57.1919 823.807 57.9097C823.807 58.6274 823.455 59.0376 822.916 59.0376ZM828.717 56.3862H828.213L827.604 58.8647H827.592L826.9 56.3862H826.408L825.72 58.8647H825.708L825.099 56.3862H824.592L825.444 59.4331H825.963L826.648 57.0747H826.66L827.349 59.4331H827.867L828.717 56.3862ZM830.357 56.7759C830.838 56.7759 831.157 57.1392 831.169 57.6489H829.514C829.546 57.1421 829.88 56.7759 830.357 56.7759ZM831.157 58.5601C831.072 58.8472 830.788 59.0435 830.401 59.0435C829.854 59.0435 829.511 58.6597 829.511 58.0767V58.0474H831.696V57.854C831.696 56.9312 831.189 56.3335 830.366 56.3335C829.525 56.3335 828.986 56.9751 828.986 57.9214C828.986 58.8794 829.517 59.4858 830.39 59.4858C831.055 59.4858 831.57 59.0933 831.658 58.5601H831.157ZM832.212 59.4331H832.722V57.5347C832.722 57.104 832.979 56.8198 833.375 56.8198C833.498 56.8198 833.606 56.8345 833.647 56.8491V56.354C833.606 56.3481 833.53 56.3335 833.442 56.3335C833.085 56.3335 832.804 56.5474 832.704 56.8843H832.692V56.3862H832.212V59.4331ZM835.139 56.7759C835.619 56.7759 835.938 57.1392 835.95 57.6489H834.295C834.327 57.1421 834.661 56.7759 835.139 56.7759ZM835.938 58.5601C835.854 58.8472 835.569 59.0435 835.183 59.0435C834.635 59.0435 834.292 58.6597 834.292 58.0767V58.0474H836.478V57.854C836.478 56.9312 835.971 56.3335 835.147 56.3335C834.307 56.3335 833.768 56.9751 833.768 57.9214C833.768 58.8794 834.298 59.4858 835.171 59.4858C835.836 59.4858 836.352 59.0933 836.439 58.5601H835.938ZM838.147 59.4858C838.587 59.4858 838.936 59.269 839.132 58.9175H839.141V59.4331H839.627V55.2056H839.117V56.8813H839.105C838.924 56.5474 838.572 56.3335 838.136 56.3335C837.368 56.3335 836.844 56.9546 836.844 57.9097C836.844 58.8647 837.371 59.4858 838.147 59.4858ZM838.244 56.7817C838.769 56.7817 839.12 57.23 839.12 57.9097C839.12 58.5923 838.769 59.0376 838.244 59.0376C837.705 59.0376 837.365 58.6011 837.365 57.9097C837.365 57.2212 837.705 56.7817 838.244 56.7817ZM843.061 59.4858C843.84 59.4858 844.355 58.8677 844.355 57.9097C844.355 56.9546 843.837 56.3335 843.069 56.3335C842.639 56.3335 842.284 56.5474 842.094 56.896H842.082V55.2056H841.572V59.4331H842.059V58.9175H842.07C842.267 59.269 842.615 59.4858 843.061 59.4858ZM842.961 56.7817C843.5 56.7817 843.834 57.2183 843.834 57.9097C843.834 58.6069 843.5 59.0376 842.961 59.0376C842.445 59.0376 842.079 58.5894 842.079 57.9097C842.079 57.2329 842.445 56.7817 842.961 56.7817ZM845.038 60.5728C845.589 60.5728 845.841 60.3589 846.102 59.647L847.3 56.3862H846.764L845.92 58.9233H845.911L845.067 56.3862H844.522L845.647 59.436L845.577 59.6499C845.46 60.0044 845.302 60.1421 845.018 60.1421C844.953 60.1421 844.874 60.1392 844.818 60.1274V60.5552C844.874 60.5669 844.977 60.5728 845.038 60.5728ZM849.541 59.4331V57.6021H851.413V57.1333H849.541V55.6802H851.58V55.2056H849.014V59.4331H849.541ZM854.606 56.3862H854.097V58.1763C854.097 58.6948 853.798 59.0347 853.303 59.0347C852.831 59.0347 852.6 58.7681 852.6 58.2729V56.3862H852.09V58.3638C852.09 59.0552 852.479 59.4858 853.145 59.4858C853.613 59.4858 853.93 59.2896 854.111 58.938H854.123V59.4331H854.606V56.3862ZM855.216 57.2271C855.216 57.6431 855.479 57.9185 856.016 58.0562L856.552 58.1938C856.895 58.2847 857.021 58.4019 857.021 58.6187C857.021 58.894 856.766 59.0698 856.353 59.0698C855.939 59.0698 855.699 58.8999 855.644 58.5835H855.134C855.187 59.1226 855.652 59.4858 856.32 59.4858C857.032 59.4858 857.533 59.1108 857.533 58.5806C857.533 58.1323 857.311 57.9097 856.695 57.7544L856.224 57.6401C855.878 57.5522 855.717 57.4116 855.717 57.2007C855.717 56.9341 855.963 56.7495 856.335 56.7495C856.71 56.7495 856.947 56.9312 856.982 57.2241H857.469C857.445 56.7085 856.982 56.3335 856.353 56.3335C855.682 56.3335 855.216 56.7056 855.216 57.2271ZM859.285 56.7759C859.766 56.7759 860.085 57.1392 860.097 57.6489H858.441C858.474 57.1421 858.808 56.7759 859.285 56.7759ZM860.085 58.5601C860 58.8472 859.716 59.0435 859.329 59.0435C858.781 59.0435 858.438 58.6597 858.438 58.0767V58.0474H860.624V57.854C860.624 56.9312 860.117 56.3335 859.294 56.3335C858.453 56.3335 857.914 56.9751 857.914 57.9214C857.914 58.8794 858.444 59.4858 859.317 59.4858C859.982 59.4858 860.498 59.0933 860.586 58.5601H860.085Z" fill="#071927"/>
</g>
<defs>
<filter id="filter0_d_1600_164" x="161" y="-102" width="786.373" height="284.225" filterUnits="userSpaceOnUse" color-interpolation-filters="sRGB">
<feFlood flood-opacity="0" result="BackgroundImageFix"/>
<feColorMatrix in="SourceAlpha" type="matrix" values="0 0 0 0 0 0 0 0 0 0 0 0 0 0 0 0 0 0 127 0" result="hardAlpha"/>
<feOffset dy="4"/>
<feGaussianBlur stdDeviation="5"/>
<feComposite in2="hardAlpha" operator="out"/>
<feColorMatrix type="matrix" values="0 0 0 0 0 0 0 0 0 0 0 0 0 0 0 0 0 0 0.15 0"/>
<feBlend mode="normal" in2="BackgroundImageFix" result="effect1_dropShadow_1600_164"/>
<feBlend mode="normal" in="SourceGraphic" in2="effect1_dropShadow_1600_164" result="shape"/>
</filter>
<linearGradient id="paint0_linear_1600_164" x1="0" y1="0" x2="274.326" y2="-633.561" gradientUnits="userSpaceOnUse">
<stop stop-color="#6E39EF"/>
<stop offset="0.354167" stop-color="#C699FA"/>
<stop offset="0.625" stop-color="#C99CFA"/>
<stop offset="1" stop-color="#6E39EF"/>
</linearGradient>
<linearGradient id="paint1_linear_1600_164" x1="247.201" y1="128.356" x2="1004" y2="166.785" gradientUnits="userSpaceOnUse">
<stop stop-color="#B04BFF"/>
<stop offset="0.327081" stop-color="#E24BCF"/>
</linearGradient>
<linearGradient id="paint2_linear_1600_164" x1="1599.11" y1="17.8569" x2="1616.93" y2="32.4029" gradientUnits="userSpaceOnUse">
<stop stop-color="#6A1BA7"/>
<stop offset="0.09" stop-color="#7520AE"/>
<stop offset="0.24" stop-color="#932FC2"/>
<stop offset="0.44" stop-color="#C348E3"/>
<stop offset="0.6" stop-color="#ED5DFF"/>
<stop offset="0.68" stop-color="#DA49FC"/>
<stop offset="1" stop-color="#9500F2"/>
</linearGradient>
<linearGradient id="paint3_linear_1600_164" x1="1544.39" y1="63.3834" x2="1580.07" y2="50.1008" gradientUnits="userSpaceOnUse">
<stop offset="0.18" stop-color="#D5AC24"/>
<stop offset="0.35" stop-color="#EED329"/>
<stop offset="0.51" stop-color="#E9CC0A"/>
<stop offset="0.67" stop-color="#E8BF00"/>
<stop offset="0.82" stop-color="#EED329"/>
<stop offset="1" stop-color="#E6E52D"/>
</linearGradient>
<linearGradient id="paint4_linear_1600_164" x1="462.299" y1="20.2614" x2="476.43" y2="17.0561" gradientUnits="userSpaceOnUse">
<stop stop-color="#3FB60A"/>
<stop offset="0.17" stop-color="#45BB11"/>
<stop offset="0.44" stop-color="#58CA26"/>
<stop offset="0.76" stop-color="#77E248"/>
<stop offset="1" stop-color="#93F867"/>
</linearGradient>
<linearGradient id="paint5_linear_1600_164" x1="1612" y1="47.9636" x2="1618.03" y2="59.7281" gradientUnits="userSpaceOnUse">
<stop stop-color="#3694C4"/>
<stop offset="0.06" stop-color="#3292C2"/>
<stop offset="0.37" stop-color="#238EBC"/>
<stop offset="0.47" stop-color="#4BA5CF"/>
<stop offset="0.68" stop-color="#A5D9FB"/>
<stop offset="1" stop-color="#17A5E2"/>
</linearGradient>
<linearGradient id="paint6_linear_1600_164" x1="438.172" y1="14.8073" x2="436.48" y2="-5.81345" gradientUnits="userSpaceOnUse">
<stop stop-color="#4A9DBD"/>
<stop offset="0.14" stop-color="#51A6C8"/>
<stop offset="0.38" stop-color="#64C0E6"/>
<stop offset="0.55" stop-color="#74D6FF"/>
<stop offset="0.71" stop-color="#49C8F9"/>
<stop offset="1" stop-color="#00B0EF"/>
</linearGradient>
<linearGradient id="paint7_linear_1600_164" x1="382.802" y1="40.376" x2="369.221" y2="40.4704" gradientUnits="userSpaceOnUse">
<stop stop-color="#BDFB96"/>
<stop offset="0.67" stop-color="#5FCF40"/>
<stop offset="1" stop-color="#37BC1B"/>
</linearGradient>
<linearGradient id="paint8_linear_1600_164" x1="372.855" y1="32.0883" x2="391.657" y2="29.1534" gradientUnits="userSpaceOnUse">
<stop stop-color="#496128"/>
<stop offset="0.12" stop-color="#428422"/>
<stop offset="0.28" stop-color="#3AAC1D"/>
<stop offset="0.37" stop-color="#37BC1B"/>
<stop offset="0.47" stop-color="#5FCF40"/>
<stop offset="0.68" stop-color="#BDFB96"/>
<stop offset="1" stop-color="#3FB60A"/>
</linearGradient>
<linearGradient id="paint9_linear_1600_164" x1="613.988" y1="58.9682" x2="620.023" y2="70.7415" gradientUnits="userSpaceOnUse">
<stop stop-color="#B02692"/>
<stop offset="0.19" stop-color="#B70F89"/>
<stop offset="0.37" stop-color="#BC0084"/>
<stop offset="0.53" stop-color="#DA2888"/>
<stop offset="0.68" stop-color="#FB538E"/>
<stop offset="1" stop-color="#B6009C"/>
</linearGradient>
<linearGradient id="paint10_linear_1600_164" x1="644.636" y1="66.2676" x2="653.461" y2="62.5668" gradientUnits="userSpaceOnUse">
<stop stop-color="#4A9DBD"/>
<stop offset="0.14" stop-color="#51A6C8"/>
<stop offset="0.38" stop-color="#64C0E6"/>
<stop offset="0.55" stop-color="#74D6FF"/>
<stop offset="0.71" stop-color="#49C8F9"/>
<stop offset="1" stop-color="#00B0EF"/>
</linearGradient>
<linearGradient id="paint11_linear_1600_164" x1="663.89" y1="82.0075" x2="671.808" y2="71.408" gradientUnits="userSpaceOnUse">
<stop stop-color="#FF580B"/>
<stop offset="0.05" stop-color="#FF6311"/>
<stop offset="0.13" stop-color="#FF8124"/>
<stop offset="0.24" stop-color="#FFB142"/>
<stop offset="0.26" stop-color="#FFB947"/>
<stop offset="0.54" stop-color="#FF8400"/>
<stop offset="0.81" stop-color="#FF8400"/>
<stop offset="0.85" stop-color="#F89002"/>
<stop offset="0.93" stop-color="#F29C04"/>
<stop offset="1" stop-color="#F0A005"/>
</linearGradient>
<linearGradient id="paint12_linear_1600_164" x1="807.814" y1="62.4138" x2="753.835" y2="59.889" gradientUnits="userSpaceOnUse">
<stop stop-color="#7A159A"/>
<stop offset="1" stop-color="#063B64"/>
</linearGradient>
<linearGradient id="paint13_linear_1600_164" x1="755.82" y1="26.1802" x2="755.82" y2="53.8198" gradientUnits="userSpaceOnUse">
<stop stop-color="#B04BFF"/>
<stop offset="1" stop-color="#E24BCF"/>
</linearGradient>
<linearGradient id="paint14_linear_1600_164" x1="809.577" y1="14" x2="809.577" y2="22.6667" gradientUnits="userSpaceOnUse">
<stop stop-color="#B04BFF"/>
<stop offset="1" stop-color="#E24BCF"/>
</linearGradient>
<clipPath id="clip0_1600_164">
<rect width="1920" height="79" fill="white"/>
</clipPath>
</defs>
</svg>
