<?xml version="1.0" encoding="UTF-8"?>
<svg width="3px" height="12px" viewBox="0 0 3 12" version="1.1" xmlns="http://www.w3.org/2000/svg" xmlns:xlink="http://www.w3.org/1999/xlink">
    <!-- Generator: Sketch 61 (89581) - https://sketch.com -->
    <title>baseline-more_vert-24px copy 2</title>
    <desc>Created with Sketch.</desc>
    <g id="User-list" stroke="none" stroke-width="1" fill="none" fill-rule="evenodd">
        <g id="user-list-copy-3" transform="translate(-1443.000000, -444.000000)">
            <g id="baseline-more_vert-24px-copy-2" transform="translate(1437.000000, 442.000000)">
                <polygon id="Path" points="0 0 14 0 14 16 0 16"></polygon>
                <path d="M7.5,5 C8.325,5 9,4.325 9,3.5 C9,2.675 8.325,2 7.5,2 C6.675,2 6,2.675 6,3.5 C6,4.325 6.675,5 7.5,5 Z M7.5,6.5 C6.675,6.5 6,7.175 6,8 C6,8.825 6.675,9.5 7.5,9.5 C8.325,9.5 9,8.825 9,8 C9,7.175 8.325,6.5 7.5,6.5 Z M7.5,11 C6.675,11 6,11.675 6,12.5 C6,13.325 6.675,14 7.5,14 C8.325,14 9,13.325 9,12.5 C9,11.675 8.325,11 7.5,11 Z" id="Shape" fill="#A4A4A4" fill-rule="nonzero"></path>
            </g>
        </g>
    </g>
</svg>