<?xml version="1.0" encoding="UTF-8"?>
<svg width="14px" height="18px" color='#5fddbb' fill="#5fddbb" viewBox="0 0 14 18" version="1.1" xmlns="http://www.w3.org/2000/svg" xmlns:xlink="http://www.w3.org/1999/xlink">
    <!-- Generator: Sketch 51.3 (57544) - http://www.bohemiancoding.com/sketch -->
    <title>Download icon Copy</title>
    <desc>Created with Sketch.</desc>
    <defs></defs>
    <g id="Currency-Issuance-Factory---Mobile-(Principle)" stroke="none" stroke-width="1" fill="#5fddbb" fill-rule="evenodd">
        <g id="New-Issuance---Mobile--Step-04" transform="translate(-121.000000, -453.000000)" fill="#5fddbb">
            <g id="Group-14" transform="translate(121.000000, 448.000000)" fill="#5fddbb">
                <path fill='#5fddbb' d="M5.68750262,12.6990701 L5.68750262,6.75000081 C5.68750262,5.78350205 6.47100467,5 7.43750343,5 C8.40400219,5 9.18750424,5.78350205 9.18750424,6.75000081 L9.18750424,12.6990701 L11.1348372,11.0888842 C11.8796853,10.4729936 12.9827819,10.5775344 13.5986724,11.3223825 C14.214563,12.0672306 14.1100222,13.1703272 13.3651741,13.7862178 L8.55267189,17.7655184 C7.90551603,18.3006304 6.96949083,18.3006304 6.32233497,17.7655184 L1.50983275,13.7862178 C0.764984646,13.1703272 0.660443879,12.0672306 1.27633441,11.3223825 C1.89222495,10.5775344 2.99532156,10.4729936 3.74016967,11.0888842 L5.68750262,12.6990701 Z M1.75000081,22.8125087 C0.783502049,22.8125087 0,22.0290066 0,21.0625079 C0,20.0960091 0.783502049,19.3125071 1.75000081,19.3125071 L12.2500056,19.3125071 C13.2165044,19.3125071 14.0000065,20.0960091 14.0000065,21.0625079 C14.0000065,22.0290066 13.2165044,22.8125087 12.2500056,22.8125087 L1.75000081,22.8125087 Z" id="Download-icon-Copy"></path>
            </g>
        </g>
    </g>
</svg>
