<?xml version="1.0" encoding="UTF-8"?>
<svg width="16px" height="18px" viewBox="0 0 16 18" version="1.1" xmlns="http://www.w3.org/2000/svg" xmlns:xlink="http://www.w3.org/1999/xlink">
    <title>icons8-coins</title>
    <g id="home-page-studio" stroke="none" stroke-width="1" fill="none" fill-rule="evenodd">
        <g id="Studio-home-page" transform="translate(-1181.000000, -846.000000)" fill="#ABC3D2" fill-rule="nonzero">
            <g id="icons8-coins" transform="translate(1181.000000, 846.000000)">
                <path d="M15.6464,6.87792 C15.6464,7.89376 12.67056,9.31168 7.8232,9.31168 C2.97584,9.31168 0,7.89432 0,6.87792 L0,4.47104 C1.62848,5.628 4.78968,6.24008 7.8232,6.24008 C10.85672,6.24008 14.01792,5.628 15.6464,4.47104 L15.6464,6.87792 Z" id="Path"></path>
                <path d="M0.00056,8.6632 C1.62904,9.8196 4.79024,10.43168 7.82376,10.43168 C10.85728,10.43168 14.01848,9.8196 15.64696,8.6632 L15.64696,11.07008 C15.64696,12.08648 12.67112,13.5044 7.82376,13.5044 C2.9764,13.5044 0.00056,12.08704 0.00056,11.07008 L0.00056,8.6632 Z" id="Path"></path>
                <path d="M7.8232,0.252 C12.67,0.252 15.6464,1.66992 15.6464,2.68632 C15.6464,3.70272 12.67056,5.12008 7.8232,5.12008 C2.97584,5.12008 0,3.70272 0,2.68632 C0.00056,1.66992 2.9764,0.252 7.8232,0.252 Z" id="Path"></path>
                <path d="M7.8232,17.69544 C2.9764,17.69544 0,16.27808 0,15.26112 L0,12.8548 C1.62848,14.01176 4.78968,14.62384 7.8232,14.62384 C10.85672,14.62384 14.01792,14.01176 15.6464,12.8548 L15.6464,15.26112 C15.6464,16.27752 12.67056,17.69544 7.8232,17.69544 Z" id="Path"></path>
            </g>
        </g>
    </g>
</svg>