<?xml version="1.0" encoding="UTF-8"?>
<svg width="21px" height="17px" viewBox="0 0 21 17" version="1.1" xmlns="http://www.w3.org/2000/svg" xmlns:xlink="http://www.w3.org/1999/xlink">
    <title>icons8-username</title>
    <g id="home-page-studio" stroke="none" stroke-width="1" fill="none" fill-rule="evenodd">
        <g id="Studio-home-page" transform="translate(-1365.000000, -847.000000)" fill="#ABC3D2" fill-rule="nonzero">
            <g id="icons8-username" transform="translate(1365.000000, 847.000000)">
                <path d="M19.2275,6.547 C17.833,5.162 15.6155,3.1825 14.738,2.431 C12.7425,0.7195 10.325,-0.1325 7.935,0.018 C3.6935,0.2935 0.2125,3.837 0.01,8.085 C-0.102,10.436 0.728,12.666 2.3475,14.365 C3.9675,16.064 6.1525,17 8.5,17 C10.6155,17 12.9015,16.1015 14.7715,14.535 C15.752,13.7135 17.911,11.7505 19.2245,10.4505 C19.7495,9.9305 20.039,9.2375 20.0400006,8.4995 C20.0405,7.761 19.752,7.068 19.2275,6.547 Z M8.5,4 C9.6045,4 10.5,4.8955 10.5,6 C10.5,7.1045 9.6045,8 8.5,8 C7.3955,8 6.5,7.1045 6.5,6 C6.5,4.8955 7.3955,4 8.5,4 Z M12,10.376 C12,11.4875 10.5815,12.5 8.5,12.5 C6.4185,12.5 5,11.4875 5,10.376 L5,9.724 C5,9.324 5.324,9 5.724,9 L11.276,9 C11.676,9 12,9.324 12,9.724 L12,10.376 Z" id="Shape"></path>
            </g>
        </g>
    </g>
</svg>