<?xml version="1.0" encoding="UTF-8"?>
<svg width="18px" height="18px" viewBox="0 0 18 18" version="1.1" xmlns="http://www.w3.org/2000/svg" xmlns:xlink="http://www.w3.org/1999/xlink">
    <title>icons8-shop</title>
    <g id="home-page-studio" stroke="none" stroke-width="1" fill="none" fill-rule="evenodd">
        <g id="Studio-home-page" transform="translate(-1268.000000, -846.000000)" fill="#ABC3D2" fill-rule="nonzero">
            <g id="icons8-shop" transform="translate(1268.000000, 846.000000)">
                <path d="M14.859,0.18 C14.733,0.063 14.571,0 14.4,0 L3.6,0 C3.429,0 3.267,0.063 3.141,0.18 L0.9,2.25 L17.1,2.25 L14.859,0.18 Z" id="Path"></path>
                <path d="M15.4485,8.55 C14.112,8.55 12.9285,7.8705 12.2265,6.8355 C11.5245,7.8705 10.341,8.55 9,8.55 C7.659,8.55 6.4755,7.8705 5.7735,6.8355 C5.0715,7.8705 3.888,8.55 2.5515,8.55 C1.962,8.55 1.404,8.4195 0.9,8.181 L0.9,16.875 C0.9,17.2485 1.2015,17.55 1.575,17.55 L3.6,17.55 L3.6,10.8 C3.6,10.5525 3.8025,10.35 4.05,10.35 L7.65,10.35 C7.8975,10.35 8.1,10.5525 8.1,10.8 L8.1,17.55 L16.425,17.55 C16.7985,17.55 17.1,17.2485 17.1,16.875 L17.1,8.181 C16.596,8.4195 16.038,8.55 15.4485,8.55 Z M14.4,13.95 C14.4,14.1975 14.1975,14.4 13.95,14.4 L10.8,14.4 C10.5525,14.4 10.35,14.1975 10.35,13.95 L10.35,10.8 C10.35,10.5525 10.5525,10.35 10.8,10.35 L13.95,10.35 C14.1975,10.35 14.4,10.5525 14.4,10.8 L14.4,13.95 Z" id="Shape"></path>
                <path d="M5.0985,3.6 L5.0985,4.635 C5.0985,6.048 3.9555,7.2 2.5515,7.2 C1.143,7.2 0,6.048 0,4.635 L0,3.6 L5.0985,3.6 Z" id="Path"></path>
                <path d="M11.5515,3.6 L11.5515,4.635 C11.5515,6.048 10.404,7.2 9,7.2 C7.596,7.2 6.4485,6.048 6.4485,4.635 L6.4485,3.6 L11.5515,3.6 Z" id="Path"></path>
                <path d="M18,3.6 L18,4.635 C18,6.048 16.857,7.2 15.4485,7.2 C14.0445,7.2 12.9015,6.048 12.9015,4.635 L12.9015,3.6 L18,3.6 Z" id="Path"></path>
            </g>
        </g>
    </g>
</svg>