<svg width="48" height="48" viewBox="0 0 48 48" fill="none"
  xmlns="http://www.w3.org/2000/svg">
  <circle cx="24" cy="24" r="24" fill="#4A687B"/>
  <path fill-rule="evenodd" clip-rule="evenodd" d="M36.3368 11.377H24.6209L9.55637 25.6931L8.44434 28.8211L9.55637 30.6338L17.5437 38.1893L20.0039 39.1306L21.782 38.1893L37.1715 23.1663L36.3368 11.377Z" fill="white"/>
  <path d="M26.2446 27.085C27.0477 26.0571 26.9877 24.5425 26.0643 23.5873C25.0766 22.5658 23.4696 22.5656 22.4819 23.5868L21.6351 24.4625C21.3244 24.7841 20.8183 24.7839 20.5071 24.4622C20.3563 24.3063 20.2734 24.0991 20.2732 23.8787C20.2732 23.6586 20.3563 23.4514 20.5066 23.2956L21.9393 21.814C22.2783 21.4636 22.2783 20.8954 21.9393 20.545C21.6005 20.1944 21.051 20.1944 20.7122 20.545L20.3166 20.9542L19.9389 20.5637C19.6001 20.2133 19.0507 20.2133 18.7116 20.5637C18.3728 20.9143 18.3728 21.4823 18.7116 21.8329L19.0995 22.2338C18.7356 22.6984 18.5378 23.273 18.5378 23.8792C18.5378 24.5788 18.8015 25.2367 19.28 25.7315C19.7738 26.2423 20.4227 26.4977 21.0713 26.4977C21.72 26.4977 22.3687 26.2423 22.8622 25.732L23.7089 24.8563C24.0199 24.5347 24.526 24.5349 24.8372 24.8565C25.1482 25.1784 25.1484 25.7018 24.8375 26.0231L23.1759 27.7414C22.8369 28.0918 22.8369 28.66 23.1759 29.0104C23.3452 29.1857 23.5673 29.2735 23.7895 29.2733C24.0115 29.2733 24.2337 29.1857 24.403 29.0104L25.0277 28.3646L25.4054 28.7549C25.5749 28.9302 25.7969 29.0177 26.0189 29.0177C26.2411 29.0177 26.4631 28.9302 26.6327 28.7549C26.9715 28.4045 26.9715 27.8363 26.6327 27.4859L26.2446 27.085Z" fill="#9EAFB9"/>
  <path fill-rule="evenodd" clip-rule="evenodd" d="M36.8986 9.97086C37.3685 9.98498 37.746 10.3591 37.7601 10.8247L38.1255 22.9523C38.1329 23.1933 38.0401 23.4267 37.8688 23.598L22.9067 38.5677C22.0155 39.4592 20.83 39.9503 19.5687 39.9503C18.3072 39.9503 17.1217 39.4592 16.2308 38.5677L9.1557 31.4893C7.32212 29.6549 7.32212 26.67 9.1557 24.8354L24.118 9.86575C24.2914 9.69211 24.5294 9.59835 24.7768 9.60529L36.8986 9.97086ZM19.5687 38.1894C20.3517 38.1894 21.0883 37.8838 21.6429 37.3288L36.3368 22.6277L36.0076 11.7058L25.1095 11.3771L10.4195 26.0743C9.26862 27.2256 9.26862 29.0991 10.4195 30.2504L17.4944 37.3288C18.0489 37.8838 18.7856 38.1894 19.5687 38.1894Z" fill="#9EAFB9"/>
  <path d="M37.7601 10.8247L37.2603 10.8398V10.8398L37.7601 10.8247ZM36.8986 9.97086L36.8835 10.4706L36.8835 10.4706L36.8986 9.97086ZM38.1255 22.9523L37.6257 22.9673L37.6257 22.9678L38.1255 22.9523ZM37.8688 23.598L37.5153 23.2444L37.5151 23.2445L37.8688 23.598ZM22.9067 38.5677L23.2604 38.9212L23.2604 38.9211L22.9067 38.5677ZM16.2308 38.5677L16.5844 38.2142L16.5844 38.2142L16.2308 38.5677ZM9.1557 31.4893L9.50934 31.1358L9.50933 31.1358L9.1557 31.4893ZM9.1557 24.8354L8.80206 24.482L8.80206 24.482L9.1557 24.8354ZM24.118 9.86575L24.4716 10.2192L24.4717 10.2191L24.118 9.86575ZM24.7768 9.60529L24.7919 9.10552L24.7908 9.10549L24.7768 9.60529ZM21.6429 37.3288L21.2892 36.9753L21.2892 36.9754L21.6429 37.3288ZM36.3368 22.6277L36.6904 22.9811L36.8431 22.8284L36.8365 22.6126L36.3368 22.6277ZM36.0076 11.7058L36.5074 11.6908L36.4932 11.2203L36.0227 11.2061L36.0076 11.7058ZM25.1095 11.3771L25.1245 10.8773L24.9086 10.8708L24.7558 11.0236L25.1095 11.3771ZM10.4195 26.0743L10.7732 26.4278L10.7732 26.4277L10.4195 26.0743ZM10.4195 30.2504L10.7732 29.8969L10.7732 29.8969L10.4195 30.2504ZM17.4944 37.3288L17.848 36.9754L17.848 36.9753L17.4944 37.3288ZM38.2598 10.8096C38.2377 10.0756 37.6437 9.49303 36.9136 9.47109L36.8835 10.4706C37.0932 10.4769 37.2543 10.6426 37.2603 10.8398L38.2598 10.8096ZM38.6252 22.9372L38.2598 10.8096L37.2603 10.8398L37.6257 22.9673L38.6252 22.9372ZM38.2223 23.9516C38.4906 23.6833 38.637 23.3166 38.6252 22.9368L37.6257 22.9678C37.6289 23.07 37.5896 23.17 37.5153 23.2444L38.2223 23.9516ZM23.2604 38.9211L38.2224 23.9514L37.5151 23.2445L22.5531 38.2142L23.2604 38.9211ZM19.5687 40.4503C20.9626 40.4503 22.2753 39.9066 23.2604 38.9212L22.5531 38.2142C21.7557 39.0119 20.6974 39.4503 19.5687 39.4503V40.4503ZM15.8771 38.9211C16.8619 39.9066 18.1747 40.4503 19.5687 40.4503V39.4503C18.4398 39.4503 17.3815 39.0119 16.5844 38.2142L15.8771 38.9211ZM8.80206 31.8427L15.8771 38.9211L16.5844 38.2142L9.50934 31.1358L8.80206 31.8427ZM8.80206 24.482C6.77335 26.5118 6.77332 29.8132 8.80208 31.8427L9.50933 31.1358C7.87093 29.4967 7.87089 26.8282 9.50935 25.1889L8.80206 24.482ZM23.7643 9.51229L8.80206 24.482L9.50934 25.1889L24.4716 10.2192L23.7643 9.51229ZM24.7908 9.10549C24.408 9.09474 24.0363 9.24001 23.7642 9.51237L24.4717 10.2191C24.5465 10.1442 24.6509 10.102 24.7627 10.1051L24.7908 9.10549ZM36.9136 9.47109L24.7919 9.10552L24.7617 10.1051L36.8835 10.4706L36.9136 9.47109ZM21.2892 36.9754C20.8282 37.4367 20.2187 37.6894 19.5687 37.6894V38.6894C20.4846 38.6894 21.3485 38.3308 21.9966 37.6822L21.2892 36.9754ZM35.9831 22.2742L21.2892 36.9753L21.9965 37.6823L36.6904 22.9811L35.9831 22.2742ZM35.5078 11.7209L35.837 22.6427L36.8365 22.6126L36.5074 11.6908L35.5078 11.7209ZM25.0944 11.8769L35.9925 12.2056L36.0227 11.2061L25.1245 10.8773L25.0944 11.8769ZM10.7732 26.4277L25.4631 11.7305L24.7558 11.0236L10.0659 25.7208L10.7732 26.4277ZM10.7732 29.8969C9.81742 28.9408 9.81742 27.3839 10.7732 26.4278L10.0659 25.7208C8.71983 27.0674 8.71983 29.2573 10.0659 30.6039L10.7732 29.8969ZM17.848 36.9753L10.7732 29.8969L10.0659 30.6039L17.1407 37.6823L17.848 36.9753ZM19.5687 37.6894C18.9185 37.6894 18.309 37.4367 17.848 36.9754L17.1407 37.6822C17.7888 38.3308 18.6526 38.6894 19.5687 38.6894V37.6894Z" fill="#9EAFB9"/>
  <path fill-rule="evenodd" clip-rule="evenodd" d="M26.7463 17.1912C26.7463 16.5155 27.0095 15.8802 27.4872 15.4023C28.4733 14.416 30.0781 14.4158 31.0642 15.4021C32.0505 16.3887 32.0505 17.9937 31.0642 18.9803C30.5711 19.4735 29.9236 19.72 29.2758 19.72C28.628 19.72 27.9803 19.4735 27.4872 18.9803C27.0095 18.5024 26.7463 17.8671 26.7463 17.1912ZM28.6795 17.7877C29.0082 18.1163 29.5432 18.1165 29.8719 17.7877C30.2007 17.4588 30.2007 16.9238 29.8719 16.5949C29.5432 16.2663 29.0082 16.2663 28.6795 16.5949C28.3509 16.9238 28.3509 17.4588 28.6795 17.7877Z" fill="#9EAFB9"/>
</svg>
