<?xml version="1.0" encoding="UTF-8"?>
<svg width="15px" height="15px" viewBox="0 0 15 15" version="1.1" xmlns="http://www.w3.org/2000/svg" xmlns:xlink="http://www.w3.org/1999/xlink">
    <!-- Generator: Sketch 62 (91390) - https://sketch.com -->
    <title>icons8-us-dollar (1) copy 3</title>
    <desc>Created with Sketch.</desc>
    <g id="plugins" stroke="none" stroke-width="1" fill="none" fill-rule="evenodd">
        <g id="icons8-us-dollar-(1)-copy-3" fill-rule="nonzero">
            <path d="M15,7.5 C15,11.6415 11.6415,15 7.5,15 C3.3585,15 0,11.6415 0,7.5 C0,3.3585 3.3585,0 7.5,0 C11.6415,0 15,3.3585 15,7.5 Z" id="Path" fill="#051926"></path>
            <path d="M7.2,4.5 L7.2,4.5 C6.87,4.5 6.6,4.23 6.6,3.9 L6.6,3 C6.6,2.67 6.87,2.4 7.2,2.4 L7.2,2.4 C7.53,2.4 7.8,2.67 7.8,3 L7.8,3.9 C7.8,4.23 7.53,4.5 7.2,4.5 Z M7.2,12.6 L7.2,12.6 C6.87,12.6 6.6,12.33 6.6,12 L6.6,11.1 C6.6,10.77 6.87,10.5 7.2,10.5 L7.2,10.5 C7.53,10.5 7.8,10.77 7.8,11.1 L7.8,12 C7.8,12.33 7.53,12.6 7.2,12.6 Z" id="Shape" fill="#FFFFFF"></path>
            <path d="M7.35,11.7 C5.9439,11.7 4.8,10.6908 4.8,9.45 C4.8,9.0357 5.1357,8.7 5.55,8.7 C5.9643,8.7 6.3,9.0357 6.3,9.45 C6.3,9.8565 6.7809,10.2 7.35,10.2 C7.9191,10.2 8.4,9.8565 8.4,9.45 C8.4,8.8644 8.0058,8.6256 7.0374,8.1816 C6.0933,7.749 4.8,7.1562 4.8,5.55 C4.8,4.3092 5.9439,3.3 7.35,3.3 C8.7561,3.3 9.9,4.3092 9.9,5.55 C9.9,5.9643 9.5643,6.3 9.15,6.3 C8.7357,6.3 8.4,5.9643 8.4,5.55 C8.4,5.1435 7.9191,4.8 7.35,4.8 C6.7809,4.8 6.3,5.1435 6.3,5.55 C6.3,6.1356 6.6942,6.3744 7.6626,6.8184 C8.6067,7.251 9.9,7.8438 9.9,9.45 C9.9,10.6908 8.7561,11.7 7.35,11.7 Z" id="Path" fill="#FFFFFF"></path>
        </g>
    </g>
</svg>