<?xml version="1.0" encoding="UTF-8"?>
<svg width="21px" height="20px" viewBox="0 0 21 20" version="1.1" xmlns="http://www.w3.org/2000/svg" xmlns:xlink="http://www.w3.org/1999/xlink">
    <!-- Generator: Sketch 54.1 (76490) - https://sketchapp.com -->
    <title>filter</title>
    <desc>Created with Sketch.</desc>
    <g id="User-Statuse" stroke="none" stroke-width="1" fill="none" fill-rule="evenodd">
        <g id="Filter" transform="translate(-223.000000, -769.000000)" fill="#9AA7B1" fill-rule="nonzero" stroke="#9AA7B1" stroke-width="0.5">
            <g id="filter" transform="translate(224.000000, 770.000000)">
                <path d="M18.9450225,0.33941121 C18.8499689,0.132181766 18.6470395,0 18.4241474,0 L0.575882855,0 C0.352990694,0 0.150138096,0.132181766 0.0550077518,0.33941121 C-0.0400458122,0.546640654 -0.010255196,0.791591223 0.131557351,0.968359675 L6.99268944,9.52142748 L6.99268944,17.4081413 C6.99268944,17.6129244 7.09565134,17.8031084 7.26487433,17.9110634 C7.35762449,17.9701703 7.46288979,18 7.56853898,18 C7.65583777,18 7.74344368,17.9795611 7.82421618,17.9384467 L11.6791833,15.9746597 C11.875049,15.8749118 11.9989718,15.669813 11.9992789,15.4451435 L12.0068033,9.52166422 L18.8683193,0.96828076 C19.0102087,0.791591223 19.0400761,0.54656174 18.9450225,0.33941121 Z M10.9870122,8.93233083 C10.9021704,9.03807624 10.8556417,9.17088932 10.8554882,9.3080427 L10.8481173,15.0769285 L8.1444653,16.454223 L8.1444653,9.30883185 C8.1444653,9.17144172 8.09801344,9.03831298 8.01294127,8.93233083 L1.796991,1.1836384 L17.2029625,1.1836384 L10.9870122,8.93233083 Z" id="Shape"></path>
            </g>
        </g>
    </g>
</svg>