<svg width="120" height="33" viewBox="0 0 120 33" fill="none" xmlns="http://www.w3.org/2000/svg">
    <mask id="mask0_1467:651" style="mask-type:alpha" maskUnits="userSpaceOnUse" x="0" y="21" width="30" height="12">
        <path fill-rule="evenodd" clip-rule="evenodd" d="M0 21.4294H29.0494V32.5736H0V21.4294Z" fill="white" />
    </mask>
    <g mask="url(#mask0_1467:651)">
        <path fill-rule="evenodd" clip-rule="evenodd" d="M14.4965 27.1014C13.4729 27.1014 12.5217 26.8858 11.7453 26.4778L3.38488 22.0854L0.879676 23.5982C-0.311124 24.317 -0.290324 25.419 0.926076 26.0582L12.4893 32.1338C13.0509 32.4286 13.7689 32.5738 14.4965 32.5738C15.3461 32.5738 16.2081 32.3762 16.8497 31.989L28.1697 25.153C29.3605 24.4338 29.3397 23.3318 28.1233 22.693L25.7193 21.4294L17.6765 26.2866C16.8061 26.8118 15.6769 27.1014 14.4965 27.1014Z" fill="url(#paint0_linear_1467:651)" />
    </g>
    <path fill-rule="evenodd" clip-rule="evenodd" d="M28.1235 15.6208L26.1215 14.5688L21.4595 17.384L20.6591 17.8672L19.8591 18.3504L17.6767 19.6684C16.8063 20.1944 15.6767 20.4836 14.4967 20.4836C13.4731 20.4836 12.5219 20.268 11.7455 19.8604L9.24507 18.5464L8.41747 18.112L7.58987 17.6772L2.98267 15.256L0.879872 16.526C-0.310928 17.2452 -0.290528 18.3468 0.925872 18.986L3.33027 20.2492L4.15787 20.684L4.98507 21.1188L12.4895 25.0616C13.0507 25.3564 13.7691 25.5012 14.4967 25.5012C15.3459 25.5012 16.2083 25.304 16.8495 24.9168L24.0643 20.56L24.8647 20.0768L25.6647 19.5936L28.1699 18.0808C29.3607 17.362 29.3399 16.26 28.1235 15.6208Z" fill="url(#paint1_linear_1467:651)" />
    <path fill-rule="evenodd" clip-rule="evenodd" d="M28.1235 9.00299L16.5599 2.92779C15.9987 2.63259 15.2807 2.48779 14.5527 2.48779C13.7035 2.48779 12.8411 2.68539 12.1999 3.07259L0.879872 9.90859C-0.310928 10.6274 -0.290528 11.729 0.925872 12.3682L2.92787 13.4202L3.75547 13.855L4.58307 14.2898L9.19027 16.7106L10.0179 17.145L10.8455 17.5802L12.4895 18.4442C13.0507 18.739 13.7691 18.8838 14.4967 18.8838C15.3459 18.8838 16.2083 18.6862 16.8495 18.299L18.2039 17.481L19.0043 16.9978L19.8043 16.5146L24.4663 13.6994L25.2667 13.2162L26.0667 12.733L28.1699 11.463C29.3607 10.7442 29.3399 9.64219 28.1235 9.00299Z" fill="url(#paint2_linear_1467:651)" />
    <mask id="mask1_1467:651" style="mask-type:alpha" maskUnits="userSpaceOnUse" x="37" y="0" width="17" height="32">
        <path fill-rule="evenodd" clip-rule="evenodd" d="M37.4004 0H53.8048V31.3932H37.4004V0Z" fill="white" />
    </mask>
    <g mask="url(#mask1_1467:651)">
        <path fill-rule="evenodd" clip-rule="evenodd" d="M49.35 4.86267C47.844 4.80267 46.5748 5.97427 46.5148 7.48027C46.5148 7.48547 46.5144 7.48987 46.5144 7.49507V10.1279H52.59V14.5839H46.5144V31.3931H41.0456V14.5839H37.4004V10.1279H41.0456V7.08667C41.0456 2.83387 44.6912 0.00146536 48.7416 0.00146536C50.5968 -0.0381346 52.4008 0.611465 53.8048 1.82427L51.7796 5.67187C51.0508 5.20107 50.2148 4.92187 49.3492 4.86147" fill="white" />
    </g>
    <path fill-rule="evenodd" clip-rule="evenodd" d="M75.6766 10.1279V31.3931H71.4242L70.6134 28.9635H70.0086C69.1982 29.9759 67.3762 31.5963 63.7306 31.5963C58.0602 31.5963 55.2246 27.5455 55.2246 21.6719V10.1279H61.0998V20.2539C61.0998 22.8867 61.3018 26.5323 64.9482 26.5323C66.771 26.5323 69.809 25.5195 69.809 20.0523V10.1279H75.6766Z" fill="white" />
    <path fill-rule="evenodd" clip-rule="evenodd" d="M87.6252 14.3807C85.802 14.3807 84.9924 15.1907 84.9924 16.2039C84.9924 17.6219 86.8156 18.0267 88.2328 18.4311C92.0808 19.2415 95.9284 20.4563 95.9284 24.9111C95.9284 29.3663 92.2832 31.7975 87.8272 31.7975C82.9664 31.7975 79.1188 28.7595 78.916 24.3039H84.1812C84.3804 26.1327 85.992 27.4751 87.8264 27.3415C90.054 27.3415 90.4592 26.1267 90.4592 25.3167C90.4592 23.6963 89.0416 23.2911 87.4212 22.8863C84.9908 22.2811 79.5224 21.2659 79.5224 16.4055C79.5216 12.1531 83.5748 10.1279 87.6252 10.1279C92.486 10.1279 95.524 12.9635 95.726 16.6079H90.4608C90.4608 15.5955 89.856 14.3807 87.6252 14.3807Z" fill="white" />
    <path fill-rule="evenodd" clip-rule="evenodd" d="M119.019 22.2788H103.424C104.029 25.5192 106.664 26.7348 109.094 26.7348C110.659 26.8104 112.165 26.1328 113.145 24.9116H118.614C117.116 28.9732 113.221 31.6512 108.892 31.5948C102.944 31.578 98.1356 26.7428 98.1524 20.7948C98.1528 20.682 98.1548 20.5696 98.1588 20.4564C97.9608 14.7292 102.444 9.92564 108.171 9.72764C108.344 9.72164 108.517 9.72044 108.69 9.72284C114.159 9.72284 119.829 13.5712 119.019 22.2796M103.829 18.026H113.348C112.924 15.9316 111.027 14.4656 108.892 14.5832C106.615 14.434 104.528 15.8532 103.829 18.026Z" fill="white" />
    <defs>
        <linearGradient id="paint0_linear_1467:651" x1="-18.4518" y1="13.2758" x2="-14.9123" y2="33.8918" gradientUnits="userSpaceOnUse">
            <stop stop-color="#B1FFBF" />
            <stop offset="1" stop-color="#FFF16D" />
        </linearGradient>
        <linearGradient id="paint1_linear_1467:651" x1="-18.4519" y1="6.57027" x2="-15.0422" y2="26.816" gradientUnits="userSpaceOnUse">
            <stop stop-color="#B1FFBF" />
            <stop offset="1" stop-color="#FFF16D" />
        </linearGradient>
        <linearGradient id="paint2_linear_1467:651" x1="1.4214" y1="7.15473" x2="9.98312" y2="20.4779" gradientUnits="userSpaceOnUse">
            <stop stop-color="#B1FFBF" />
            <stop offset="1" stop-color="#FFF16D" />
        </linearGradient>
    </defs>
</svg>