<?xml version="1.0" encoding="UTF-8"?>
<svg width="13px" height="13px" viewBox="0 0 13 13" version="1.1" xmlns="http://www.w3.org/2000/svg" xmlns:xlink="http://www.w3.org/1999/xlink">
    <title>Group</title>
    <defs>
        <linearGradient x1="0%" y1="0%" x2="83.9354482%" y2="77.8559656%" id="linearGradient-1">
            <stop stop-color="#B1FFBF" offset="0%"></stop>
            <stop stop-color="#FFF16D" offset="100%"></stop>
        </linearGradient>
    </defs>
    <g id="Wizard-new-flow" stroke="none" stroke-width="1" fill="none" fill-rule="evenodd">
        <g id="Network" transform="translate(-1184.000000, -534.000000)">
            <g id="Group" transform="translate(1184.000000, 534.000000)">
                <circle id="Oval" fill="url(#linearGradient-1)" cx="6.2" cy="6.2" r="6.2"></circle>
                <path d="M4.48244751,7.44253123 L5.02893754,7.68948694 C5.3914644,7.85331654 5.77703418,7.93629124 6.17492395,7.93629124 C6.57304186,7.93629124 6.9586877,7.85331654 7.32106246,7.68948694 L7.63955679,7.54556824 L6.82400445,7.17733017 L6.79647461,7.18573363 C6.30223042,7.33699589 5.77133049,7.30360918 5.30157417,7.0913272 L3.27394861,6.1748959 L4.48244751,5.62889817 L5.02946989,5.87630813 C5.39207279,6.03998631 5.77749048,6.12296101 6.17492395,6.12296101 C6.57243347,6.12296101 6.95785116,6.03998631 7.32053011,5.87623242 L7.63887234,5.73223801 L6.82324395,5.36392423 L6.79571412,5.37232769 C6.30192623,5.52343855 5.77155864,5.49005183 5.30233466,5.27814839 L3.27402465,4.36141426 L5.30218256,3.44475585 C5.85696196,3.19416621 6.49326618,3.19424191 7.04781744,3.44475585 L9.07597535,4.36141426 L7.07093642,5.26762513 L9.07605139,6.1748959 L7.07169691,7.08087966 L9.07605139,7.98852896 L7.04796954,8.90511167 C6.49319013,9.15592843 5.85680987,9.15592843 5.30203046,8.90511167 L3.27394861,7.98852896 L4.48244751,7.44253123 Z M9.75,6.17504732 C9.75,5.91779548 9.60390936,5.69218909 9.36884107,5.5859724 L8.6656135,5.26807938 L9.36861293,4.95048918 C9.60383331,4.84434819 9.75,4.61851469 9.75,4.36141426 C9.75,4.10431383 9.60390936,3.87863174 9.36876502,3.77233934 L7.32068221,2.84682322 C6.59258653,2.51772559 5.75741347,2.51772559 5.02931779,2.84682322 L2.98115893,3.77233934 C2.74601459,3.87863174 2.6,4.10431383 2.6,4.36141426 C2.6,4.61843898 2.74609064,4.84427249 2.98131103,4.95048918 L3.6842344,5.26807938 L2.98123498,5.5859724 C2.74609064,5.69218909 2.6,5.91779548 2.6,6.17504732 C2.6,6.43199633 2.74609064,6.65775413 2.98131103,6.76404653 L3.6842344,7.08171243 L2.98115893,7.39952974 C2.74601459,7.50582215 2.6,7.73142853 2.6,7.98852896 C2.6,8.24562939 2.74609064,8.47138718 2.98131103,8.57767959 L5.02931779,9.50327141 C5.3916165,9.6670253 5.77703418,9.75 6.17492395,9.75 C6.57288977,9.75 6.9583835,9.6670253 7.32068221,9.50327141 L9.36861293,8.57767959 C9.60383331,8.4715386 9.75,8.24570509 9.75,7.98852896 C9.75,7.73142853 9.60390936,7.50582215 9.36876502,7.39952974 L8.6656135,7.08171243 L9.36861293,6.76404653 C9.60383331,6.65790554 9.75,6.43214774 9.75,6.17504732 L9.75,6.17504732 Z" id="Fill-9" fill="#565656"></path>
            </g>
        </g>
    </g>
</svg>