<svg width="387" height="244" viewBox="0 0 387 244" fill="none" xmlns="http://www.w3.org/2000/svg">
<rect width="387" height="244" fill="url(#paint0_linear)"/>
<g filter="url(#filter0_d)">
<circle cx="101" cy="88" r="45.5" fill="url(#paint1_linear)" stroke="white" stroke-width="5"/>
<path d="M105.351 99.0365C103.804 99.6647 102.149 99.9899 100.479 99.9943C98.7988 99.993 97.1349 99.6672 95.5787 99.0349L87.3916 95.7199L83.3016 97.5385C82.1941 98.032 81.6969 99.3287 82.1912 100.434C82.4215 100.95 82.8423 101.357 83.3657 101.571L96.1668 107.149C98.9462 108.28 102.058 108.284 104.84 107.16L117.698 101.595C119.015 101.062 119.65 99.5646 119.116 98.2498C118.855 97.6054 118.343 97.0944 117.698 96.8335L114.283 95.4477L105.351 99.0365Z" fill="#A3A3A3"/>
<path d="M105.355 87.7352C103.808 88.3593 102.155 88.6809 100.486 88.6826C98.8059 88.6813 97.142 88.3555 95.5858 87.7231L88.2833 84.7665L83.3086 86.9783C82.201 87.4717 81.7039 88.7684 82.1982 89.8742C82.4286 90.3898 82.8493 90.7968 83.3727 91.0104L91.0048 94.1158L96.6439 96.4557C99.0994 97.4559 101.849 97.4595 104.307 96.466L110.526 93.9355L117.705 91.0362C119.021 90.5042 119.656 89.0077 119.123 87.6937C118.862 87.0489 118.349 86.5377 117.703 86.277L113.355 84.5206L105.355 87.7352Z" fill="#A3A3A3"/>
<path d="M97.6778 69.2631L83.3068 75.6438C82.1993 76.1374 81.7022 77.434 82.1965 78.5399C82.4269 79.0554 82.8476 79.4623 83.371 79.676L91.9085 83.1486L96.6405 85.1405C99.0961 86.1406 101.846 86.1443 104.304 85.1509L109.567 82.9859L117.7 79.695C119.012 79.1518 119.635 77.649 119.091 76.3386C118.83 75.711 118.331 75.212 117.703 74.951L103.378 69.1643C102.5 68.8097 101.572 68.6329 100.644 68.6329C99.632 68.6329 98.6209 68.8433 97.6778 69.2631Z" fill="#A3A3A3"/>
</g>
<g filter="url(#filter1_d)">
<circle cx="285" cy="156" r="45.5" fill="url(#paint2_linear)" stroke="white" stroke-width="5"/>
<path d="M285 173C294.6 173 304.4 170.36 304.4 165.344V156.5V147.656C304.4 142.64 294.6 140 285 140C275.4 140 265.6 142.64 265.6 147.656V156.5V165.344C265.6 170.36 275.4 173 285 173ZM269.4 152.408C269.467 152.474 269.6 152.54 269.667 152.606C269.8 152.672 270 152.738 270.2 152.87C270.333 152.936 270.4 152.936 270.467 153.002C270.667 153.068 270.933 153.2 271.133 153.266C271.2 153.266 271.267 153.332 271.4 153.332C271.733 153.464 272.067 153.596 272.4 153.662C275.867 154.784 280.333 155.378 285 155.378C289.667 155.378 294.133 154.784 297.6 153.662C297.933 153.53 298.267 153.464 298.6 153.332C298.733 153.266 298.8 153.266 298.933 153.2C299.133 153.134 299.333 153.068 299.533 153.002C299.667 152.936 299.8 152.87 299.867 152.87C300 152.804 300.2 152.738 300.333 152.672C300.467 152.606 300.533 152.54 300.667 152.474C300.8 152.408 300.933 152.342 301.067 152.276V156.5C301.067 157.094 299.867 158.282 296.6 159.338C293.467 160.328 289.4 160.856 285.067 160.856C280.733 160.856 276.6 160.328 273.533 159.338C270.267 158.282 269.067 157.094 269.067 156.5V152.21C269.133 152.276 269.267 152.342 269.4 152.408ZM301.067 165.344C301.067 166.862 295 169.7 285 169.7C275 169.7 268.933 166.862 268.933 165.344V161.054C269.067 161.12 269.2 161.186 269.4 161.318C269.467 161.384 269.6 161.384 269.667 161.45C269.867 161.516 270.067 161.648 270.2 161.714C270.267 161.78 270.333 161.78 270.467 161.846C270.667 161.912 270.933 162.044 271.133 162.11C271.2 162.11 271.267 162.176 271.4 162.176C271.733 162.308 272.067 162.44 272.4 162.506C275.8 163.562 280.267 164.222 285 164.222C289.667 164.222 294.133 163.628 297.6 162.506C297.933 162.374 298.267 162.308 298.6 162.176C298.667 162.176 298.733 162.11 298.867 162.11C299.067 162.044 299.333 161.912 299.533 161.846C299.667 161.78 299.733 161.78 299.8 161.714C300 161.648 300.133 161.582 300.333 161.45C300.4 161.384 300.533 161.384 300.6 161.318C300.733 161.252 300.933 161.186 301.067 161.054V165.344ZM285 143.3C294.933 143.3 301.067 146.138 301.067 147.656C301.067 148.25 299.867 149.438 296.6 150.494C293.467 151.484 289.333 152.012 285.067 152.012C280.733 152.012 276.667 151.484 273.533 150.494C270.267 149.438 269.067 148.25 269.067 147.656C268.933 146.138 275.067 143.3 285 143.3Z" fill="#A3A3A3"/>
</g>
<path d="M176.281 105.067H214.649L204.9 114.816C203.558 116.157 203.558 118.334 204.9 119.677C205.571 120.349 206.45 120.685 207.33 120.685C208.21 120.685 209.089 120.349 209.76 119.677L225.376 104.062C225.535 103.904 225.678 103.729 225.804 103.542C225.835 103.494 225.858 103.439 225.886 103.389C225.971 103.247 226.055 103.105 226.12 102.952C226.15 102.88 226.164 102.802 226.19 102.729C226.236 102.591 226.288 102.455 226.318 102.31C226.363 102.087 226.386 101.861 226.386 101.63C226.386 101.399 226.363 101.172 226.318 100.95C226.289 100.805 226.238 100.669 226.19 100.531C226.164 100.458 226.151 100.38 226.12 100.307C226.055 100.155 225.973 100.014 225.886 99.8713C225.858 99.8212 225.835 99.7662 225.804 99.7175C225.678 99.5312 225.535 99.3562 225.376 99.1975L209.764 83.585C208.421 82.2425 206.246 82.2425 204.903 83.585C203.56 84.9262 203.56 87.1025 204.903 88.4462L214.649 98.1937H176.281C163.645 98.1937 153.364 108.475 153.364 121.111C153.364 123.01 154.903 124.549 156.801 124.549C158.7 124.549 160.239 123.01 160.239 121.111C160.239 112.264 167.435 105.067 176.281 105.067ZM229.199 119.452C227.3 119.452 225.761 120.991 225.761 122.89C225.761 131.736 218.565 138.932 209.719 138.932H171.351L181.1 129.184C182.443 127.842 182.443 125.666 181.1 124.322C179.758 122.979 177.583 122.98 176.239 124.322L160.622 139.939C160.464 140.097 160.321 140.272 160.195 140.459C160.165 140.506 160.144 140.559 160.116 140.606C160.03 140.749 159.944 140.892 159.88 141.049C159.851 141.12 159.838 141.196 159.811 141.269C159.765 141.407 159.713 141.545 159.683 141.691C159.638 141.914 159.614 142.14 159.614 142.371C159.614 142.602 159.638 142.829 159.683 143.051C159.711 143.197 159.764 143.335 159.811 143.474C159.838 143.546 159.85 143.622 159.88 143.694C159.945 143.849 160.03 143.992 160.116 144.136C160.144 144.184 160.165 144.236 160.195 144.284C160.321 144.47 160.464 144.645 160.622 144.804L176.236 160.417C176.908 161.089 177.786 161.425 178.666 161.425C179.546 161.425 180.425 161.089 181.096 160.417C182.439 159.076 182.439 156.9 181.096 155.556L171.35 145.809H209.718C222.354 145.809 232.635 135.527 232.635 122.891C232.636 120.991 231.098 119.452 229.199 119.452Z" fill="#7CFFE7"/>
<defs>
<filter id="filter0_d" x="49" y="40" width="104" height="104" filterUnits="userSpaceOnUse" color-interpolation-filters="sRGB">
<feFlood flood-opacity="0" result="BackgroundImageFix"/>
<feColorMatrix in="SourceAlpha" type="matrix" values="0 0 0 0 0 0 0 0 0 0 0 0 0 0 0 0 0 0 127 0"/>
<feOffset dy="4"/>
<feGaussianBlur stdDeviation="2"/>
<feColorMatrix type="matrix" values="0 0 0 0 0 0 0 0 0 0 0 0 0 0 0 0 0 0 0.15 0"/>
<feBlend mode="normal" in2="BackgroundImageFix" result="effect1_dropShadow"/>
<feBlend mode="normal" in="SourceGraphic" in2="effect1_dropShadow" result="shape"/>
</filter>
<filter id="filter1_d" x="233" y="108" width="104" height="104" filterUnits="userSpaceOnUse" color-interpolation-filters="sRGB">
<feFlood flood-opacity="0" result="BackgroundImageFix"/>
<feColorMatrix in="SourceAlpha" type="matrix" values="0 0 0 0 0 0 0 0 0 0 0 0 0 0 0 0 0 0 127 0"/>
<feOffset dy="4"/>
<feGaussianBlur stdDeviation="2"/>
<feColorMatrix type="matrix" values="0 0 0 0 0 0 0 0 0 0 0 0 0 0 0 0 0 0 0.15 0"/>
<feBlend mode="normal" in2="BackgroundImageFix" result="effect1_dropShadow"/>
<feBlend mode="normal" in="SourceGraphic" in2="effect1_dropShadow" result="shape"/>
</filter>
<linearGradient id="paint0_linear" x1="193.5" y1="0" x2="193.5" y2="244" gradientUnits="userSpaceOnUse">
<stop stop-color="#A7F0DF"/>
<stop offset="1" stop-color="#3E9671"/>
</linearGradient>
<linearGradient id="paint1_linear" x1="101" y1="136" x2="101" y2="40" gradientUnits="userSpaceOnUse">
<stop stop-color="#D7D7D7"/>
<stop offset="1" stop-color="#F9F9FA"/>
</linearGradient>
<linearGradient id="paint2_linear" x1="285" y1="204" x2="285" y2="108" gradientUnits="userSpaceOnUse">
<stop stop-color="#D7D7D7"/>
<stop offset="1" stop-color="#F9F9FA"/>
</linearGradient>
</defs>
</svg>
