<?xml version="1.0" encoding="UTF-8"?>
<svg width="20px" height="18px" viewBox="0 0 20 18" version="1.1" xmlns="http://www.w3.org/2000/svg" xmlns:xlink="http://www.w3.org/1999/xlink">
    <!-- Generator: Sketch 55 (78076) - https://sketchapp.com -->
    <title>wallet-12 copy</title>
    <desc>Created with Sketch.</desc>
    <defs>
        <linearGradient x1="0%" y1="50%" x2="100%" y2="50%" id="linearGradient-1">
            <stop stop-color="#ABC3D2" offset="0%"></stop>
            <stop stop-color="#4A687B" offset="100%"></stop>
        </linearGradient>
    </defs>
    <g id="community-page" stroke="none" stroke-width="1" fill="none" fill-rule="evenodd">
        <g transform="translate(-1781.000000, -22.000000)" fill-rule="nonzero" id="wallet-12-copy">
            <g transform="translate(1780.313725, 21.218750)">
                <g id="Group-2">
                    <path d="M18.3729088,4.22304476 L14.7003058,4.22304476 L3.37164958,4.22304476 L3.37164958,4.20191004 C2.88810937,4.14907324 2.51969779,3.77921564 2.51969779,3.32481917 C2.51969779,2.87042269 2.89962223,2.5005651 3.37164958,2.4477283 C3.3946753,2.4477283 3.40618816,2.43716094 3.42921389,2.43716094 L16.5078251,2.43716094 C16.5308509,2.43716094 16.5538766,2.42659358 16.5769023,2.42659358 C16.9683396,2.3948915 17.2906998,2.08843807 17.2906998,1.71858047 C17.2906998,1.32758816 16.933801,1 16.5078251,1 L2.20885051,1 C2.20885051,1 2.19733765,1 2.19733765,1 C2.19733765,1 2.18582479,1 2.18582479,1 C1.52959165,1 1,1.48609855 1,2.08843807 L1,5.54396474 C1,5.54396474 1,5.54396474 1,5.54396474 L1,17.21033 C1,17.9394778 1.64472027,18.53125 2.43910775,18.53125 L18.3844217,18.53125 C19.1788091,18.53125 19.8235294,17.9394778 19.8235294,17.21033 L19.8235294,5.54396474 C19.8120165,4.82538427 19.1672963,4.22304476 18.3729088,4.22304476 Z M16.6862745,13.75 C15.8176957,13.75 15.1176471,13.0387397 15.1176471,12.15625 C15.1176471,11.2737603 15.8176957,10.5625 16.6862745,10.5625 C17.5548533,10.5625 18.254902,11.2737603 18.254902,12.15625 C18.254902,13.0387397 17.5418895,13.75 16.6862745,13.75 Z" id="Shape" fill="#ABC3D2"></path>
                    <g id="Shape-Copy" transform="translate(0.411765, 0.593750)" fill="url(#linearGradient-1)">
                        <path d="M17.9611441,3.62929476 L14.2885411,3.62929476 L2.95988487,3.62929476 L2.95988487,3.60816004 C2.47634467,3.55532324 2.10793308,3.18546564 2.10793308,2.73106917 C2.10793308,2.27667269 2.48785753,1.9068151 2.95988487,1.8539783 C2.9829106,1.8539783 2.99442346,1.84341094 3.01744918,1.84341094 L16.0960604,1.84341094 C16.1190862,1.84341094 16.1421119,1.83284358 16.1651376,1.83284358 C16.5565749,1.8011415 16.8789351,1.49468807 16.8789351,1.12483047 C16.8789351,0.733838156 16.5220363,0.40625 16.0960604,0.40625 L1.79708581,0.40625 C1.79708581,0.40625 1.78557294,0.40625 1.78557294,0.40625 C1.78557294,0.40625 1.77406008,0.40625 1.77406008,0.40625 C1.11782695,0.40625 0.588235294,0.892348553 0.588235294,1.49468807 L0.588235294,4.95021474 L0.588235294,16.61658 C0.588235294,17.3457278 1.23295557,17.9375 2.02734305,17.9375 L17.972657,17.9375 C18.7670444,17.9375 19.4117647,17.3457278 19.4117647,16.61658 L19.4117647,4.95021474 C19.4002518,4.23163427 18.7555316,3.62929476 17.9611441,3.62929476 Z M16.2745098,13.15625 C15.405931,13.15625 14.7058824,12.4449897 14.7058824,11.5625 C14.7058824,10.6800103 15.405931,9.96875 16.2745098,9.96875 C17.1430886,9.96875 17.8431373,10.6800103 17.8431373,11.5625 C17.8431373,12.4449897 17.1301248,13.15625 16.2745098,13.15625 Z"></path>
                    </g>
                </g>
            </g>
        </g>
    </g>
</svg>