<svg xmlns="http://www.w3.org/2000/svg" viewBox="0 0 214 214" width="214" height="214">
	<style>
		tspan { white-space:pre }
		.shp0 { fill: #052741 } 
	</style>
	<g id="Layer">
		<g id="Layer">
			<g id="Layer">
				<g id="Layer">
					<g id="Layer">
						<path id="Layer" class="shp0" d="M345.85,24.23l13.8,-25.59c0,0 -12.07,-12.07 -34.21,-12.07c-27.61,0 -51.47,18.69 -51.47,47.73v19.79h-24.15v30.18h24.15v113.58h36.23v-113.57h41.4v-30.19h-41.4v-17.49c0,-9.78 8.63,-17.83 18.98,-17.83c8.63,0 16.68,5.46 16.67,5.46z" />
						<path id="Layer" class="shp0" d="M468.45,54.09v67.56c0,37.67 -20.7,44.28 -33.35,44.28c-24.72,0 -26.16,-24.72 -26.16,-42.55v-69.29h-39.1v77.92c0,40.25 19.55,67.28 57.79,67.28c23.58,0 36.23,-10.35 41.98,-17.54h3.74l5.17,16.1h28.75v-143.76z" />
						<path id="Layer" class="shp0" d="M607.48,96.36h35.36c-1.72,-24.15 -23,-43.7 -55.2,-43.7c-27.89,0 -54.92,14.37 -54.92,42.55c0,32.77 36.52,39.67 53.48,43.41c9.78,2.3 19.84,5.46 19.84,16.1c0,6.04 -3.45,13.8 -18.11,13.8c-17.54,0 -23.29,-11.22 -24.15,-19.84h-35.37c1.73,30.47 27.32,50.6 60.38,50.6c29.61,0 54.05,-16.38 54.05,-46c0,-30.47 -25.88,-38.24 -51.47,-43.7c-8.62,-1.73 -21.56,-4.6 -21.56,-14.38c0,-6.03 5.18,-12.07 17.25,-12.07c14.66,0 19.26,8.33 20.42,13.23z" />
						<path id="Layer" class="shp0" d="M798.89,136.89h-104.94c4.31,21.85 22.14,29.9 37.66,29.9c19.55,0 27.89,-12.07 27.89,-12.07h36.23c-10.93,28.75 -37.09,44.56 -65.27,44.56c-38.81,0 -72.74,-29.61 -72.74,-74.47c0,-44.56 33.64,-72.17 71.59,-72.17c36.81,0.01 74.19,25.6 69.58,84.25zM696.25,107.85h64.69c-4.31,-16.96 -16.1,-23.86 -30.48,-23.86c-15.81,0 -28.46,8.91 -34.21,23.86z" />
					</g>
				</g>
			</g>
		</g>
		<path id="Layer" class="shp0" d="M200.88,124.04l-25.59,11.62l25.59,11.62c6.21,2.82 10.07,8.81 10.07,15.63c0,6.82 -3.86,12.81 -10.07,15.63l-61.27,27.81c-10.59,4.81 -21.96,7.21 -33.33,7.21c-11.37,0 -22.74,-2.4 -33.33,-7.21l-61.27,-27.81c-6.21,-2.82 -10.07,-8.81 -10.07,-15.63c0,-6.82 3.86,-12.81 10.07,-15.63l25.59,-11.62l-25.59,-11.62c-6.21,-2.82 -10.07,-8.81 -10.07,-15.63c0,-6.82 3.86,-12.81 10.07,-15.63l25.59,-11.62l-25.59,-11.62c-6.21,-2.82 -10.07,-8.81 -10.07,-15.63c0,-6.82 3.86,-12.81 10.07,-15.63l61.27,-27.82c21.18,-9.62 45.48,-9.62 66.66,0l61.27,27.81c6.21,2.82 10.07,8.81 10.07,15.63c0,6.82 -3.86,12.81 -10.07,15.63l-25.59,11.62l25.59,11.62c6.21,2.82 10.07,8.81 10.07,15.63c-0.01,6.82 -3.86,12.81 -10.07,15.64zM195.76,108.39c0,-0.58 -0.2,-1.36 -1.16,-1.8l-56.02,-25.46l56.02,-25.43c0.96,-0.44 1.16,-1.22 1.16,-1.8c0,-0.58 -0.2,-1.36 -1.16,-1.8l-61.27,-27.81c-17.19,-7.8 -36.91,-7.8 -54.1,0l-61.27,27.81c-0.96,0.43 -1.16,1.22 -1.16,1.8c0,0.58 0.2,1.36 1.16,1.8l61.27,27.82c14.63,6.65 31.1,7.61 46.28,2.94l19.05,8.64l-4.96,2.25c-10.58,4.81 -21.96,7.21 -33.32,7.21c-11.36,0 -22.73,-2.4 -33.32,-7.21l-17.31,-7.86l-37.69,17.11c-0.96,0.43 -1.16,1.22 -1.16,1.8c0,0.58 0.2,1.36 1.16,1.8l61.25,27.81c14.65,6.65 31.13,7.62 46.32,2.94l19.05,8.64l-4.96,2.25c-10.59,4.81 -21.97,7.22 -33.34,7.22c-11.37,0 -22.74,-2.41 -33.34,-7.22l-17.29,-7.85l-37.69,17.11c-0.96,0.43 -1.16,1.22 -1.16,1.8c0,0.58 0.2,1.36 1.16,1.8l61.27,27.8c17.19,7.81 36.91,7.8 54.1,0l61.27,-27.81c0.96,-0.44 1.16,-1.22 1.16,-1.8c0,-0.58 -0.2,-1.36 -1.16,-1.8l-56,-25.47l56,-25.42c0.96,-0.44 1.16,-1.22 1.16,-1.81z" />
	</g>
</svg>