<svg width="48" height="48" viewBox="0 0 48 48" fill="none"
  xmlns="http://www.w3.org/2000/svg">
  <circle cx="24" cy="24" r="24" fill="#4A687B"/>
  <path d="M27.2635 31.5274C26.1028 31.9985 24.8621 32.2424 23.6091 32.2457C22.3491 32.2448 21.1011 32.0004 19.934 31.5261L13.7937 29.0399L10.7262 30.4039C9.89554 30.774 9.52267 31.7465 9.89341 32.5758C10.0662 32.9626 10.3817 33.2678 10.7743 33.428L20.3751 37.612C22.4596 38.4599 24.7932 38.4628 26.8797 37.6198L36.5235 33.4461C37.511 33.0466 37.9874 31.9235 37.5873 30.9374C37.3913 30.454 37.0074 30.0708 36.5235 29.8751L33.962 28.8358L27.2635 31.5274Z" fill="white"/>
  <path d="M27.2661 23.0514C26.1056 23.5195 24.8659 23.7606 23.6144 23.7619C22.3543 23.761 21.1064 23.5166 19.9392 23.0423L14.4623 20.8249L10.7313 22.4837C9.90066 22.8538 9.52781 23.8263 9.89853 24.6556C10.0713 25.0424 10.3869 25.3476 10.7794 25.5078L16.5035 27.8369L20.7328 29.5917C22.5745 30.3419 24.6366 30.3446 26.4803 29.5995L31.1441 27.7016L36.5286 25.5271C37.5156 25.1281 37.9918 24.0058 37.5922 23.0203C37.3961 22.5366 37.0118 22.1532 36.5274 21.9577L33.2659 20.6405L27.2661 23.0514Z" fill="white"/>
  <path d="M21.5083 9.19728L10.7301 13.9829C9.89946 14.3531 9.52658 15.3255 9.8973 16.1549C10.0701 16.5416 10.3856 16.8467 10.7782 17.007L17.1813 19.6115L20.7303 21.1054C22.572 21.8554 24.6341 21.8582 26.4778 21.1131L30.4248 19.4894L36.5249 17.0212C37.5092 16.6138 37.9763 15.4867 37.5681 14.5039C37.3728 14.0332 36.9985 13.659 36.5274 13.4632L25.7831 9.12324C25.1251 8.85729 24.4287 8.72462 23.7329 8.72462C22.9739 8.72462 22.2156 8.88247 21.5083 9.19728Z" fill="white"/>
</svg>
