<?xml version="1.0" encoding="UTF-8"?>
<svg width="88px" height="26px" viewBox="0 0 88 26" version="1.1" xmlns="http://www.w3.org/2000/svg" xmlns:xlink="http://www.w3.org/1999/xlink">
    <!-- Generator: Sketch 55.2 (78181) - https://sketchapp.com -->
    <title>fuse logo</title>
    <desc>Created with Sketch.</desc>
    <defs>
        <linearGradient x1="6.23946844%" y1="47.4330901%" x2="100%" y2="52.6569985%" id="linearGradient-1">
            <stop stop-color="#98FAAC" offset="0%"></stop>
            <stop stop-color="#FDE739" offset="100%"></stop>
        </linearGradient>
    </defs>
    <g id="community-page" stroke="none" stroke-width="1" fill="none" fill-rule="evenodd">
        <g transform="translate(-30.000000, -18.000000)" fill="url(#linearGradient-1)" id="fuse-logo">
            <g transform="translate(30.000000, 18.000000)">
                <path d="M56.0784314,8.40196094 L56.0784314,24.7056545 L52.8294429,24.7056545 L52.2449869,22.8795701 L51.8224179,22.8795701 C51.1729136,23.6949266 49.7433196,24.8686276 47.0792762,24.8686276 C42.7582144,24.8686276 40.5490196,21.8035548 40.5490196,17.2383439 L40.5490196,8.40196094 L44.9674092,8.40196094 L44.9674092,16.2605052 C44.9674092,18.2819609 45.1297852,21.0863749 47.9239251,21.0863749 C49.3535192,21.0863749 51.6928105,20.3363058 51.6928105,16.0646429 L51.6928105,8.40196094 L56.0784314,8.40196094 Z M65.2997661,11.8247801 C63.9340848,11.8247801 63.3491424,12.5028307 63.3491424,13.1808814 C63.3491424,14.2783999 64.8122325,14.6011423 65.7872996,14.7950794 C68.6811734,15.4084843 71.6078431,16.2804721 71.6078431,19.7028051 C71.6078431,23.0284127 68.8436846,24.8686276 65.4950732,24.8686276 C61.7558476,24.8686276 58.8619738,22.6084588 58.6666667,19.1861257 L62.6663018,19.1861257 C62.7637106,20.1548389 63.4137553,21.4137287 65.3971749,21.4137287 C67.0555721,21.4137287 67.4456969,20.542227 67.4456969,19.8641763 C67.4456969,18.6694462 66.3076291,18.314624 65.2023573,18.0560413 C63.2840401,17.6360873 59.1542002,16.8613112 59.1542002,13.1808814 C59.1542002,10.016645 62.2105852,8.40196094 65.3648685,8.40196094 C69.0066853,8.40196094 71.412536,10.5974841 71.6078431,13.3096867 L67.6086975,13.3096867 C67.4784928,12.7609274 66.9581633,11.8247801 65.2997661,11.8247801 Z M87.9577037,17.8621042 L76.4454056,17.8621042 C76.9183381,20.315724 78.8741705,21.2197916 80.5769175,21.2197916 C82.7222078,21.2197916 83.6367339,19.8641763 83.6367339,19.8641763 L87.6110765,19.8641763 C86.4121261,23.0925723 83.5417676,24.8686276 80.4506122,24.8686276 C76.1927951,24.8686276 72.4705882,21.54302 72.4705882,16.5060029 C72.4705882,11.5015516 76.1614562,8.40196094 80.3247818,8.40196094 C84.362277,8.40196094 88.46245,11.2755347 87.9577037,17.8621042 Z M76.6975413,14.6011423 L83.7943781,14.6011423 C83.3214456,12.6962817 82.0280036,11.9215056 80.4506122,11.9215056 C78.7160515,11.9215056 77.3285929,12.9222986 76.6975413,14.6011423 Z M22.173796,11.694341 C22.864966,12.0078726 23.2941176,12.6744281 23.2941176,13.4334537 C23.2941176,14.1924794 22.864966,14.8585533 22.1733143,15.1720848 L19.3253082,16.4652218 L22.173796,17.7578772 C22.864966,18.0718903 23.2941176,18.7384459 23.2941176,19.4969899 C23.2941176,20.2560156 22.864966,20.9225711 22.1733143,21.2361026 L15.3560172,24.3309623 C14.1774156,24.8660369 12.9121168,25.1333333 11.646818,25.1333333 C10.3820008,25.1333333 9.116702,24.8660369 7.93810047,24.3309623 L1.12080334,21.2361026 C0.429633251,20.9225711 0,20.2560156 0,19.4969899 C0,18.7384459 0.4291516,18.0718903 1.12032168,17.7578772 L3.96832776,16.4652218 L1.12080334,15.1720848 C0.429633251,14.8585533 0,14.1924794 0,13.4334537 C0,12.6744281 0.4291516,12.0078726 1.12032168,11.694341 L3.96832776,10.401204 L1.12080334,9.10854867 C0.429633251,8.79501713 0,8.12846161 0,7.36943595 C0,6.61089191 0.4291516,5.94433639 1.12032168,5.63032324 L7.93810047,2.53594517 C10.2953035,1.46579605 12.9988141,1.46579605 15.3560172,2.53594517 L22.173796,5.63032324 C22.864966,5.94433639 23.2941176,6.61089191 23.2941176,7.36943595 C23.2941176,8.12846161 22.864966,8.79501713 22.1733143,9.10854867 L19.3253082,10.401204 L22.173796,11.694341 Z M15.2437923,16.4623321 L21.4749195,13.6333241 C21.5818461,13.5851625 21.6040021,13.4979902 21.6040021,13.4334537 C21.6040021,13.3684357 21.5818461,13.2812633 21.4749195,13.2326202 L15.2413841,10.3997592 L21.4749195,7.5697879 C21.5818461,7.52114476 21.6040021,7.4339724 21.6040021,7.36943595 C21.6040021,7.30489951 21.5818461,7.21772715 21.4749195,7.169084 L14.6571407,4.07422432 C12.7440204,3.205872 10.5500972,3.205872 8.63697698,4.07422432 L1.8191982,7.169084 C1.71227153,7.21772715 1.69011556,7.30489951 1.69011556,7.36943595 C1.69011556,7.4339724 1.71227153,7.52114476 1.8191982,7.5697879 L8.63745863,10.6651292 C10.2659228,11.403927 12.0981256,11.5113272 13.7877595,10.9916644 L15.9075083,11.9529684 L15.3555355,12.20389 C14.176934,12.7384829 12.9121168,13.006261 11.646818,13.006261 C10.3820008,13.006261 9.11718365,12.7384829 7.93858212,12.20389 L6.01293891,11.3292767 L1.8191982,13.2326202 C1.71227153,13.2812633 1.69011556,13.3684357 1.69011556,13.4334537 C1.69011556,13.4979902 1.71227153,13.5851625 1.8191982,13.6333241 L8.63505037,16.7277021 C10.2654411,17.4674632 12.0990889,17.5748634 13.7901677,17.0547189 L15.9094349,18.016023 L15.3574621,18.2664629 C14.1788606,18.8015375 12.9125985,19.0693156 11.646818,19.0693156 C10.3810375,19.0693156 9.1157387,18.8015375 7.93665551,18.2664629 L6.01293891,17.3932944 L1.8191982,19.296638 C1.71227153,19.3452811 1.69011556,19.4324535 1.69011556,19.4969899 C1.69011556,19.5615263 1.71227153,19.6486987 1.8191982,19.6973419 L8.63649533,22.7922015 C10.5496156,23.6605539 12.7445021,23.6605539 14.6576223,22.7922015 L21.4749195,19.6973419 C21.5818461,19.6486987 21.6040021,19.5615263 21.6040021,19.4969899 C21.6040021,19.4324535 21.5818461,19.3452811 21.4749195,19.296638 L15.2437923,16.4623321 Z M36.8245547,4.39291667 C35.6448353,4.39291667 34.6614892,5.27447917 34.6614892,6.34515104 L34.6614892,8.25994271 L39.3808599,8.25994271 L39.3808599,11.5658021 L34.6614892,11.5658021 L34.6614892,24.0019948 L30.5317314,24.0019948 L30.5317314,11.5658021 L27.7790529,11.5658021 L27.7790529,8.25994271 L30.5317314,8.25994271 L30.5317314,6.09300521 C30.5317314,2.91321875 33.2523388,0.866666667 36.3982571,0.866666667 C38.9219979,0.866666667 40.2985839,2.18901042 40.2985839,2.18901042 L38.7256248,4.99105208 C38.7256248,4.99105208 37.8079008,4.39291667 36.8245547,4.39291667 Z" id="Combined-Shape"></path>
            </g>
        </g>
    </g>
</svg>