<?xml version="1.0" encoding="UTF-8"?>
<svg width="102px" height="30px" viewBox="0 0 102 30" version="1.1" xmlns="http://www.w3.org/2000/svg" xmlns:xlink="http://www.w3.org/1999/xlink">
    <!-- Generator: Sketch 53.2 (72643) - https://sketchapp.com -->
    <title>fuse logo</title>
    <desc>Created with Sketch.</desc>
    <defs>
        <polygon id="path-1" points="0.198447712 0.305703125 14.7097222 0.305703125 14.7097222 27.0000391 0.198447712 27.0000391"></polygon>
        <linearGradient x1="6.23946844%" y1="47.1390553%" x2="100%" y2="52.9613528%" id="linearGradient-3">
            <stop stop-color="#98FAAC" offset="0%"></stop>
            <stop stop-color="#FDE739" offset="100%"></stop>
        </linearGradient>
    </defs>
    <g id="Symbols" stroke="none" stroke-width="1" fill="none" fill-rule="evenodd">
        <g id="fuse-logo">
            <g>
                <g id="Group-3" transform="translate(49.000000, 0.000000)">
                    <mask id="mask-2" fill="white">
                        <use xlink:href="#path-1"></use>
                    </mask>
                    <g id="Clip-2"></g>
                </g>
                <path d="M65,9 L65,27.8119541 L61.234127,27.8119541 L60.5566893,25.7049337 L60.0668934,25.7049337 C59.314059,26.6457296 57.6570295,28 54.569161,28 C49.5606576,28 47,24.4633776 47,19.1958265 L47,9 L52.1213152,9 L52.1213152,18.0675511 C52.1213152,20.4 52.3095238,23.6358623 55.5481859,23.6358623 C57.2052154,23.6358623 59.9166667,22.770398 59.9166667,17.8415561 L59.9166667,9 L65,9 Z M75.6883652,12.9494067 C74.1054164,12.9494067 73.4274151,13.7317728 73.4274151,14.514139 C73.4274151,15.7805065 75.1232695,16.1529016 76.2534609,16.3766751 C79.6077237,17.0844501 83,18.0905898 83,22.0394356 C83,25.8766751 79.796089,28 75.9147439,28 C71.5806415,28 68.2263787,25.3921129 68,21.443267 L72.6359407,21.443267 C72.7488464,22.561013 73.5023073,24.0135781 75.8012709,24.0135781 C77.723504,24.0135781 78.1756941,23.0079993 78.1756941,22.2256332 C78.1756941,20.8470984 76.8565701,20.4376882 75.5754596,20.1393235 C73.3519555,19.6547612 68.5650957,18.7607887 68.5650957,14.514139 C68.5650957,10.863097 72.1077237,9 75.7638248,9 C79.9850216,9 82.7736213,11.5332959 83,14.6627605 L78.3646267,14.6627605 C78.2137075,14.0295767 77.6105984,12.9494067 75.6883652,12.9494067 Z M101.950975,19.9155499 L88.6071747,19.9155499 C89.1553465,22.7466497 91.422334,23.7898046 93.3959726,23.7898046 C95.882559,23.7898046 96.942578,22.2256332 96.942578,22.2256332 L101.549202,22.2256332 C100.15951,25.9507055 96.8325033,28 93.2495733,28 C88.3143761,28 84,24.1627605 84,18.3508176 C84,12.5764508 88.2780515,9 93.1037244,9 C97.7835483,9 102.536022,12.3156621 101.950975,19.9155499 Z M88.8994229,16.1529016 L97.1253019,16.1529016 C96.5771301,13.9549855 95.0779133,13.061013 93.2495733,13.061013 C91.2390597,13.061013 89.630869,14.2157742 88.8994229,16.1529016 Z M27,16.5001389 C27,17.3759378 26.5025743,18.1444846 25.700887,18.5062517 L22.3997891,19.9983329 L25.7014453,21.4898583 C26.5025743,21.8521812 27,22.6212837 27,23.4965268 C27,24.3723256 26.5025743,25.1414282 25.700887,25.5031953 L17.7990199,29.0741873 C16.4329136,29.691581 14.9663172,30 13.4997209,30 C12.0336828,30 10.5670864,29.691581 9.20098009,29.0741873 L1.29911296,25.5031953 C0.497983996,25.1414282 0,24.3723256 0,23.4965268 C0,22.6212837 0.497425718,21.8521812 1.29855468,21.4898583 L4.59965263,19.9983329 L1.29911296,18.5062517 C0.497983996,18.1444846 0,17.3759378 0,16.5001389 C0,15.6243401 0.497425718,14.8552376 1.29855468,14.4934704 L4.59965263,13.0013893 L1.29911296,11.5098639 C0.497983996,11.1480967 0,10.3789942 0,9.50319533 C0,8.62795221 0.497425718,7.85884968 1.29855468,7.49652681 L9.20098009,3.92609058 C11.9331927,2.69130314 15.0668073,2.69130314 17.7990199,3.92609058 L25.7014453,7.49652681 C26.5025743,7.85884968 27,8.62795221 27,9.50319533 C27,10.3789942 26.5025743,11.1480967 25.700887,11.5098639 L22.3997891,13.0013893 L25.7014453,14.4934704 C26.5025743,14.8552376 27,15.6243401 27,16.5001389 Z M24.8913839,16.7307585 C25.0153216,16.6751876 25.0410024,16.5746041 25.0410024,16.5001389 C25.0410024,16.4251181 25.0153216,16.3245346 24.8913839,16.2684079 L17.6661497,12.9997221 L24.8913839,9.73437066 C25.0153216,9.67824396 25.0410024,9.57766046 25.0410024,9.50319533 C25.0410024,9.4287302 25.0153216,9.32814671 24.8913839,9.27202001 L16.9889585,5.70102806 C14.7714782,4.69908308 12.2285218,4.69908308 10.0110415,5.70102806 L2.10861609,9.27202001 C1.98467837,9.32814671 1.95899758,9.4287302 1.95899758,9.50319533 C1.95899758,9.57766046 1.98467837,9.67824396 2.10861609,9.73437066 L10.0115998,13.3059183 C11.8991378,14.1583773 14.0228274,14.2823006 15.9812667,13.6826896 L18.4382482,14.7918866 L17.7984616,15.0814115 C16.4323553,15.6982495 14.9663172,16.0072242 13.4997209,16.0072242 C12.0336828,16.0072242 10.5676447,15.6982495 9.20153837,15.0814115 L6.96954283,14.0722423 L2.10861609,16.2684079 C1.98467837,16.3245346 1.95899758,16.4251181 1.95899758,16.5001389 C1.95899758,16.5746041 1.98467837,16.6751876 2.10861609,16.7307585 L10.0088084,20.3011948 C11.8985795,21.1547652 14.0239439,21.2786885 15.9840581,20.6785218 L18.4404814,21.7877188 L17.8006947,22.076688 C16.4345884,22.6940817 14.9668755,23.0030564 13.4997209,23.0030564 C12.0325662,23.0030564 10.5659699,22.6940817 9.19930525,22.076688 L6.96954283,21.0691859 L2.10861609,23.2653515 C1.98467837,23.3214782 1.95899758,23.4220617 1.95899758,23.4965268 C1.95899758,23.5709919 1.98467837,23.6715754 2.10861609,23.7277021 L10.0104832,27.2986941 C12.2279635,28.3006391 14.7720365,28.3006391 16.9895168,27.2986941 L24.8913839,23.7277021 C25.0153216,23.6715754 25.0410024,23.5709919 25.0410024,23.4965268 C25.0410024,23.4220617 25.0153216,23.3214782 24.8913839,23.2653515 L17.6689411,19.9949986 L24.8913839,16.7307585 Z M42.6830065,4.37417969 C41.3156046,4.37417969 40.175817,5.39136719 40.175817,6.62675781 L40.175817,8.83613281 L45.6459967,8.83613281 L45.6459967,12.6505859 L40.175817,12.6505859 L40.175817,27.0000391 L35.3890523,27.0000391 L35.3890523,12.6505859 L32.1984477,12.6505859 L32.1984477,8.83613281 L35.3890523,8.83613281 L35.3890523,6.33582031 C35.3890523,2.66683594 38.5424837,0.305429688 42.1888889,0.305429688 C45.114134,0.305429688 46.7097222,1.83121094 46.7097222,1.83121094 L44.8865196,5.06433594 C44.8865196,5.06433594 43.8227941,4.37417969 42.6830065,4.37417969 Z" id="Combined-Shape" fill="url(#linearGradient-3)"></path>
            </g>
        </g>
    </g>
</svg>