<?xml version="1.0" encoding="UTF-8"?>
<svg width="21px" height="21px" viewBox="0 0 21 21" version="1.1" xmlns="http://www.w3.org/2000/svg" xmlns:xlink="http://www.w3.org/1999/xlink">
    <!-- Generator: Sketch 57.1 (83088) - https://sketch.com -->
    <title>gift</title>
    <desc>Created with Sketch.</desc>
    <g id="DApp-home-page" stroke="none" stroke-width="1" fill="none" fill-rule="evenodd">
        <g id="Fuse--Home-page-new-new" transform="translate(-534.000000, -342.000000)" fill-rule="nonzero">
            <g id="gift" transform="translate(534.000000, 342.000000)">
                <polygon id="Path" fill="#F7B500" points="0.64654416 5.49562536 10.3446245 10.3446655 20.0427048 5.49562536 20.0427048 15.8402498 10.3446245 20.6892079 0.64654416 15.8401678"></polygon>
                <polygon id="Path" fill="#B88700" points="0.64654416 6.46535952 0.64654416 9.48791448 10.312285 14.2238074 20.0426638 9.47174472 20.0426638 6.46535952 10.3446245 11.2174632"></polygon>
                <polygon id="Path" fill="#F7B500" points="10.3446245 20.6892079 10.3446245 10.3446655 1.29308832 5.81889744 0.64654416 5.81889744 0.64654416 15.8402498"></polygon>
                <polygon id="Path" fill="#B88700" points="0.64654416 6.46535952 0.64654416 9.48791448 10.312285 14.2238074 10.3446245 14.2076376 10.3446245 11.2012524 10.3446245 11.2174222"></polygon>
                <polygon id="Path" fill="#F7B500" points="0 5.15618352 10.3446245 4.104e-05 20.689249 5.15618352 20.689249 5.8350672 10.3446245 10.9911276 0 5.85119592"></polygon>
                <path d="M16.2765871,1.63253016 C15.9371453,1.01832552 15.2097934,0.64654416 14.3531244,0.64654416 C12.3973632,0.64654416 11.0234671,2.47302936 10.3445834,3.63680064 C9.66569976,2.47302936 8.27567496,0.66271392 6.33604248,0.66271392 C5.09146344,0.66271392 4.20245496,1.42240536 4.20245496,2.4568596 C4.20245496,4.29947352 6.2228952,5.49558432 10.2799044,5.49558432 C14.3369136,5.49558432 16.4866709,3.96007272 16.4866709,2.47302936 C16.4866709,2.1820968 16.4220739,1.89116424 16.2765871,1.63253016 Z M6.75633312,3.62067192 C6.303744,3.3135696 6.14212848,2.97412776 6.14212848,2.7478332 C6.14212848,2.4730704 6.40076256,2.2629456 6.77250288,2.2629456 C7.6453416,2.2629456 8.340354,3.41054712 8.72826408,4.20257808 C7.7099796,4.12172928 7.11190368,3.84692544 6.75633312,3.62067192 Z M13.9328748,3.62067192 C13.5772632,3.84696648 12.9792283,4.12172928 11.9609438,4.20253704 C12.3326842,3.41054712 13.0277376,2.26290456 13.916705,2.26290456 C14.2884454,2.26290456 14.5470794,2.47302936 14.5470794,2.74779216 C14.5471205,2.97412776 14.3854639,3.31352856 13.9328748,3.62067192 Z" id="Shape" fill="#FC6E4C"></path>
                <polygon id="Path" fill="#D89E00" points="0 5.17235328 10.3446245 10.2315182 20.689249 5.17235328 20.689249 8.51818032 10.312285 13.5773453 0 8.51818032"></polygon>
                <polygon id="Path" fill="#FC6E4C" points="14.2238484 8.77677336 14.2238484 8.40503304 10.3446245 6.30378504 6.46540056 8.40503304 6.46540056 8.77677336 3.87926496 7.6453416 3.87926496 7.12811448 10.2153074 3.78228744 10.3446245 3.84692544 10.4739415 3.78228744 16.809984 7.11194472 16.809984 7.62917184"></polygon>
                <polygon id="Path" fill="#FC6E4C" points="14.2238484 8.40503304 14.2238484 18.7334878 16.809984 17.4403994 16.809984 7.11194472"></polygon>
                <path d="M3.87922392,17.4565282 L6.46535952,18.7496165 L6.46535952,8.4212028 L3.87922392,7.11194472 C3.87922392,7.11194472 3.87922392,17.4565282 3.87922392,17.4565282 Z" id="Path" fill="#FC6E4C"></path>
            </g>
        </g>
    </g>
</svg>