<?xml version="1.0" encoding="UTF-8"?>
<svg width="15px" height="12px" viewBox="0 0 15 12" version="1.1" xmlns="http://www.w3.org/2000/svg" xmlns:xlink="http://www.w3.org/1999/xlink">
    <!-- Generator: Sketch 63.1 (92452) - https://sketch.com -->
    <title>Path</title>
    <desc>Created with Sketch.</desc>
    <g id="New-studio-home-page-" stroke="none" stroke-width="1" fill="none" fill-rule="evenodd">
        <g id="First-time-use-Copy" transform="translate(-553.000000, -323.000000)" fill="#0082FF" fill-rule="nonzero">
            <path d="M560.5,322 C560.043907,322 559.673744,322.355223 559.673744,322.792908 L559.673744,333.156459 L556.481684,330.093234 C556.158618,329.783207 555.635546,329.783207 555.313306,330.093234 L555.2423,330.161375 C554.919233,330.471402 554.919233,330.973361 555.2423,331.282595 L559.915811,335.76748 C560.238878,336.077507 560.761949,336.077507 561.084189,335.76748 L565.7577,331.282595 C566.080767,330.972569 566.080767,330.470609 565.7577,330.161375 L565.686694,330.093234 C565.363628,329.783207 564.840556,329.783207 564.518316,330.093234 L561.326256,333.156459 L561.326256,322.792908 C561.326256,322.355223 560.956094,322 560.5,322 Z" id="Path" transform="translate(560.500000, 329.000000) rotate(-90.000000) translate(-560.500000, -329.000000) "></path>
        </g>
    </g>
</svg>