<?xml version="1.0" encoding="UTF-8"?>
<svg width="44px" height="44px" viewBox="0 0 44 44" version="1.1" xmlns="http://www.w3.org/2000/svg" xmlns:xlink="http://www.w3.org/1999/xlink">
    <!-- Generator: Sketch 63.1 (92452) - https://sketch.com -->
    <title>icons8-google</title>
    <desc>Created with Sketch.</desc>
    <g id="New-studio-home-page-" stroke="none" stroke-width="1" fill="none" fill-rule="evenodd">
        <g id="Fuse-connect-wallet" transform="translate(-955.000000, -412.000000)" fill-rule="nonzero">
            <g id="icons8-google" transform="translate(955.000000, 412.000000)">
                <path d="M43.5721,17.6913 L41.8,17.6913 L41.8,17.6 L22,17.6 L22,26.4 L34.4333,26.4 C32.6194,31.5227 27.7453,35.2 22,35.2 C14.7103,35.2 8.8,29.2897 8.8,22 C8.8,14.7103 14.7103,8.8 22,8.8 C25.3649,8.8 28.4262,10.0694 30.7571,12.1429 L36.9798,5.9202 C33.0506,2.2583 27.7948,0 22,0 C9.8505,0 0,9.8505 0,22 C0,34.1495 9.8505,44 22,44 C34.1495,44 44,34.1495 44,22 C44,20.5249 43.8482,19.085 43.5721,17.6913 Z" id="Path" fill="#FFC107"></path>
                <path d="M2.5366,11.7601 L9.7647,17.061 C11.7205,12.2188 16.4571,8.8 22,8.8 C25.3649,8.8 28.4262,10.0694 30.7571,12.1429 L36.9798,5.9202 C33.0506,2.2583 27.7948,0 22,0 C13.5498,0 6.2216,4.7707 2.5366,11.7601 Z" id="Path" fill="#FF3D00"></path>
                <path d="M22,44 C27.6826,44 32.846,41.8253 36.7499,38.2888 L29.9409,32.527 C27.7321,34.2001 24.9865,35.2 22,35.2 C16.2778,35.2 11.4191,31.5513 9.5887,26.4594 L2.4145,31.9869 C6.0555,39.1116 13.4497,44 22,44 Z" id="Path" fill="#4CAF50"></path>
                <path d="M43.5721,17.6913 L41.8,17.6913 L41.8,17.6 L22,17.6 L22,26.4 L34.4333,26.4 C33.5621,28.8607 31.9792,30.9826 29.9376,32.5281 C29.9387,32.527 29.9398,32.527 29.9409,32.5259 L36.7499,38.2877 C36.2681,38.7255 44,33 44,22 C44,20.5249 43.8482,19.085 43.5721,17.6913 Z" id="Path" fill="#1976D2"></path>
            </g>
        </g>
    </g>
</svg>