<?xml version="1.0" encoding="utf-8"?>
<svg viewBox="397.255 237.136 24.292 23.696" xmlns="http://www.w3.org/2000/svg">
  <path d="M0 0h24v24H0z" fill="none" transform="matrix(1, 0, 0, 1, 393.813934, 238.58139)"/>
  <path d="M 409.391 238.984 C 403.871 238.984 399.401 243.464 399.401 248.984 C 399.401 254.504 403.871 258.984 409.391 258.984 C 414.921 258.984 419.401 254.504 419.401 248.984 C 419.401 243.464 414.921 238.984 409.391 238.984 Z M 416.321 244.984 L 413.371 244.984 C 413.051 243.734 412.591 242.534 411.991 241.424 C 413.831 242.054 415.361 243.334 416.321 244.984 Z M 409.401 241.024 C 410.231 242.224 410.881 243.554 411.311 244.984 L 407.491 244.984 C 407.921 243.554 408.571 242.224 409.401 241.024 Z M 401.661 250.984 C 401.501 250.344 401.401 249.674 401.401 248.984 C 401.401 248.294 401.501 247.624 401.661 246.984 L 405.041 246.984 C 404.961 247.644 404.901 248.304 404.901 248.984 C 404.901 249.664 404.961 250.324 405.041 250.984 L 401.661 250.984 Z M 402.481 252.984 L 405.431 252.984 C 405.751 254.234 406.211 255.434 406.811 256.544 C 404.971 255.914 403.441 254.644 402.481 252.984 Z M 405.431 244.984 L 402.481 244.984 C 403.441 243.324 404.971 242.054 406.811 241.424 C 406.211 242.534 405.751 243.734 405.431 244.984 Z M 409.401 256.944 C 408.571 255.744 407.921 254.414 407.491 252.984 L 411.311 252.984 C 410.881 254.414 410.231 255.744 409.401 256.944 Z M 411.741 250.984 L 407.061 250.984 C 406.971 250.324 406.901 249.664 406.901 248.984 C 406.901 248.304 406.971 247.634 407.061 246.984 L 411.741 246.984 C 411.831 247.634 411.901 248.304 411.901 248.984 C 411.901 249.664 411.831 250.324 411.741 250.984 Z M 411.991 256.544 C 412.591 255.434 413.051 254.234 413.371 252.984 L 416.321 252.984 C 415.361 254.634 413.831 255.914 411.991 256.544 Z M 413.761 250.984 C 413.841 250.324 413.901 249.664 413.901 248.984 C 413.901 248.304 413.841 247.644 413.761 246.984 L 417.141 246.984 C 417.301 247.624 417.401 248.294 417.401 248.984 C 417.401 249.674 417.301 250.344 417.141 250.984 L 413.761 250.984 Z" style="fill: rgb(255, 255, 255);"/>
</svg>