<?xml version="1.0" encoding="UTF-8"?>
<svg width="20px" height="20px" viewBox="0 0 20 20" version="1.1" xmlns="http://www.w3.org/2000/svg" xmlns:xlink="http://www.w3.org/1999/xlink">
    <!-- Generator: Sketch 64 (93537) - https://sketch.com -->
    <title>Shape</title>
    <desc>Created with Sketch.</desc>
    <defs>
        <linearGradient x1="50%" y1="0%" x2="50%" y2="98.9970439%" id="linearGradient-1">
            <stop stop-color="#4A687B" offset="0%"></stop>
            <stop stop-color="#4B697C" offset="100%"></stop>
        </linearGradient>
    </defs>
    <g id="new-studio-form" stroke="none" stroke-width="1" fill="none" fill-rule="evenodd">
        <g id="2" transform="translate(-1871.000000, -20.000000)" fill="url(#linearGradient-1)" fill-rule="nonzero">
            <g id="icons8-login" transform="translate(1871.000000, 20.000000)">
                <path d="M10.0073242,0.409342458 C6.01537417,0.409342458 2.5884695,2.86098729 1.15152996,6.34195958 C1.03078525,6.61854121 1.06899499,6.93878911 1.2514234,7.17919825 C1.43385182,7.41960739 1.73199347,7.5426125 2.03086869,7.50077613 C2.32974391,7.45893975 2.5826518,7.25879904 2.69205729,6.97753917 C3.87845125,4.10351125 6.69677458,2.07600913 10.0073242,2.07600913 C14.3894592,2.07600913 17.9239908,5.61054083 17.9239908,9.99267583 C17.9239908,14.3748108 14.3894592,17.9093425 10.0073242,17.9093425 C6.69723,17.9093425 3.8784275,15.8825963 2.69205729,13.0086263 C2.5826518,12.7273664 2.32974391,12.5272257 2.03086869,12.4853893 C1.73199347,12.4435529 1.43385182,12.566558 1.2514234,12.8069672 C1.06899499,13.0473763 1.03078525,13.3676242 1.15152996,13.6442058 C2.58849325,17.1252358 6.01575167,19.5760092 10.0073242,19.5760092 C15.2901892,19.5760092 19.5906575,15.2755408 19.5906575,9.99267583 C19.5906575,4.70981083 15.2901892,0.409342458 10.0073242,0.409342458 Z M10.8178712,6.23453792 C10.4787687,6.23462694 10.1735305,6.44016733 10.0459287,6.75434614 C9.918327,7.06852495 9.99380694,7.42869162 10.2368162,7.66520167 L11.7309571,9.1593425 L1.24267579,9.1593425 C0.942145861,9.15509226 0.662607988,9.31298858 0.51110269,9.57256987 C0.359597393,9.83215117 0.359597393,10.1532005 0.51110269,10.4127818 C0.662607988,10.6723631 0.942145861,10.8302594 1.24267579,10.8260092 L11.7309571,10.8260092 L10.2368162,12.3201496 C10.0191217,12.5291648 9.93143073,12.8395372 10.0075622,13.1315684 C10.0836937,13.4235997 10.3117516,13.6516575 10.6037828,13.727789 C10.8958141,13.8039205 11.2061865,13.7162295 11.4152017,13.498535 L14.3318683,10.5818683 C14.6571753,10.2564268 14.6571753,9.72892447 14.3318683,9.40348292 L11.4152017,6.48681625 C11.2583091,6.32553915 11.0428725,6.23453792 10.8178712,6.23453792 Z" id="Shape"></path>
            </g>
        </g>
    </g>
</svg>