<?xml version="1.0" encoding="UTF-8"?>
<svg width="114px" height="114px" viewBox="0 0 114 114" version="1.1" xmlns="http://www.w3.org/2000/svg" xmlns:xlink="http://www.w3.org/1999/xlink">
    <!-- Generator: Sketch 60.1 (88133) - https://sketch.com -->
    <title>Group 18</title>
    <desc>Created with Sketch.</desc>
    <defs>
        <filter x="-11.3%" y="-11.3%" width="122.6%" height="122.6%" filterUnits="objectBoundingBox" id="filter-1">
            <feOffset dx="0" dy="2" in="SourceAlpha" result="shadowOffsetOuter1"></feOffset>
            <feGaussianBlur stdDeviation="2" in="shadowOffsetOuter1" result="shadowBlurOuter1"></feGaussianBlur>
            <feColorMatrix values="0 0 0 0 0   0 0 0 0 0   0 0 0 0 0  0 0 0 0.5 0" type="matrix" in="shadowBlurOuter1" result="shadowMatrixOuter1"></feColorMatrix>
            <feMerge>
                <feMergeNode in="shadowMatrixOuter1"></feMergeNode>
                <feMergeNode in="SourceGraphic"></feMergeNode>
            </feMerge>
        </filter>
        <linearGradient x1="50%" y1="71.2421124%" x2="50%" y2="100%" id="linearGradient-2">
            <stop stop-color="#0C4764" offset="0%"></stop>
            <stop stop-color="#052235" offset="100%"></stop>
        </linearGradient>
    </defs>
    <g id="New-Dapp" stroke="none" stroke-width="1" fill="none" fill-rule="evenodd">
        <g id="Create-a-loyalty-wallet" transform="translate(-429.000000, -197.000000)">
            <g id="Group-18" filter="url(#filter-1)" transform="translate(433.000000, 199.000000)">
                <g id="Group-17" fill="url(#linearGradient-2)">
                    <rect id="Rectangle" x="3.62376795e-13" y="2.13162821e-14" width="105.963" height="105.963" rx="20.449"></rect>
                </g>
                <g id="Group-26-Copy" transform="translate(13.000000, 15.600000)">
                    <g id="Group-24" transform="translate(19.240000, 31.589864)">
                        <path d="M18.8698679,12.3898864 C18.3732645,13.2330639 17.6973322,14.2644813 16.8926508,15.1802001 C17.2811969,14.6402727 17.6237613,14.0672885 17.9640266,13.4979772 C18.1157665,13.2431646 17.7249212,13.0158992 17.5685831,13.2661207 C17.4927132,13.2066644 17.3800578,13.1947272 17.2880942,13.261759 C17.692734,12.5655006 18.026102,11.8793428 18.2721046,11.313475 C18.3893582,11.0453478 17.9939147,10.8111956 17.8743621,11.081848 C17.2972906,12.4139903 16.7087236,13.7952587 15.7040214,14.871211 C14.6119538,16.0399059 12.7749811,16.9783512 11.2598809,16.0224593 C11.0092802,15.8640622 10.7793712,16.2612027 11.0276729,16.4186815 C11.1495246,16.4951253 11.2690773,16.5605502 11.38863,16.6200065 C11.2713764,16.5965913 11.1541228,16.5713396 11.0368692,16.5433331 C11.0000838,16.5346098 10.9655974,16.5369054 10.9334102,16.5444809 C10.8345493,16.508899 10.7333894,16.4753831 10.6253322,16.4448515 C10.4368068,16.3906751 10.3057587,16.5789151 10.3471423,16.7324914 C10.2919642,16.8116899 10.287366,16.9159106 10.3885259,16.9939613 C11.7311943,18.0366273 13.4486144,18.1160554 14.9729108,17.3929383 C16.9823153,16.4384238 18.1778419,14.4648881 19.2676105,12.621743 C19.4193504,12.3667008 19.0216079,12.1355329 18.8698679,12.3898864" id="Fill-63-Copy-2" fill="#FF9782"></path>
                        <path d="M26.0844115,4.19708475 C26.0683179,4.15920719 26.0246352,4.14359705 25.9855506,4.14038319 C25.9648588,4.1385467 25.9464661,4.14405617 25.9257743,4.14704046 C25.994747,3.02816027 25.8728952,1.59983188 24.8038185,1.24217588 C22.9507522,0.622820363 22.1552671,2.28576007 22.3208016,3.88924349 C22.4035688,4.69890505 22.7576287,6.70985919 23.8887808,6.80420875 C24.661275,6.86871539 25.5832099,6.37424105 25.8223153,5.07699197 C26.0131397,4.82906612 26.224656,4.49758007 26.0844115,4.19708475" id="Fill-64-Copy-2" fill="#FF9782"></path>
                        <path d="M32.7310799,13.0891291 C32.606929,12.8999709 32.3908146,12.8981344 32.2413738,12.990877 C32.0689421,12.9435875 31.8781176,12.9989117 31.8482294,13.2181424 C31.8298367,13.3421053 31.8091449,13.46515 31.7884531,13.5881947 C31.7240786,13.6302044 31.6711995,13.6901198 31.6436105,13.7661045 C31.5861332,13.9401117 31.5470487,14.1053956 31.5148614,14.2697612 C31.4987678,14.2291289 31.4826742,14.1887262 31.4642815,14.1483235 C31.2757561,13.74751 30.6802919,14.0966723 30.8688172,14.4958788 C31.5608432,15.9664464 29.6709915,18.0315769 28.8180292,19.0921487 C28.6019147,19.3609646 28.8548146,19.7195388 29.1077145,19.693828 C29.0824245,19.8301872 29.1490981,19.9447381 29.2525571,20.010163 C29.1054154,20.3345327 29.1582945,20.1775129 29.4249889,19.9082379 C31.1493062,18.1679362 34.4232099,15.6895959 32.7310799,13.0891291" id="Fill-65-Copy-2" fill="#FF9782"></path>
                        <path d="M26.9741592,22.4076978 C26.9488692,22.3105935 26.9212802,22.212571 26.8936911,22.1150076 L26.9465701,21.8771824 C26.969561,22.0195102 26.9925519,22.161838 27.0155428,22.3037067 C27.0017483,22.3383704 26.9879538,22.3732637 26.9741592,22.4076978 Z M32.9356989,13.1981706 C32.5103673,11.8460565 31.195288,10.585078 30.1859876,9.73845714 C29.5284479,9.18498563 28.0869186,8.0139951 25.5533218,7.65243656 C25.5579199,7.388671 25.5234336,7.08840524 25.3073192,6.93987929 C25.1831683,6.85356436 25.0544193,6.86458329 24.9095766,6.88111168 C24.661275,6.90957724 24.431366,6.95204602 24.1807652,6.93712456 C23.868089,6.91830056 23.4427574,6.75003236 23.1461748,6.91370934 C22.8863777,7.05557802 22.9139668,7.33449461 22.9369577,7.60445831 C21.1298731,7.82713246 20.2792099,8.58973402 19.7228302,8.89826397 C18.9848224,9.30642339 19.0308042,9.56444992 18.3985545,10.0658111 C17.8145857,10.5313608 17.4720214,11.0859801 16.9041462,11.701433 C16.333972,12.3214772 16.4236365,13.2394916 15.821275,13.8276268 C15.6580396,13.9869421 15.641946,14.3191169 15.745405,14.522967 C16.0212958,15.0764385 16.2971865,15.6296805 16.5730773,16.1829224 C16.7340136,16.508899 17.1087652,16.5518269 17.3363751,16.2990803 C17.9548302,15.6115451 18.1893374,15.3847389 18.9457379,15.1448477 C19.4469395,14.986221 19.4515376,14.4153029 19.9412437,14.1811507 C19.9964219,15.4072359 19.8607756,16.633321 19.8653738,17.8690478 C19.869972,19.3377789 19.8768692,21.3087894 20.0102164,22.7671903 C20.07689,23.4884709 21.0356105,23.5006376 20.9827314,22.7816527 C20.9873296,22.790376 20.9896287,22.7995584 20.9942268,22.8082817 C20.9965259,22.8144799 21.0011241,22.8190711 21.0034232,22.8248101 C21.0149186,22.9903236 21.024115,23.1556075 21.0356105,23.3208914 C21.0861904,24.0490588 22.0518081,24.0623733 22.0081254,23.3208914 C21.9897327,23.0231508 21.9736391,22.7254102 21.9552463,22.4276696 C22.125379,22.6012177 22.3897743,22.6533281 22.5691033,22.5295947 C22.6265805,22.7896873 22.6817587,23.0504686 22.7438341,23.3089542 C22.8909759,23.9145361 23.7301436,23.8199569 23.7002554,23.1562962 C23.6910591,22.9829776 23.6841618,22.8096591 23.6749655,22.636111 C23.8037145,22.592724 23.9140708,22.4919467 23.9738471,22.3415843 C24.0773062,22.6271581 24.3508978,22.7389543 24.5785077,22.6755955 C24.6336859,22.9563486 24.6911631,23.2364129 24.7509395,23.5148704 C24.8819876,24.1307825 25.7418471,24.0180681 25.7073608,23.3622124 C25.6889681,23.0238395 25.6682763,22.6854666 25.6498835,22.3468642 C25.686669,22.5881328 25.7234544,22.8294013 25.7579408,23.0704404 C25.7625389,23.089953 25.764838,23.1094657 25.7671371,23.1289784 C25.8016235,23.3592281 25.8361098,23.5892482 25.8728952,23.8194978 C25.969457,24.464105 26.8339147,24.3024941 26.8270175,23.6668398 C26.8270175,23.6650033 26.8270175,23.6629372 26.8270175,23.6611008 C26.9534674,23.6955349 27.0914128,23.6558209 27.1695818,23.5086723 C27.1856755,23.4799771 27.19947,23.4505933 27.2132645,23.4216687 C27.2477509,23.6025627 27.2822372,23.7834568 27.3167236,23.9638917 C27.4408744,24.5788855 28.3375194,24.4636459 28.2731449,23.8112336 C28.2363595,23.4478386 28.2018731,23.0844436 28.1650877,22.720819 C28.3053322,22.8975809 28.5122502,22.9281126 28.6869811,22.8477662 C28.7743465,23.460694 29.6365051,23.4196026 29.6525987,22.7247215 C29.7123751,19.9986849 29.3077353,16.398021 28.9467782,13.7100916 C29.172089,13.8042116 30.7515636,15.439604 31.3079434,15.2917667 C31.7815558,15.1664264 32.4988718,14.5525804 32.7701644,14.1772482 C33.016167,13.8386457 33.0690461,13.6269905 32.9356989,13.1981706 L32.9356989,13.1981706 Z" id="Fill-66-Copy-2" fill="#F5E4D5"></path>
                        <path d="M24.9831475,18.5783912 C24.8957821,17.9712024 24.7509395,17.3720483 24.688864,16.7614161 C24.6221904,16.12668 24.661275,15.4917143 24.7187522,14.858126 C24.8222112,13.7038934 24.8773894,12.6038372 24.7164531,11.4512116 C24.5233296,10.0912924 24.2152515,8.7398669 24.4290669,7.36273061 C24.4497587,7.21833675 24.2290461,7.15612573 24.2060552,7.30189695 C24.0313244,8.43730553 24.1876625,9.55411968 24.3646924,10.6785093 C24.5785077,12.0301644 24.635985,13.2849447 24.5072359,14.6457821 C24.3968796,15.8436313 24.4681514,16.9276182 24.6750695,18.1082503 C24.9141748,19.4782702 24.9417639,20.8574726 24.7601358,22.2362158 C24.739444,22.3822166 24.969353,22.3808392 24.9900448,22.2362158 C25.148682,21.0197722 25.1555792,19.7941461 24.9831475,18.5783912" id="Fill-67-Copy-2" fill="#C9BBAF"></path>
                        <path d="M11.9611033,15.7731561 C10.3448432,15.6423063 8.73548041,15.4618714 7.13071578,15.2396564 C7.08473399,15.1074292 7.00656494,14.9791047 6.88931136,14.8636355 C5.97657274,13.9651338 4.81093425,13.3687344 3.53953763,13.1699346 C2.61300447,13.0253112 1.25654153,12.9973048 0.50933737,13.6719845 C-0.306839483,14.4068091 -0.0815286898,15.616825 0.755339971,16.2334258 C1.755444,16.9696279 3.32572229,17.1849561 4.52354803,17.2033209 C5.27305128,17.214799 6.42719433,17.0766033 6.86172229,16.3576183 C8.57454413,16.5942957 10.2919642,16.7804696 12.0139824,16.9200427 C12.7496911,16.979499 12.6899147,15.8323828 11.9611033,15.7731561" id="Fill-68-Copy-2" fill="#1B0E03"></path>
                        <path d="M11.7173998,16.501553 C11.6645207,16.2449039 11.5725571,15.9843522 11.3449473,15.831235 C11.2667782,15.7782064 11.1771137,15.7410175 11.0989447,15.7442314 C11.0138783,15.5716015 10.8644375,15.3842798 10.671314,15.4451134 C10.544864,15.485057 10.517275,15.6039696 10.5264713,15.7359672 C10.4207132,15.5541549 10.2850669,15.44167 10.1103361,15.5004376 C9.92640889,15.5628782 9.95859615,15.8291689 9.98848431,16.0031762 C9.91261435,15.881968 9.75167807,15.620498 9.5884427,15.755939 C9.44589914,15.8750811 9.59763906,16.1785608 9.66201357,16.3073445 C9.75627625,16.5004052 9.88962346,16.6661483 10.0505597,16.8059509 C10.1540188,16.9469013 10.3172541,17.0683391 10.4460032,16.9684801 C10.4735922,16.9641184 10.4988822,16.9482787 10.519574,16.9260113 C10.5770513,17.0022255 10.6437249,17.066273 10.7540812,17.0531881 C10.8161566,17.0460717 10.8575402,17.0127853 10.8897275,16.9707757 C10.9678965,17.0421691 11.0667574,17.0795876 11.1794128,17.0176061 C11.2116,16.9990117 11.2345909,16.9744487 11.2529837,16.9473605 C11.3311527,17.0332163 11.4323127,17.0846379 11.5633608,17.047449 C11.8047652,16.9776625 11.7564843,16.687727 11.7173998,16.501553" id="Fill-69-Copy-2" fill="#FF9782"></path>
                        <path d="M26.7442502,1.23551861 C26.6936703,1.15999305 26.6338939,1.1067349 26.5626222,1.07046427 C26.6246976,0.958208949 26.6430903,0.830343485 26.5994076,0.688015681 C26.5120422,0.413690315 26.2752359,0.370532851 26.0246352,0.398998412 C25.9579616,0.406573924 25.8889889,0.419429339 25.8223153,0.435269046 C25.8246144,0.416215485 25.8269134,0.396932363 25.8246144,0.377419681 C25.7970253,-0.0676990512 25.2176547,-0.0282145634 24.918773,0.0459336318 C24.6244895,0.119393144 24.3899824,0.256670607 24.150877,0.439630705 C24.0198289,0.538341924 23.8979772,0.718776851 23.7508354,0.778233144 C23.63818,0.824604461 23.4910383,0.781446998 23.3737847,0.802107485 C22.8771813,0.890488461 22.5691033,1.21325119 22.4311579,1.69096758 C22.3506898,1.97562319 22.7944141,2.09706095 22.8748822,1.81309402 C22.920864,1.656763 23.1530721,1.69326319 23.2680266,1.73091119 C23.304812,1.76304973 23.3530929,1.78371022 23.405972,1.7802668 C23.5163283,1.77360953 23.6105909,1.75708114 23.6979564,1.73114075 C23.9531553,1.7279269 24.7739303,1.8649748 25.0084375,1.84867597 C25.0636157,1.84477344 25.1187938,1.84110046 25.1716729,1.83719792 C25.2912255,1.82916329 25.3601982,1.74881695 25.3831891,1.65768124 C25.3969837,1.64826924 25.4107782,1.63816856 25.4268718,1.628527 C25.4659564,1.62531314 25.50734,1.62049236 25.5464245,1.61452378 C25.585509,1.65010573 25.6337899,1.67489831 25.686669,1.68293295 C25.6475844,1.85946534 25.7096599,2.06056075 25.9257743,2.07112056 C26.2913296,2.08902631 27.0293374,1.67880085 26.7442502,1.23551861" id="Fill-70-Copy-2" fill="#853F39"></path>
                        <path d="M26.0292333,3.0832549 C25.9970461,3.05318241 25.9533634,3.04537734 25.9142789,3.05593714 C25.8591007,2.99556261 25.7533426,3.00956583 25.7234544,3.08761656 C25.711959,3.0632831 25.7050617,3.03894963 25.6935662,3.01415705 C25.6314908,2.88078212 25.43147,2.99693997 25.4958445,3.13008534 C25.5579199,3.26346027 25.5924063,3.39890124 25.5970045,3.54650895 C25.6016026,3.63580817 25.5924063,3.72556651 25.610799,3.81394749 C25.6406872,3.95925958 25.7579408,4.12775734 25.9303725,4.09056846 C26.1120006,4.05108397 26.1188978,3.79650085 26.1349915,3.65072963 C26.1602815,3.45491412 26.1809733,3.23201041 26.0292333,3.0832549" id="Fill-71-Copy-2" fill="#853F39"></path>
                        <path d="M22.536916,3.0467547 C22.5024297,2.99923558 22.4449525,2.98247763 22.3966716,3.00084251 C22.3437925,2.9891349 22.2863153,3.01048407 22.2725207,3.07981149 C22.2702216,3.09542163 22.2679225,3.11103178 22.2656235,3.12664192 C22.2656235,3.10919529 22.2656235,3.09174866 22.2679225,3.07407246 C22.2725207,2.92646475 22.0426118,2.92669431 22.0380136,3.07407246 C22.0288172,3.2903189 21.8655818,4.21062885 22.3276989,4.14887695 C22.5070279,4.12477305 22.5576079,3.78754797 22.5828978,3.6479749 C22.6173842,3.46271919 22.6541696,3.21020212 22.536916,3.0467547" id="Fill-72-Copy-2" fill="#853F39"></path>
                        <path d="M26.3809941,2.52106007 C26.3603023,2.21459617 26.3970877,1.78944924 26.1074024,1.61016212 C25.6199954,1.30943724 24.5141332,1.3879471 23.9554544,1.37830553 C23.4703465,1.37004134 22.4518497,1.30897812 22.0265181,1.64344846 C21.6770565,1.91961031 21.6885081,2.61540963 21.6885081,3.01530485 C21.6885081,3.06098749 21.7069447,3.10116066 21.7322346,3.13582436 C21.7598237,3.26828105 21.8264973,3.38191373 21.9736391,3.44596124 C22.1667626,3.52883275 22.4564479,3.43723792 22.6518705,3.4179548 C23.1346794,3.37020612 23.6197873,3.32062095 24.1048952,3.303863 C24.6175922,3.2861868 25.1348874,3.29996046 25.6429863,3.38122505 C25.7878289,3.4044107 26.0545233,3.51482953 26.2062632,3.43356495 C26.5120422,3.26942885 26.3993868,2.78895773 26.3809941,2.52106007" id="Fill-73-Copy-2" fill="#F5E4D5"></path>
                        <path d="M22.4955324,4.43835334 C22.562206,4.42159539 22.6173842,4.34905412 22.5737015,4.27100339 C22.4311579,4.02468446 22.1437717,4.05705256 22.1184817,4.35433402 C22.0862945,4.73815997 22.382877,5.02143822 22.6702632,5.223911 C22.7208432,5.25903383 22.7990123,5.23355256 22.8266013,5.18259002 C22.9622476,4.93604153 22.6840578,4.58986358 22.4955324,4.43835334" id="Fill-74-Copy-2" fill="#FF9782"></path>
                        <path d="M5.44318392,15.6349604 C5.32822944,15.8544207 4.54653893,15.748593 4.59022164,15.605347 C4.57412801,15.5899664 4.55803438,15.5748154 4.54194075,15.5596644 C4.6867834,15.5348718 4.83162606,15.5224755 4.9787678,15.522705 C5.13740499,15.5199503 5.28914491,15.5364787 5.4477821,15.5484159 C5.45008119,15.5486454 5.45238028,15.548875 5.45697846,15.5491046 C5.45927755,15.5784884 5.45927755,15.607413 5.44318392,15.6349604 Z M4.21317092,15.1060519 C4.21087183,14.9455888 4.16718913,14.7853552 4.07292645,14.6540463 C3.92808379,14.4536396 3.55793035,14.3567649 4.17408639,14.5293947 C4.68448431,14.6730999 4.44537898,14.5068977 4.56493165,14.9474252 C4.46607079,15.0387905 4.33962086,15.0941147 4.21317092,15.1060519 Z M3.59471578,15.2538891 C3.28893685,15.3406632 3.16938418,15.2720245 3.23605779,15.0477434 C3.18087963,14.7403612 3.21766507,14.4977153 2.95556884,14.3257741 C3.13949602,14.1749526 3.33951682,14.0872603 3.42458314,14.293406 C3.47056494,14.4068091 3.40159225,14.5059795 3.39469498,14.619153 C3.37400317,14.9028904 3.50964946,15.1053632 3.76025024,15.2329991 C3.80623204,15.2559552 3.85221383,15.2747792 3.89819563,15.2906189 C3.79703568,15.2782226 3.69587573,15.2660559 3.59471578,15.2538891 Z M2.36930096,14.6669017 C2.30952463,14.8764909 2.37160005,14.8174937 2.23365467,15.0250169 C1.86350122,15.586523 2.35550642,14.3843122 2.30722554,14.4125482 C2.37160005,14.3755889 2.43137638,14.3618152 2.48655454,14.3622743 C2.43367547,14.4485892 2.40148822,14.5477596 2.36930096,14.6669017 Z M3.58551942,14.5459231 C3.59241669,14.5528099 3.59701487,14.5596968 3.60161305,14.5672723 C3.60621123,14.5702566 3.60851032,14.5732409 3.6131085,14.5762251 C3.81312931,14.6652948 3.92808379,14.8289718 3.95797196,15.0656491 C3.40619043,14.8076226 3.47516312,14.6843484 3.58551942,14.5459231 Z M4.67758704,14.2440504 C4.72586793,14.3528623 4.74426065,14.4543283 4.74196156,14.5470709 C4.73506429,14.5691088 4.7327652,14.5918353 4.73736338,14.6159392 C4.73506429,14.6205304 4.73506429,14.6253512 4.73506429,14.6299424 C4.71897066,14.5546464 4.70747521,14.4708567 4.67988613,14.421501 C4.54194075,14.1715091 3.9717665,13.9552627 3.67748301,14.0824395 C3.66138939,14.039282 3.62690304,14.0080617 3.53723854,13.9688068 C3.46366767,13.9362091 3.35101227,13.9389639 3.2337587,13.9593948 C3.3671059,13.8666522 3.50505128,13.7846989 3.66598757,13.7573811 C4.01774829,13.698384 4.52124894,13.8831806 4.67758704,14.2440504 Z M5.22017222,14.5978039 C5.30983672,14.5922944 5.53054933,14.5975743 5.52825024,14.7594148 C5.52365206,14.9524756 5.40869758,14.9954035 5.26615402,14.9765795 C5.17878861,14.9104659 5.05003958,14.8191007 5.00865597,14.7421977 C5.01325415,14.7125844 5.01785232,14.6820528 5.01785232,14.6508325 C5.04774049,14.6239738 5.10981591,14.6046907 5.22017222,14.5978039 Z M6.03864816,15.1554075 C5.98347001,15.2653672 5.88920733,15.3213801 5.77425284,15.3468613 C5.70757924,15.2587099 5.59952203,15.1870869 5.49836208,15.1260237 C5.8961046,14.7741067 6.04784452,14.1682953 5.02474959,14.3719159 C5.00865597,14.3749002 4.99716052,14.3792618 4.98336598,14.3827052 C4.97416962,14.3540101 4.96727235,14.3255446 4.9557769,14.2959312 C4.62470798,13.4371436 3.62230486,13.3251178 2.95097066,13.8354319 C2.43137638,14.2293585 2.05202658,13.5872765 1.53473139,13.847369 C1.14848431,14.0408889 1.07951162,14.4855486 1.03812801,14.871211 C1.02203438,15.0179005 1.25194335,15.0167527 1.26803698,14.871211 C1.28413061,14.7580374 1.30022424,14.6448639 1.31631786,14.5316903 C1.47725415,14.468561 1.63819043,14.4052022 1.79912671,14.3418434 C1.64278861,14.4524918 1.55082502,14.6223669 1.5991059,14.8629468 C1.67727495,15.2612351 2.32561825,15.7426245 2.5624245,15.2068291 C2.63139719,15.0518755 2.55782632,14.8914124 2.59231266,14.7389839 C2.59691084,14.7125844 2.66818262,14.6147914 2.76704348,14.507816 C2.90498887,14.6623105 2.99235428,14.9026609 3.00614881,15.0477434 C3.03373789,15.3390563 2.95556884,15.6163659 3.24295506,15.8075902 C3.6360994,16.0695193 4.07522554,15.7327533 4.18328275,15.3429588 C4.36720993,15.3496161 4.53964166,15.3043926 4.67988613,15.2178481 C4.70287703,15.2447067 4.72816702,15.266515 4.75345701,15.285339 C4.52354803,15.2846503 4.3304245,15.3424997 4.24305909,15.5642556 C4.22926455,15.6007558 4.24535818,15.6501114 4.27294725,15.6760518 C4.48446351,15.8762289 4.8224297,16.0295757 5.11901227,16.0008806 C5.32133217,15.9811383 5.78115011,15.8108041 5.83173009,15.5679286 C5.83402918,15.5637965 5.83173009,15.560353 5.83173009,15.5562209 C5.99726455,15.5373969 6.13520993,15.4692173 6.23866897,15.2713358 C6.30534257,15.1400269 6.10762086,15.023869 6.03864816,15.1554075 L6.03864816,15.1554075 Z" id="Fill-75-Copy-2" fill="#F5E4D5"></path>
                        <path d="M2.67967807,13.6717549 C2.23595375,13.6717549 2.23595375,14.3604378 2.67967807,14.3604378 C3.12340239,14.3604378 3.12340239,13.6717549 2.67967807,13.6717549" id="Fill-76-Copy-2" fill="#D64068"></path>
                        <path d="M2.90958704,14.743116 C2.46586273,14.743116 2.46586273,15.4317989 2.90958704,15.4317989 C3.35331136,15.4317989 3.35331136,14.743116 2.90958704,14.743116" id="Fill-77-Copy-2" fill="#D64068"></path>
                        <path d="M4.5764271,14.6283355 C4.13270278,14.6283355 4.13270278,15.3170184 4.5764271,15.3170184 C5.02015141,15.3170184 5.02015141,14.6283355 4.5764271,14.6283355" id="Fill-78-Copy-2" fill="#D64068"></path>
                        <path d="M4.05913191,13.9109574 C3.61540759,13.9109574 3.61540759,14.5996404 4.05913191,14.5996404 C4.50285623,14.5996404 4.50285623,13.9109574 4.05913191,13.9109574" id="Fill-79-Copy-2" fill="#D64068"></path>
                        <path d="M24.9555584,4.9927431 C24.9394648,4.85500651 24.764734,4.72530456 24.6290877,4.73425744 C24.302617,4.75606573 23.9876417,4.79463197 23.6680682,4.85317002 C23.5669082,4.8715349 23.5002346,4.93397549 23.458851,5.01340358 C23.2772229,4.99825256 23.0978939,5.1027028 23.1185857,5.33455939 C23.2197457,6.42681051 23.2036521,7.50322192 23.2151475,8.59730953 C23.2220448,9.28966544 23.5761046,9.29792963 24.1922606,9.2398507 C24.8796885,9.17534407 25.1440838,9.15629051 25.1624765,8.4304187 C25.1923647,7.28284339 25.0958029,6.13044729 24.9555584,4.9927431" id="Fill-87-Copy-2" fill="#FF9782"></path>
                    </g>
                    <polygon id="Fill-92-Copy-2" fill="#F5E4D5" points="15.08 73.5438262 69.16 73.5438262 69.16 52.1946555 15.08 52.1946555"></polygon>
                    <polygon id="Fill-93-Copy-2" fill="#F5E4D5" points="15.08 73.4036634 16.0479168 73.4036634 16.0479168 18.3946555 15.08 18.3946555"></polygon>
                    <polygon id="Fill-93-Copy-3" fill="#F5E4D5" points="68.12 72.602102 69.0879168 72.602102 69.0879168 17.593094 68.12 17.593094"></polygon>
                    <polyline id="Fill-95-Copy-2" fill="#F5E4D5" points="11.7276567 76.8967287 10.7459454 76.9189961 4.97379915e-14 22.9664278 0.949524057 22.7777287 11.7276567 76.8967287"></polyline>
                    <polyline id="Fill-96-Copy-2" fill="#F5E4D5" points="72.8 77.0319401 73.3658734 77.0544371 79.56 23.1016392 79.0126799 22.9129401 72.8 77.0319401"></polyline>
                    <path d="M15.08,71.4346555 L69.16,71.4346555 L69.16,70.9146555 L15.08,70.9146555 L15.08,71.4346555 Z M15.08,68.3146555 L69.16,68.3146555 L69.16,67.7946555 L15.08,67.7946555 L15.08,68.3146555 Z M15.08,65.7146555 L69.16,65.7146555 L69.16,65.1946555 L15.08,65.1946555 L15.08,65.7146555 Z M15.08,63.1146555 L69.16,63.1146555 L69.16,62.5946555 L15.08,62.5946555 L15.08,63.1146555 Z M15.08,60.5146555 L69.16,60.5146555 L69.16,59.9946555 L15.08,59.9946555 L15.08,60.5146555 Z M15.08,57.3946555 L69.16,57.3946555 L69.16,56.8746555 L15.08,56.8746555 L15.08,57.3946555 Z M15.08,54.7946555 L69.16,54.7946555 L69.16,54.2746555 L15.08,54.2746555 L15.08,54.7946555 Z" id="Fill-100-Copy-2" fill-opacity="0.40119646" fill="#1B0E03"></path>
                    <path d="M20.3888846,19.6036511 C20.3980374,19.1418673 18.9496108,19.1415804 18.9404145,19.6036511 C18.9358163,19.8178305 18.9312181,20.0321532 18.9266199,20.2463326 C18.8300582,20.2318436 18.7265991,20.2271095 18.620841,20.2315566 C18.5909528,20.1786215 18.5656629,20.1251125 18.5311765,20.0727512 C18.3403521,19.7867006 17.365538,19.7046439 17.1632181,20.0155124 C16.8229528,19.8752127 16.1792077,19.9934202 15.9952805,20.2233797 C15.7584743,20.1035942 15.3492363,20.0724643 15.0618501,20.1515084 C15.059551,20.1470612 15.059551,20.1426141 15.0572519,20.138167 C14.9101102,19.7079434 13.59733,19.6581643 13.2064847,20.018238 C13.1191193,20.0982863 13.0432493,20.1797691 12.9650803,20.261252 C12.9512857,20.084658 12.9351921,19.9080641 12.9145003,19.7316136 C12.8524249,19.1866255 11.2177721,19.0253813 10.9257877,19.5980564 C10.8591141,19.7274534 10.7970387,19.8574242 10.7349632,19.9869647 C10.6843833,19.8950096 10.626906,19.8034849 10.5602324,19.7135382 C10.2314626,19.2663868 8.8887942,19.2078569 8.60600616,19.7135382 C8.60600616,19.7154031 8.60370707,19.7171246 8.60370707,19.7189895 C8.20826364,19.5805548 7.66797755,19.5588929 7.3438059,19.7242974 C7.00354062,19.7420859 6.69086442,19.8512556 6.55291904,20.0803544 C6.42417001,20.2925253 6.30921552,20.5059874 6.20115831,20.7200232 C5.98504387,20.4025558 4.84009719,20.4486051 4.78721813,20.8564496 C4.4354574,23.6031956 4.25382931,26.3545321 4.26762385,29.1068728 C4.26992294,29.6887291 3.97104127,30.5348307 4.35958744,31.0877089 C4.55271097,31.3601312 4.90217261,31.4862288 5.45395415,31.5469105 C6.58970447,31.6714301 7.94156923,31.6196426 9.10720772,31.6421651 C10.523447,31.6695652 11.9396863,31.6889317 13.3559255,31.7005516 C14.7721648,31.7121715 16.1884041,31.7161882 17.6046434,31.712028 C18.3219593,31.7097327 19.3013716,31.7840428 19.8117695,31.4820686 C20.3796447,31.1459519 20.1497357,30.5098694 20.158932,30.1124972 C20.1750257,29.4023915 20.1888202,28.6924294 20.2049138,27.9823237 C20.2669893,25.189385 20.3267656,22.3965898 20.3888846,19.6036511" id="Fill-119-Copy-2" fill="#FC5D4C"></path>
                    <path d="M71.5145719,29.9357783 C70.5742442,26.3262957 69.6523092,22.7089583 69.5074666,19.0480866 C69.491373,18.6204657 68.4062026,18.6188681 68.4222962,19.0480866 C68.4268944,19.1656424 68.4337917,19.2830651 68.4406889,19.4004878 C68.3004445,19.3025024 68.1188164,19.23567 67.9210947,19.2002568 C67.5739321,18.6441632 66.1025147,18.477881 65.8588112,19.1982598 C65.8381194,19.262829 65.8197267,19.3273981 65.7990349,19.3918342 C65.571425,18.8001943 63.8586031,18.7907419 63.7206577,19.4245847 C63.6999659,19.5167122 63.6838723,19.6088398 63.6654796,19.7011005 C63.4332715,19.6562349 63.1780726,19.6566343 62.9458645,19.7028312 C62.446962,19.356421 61.3640908,19.4122034 61.0721064,19.9537855 C61.0468164,20.0006481 61.0238255,20.0477769 60.9985355,20.0947726 C60.8467956,20.0288722 60.6743639,19.9922608 60.4950349,19.9832078 C60.4536512,19.8564658 60.4076694,19.7302564 60.3593886,19.6045796 C60.1501714,19.0628643 58.7983066,18.9369211 58.3752741,19.4454865 C58.2488242,19.5972573 58.1453652,19.7531552 58.0579997,19.9115826 C57.7361272,19.822384 57.2671129,19.9173073 57.2716775,20.1996809 C57.294702,21.9077682 57.3567774,23.6153229 57.4648346,25.322212 C57.5659945,26.9124772 57.5636955,28.5469423 58.0005225,30.1193677 C58.1223743,30.5589705 58.2074406,31.0390456 59.012122,31.1713791 C59.4581454,31.2444687 60.0007306,31.1510098 60.4421558,31.1124015 C61.1594718,31.0492968 61.8790869,30.9883222 62.598702,30.9300102 C65.3897969,30.7040847 68.1877891,30.5149038 70.9926785,30.357142 C71.3720284,30.3358408 71.5743482,30.1626357 71.5145719,29.9357783" id="Fill-127-Copy-2" fill="#FC5D4C"></path>
                    <path d="M42.3928524,19.6036242 C42.4019976,19.1419852 41.1696855,19.1416983 41.1627882,19.6036242 C41.15819,19.8178029 41.1535919,20.032125 41.1489937,20.2463037 C41.0685255,20.2318147 40.9811601,20.2272242 40.8914956,20.2315278 C40.8662057,20.1785928 40.8432148,20.1252275 40.8133266,20.0727229 C40.6523903,19.7866731 39.824718,19.7047601 39.6522863,20.0154842 C39.362601,19.875185 38.8154176,19.9935356 38.6590795,20.2233509 C38.4567596,20.1035657 38.1095971,20.0724359 37.8658936,20.1516232 C37.8635945,20.1470327 37.8635945,20.142729 37.8635945,20.1382819 C37.7371445,19.7079162 36.6197869,19.6581372 36.288718,20.0182099 C36.2151471,20.0982579 36.1484735,20.1797405 36.084099,20.261223 C36.0703045,20.0846296 36.058809,19.9081797 36.0404163,19.7315863 C35.9875373,19.1865998 34.5988871,19.0253561 34.3482863,19.5981729 C34.2931081,19.7275695 34.2425281,19.8573965 34.18735,19.9870801 C34.1436673,19.8949818 34.0953864,19.8036008 34.0402083,19.7135109 C33.7597193,19.2663609 32.6170717,19.2079746 32.3779664,19.7135109 C32.3779664,19.7153758 32.3779664,19.7172407 32.3756673,19.7189622 C32.0400002,19.5806714 31.5801822,19.5588662 31.3042915,19.7242701 C31.0169053,19.7420585 30.7502109,19.8512279 30.6329573,20.080326 C30.5249001,20.2924963 30.4260392,20.5059577 30.3340756,20.7201364 C30.1524475,20.4025265 29.1776335,20.4485756 29.1339508,20.8564189 C28.83277,23.6031565 28.678731,26.3544847 28.6902265,29.1069605 C28.6925255,29.6886715 28.4396257,30.5347706 28.7706946,31.0876471 C28.93393,31.3602121 29.2305125,31.4863092 29.6995268,31.5468474 C30.6651445,31.6713665 31.8146894,31.6195792 32.803298,31.6421016 C34.008021,31.6695016 35.2104449,31.6888681 36.4151679,31.7004879 C37.619891,31.7122513 38.824614,31.7161245 40.0270379,31.7119643 C40.6362967,31.7098125 41.4685672,31.7839789 41.9030951,31.4820056 C42.385904,31.1458899 42.1904813,30.5099528 42.1973786,30.1124383 C42.2111731,29.4023349 42.2249677,28.6923748 42.2364631,27.9824148 C42.2893422,25.1894846 42.3399222,22.3965544 42.3928524,19.6036242" id="Fill-131-Copy-2" fill="#FC5D4C"></path>
                    <path d="M79.5207705,23.0495289 C75.4186746,16.7480801 72.2083955,8.856692 70.1449249,0 L9.41507511,0 C7.35160448,8.856692 4.1413254,16.7480801 0.0392294796,23.0495289 L1.13686838e-13,23.1089852 L79.56,23.1089852 L79.5207705,23.0495289" id="Fill-140-Copy-2" fill="#F5E4D5"></path>
                    <path d="M18.6231401,0 C18.1932103,1.3564758 17.7264951,2.70422829 17.2298917,4.04509395 C17.2160972,4.07860985 17.2046017,4.1089119 17.1931063,4.13806615 C17.1379281,4.26845678 17.0850491,4.39907698 17.03217,4.52900849 C16.8666356,4.92155776 16.6965029,5.31272966 16.5240712,5.7025242 C16.0711505,6.72682527 15.5998371,7.74538732 15.084841,8.74099327 C14.1996915,10.4551251 13.1145211,12.0317499 11.9948644,13.5987331 C11.4660738,14.336542 10.9372831,15.0736623 10.4061934,15.8080279 C10.1004145,16.2288132 9.79233646,16.6473028 9.48655753,17.0673994 C9.47506208,17.0818618 9.46816481,17.0931102 9.45666936,17.1064248 C8.29562905,18.6369078 7.11159784,20.1506329 5.85169667,21.604213 C5.41027144,22.1140679 4.95735077,22.6145108 4.49753282,23.1089852 L20.3313638,23.1089852 C21.0923625,22.0718287 21.8464639,21.0268671 22.5982662,19.9782326 C26.8538813,14.0365059 29.7346408,7.10169834 31.5969034,0 L18.6231401,0 Z" id="Path" fill="#FC5D4C"></path>
                    <path d="M36.1645672,3.59905698 C35.8955737,4.56504956 35.6150847,5.52782829 35.3231003,6.48693405 C35.1552668,7.0348961 34.982835,7.58171034 34.8081042,8.12714722 C34.7483279,8.30712302 34.6908506,8.48663971 34.6310743,8.66615639 C33.9528428,10.5845975 33.2355268,12.486051 32.4906218,14.3799291 C31.3456751,17.2903031 30.1984293,20.1995294 29.0534826,23.1089852 L42.3951003,23.1089852 C44.5608428,17.6142137 46.6300236,12.0808759 48.2370873,6.39763483 C48.8348506,4.27786878 49.3751367,2.14409951 49.8717401,0 L37.1117921,0 C36.8129105,1.20335863 36.4979352,2.40373298 36.1645672,3.59905698 Z" id="Path" fill="#FC5D4C"></path>
                    <path d="M56.3840936,7.64438049 C55.9633602,11.8453463 55.5012432,16.0421801 54.9724525,20.2309792 C54.8965826,20.8292151 54.8207126,21.427451 54.7425436,22.0252278 C54.7333472,22.0913414 54.7172536,22.2205842 54.7011599,22.3631416 C54.6689727,22.6119857 54.6321873,22.8603706 54.6,23.1089852 L67.0127854,23.1089852 C68.0197867,15.4267271 68.8129727,7.71852868 69.5049987,0 L57.1014096,0 C56.8760988,2.54927463 56.6392926,5.09763102 56.3840936,7.64438049 L56.3840936,7.64438049 Z" id="Path" fill="#FC5D4C" transform="translate(62.052499, 11.554493) scale(-1, 1) translate(-62.052499, -11.554493) "></path>
                </g>
            </g>
        </g>
    </g>
</svg>