<?xml version="1.0" encoding="UTF-8"?>
<svg width="93px" height="52px" viewBox="0 0 93 52" version="1.1" xmlns="http://www.w3.org/2000/svg" xmlns:xlink="http://www.w3.org/1999/xlink">
    <!-- Generator: Sketch 53.2 (72643) - https://sketchapp.com -->
    <title>Group 2</title>
    <desc>Created with Sketch.</desc>
    <g id="Curency-type\mint\burn" stroke="none" stroke-width="1" fill="none" fill-rule="evenodd">
        <g id="Mintable-burnable-token" transform="translate(-455.000000, -273.000000)">
            <g id="Group-2" transform="translate(455.000000, 273.000000)">
                <g id="Group">
                    <path d="M29.1842105,0 C28.2706842,0 27.3723684,0.068137931 26.4865789,0.188275862 C25.5632105,0.0645517241 24.6854737,0 23.8157895,0 C17.2287368,0 11.2885789,3.20158621 7.12,8.30565517 C7.07794737,8.34331034 7.04752632,8.38813793 7.01352632,8.43296552 C5.68484211,10.0817241 4.54315789,11.9277241 3.61978947,13.9252414 C3.59652632,13.9691724 3.57594737,14.0122069 3.55894737,14.0597241 C2.92278947,15.4556552 2.39221053,16.9224138 1.98421053,18.4501379 C1.94394737,18.5362069 1.92605263,18.6303448 1.91442105,18.728069 C1.323,21.0375862 1,23.4762069 1,26 C1,29.9484138 1.78021053,33.6915172 3.16794737,37.0464138 C3.18047368,37.0822759 3.19210526,37.1163448 3.20910526,37.1504138 C4.04121053,39.1389655 5.08805263,40.9876552 6.31652632,42.6597241 C6.34784211,42.7027586 6.37378947,42.7484828 6.41226316,42.7852414 C7.65594737,44.4573103 9.08126316,45.9464828 10.6533158,47.216 C10.6980526,47.2653103 10.7517368,47.302069 10.8072105,47.3406207 C14.4997895,50.2741379 18.9833158,52 23.8157895,52 C24.6854737,52 25.5632105,51.9354483 26.4865789,51.8117241 C27.3723684,51.9318621 28.2706842,52 29.1842105,52 C41.7651053,52 52,40.3367586 52,26 C52,11.6632414 41.7651053,0 29.1842105,0 Z" id="Path" fill="#FFFFFF"></path>
                    <g id="coin-copy" fill="#7FA0B4" fill-rule="nonzero">
                        <path d="M29.2413793,0 C28.3083966,0 27.3909483,0.068137931 26.4862931,0.188275862 C25.5432586,0.0645517241 24.6468276,0 23.7586207,0 C17.0312759,0 10.9646034,3.20158621 6.70724138,8.30565517 C6.6642931,8.34331034 6.63322414,8.38813793 6.5985,8.43296552 C5.24151724,10.0817241 4.07551724,11.9277241 3.13248276,13.9252414 C3.10872414,13.9691724 3.0877069,14.0122069 3.07034483,14.0597241 C2.42063793,15.4556552 1.87875862,16.9224138 1.46206897,18.4501379 C1.42094828,18.5362069 1.40267241,18.6303448 1.3907931,18.728069 C0.786775862,21.0375862 0.456896552,23.4762069 0.456896552,26 C0.456896552,29.9484138 1.25372414,33.6915172 2.67101724,37.0464138 C2.68381034,37.0822759 2.69568966,37.1163448 2.71305172,37.1504138 C3.56287931,39.1389655 4.63201724,40.9876552 5.88665517,42.6597241 C5.91863793,42.7027586 5.94513793,42.7484828 5.98443103,42.7852414 C7.25460345,44.4573103 8.71027586,45.9464828 10.3158103,47.216 C10.3615,47.2653103 10.4163276,47.302069 10.4729828,47.3406207 C14.2442069,50.2741379 18.8232241,52 23.7586207,52 C24.6468276,52 25.5432586,51.9354483 26.4862931,51.8117241 C27.3909483,51.9318621 28.3083966,52 29.2413793,52 C42.0902241,52 52.5431034,40.3367586 52.5431034,26 C52.5431034,11.6632414 42.0902241,0 29.2413793,0 Z M19.5917241,2.34358621 C19.2892586,2.4977931 18.9904483,2.65917241 18.6952931,2.82682759 C18.5298966,2.92096552 18.3635862,3.01151724 18.200931,3.11013793 C17.9478103,3.26255172 17.7001724,3.42393103 17.4534483,3.5862069 L15.6943966,3.5862069 C17.0303621,2.97296552 18.4248103,2.48972414 19.8786552,2.18937931 C19.7808793,2.23689655 19.6885862,2.29427586 19.5917241,2.34358621 Z M10.3806897,41.2413793 L7.10382759,41.2413793 C6.29786207,40.1242759 5.58236207,38.9237931 4.96098276,37.6551724 L8.42243103,37.6551724 C8.56589655,37.9725517 8.71301724,38.2872414 8.86744828,38.5974483 C8.93415517,38.7310345 9.00360345,38.8628276 9.07305172,38.9955172 C9.26037931,39.355931 9.45410345,39.710069 9.65605172,40.0588276 C9.73098276,40.1888276 9.80317241,40.3206207 9.88084483,40.4497241 C10.0416724,40.7177931 10.2107241,40.9795862 10.3806897,41.2413793 Z M4.53972414,15.2413793 L8.03681034,15.2413793 C7.87689655,15.6331724 7.7252069,16.0294483 7.58174138,16.4311034 C7.54244828,16.5422759 7.50224138,16.6525517 7.46386207,16.7637241 C7.33227586,17.1492414 7.20982759,17.5383448 7.09377586,17.9310345 L3.5245,17.9310345 C3.81508621,17.0066897 4.15501724,16.1101379 4.53972414,15.2413793 Z M2.28448276,26 C2.28448276,25.3957241 2.31737931,24.8004138 2.35575862,24.2068966 L5.99905172,24.2068966 C5.99813793,24.2212414 5.99813793,24.2355862 5.99722414,24.249931 C5.96341379,24.8291034 5.93965517,25.4109655 5.93965517,26 C5.93965517,26.3003448 5.95062069,26.598 5.95975862,26.8965517 L2.32012069,26.8965517 C2.31006897,26.5971034 2.28448276,26.3021379 2.28448276,26 Z M6.06393103,28.6896552 C6.09865517,29.0671034 6.14343103,29.4418621 6.19277586,29.8148276 C6.19643103,29.8417241 6.19825862,29.8695172 6.20191379,29.8973103 C6.26953448,30.3957931 6.35177586,30.8897931 6.44406897,31.3793103 L2.84006897,31.3793103 C2.66187931,30.4988966 2.52115517,29.6032414 2.43068966,28.6896552 L6.06393103,28.6896552 Z M6.63048276,19.7241379 C6.60672414,19.829931 6.58662069,19.9375172 6.56468966,20.0433103 C6.54001724,20.1616552 6.51443103,20.2791034 6.49067241,20.3974483 C6.37918966,20.9595862 6.2805,21.5271034 6.20282759,22.1026897 C6.19917241,22.1295862 6.19734483,22.1573793 6.19368966,22.1851724 C6.18272414,22.2613793 6.17632759,22.3375862 6.16627586,22.4137931 L2.53943103,22.4137931 C2.66005172,21.5011034 2.81265517,20.6009655 3.02191379,19.7241379 L6.63048276,19.7241379 Z M6.84887931,33.1724138 C6.8772069,33.2817931 6.9037069,33.3929655 6.93294828,33.5014483 C6.94391379,33.5408966 6.95305172,33.5821379 6.96401724,33.6215862 C7.1147931,34.1675862 7.28384483,34.7046207 7.46477586,35.2353793 C7.50315517,35.3474483 7.54336207,35.4568276 7.58265517,35.568 C7.61646552,35.6666207 7.65027586,35.7652414 7.68591379,35.862069 L4.16506897,35.862069 C3.81874138,34.9915172 3.52084483,34.0931724 3.26681034,33.1724138 L6.84887931,33.1724138 Z M9.87993103,11.5511724 C9.80317241,11.6793793 9.73006897,11.812069 9.65513793,11.942069 C9.45318966,12.2908276 9.25855172,12.6458621 9.07213793,13.0053793 C9.00360345,13.138069 8.93324138,13.2689655 8.86653448,13.4034483 C8.85922414,13.4177931 8.851,13.4330345 8.84368966,13.4482759 L5.41787931,13.4482759 C6.10962069,12.1688966 6.90644828,10.972 7.79008621,9.86206897 L10.9911034,9.86206897 C10.8796207,10.0189655 10.7672241,10.1749655 10.6584828,10.3345517 C10.3889138,10.7317241 10.1293966,11.1369655 9.87993103,11.5511724 Z M12.5482069,5.37931034 L15.0721034,5.37931034 C14.8454828,5.57386207 14.6188621,5.76931034 14.3986379,5.97282759 C14.2149655,6.14317241 14.0367759,6.3197931 13.8576724,6.49641379 C13.6767414,6.67482759 13.4976379,6.85593103 13.3221897,7.03972414 C13.1531379,7.21634483 12.9840862,7.39206897 12.8196034,7.57406897 C12.6733966,7.73544828 12.5335862,7.90310345 12.3919483,8.06896552 L9.37460345,8.06896552 C10.3560172,7.06751724 11.4151034,6.16468966 12.5482069,5.37931034 Z M8.5202069,43.0344828 L11.6563448,43.0344828 C11.7596034,43.1671724 11.8619483,43.2998621 11.9679483,43.4298621 C12.2439138,43.7705517 12.5281034,44.1022759 12.8196034,44.425931 C12.9831724,44.607931 13.1531379,44.7836552 13.3221897,44.9602759 C13.4985517,45.1449655 13.6776552,45.326069 13.8595,45.5044828 C13.9326034,45.5762069 14.0020517,45.6533103 14.076069,45.7241379 L11.3273793,45.7241379 C10.3231207,44.9181379 9.38465517,44.018 8.5202069,43.0344828 Z M19.8777414,49.8106207 C17.7824138,49.3775862 15.8022241,48.5832414 13.9655,47.5172414 L16.1759655,47.5172414 C16.292931,47.606 16.4135517,47.6893793 16.531431,47.7754483 C16.7205862,47.9135172 16.9097414,48.0524828 17.1025517,48.1842759 C17.4616724,48.429931 17.8281034,48.6657241 18.2000172,48.8898621 C18.3626724,48.9875862 18.5289828,49.0790345 18.6943793,49.1731724 C18.9895345,49.3408276 19.2883448,49.5022069 19.5908103,49.6564138 C19.6885862,49.7057241 19.7808793,49.7631034 19.8777414,49.8106207 Z M29.2413793,50.2068966 C28.5149138,50.2068966 27.7975862,50.1647586 27.0903103,50.0849655 L26.7366724,50.0365517 C26.6873276,50.0302759 26.6388966,50.0222069 26.5904655,50.015931 C26.2742931,49.972 25.9608621,49.9208966 25.6501724,49.8617241 C25.6236724,49.8563448 25.5980862,49.8509655 25.5725,49.8455862 C25.2700345,49.7873103 24.9703103,49.7218621 24.6733276,49.6492414 C24.6285517,49.6384828 24.5837759,49.625931 24.539,49.6142759 C24.2621207,49.5443448 23.9861552,49.4708276 23.7138448,49.3892414 C23.6306897,49.3641379 23.5475345,49.3354483 23.4643793,49.3094483 C23.2313621,49.2368276 22.9992586,49.1624138 22.7698966,49.0808276 C22.5834828,49.0144828 22.3998103,48.9409655 22.2161379,48.8692414 C22.0909483,48.8208276 21.963931,48.7751034 21.840569,48.724 C16.9271034,46.6843448 12.8525,42.674069 10.3733793,37.5475862 C10.3505345,37.5009655 10.3295172,37.4516552 10.3075862,37.4050345 C10.1750862,37.1262069 10.0462414,36.8446897 9.92287931,36.5595862 C9.87353448,36.4457241 9.82784483,36.330069 9.78032759,36.2153103 C9.68803448,35.9929655 9.59665517,35.7697241 9.51075862,35.5437931 C9.45501724,35.3985517 9.40293103,35.2506207 9.34993103,35.1035862 C9.27774138,34.9045517 9.20646552,34.7046207 9.13975862,34.5028966 C9.08493103,34.337931 9.03284483,34.1711724 8.98075862,34.0053103 C8.92136207,33.8161379 8.8637931,33.626069 8.80896552,33.4351034 C8.7577931,33.2602759 8.70936207,33.0827586 8.66275862,32.9061379 C8.61341379,32.7187586 8.56589655,32.5295862 8.5202069,32.3404138 C8.47634483,32.1593103 8.43431034,31.9782069 8.39410345,31.7953103 C8.35206897,31.6043448 8.31368966,31.4124828 8.27622414,31.2197241 C8.24058621,31.035931 8.20494828,30.8521379 8.17205172,30.6665517 C8.13732759,30.4684138 8.10717241,30.2693793 8.07701724,30.0694483 C8.04960345,29.8883448 8.02127586,29.7081379 7.99751724,29.5252414 C7.96918966,29.310069 7.94725862,29.0922069 7.92441379,28.8752414 C7.90613793,28.7057931 7.88603448,28.5372414 7.87141379,28.3668966 C7.84948276,28.1176552 7.83486207,27.8666207 7.82024138,27.6146897 C7.81201724,27.4730345 7.80013793,27.3331724 7.79374138,27.1915172 C7.7772931,26.7970345 7.76724138,26.3998621 7.76724138,26 C7.76724138,25.6001379 7.7772931,25.2029655 7.79374138,24.8075862 C7.80013793,24.665931 7.81201724,24.5251724 7.82024138,24.3844138 C7.83486207,24.1333793 7.84948276,23.8814483 7.87141379,23.6322069 C7.88603448,23.4618621 7.90613793,23.2933103 7.92441379,23.1238621 C7.94725862,22.9068966 7.97010345,22.689931 7.99751724,22.4738621 C8.02127586,22.2918621 8.04960345,22.1107586 8.07701724,21.9296552 C8.10717241,21.7297241 8.13732759,21.5306897 8.17205172,21.3325517 C8.20403448,21.1469655 8.23967241,20.9631724 8.27622414,20.7793793 C8.31368966,20.5866207 8.35298276,20.3947586 8.39410345,20.2037931 C8.43431034,20.0208966 8.47634483,19.8397931 8.5202069,19.6586897 C8.56589655,19.4695172 8.61341379,19.2803448 8.66275862,19.0929655 C8.70936207,18.9154483 8.7577931,18.7388276 8.80805172,18.5631034 C8.86287931,18.3721379 8.92044828,18.182069 8.97984483,17.9928966 C9.03193103,17.8261379 9.08401724,17.6602759 9.13884483,17.4953103 C9.20646552,17.2935862 9.27774138,17.0936552 9.34993103,16.8937241 C9.40293103,16.7466897 9.45501724,16.5996552 9.51075862,16.4544138 C9.59756897,16.2284828 9.68803448,16.0052414 9.78032759,15.7828966 C9.82784483,15.6681379 9.87353448,15.5524828 9.92287931,15.4386207 C10.0462414,15.1535172 10.1750862,14.872 10.3075862,14.5931724 C10.330431,14.5456552 10.3505345,14.4972414 10.3733793,14.4506207 C12.8525,9.32413793 16.9271034,5.31475862 21.840569,3.2742069 C21.9648448,3.22310345 22.0909483,3.17737931 22.2161379,3.12896552 C22.3998103,3.05724138 22.5834828,2.98372414 22.7698966,2.91737931 C22.9992586,2.8357931 23.2313621,2.76227586 23.4643793,2.68875862 C23.5475345,2.66275862 23.6297759,2.63406897 23.7138448,2.60896552 C23.9861552,2.52737931 24.2621207,2.45296552 24.539,2.38393103 C24.5828621,2.37406897 24.6276379,2.36062069 24.6724138,2.34986207 C24.9693966,2.27724138 25.2691207,2.21268966 25.5715862,2.15351724 C25.5980862,2.14813793 25.6236724,2.14275862 25.6492586,2.13737931 C25.9599483,2.0782069 26.2733793,2.02710345 26.5895517,1.98317241 C26.6379828,1.976 26.6873276,1.96882759 26.7357586,1.96255172 L27.0893966,1.91413793 C27.7975862,1.83524138 28.5149138,1.79310345 29.2413793,1.79310345 C41.0823103,1.79310345 50.7155172,12.6521379 50.7155172,26 C50.7155172,39.3478621 41.0823103,50.2068966 29.2413793,50.2068966 Z" id="Shape"></path>
                    </g>
                </g>
                <g id="Group" transform="translate(19.000000, 0.000000)">
                    <path d="M29.1842105,0 C28.2706842,0 27.3723684,0.068137931 26.4865789,0.188275862 C25.5632105,0.0645517241 24.6854737,0 23.8157895,0 C17.2287368,0 11.2885789,3.20158621 7.12,8.30565517 C7.07794737,8.34331034 7.04752632,8.38813793 7.01352632,8.43296552 C5.68484211,10.0817241 4.54315789,11.9277241 3.61978947,13.9252414 C3.59652632,13.9691724 3.57594737,14.0122069 3.55894737,14.0597241 C2.92278947,15.4556552 2.39221053,16.9224138 1.98421053,18.4501379 C1.94394737,18.5362069 1.92605263,18.6303448 1.91442105,18.728069 C1.323,21.0375862 1,23.4762069 1,26 C1,29.9484138 1.78021053,33.6915172 3.16794737,37.0464138 C3.18047368,37.0822759 3.19210526,37.1163448 3.20910526,37.1504138 C4.04121053,39.1389655 5.08805263,40.9876552 6.31652632,42.6597241 C6.34784211,42.7027586 6.37378947,42.7484828 6.41226316,42.7852414 C7.65594737,44.4573103 9.08126316,45.9464828 10.6533158,47.216 C10.6980526,47.2653103 10.7517368,47.302069 10.8072105,47.3406207 C14.4997895,50.2741379 18.9833158,52 23.8157895,52 C24.6854737,52 25.5632105,51.9354483 26.4865789,51.8117241 C27.3723684,51.9318621 28.2706842,52 29.1842105,52 C41.7651053,52 52,40.3367586 52,26 C52,11.6632414 41.7651053,0 29.1842105,0 Z" id="Path" fill="#FFFFFF"></path>
                    <g id="coin-copy" fill="#567588" fill-rule="nonzero">
                        <path d="M29.2413793,0 C28.3083966,0 27.3909483,0.068137931 26.4862931,0.188275862 C25.5432586,0.0645517241 24.6468276,0 23.7586207,0 C17.0312759,0 10.9646034,3.20158621 6.70724138,8.30565517 C6.6642931,8.34331034 6.63322414,8.38813793 6.5985,8.43296552 C5.24151724,10.0817241 4.07551724,11.9277241 3.13248276,13.9252414 C3.10872414,13.9691724 3.0877069,14.0122069 3.07034483,14.0597241 C2.42063793,15.4556552 1.87875862,16.9224138 1.46206897,18.4501379 C1.42094828,18.5362069 1.40267241,18.6303448 1.3907931,18.728069 C0.786775862,21.0375862 0.456896552,23.4762069 0.456896552,26 C0.456896552,29.9484138 1.25372414,33.6915172 2.67101724,37.0464138 C2.68381034,37.0822759 2.69568966,37.1163448 2.71305172,37.1504138 C3.56287931,39.1389655 4.63201724,40.9876552 5.88665517,42.6597241 C5.91863793,42.7027586 5.94513793,42.7484828 5.98443103,42.7852414 C7.25460345,44.4573103 8.71027586,45.9464828 10.3158103,47.216 C10.3615,47.2653103 10.4163276,47.302069 10.4729828,47.3406207 C14.2442069,50.2741379 18.8232241,52 23.7586207,52 C24.6468276,52 25.5432586,51.9354483 26.4862931,51.8117241 C27.3909483,51.9318621 28.3083966,52 29.2413793,52 C42.0902241,52 52.5431034,40.3367586 52.5431034,26 C52.5431034,11.6632414 42.0902241,0 29.2413793,0 Z M19.5917241,2.34358621 C19.2892586,2.4977931 18.9904483,2.65917241 18.6952931,2.82682759 C18.5298966,2.92096552 18.3635862,3.01151724 18.200931,3.11013793 C17.9478103,3.26255172 17.7001724,3.42393103 17.4534483,3.5862069 L15.6943966,3.5862069 C17.0303621,2.97296552 18.4248103,2.48972414 19.8786552,2.18937931 C19.7808793,2.23689655 19.6885862,2.29427586 19.5917241,2.34358621 Z M10.3806897,41.2413793 L7.10382759,41.2413793 C6.29786207,40.1242759 5.58236207,38.9237931 4.96098276,37.6551724 L8.42243103,37.6551724 C8.56589655,37.9725517 8.71301724,38.2872414 8.86744828,38.5974483 C8.93415517,38.7310345 9.00360345,38.8628276 9.07305172,38.9955172 C9.26037931,39.355931 9.45410345,39.710069 9.65605172,40.0588276 C9.73098276,40.1888276 9.80317241,40.3206207 9.88084483,40.4497241 C10.0416724,40.7177931 10.2107241,40.9795862 10.3806897,41.2413793 Z M4.53972414,15.2413793 L8.03681034,15.2413793 C7.87689655,15.6331724 7.7252069,16.0294483 7.58174138,16.4311034 C7.54244828,16.5422759 7.50224138,16.6525517 7.46386207,16.7637241 C7.33227586,17.1492414 7.20982759,17.5383448 7.09377586,17.9310345 L3.5245,17.9310345 C3.81508621,17.0066897 4.15501724,16.1101379 4.53972414,15.2413793 Z M2.28448276,26 C2.28448276,25.3957241 2.31737931,24.8004138 2.35575862,24.2068966 L5.99905172,24.2068966 C5.99813793,24.2212414 5.99813793,24.2355862 5.99722414,24.249931 C5.96341379,24.8291034 5.93965517,25.4109655 5.93965517,26 C5.93965517,26.3003448 5.95062069,26.598 5.95975862,26.8965517 L2.32012069,26.8965517 C2.31006897,26.5971034 2.28448276,26.3021379 2.28448276,26 Z M6.06393103,28.6896552 C6.09865517,29.0671034 6.14343103,29.4418621 6.19277586,29.8148276 C6.19643103,29.8417241 6.19825862,29.8695172 6.20191379,29.8973103 C6.26953448,30.3957931 6.35177586,30.8897931 6.44406897,31.3793103 L2.84006897,31.3793103 C2.66187931,30.4988966 2.52115517,29.6032414 2.43068966,28.6896552 L6.06393103,28.6896552 Z M6.63048276,19.7241379 C6.60672414,19.829931 6.58662069,19.9375172 6.56468966,20.0433103 C6.54001724,20.1616552 6.51443103,20.2791034 6.49067241,20.3974483 C6.37918966,20.9595862 6.2805,21.5271034 6.20282759,22.1026897 C6.19917241,22.1295862 6.19734483,22.1573793 6.19368966,22.1851724 C6.18272414,22.2613793 6.17632759,22.3375862 6.16627586,22.4137931 L2.53943103,22.4137931 C2.66005172,21.5011034 2.81265517,20.6009655 3.02191379,19.7241379 L6.63048276,19.7241379 Z M6.84887931,33.1724138 C6.8772069,33.2817931 6.9037069,33.3929655 6.93294828,33.5014483 C6.94391379,33.5408966 6.95305172,33.5821379 6.96401724,33.6215862 C7.1147931,34.1675862 7.28384483,34.7046207 7.46477586,35.2353793 C7.50315517,35.3474483 7.54336207,35.4568276 7.58265517,35.568 C7.61646552,35.6666207 7.65027586,35.7652414 7.68591379,35.862069 L4.16506897,35.862069 C3.81874138,34.9915172 3.52084483,34.0931724 3.26681034,33.1724138 L6.84887931,33.1724138 Z M9.87993103,11.5511724 C9.80317241,11.6793793 9.73006897,11.812069 9.65513793,11.942069 C9.45318966,12.2908276 9.25855172,12.6458621 9.07213793,13.0053793 C9.00360345,13.138069 8.93324138,13.2689655 8.86653448,13.4034483 C8.85922414,13.4177931 8.851,13.4330345 8.84368966,13.4482759 L5.41787931,13.4482759 C6.10962069,12.1688966 6.90644828,10.972 7.79008621,9.86206897 L10.9911034,9.86206897 C10.8796207,10.0189655 10.7672241,10.1749655 10.6584828,10.3345517 C10.3889138,10.7317241 10.1293966,11.1369655 9.87993103,11.5511724 Z M12.5482069,5.37931034 L15.0721034,5.37931034 C14.8454828,5.57386207 14.6188621,5.76931034 14.3986379,5.97282759 C14.2149655,6.14317241 14.0367759,6.3197931 13.8576724,6.49641379 C13.6767414,6.67482759 13.4976379,6.85593103 13.3221897,7.03972414 C13.1531379,7.21634483 12.9840862,7.39206897 12.8196034,7.57406897 C12.6733966,7.73544828 12.5335862,7.90310345 12.3919483,8.06896552 L9.37460345,8.06896552 C10.3560172,7.06751724 11.4151034,6.16468966 12.5482069,5.37931034 Z M8.5202069,43.0344828 L11.6563448,43.0344828 C11.7596034,43.1671724 11.8619483,43.2998621 11.9679483,43.4298621 C12.2439138,43.7705517 12.5281034,44.1022759 12.8196034,44.425931 C12.9831724,44.607931 13.1531379,44.7836552 13.3221897,44.9602759 C13.4985517,45.1449655 13.6776552,45.326069 13.8595,45.5044828 C13.9326034,45.5762069 14.0020517,45.6533103 14.076069,45.7241379 L11.3273793,45.7241379 C10.3231207,44.9181379 9.38465517,44.018 8.5202069,43.0344828 Z M19.8777414,49.8106207 C17.7824138,49.3775862 15.8022241,48.5832414 13.9655,47.5172414 L16.1759655,47.5172414 C16.292931,47.606 16.4135517,47.6893793 16.531431,47.7754483 C16.7205862,47.9135172 16.9097414,48.0524828 17.1025517,48.1842759 C17.4616724,48.429931 17.8281034,48.6657241 18.2000172,48.8898621 C18.3626724,48.9875862 18.5289828,49.0790345 18.6943793,49.1731724 C18.9895345,49.3408276 19.2883448,49.5022069 19.5908103,49.6564138 C19.6885862,49.7057241 19.7808793,49.7631034 19.8777414,49.8106207 Z M29.2413793,50.2068966 C28.5149138,50.2068966 27.7975862,50.1647586 27.0903103,50.0849655 L26.7366724,50.0365517 C26.6873276,50.0302759 26.6388966,50.0222069 26.5904655,50.015931 C26.2742931,49.972 25.9608621,49.9208966 25.6501724,49.8617241 C25.6236724,49.8563448 25.5980862,49.8509655 25.5725,49.8455862 C25.2700345,49.7873103 24.9703103,49.7218621 24.6733276,49.6492414 C24.6285517,49.6384828 24.5837759,49.625931 24.539,49.6142759 C24.2621207,49.5443448 23.9861552,49.4708276 23.7138448,49.3892414 C23.6306897,49.3641379 23.5475345,49.3354483 23.4643793,49.3094483 C23.2313621,49.2368276 22.9992586,49.1624138 22.7698966,49.0808276 C22.5834828,49.0144828 22.3998103,48.9409655 22.2161379,48.8692414 C22.0909483,48.8208276 21.963931,48.7751034 21.840569,48.724 C16.9271034,46.6843448 12.8525,42.674069 10.3733793,37.5475862 C10.3505345,37.5009655 10.3295172,37.4516552 10.3075862,37.4050345 C10.1750862,37.1262069 10.0462414,36.8446897 9.92287931,36.5595862 C9.87353448,36.4457241 9.82784483,36.330069 9.78032759,36.2153103 C9.68803448,35.9929655 9.59665517,35.7697241 9.51075862,35.5437931 C9.45501724,35.3985517 9.40293103,35.2506207 9.34993103,35.1035862 C9.27774138,34.9045517 9.20646552,34.7046207 9.13975862,34.5028966 C9.08493103,34.337931 9.03284483,34.1711724 8.98075862,34.0053103 C8.92136207,33.8161379 8.8637931,33.626069 8.80896552,33.4351034 C8.7577931,33.2602759 8.70936207,33.0827586 8.66275862,32.9061379 C8.61341379,32.7187586 8.56589655,32.5295862 8.5202069,32.3404138 C8.47634483,32.1593103 8.43431034,31.9782069 8.39410345,31.7953103 C8.35206897,31.6043448 8.31368966,31.4124828 8.27622414,31.2197241 C8.24058621,31.035931 8.20494828,30.8521379 8.17205172,30.6665517 C8.13732759,30.4684138 8.10717241,30.2693793 8.07701724,30.0694483 C8.04960345,29.8883448 8.02127586,29.7081379 7.99751724,29.5252414 C7.96918966,29.310069 7.94725862,29.0922069 7.92441379,28.8752414 C7.90613793,28.7057931 7.88603448,28.5372414 7.87141379,28.3668966 C7.84948276,28.1176552 7.83486207,27.8666207 7.82024138,27.6146897 C7.81201724,27.4730345 7.80013793,27.3331724 7.79374138,27.1915172 C7.7772931,26.7970345 7.76724138,26.3998621 7.76724138,26 C7.76724138,25.6001379 7.7772931,25.2029655 7.79374138,24.8075862 C7.80013793,24.665931 7.81201724,24.5251724 7.82024138,24.3844138 C7.83486207,24.1333793 7.84948276,23.8814483 7.87141379,23.6322069 C7.88603448,23.4618621 7.90613793,23.2933103 7.92441379,23.1238621 C7.94725862,22.9068966 7.97010345,22.689931 7.99751724,22.4738621 C8.02127586,22.2918621 8.04960345,22.1107586 8.07701724,21.9296552 C8.10717241,21.7297241 8.13732759,21.5306897 8.17205172,21.3325517 C8.20403448,21.1469655 8.23967241,20.9631724 8.27622414,20.7793793 C8.31368966,20.5866207 8.35298276,20.3947586 8.39410345,20.2037931 C8.43431034,20.0208966 8.47634483,19.8397931 8.5202069,19.6586897 C8.56589655,19.4695172 8.61341379,19.2803448 8.66275862,19.0929655 C8.70936207,18.9154483 8.7577931,18.7388276 8.80805172,18.5631034 C8.86287931,18.3721379 8.92044828,18.182069 8.97984483,17.9928966 C9.03193103,17.8261379 9.08401724,17.6602759 9.13884483,17.4953103 C9.20646552,17.2935862 9.27774138,17.0936552 9.34993103,16.8937241 C9.40293103,16.7466897 9.45501724,16.5996552 9.51075862,16.4544138 C9.59756897,16.2284828 9.68803448,16.0052414 9.78032759,15.7828966 C9.82784483,15.6681379 9.87353448,15.5524828 9.92287931,15.4386207 C10.0462414,15.1535172 10.1750862,14.872 10.3075862,14.5931724 C10.330431,14.5456552 10.3505345,14.4972414 10.3733793,14.4506207 C12.8525,9.32413793 16.9271034,5.31475862 21.840569,3.2742069 C21.9648448,3.22310345 22.0909483,3.17737931 22.2161379,3.12896552 C22.3998103,3.05724138 22.5834828,2.98372414 22.7698966,2.91737931 C22.9992586,2.8357931 23.2313621,2.76227586 23.4643793,2.68875862 C23.5475345,2.66275862 23.6297759,2.63406897 23.7138448,2.60896552 C23.9861552,2.52737931 24.2621207,2.45296552 24.539,2.38393103 C24.5828621,2.37406897 24.6276379,2.36062069 24.6724138,2.34986207 C24.9693966,2.27724138 25.2691207,2.21268966 25.5715862,2.15351724 C25.5980862,2.14813793 25.6236724,2.14275862 25.6492586,2.13737931 C25.9599483,2.0782069 26.2733793,2.02710345 26.5895517,1.98317241 C26.6379828,1.976 26.6873276,1.96882759 26.7357586,1.96255172 L27.0893966,1.91413793 C27.7975862,1.83524138 28.5149138,1.79310345 29.2413793,1.79310345 C41.0823103,1.79310345 50.7155172,12.6521379 50.7155172,26 C50.7155172,39.3478621 41.0823103,50.2068966 29.2413793,50.2068966 Z" id="Shape"></path>
                    </g>
                </g>
                <g id="Group" transform="translate(41.000000, 0.000000)">
                    <path d="M28.6315789,0 C27.7359649,0 26.8552632,0.068137931 25.9868421,0.188275862 C25.0815789,0.0645517241 24.2210526,0 23.3684211,0 C16.9105263,0 11.0868421,3.20158621 7,8.30565517 C6.95877193,8.34331034 6.92894737,8.38813793 6.89561404,8.43296552 C5.59298246,10.0817241 4.47368421,11.9277241 3.56842105,13.9252414 C3.54561404,13.9691724 3.5254386,14.0122069 3.50877193,14.0597241 C2.88508772,15.4556552 2.36491228,16.9224138 1.96491228,18.4501379 C1.9254386,18.5362069 1.90789474,18.6303448 1.89649123,18.728069 C1.31666667,21.0375862 1,23.4762069 1,26 C1,29.9484138 1.76491228,33.6915172 3.1254386,37.0464138 C3.1377193,37.0822759 3.14912281,37.1163448 3.16578947,37.1504138 C3.98157895,39.1389655 5.00789474,40.9876552 6.2122807,42.6597241 C6.24298246,42.7027586 6.26842105,42.7484828 6.30614035,42.7852414 C7.5254386,44.4573103 8.92280702,45.9464828 10.4640351,47.216 C10.5078947,47.2653103 10.5605263,47.302069 10.6149123,47.3406207 C14.2350877,50.2741379 18.6307018,52 23.3684211,52 C24.2210526,52 25.0815789,51.9354483 25.9868421,51.8117241 C26.8552632,51.9318621 27.7359649,52 28.6315789,52 C40.9657895,52 51,40.3367586 51,26 C51,11.6632414 40.9657895,0 28.6315789,0 Z" id="Path" fill="#FFFFFF"></path>
                    <g id="coin-copy" fill="#05273D" fill-rule="nonzero">
                        <path d="M28.6896552,0 C27.7742759,0 26.8741379,0.068137931 25.9865517,0.188275862 C25.0613103,0.0645517241 24.1817931,0 23.3103448,0 C16.709931,0 10.7577241,3.20158621 6.58068966,8.30565517 C6.53855172,8.34331034 6.50806897,8.38813793 6.474,8.43296552 C5.14262069,10.0817241 3.99862069,11.9277241 3.07337931,13.9252414 C3.05006897,13.9691724 3.02944828,14.0122069 3.01241379,14.0597241 C2.37496552,15.4556552 1.84331034,16.9224138 1.43448276,18.4501379 C1.39413793,18.5362069 1.3762069,18.6303448 1.36455172,18.728069 C0.771931034,21.0375862 0.448275862,23.4762069 0.448275862,26 C0.448275862,29.9484138 1.23006897,33.6915172 2.62062069,37.0464138 C2.63317241,37.0822759 2.64482759,37.1163448 2.66186207,37.1504138 C3.49565517,39.1389655 4.54462069,40.9876552 5.77558621,42.6597241 C5.80696552,42.7027586 5.83296552,42.7484828 5.87151724,42.7852414 C7.11772414,44.4573103 8.54593103,45.9464828 10.1211724,47.216 C10.166,47.2653103 10.2197931,47.302069 10.2753793,47.3406207 C13.9754483,50.2741379 18.468069,52 23.3103448,52 C24.1817931,52 25.0613103,51.9354483 25.9865517,51.8117241 C26.8741379,51.9318621 27.7742759,52 28.6896552,52 C41.296069,52 51.5517241,40.3367586 51.5517241,26 C51.5517241,11.6632414 41.296069,0 28.6896552,0 Z M19.222069,2.34358621 C18.9253103,2.4977931 18.6321379,2.65917241 18.3425517,2.82682759 C18.1802759,2.92096552 18.0171034,3.01151724 17.8575172,3.11013793 C17.6091724,3.26255172 17.3662069,3.42393103 17.1241379,3.5862069 L15.3982759,3.5862069 C16.7090345,2.97296552 18.0771724,2.48972414 19.5035862,2.18937931 C19.4076552,2.23689655 19.3171034,2.29427586 19.222069,2.34358621 Z M10.1848276,41.2413793 L6.9697931,41.2413793 C6.17903448,40.1242759 5.47703448,38.9237931 4.86737931,37.6551724 L8.26351724,37.6551724 C8.40427586,37.9725517 8.54862069,38.2872414 8.70013793,38.5974483 C8.76558621,38.7310345 8.83372414,38.8628276 8.90186207,38.9955172 C9.08565517,39.355931 9.27572414,39.710069 9.47386207,40.0588276 C9.54737931,40.1888276 9.6182069,40.3206207 9.69441379,40.4497241 C9.8522069,40.7177931 10.018069,40.9795862 10.1848276,41.2413793 Z M4.45406897,15.2413793 L7.88517241,15.2413793 C7.72827586,15.6331724 7.57944828,16.0294483 7.43868966,16.4311034 C7.40013793,16.5422759 7.36068966,16.6525517 7.32303448,16.7637241 C7.19393103,17.1492414 7.0737931,17.5383448 6.95993103,17.9310345 L3.458,17.9310345 C3.74310345,17.0066897 4.07662069,16.1101379 4.45406897,15.2413793 Z M2.24137931,26 C2.24137931,25.3957241 2.27365517,24.8004138 2.31131034,24.2068966 L5.88586207,24.2068966 C5.88496552,24.2212414 5.88496552,24.2355862 5.88406897,24.249931 C5.85089655,24.8291034 5.82758621,25.4109655 5.82758621,26 C5.82758621,26.3003448 5.83834483,26.598 5.84731034,26.8965517 L2.27634483,26.8965517 C2.26648276,26.5971034 2.24137931,26.3021379 2.24137931,26 Z M5.94951724,28.6896552 C5.98358621,29.0671034 6.02751724,29.4418621 6.07593103,29.8148276 C6.07951724,29.8417241 6.08131034,29.8695172 6.08489655,29.8973103 C6.15124138,30.3957931 6.23193103,30.8897931 6.32248276,31.3793103 L2.78648276,31.3793103 C2.61165517,30.4988966 2.47358621,29.6032414 2.38482759,28.6896552 L5.94951724,28.6896552 Z M6.50537931,19.7241379 C6.48206897,19.829931 6.46234483,19.9375172 6.44082759,20.0433103 C6.41662069,20.1616552 6.39151724,20.2791034 6.3682069,20.3974483 C6.25882759,20.9595862 6.162,21.5271034 6.0857931,22.1026897 C6.0822069,22.1295862 6.08041379,22.1573793 6.07682759,22.1851724 C6.06606897,22.2613793 6.0597931,22.3375862 6.04993103,22.4137931 L2.49151724,22.4137931 C2.60986207,21.5011034 2.75958621,20.6009655 2.96489655,19.7241379 L6.50537931,19.7241379 Z M6.71965517,33.1724138 C6.74744828,33.2817931 6.77344828,33.3929655 6.80213793,33.5014483 C6.81289655,33.5408966 6.82186207,33.5821379 6.83262069,33.6215862 C6.98055172,34.1675862 7.14641379,34.7046207 7.32393103,35.2353793 C7.36158621,35.3474483 7.40103448,35.4568276 7.43958621,35.568 C7.47275862,35.6666207 7.50593103,35.7652414 7.54089655,35.862069 L4.08648276,35.862069 C3.74668966,34.9915172 3.45441379,34.0931724 3.20517241,33.1724138 L6.71965517,33.1724138 Z M9.69351724,11.5511724 C9.6182069,11.6793793 9.54648276,11.812069 9.47296552,11.942069 C9.27482759,12.2908276 9.08386207,12.6458621 8.90096552,13.0053793 C8.83372414,13.138069 8.76468966,13.2689655 8.69924138,13.4034483 C8.69206897,13.4177931 8.684,13.4330345 8.67682759,13.4482759 L5.31565517,13.4482759 C5.99434483,12.1688966 6.77613793,10.972 7.64310345,9.86206897 L10.7837241,9.86206897 C10.6743448,10.0189655 10.564069,10.1749655 10.4573793,10.3345517 C10.1928966,10.7317241 9.93827586,11.1369655 9.69351724,11.5511724 Z M12.3114483,5.37931034 L14.7877241,5.37931034 C14.5653793,5.57386207 14.3430345,5.76931034 14.1269655,5.97282759 C13.9467586,6.14317241 13.771931,6.3197931 13.5962069,6.49641379 C13.4186897,6.67482759 13.2429655,6.85593103 13.0708276,7.03972414 C12.9049655,7.21634483 12.7391034,7.39206897 12.5777241,7.57406897 C12.4342759,7.73544828 12.2971034,7.90310345 12.1581379,8.06896552 L9.19772414,8.06896552 C10.1606207,7.06751724 11.1997241,6.16468966 12.3114483,5.37931034 Z M8.35944828,43.0344828 L11.4364138,43.0344828 C11.5377241,43.1671724 11.6381379,43.2998621 11.7421379,43.4298621 C12.0128966,43.7705517 12.2917241,44.1022759 12.5777241,44.425931 C12.7382069,44.607931 12.9049655,44.7836552 13.0708276,44.9602759 C13.2438621,45.1449655 13.4195862,45.326069 13.598,45.5044828 C13.6697241,45.5762069 13.7378621,45.6533103 13.8104828,45.7241379 L11.1136552,45.7241379 C10.1283448,44.9181379 9.20758621,44.018 8.35944828,43.0344828 Z M19.5026897,49.8106207 C17.4468966,49.3775862 15.504069,48.5832414 13.702,47.5172414 L15.8707586,47.5172414 C15.9855172,47.606 16.1038621,47.6893793 16.2195172,47.7754483 C16.4051034,47.9135172 16.5906897,48.0524828 16.7798621,48.1842759 C17.1322069,48.429931 17.4917241,48.6657241 17.8566207,48.8898621 C18.0162069,48.9875862 18.1793793,49.0790345 18.3416552,49.1731724 C18.6312414,49.3408276 18.9244138,49.5022069 19.2211724,49.6564138 C19.3171034,49.7057241 19.4076552,49.7631034 19.5026897,49.8106207 Z M28.6896552,50.2068966 C27.9768966,50.2068966 27.2731034,50.1647586 26.5791724,50.0849655 L26.2322069,50.0365517 C26.1837931,50.0302759 26.1362759,50.0222069 26.0887586,50.015931 C25.7785517,49.972 25.4710345,49.9208966 25.1662069,49.8617241 C25.1402069,49.8563448 25.1151034,49.8509655 25.09,49.8455862 C24.7932414,49.7873103 24.4991724,49.7218621 24.2077931,49.6492414 C24.1638621,49.6384828 24.119931,49.625931 24.076,49.6142759 C23.8043448,49.5443448 23.5335862,49.4708276 23.2664138,49.3892414 C23.1848276,49.3641379 23.1032414,49.3354483 23.0216552,49.3094483 C22.7930345,49.2368276 22.5653103,49.1624138 22.3402759,49.0808276 C22.1573793,49.0144828 21.9771724,48.9409655 21.7969655,48.8692414 C21.6741379,48.8208276 21.5495172,48.7751034 21.4284828,48.724 C16.6077241,46.6843448 12.61,42.674069 10.1776552,37.5475862 C10.1552414,37.5009655 10.1346207,37.4516552 10.1131034,37.4050345 C9.98310345,37.1262069 9.85668966,36.8446897 9.73565517,36.5595862 C9.68724138,36.4457241 9.64241379,36.330069 9.5957931,36.2153103 C9.50524138,35.9929655 9.41558621,35.7697241 9.33131034,35.5437931 C9.27662069,35.3985517 9.22551724,35.2506207 9.17351724,35.1035862 C9.10268966,34.9045517 9.03275862,34.7046207 8.96731034,34.5028966 C8.91351724,34.337931 8.86241379,34.1711724 8.81131034,34.0053103 C8.75303448,33.8161379 8.69655172,33.626069 8.64275862,33.4351034 C8.59255172,33.2602759 8.54503448,33.0827586 8.49931034,32.9061379 C8.45089655,32.7187586 8.40427586,32.5295862 8.35944828,32.3404138 C8.31641379,32.1593103 8.27517241,31.9782069 8.23572414,31.7953103 C8.19448276,31.6043448 8.15682759,31.4124828 8.12006897,31.2197241 C8.08510345,31.035931 8.05013793,30.8521379 8.01786207,30.6665517 C7.9837931,30.4684138 7.9542069,30.2693793 7.92462069,30.0694483 C7.89772414,29.8883448 7.86993103,29.7081379 7.84662069,29.5252414 C7.81882759,29.310069 7.79731034,29.0922069 7.77489655,28.8752414 C7.75696552,28.7057931 7.73724138,28.5372414 7.72289655,28.3668966 C7.70137931,28.1176552 7.68703448,27.8666207 7.67268966,27.6146897 C7.66462069,27.4730345 7.65296552,27.3331724 7.64668966,27.1915172 C7.63055172,26.7970345 7.62068966,26.3998621 7.62068966,26 C7.62068966,25.6001379 7.63055172,25.2029655 7.64668966,24.8075862 C7.65296552,24.665931 7.66462069,24.5251724 7.67268966,24.3844138 C7.68703448,24.1333793 7.70137931,23.8814483 7.72289655,23.6322069 C7.73724138,23.4618621 7.75696552,23.2933103 7.77489655,23.1238621 C7.79731034,22.9068966 7.81972414,22.689931 7.84662069,22.4738621 C7.86993103,22.2918621 7.89772414,22.1107586 7.92462069,21.9296552 C7.9542069,21.7297241 7.9837931,21.5306897 8.01786207,21.3325517 C8.04924138,21.1469655 8.0842069,20.9631724 8.12006897,20.7793793 C8.15682759,20.5866207 8.19537931,20.3947586 8.23572414,20.2037931 C8.27517241,20.0208966 8.31641379,19.8397931 8.35944828,19.6586897 C8.40427586,19.4695172 8.45089655,19.2803448 8.49931034,19.0929655 C8.54503448,18.9154483 8.59255172,18.7388276 8.64186207,18.5631034 C8.69565517,18.3721379 8.75213793,18.182069 8.81041379,17.9928966 C8.86151724,17.8261379 8.91262069,17.6602759 8.96641379,17.4953103 C9.03275862,17.2935862 9.10268966,17.0936552 9.17351724,16.8937241 C9.22551724,16.7466897 9.27662069,16.5996552 9.33131034,16.4544138 C9.41648276,16.2284828 9.50524138,16.0052414 9.5957931,15.7828966 C9.64241379,15.6681379 9.68724138,15.5524828 9.73565517,15.4386207 C9.85668966,15.1535172 9.98310345,14.872 10.1131034,14.5931724 C10.1355172,14.5456552 10.1552414,14.4972414 10.1776552,14.4506207 C12.61,9.32413793 16.6077241,5.31475862 21.4284828,3.2742069 C21.5504138,3.22310345 21.6741379,3.17737931 21.7969655,3.12896552 C21.9771724,3.05724138 22.1573793,2.98372414 22.3402759,2.91737931 C22.5653103,2.8357931 22.7930345,2.76227586 23.0216552,2.68875862 C23.1032414,2.66275862 23.183931,2.63406897 23.2664138,2.60896552 C23.5335862,2.52737931 23.8043448,2.45296552 24.076,2.38393103 C24.1190345,2.37406897 24.1629655,2.36062069 24.2068966,2.34986207 C24.4982759,2.27724138 24.7923448,2.21268966 25.0891034,2.15351724 C25.1151034,2.14813793 25.1402069,2.14275862 25.1653103,2.13737931 C25.4701379,2.0782069 25.7776552,2.02710345 26.0878621,1.98317241 C26.1353793,1.976 26.1837931,1.96882759 26.2313103,1.96255172 L26.5782759,1.91413793 C27.2731034,1.83524138 27.9768966,1.79310345 28.6896552,1.79310345 C40.3071724,1.79310345 49.7586207,12.6521379 49.7586207,26 C49.7586207,39.3478621 40.3071724,50.2068966 28.6896552,50.2068966 Z" id="Shape"></path>
                        <path d="M12.7014483,26 C12.7014483,25.436069 12.7238621,24.8694483 12.7677931,24.3153793 C12.8063448,23.8222759 12.4387586,23.3901379 11.9447586,23.3506897 C11.4489655,23.3148276 11.0195172,23.6806207 10.980069,24.1737241 C10.9325517,24.7735172 10.9083448,25.3885517 10.9083448,26 L10.9083448,26.0188276 C10.9083448,26.5137241 11.31,26.9055172 11.8048966,26.9055172 C12.2997931,26.9055172 12.7014483,26.4948966 12.7014483,26 Z" id="Path"></path>
                        <path d="M44.0511724,20.8824828 C44.1533793,21.2895172 44.5182759,21.5602759 44.919931,21.5602759 C44.9925517,21.5602759 45.066069,21.5513103 45.1395862,21.5333793 C45.6192414,21.4123448 45.9106207,20.9255172 45.7904828,20.4449655 C45.6398621,19.846069 45.4632414,19.2489655 45.2642069,18.6697931 C45.1037241,18.2017931 44.5944828,17.9498621 44.1255862,18.1121379 C43.6575862,18.2726207 43.4074483,18.7827586 43.567931,19.2507586 C43.749931,19.7824138 43.9122069,20.332 44.0511724,20.8824828 Z" id="Path"></path>
                        <path d="M40.3645517,38.5687586 C40.005931,39.0098621 39.6266897,39.4321379 39.2375862,39.8257241 C38.8888276,40.1771724 38.8915172,40.7446897 39.2429655,41.0934483 C39.4177931,41.2664828 39.6464138,41.3534483 39.8741379,41.3534483 C40.1045517,41.3534483 40.3358621,41.2646897 40.5106897,41.088069 C40.941931,40.6532414 41.3606207,40.1861379 41.756,39.7002069 C42.0688966,39.3155862 42.0097241,38.7507586 41.626,38.4387586 C41.2422759,38.1258621 40.6774483,38.1850345 40.3645517,38.5687586 Z" id="Path"></path>
                        <path d="M13.3191724,31.0825517 C13.199931,30.602 12.7113103,30.307931 12.2325517,30.4289655 C11.752,30.5482069 11.4597241,31.0350345 11.5789655,31.5155862 C11.7277931,32.1135862 11.9035172,32.7115862 12.1016552,33.2925517 C12.2289655,33.6655172 12.5768276,33.9004138 12.9497931,33.9004138 C13.0457241,33.9004138 13.1434483,33.8842759 13.2393793,33.852 C13.7073793,33.6924138 13.9584138,33.1831724 13.7988276,32.7142759 C13.6177241,32.1817241 13.4563448,31.6321379 13.3191724,31.0825517 Z" id="Path"></path>
                        <path d="M37.5278621,8.47151724 C37.0042759,8.12993103 36.4573793,7.81524138 35.9033103,7.53641379 C35.4604138,7.31227586 34.9224828,7.49248276 34.6992414,7.93268966 C34.476,8.37468966 34.6535172,8.91441379 35.0955172,9.13675862 C35.5913103,9.38689655 36.079931,9.66841379 36.5488276,9.97413793 C36.6994483,10.0727586 36.8697931,10.1193793 37.0374483,10.1193793 C37.3306207,10.1193793 37.6175172,9.97593103 37.7896552,9.71234483 C38.0595172,9.29813793 37.9429655,8.74227586 37.5278621,8.47151724 Z" id="Path"></path>
                        <path d="M35.1932414,42.8130345 C34.6947586,43.0685517 34.1801379,43.2971724 33.6637241,43.4917241 C33.2002069,43.6656552 32.9662069,44.1829655 33.1410345,44.6464828 C33.2764138,45.006 33.6171034,45.2274483 33.9802069,45.2274483 C34.0851034,45.2274483 34.1917931,45.2086207 34.2966897,45.1691724 C34.8767586,44.9504138 35.4541379,44.6948966 36.0126897,44.408 C36.4528966,44.182069 36.6277241,43.6414483 36.4008966,43.2012414 C36.174069,42.7610345 35.6334483,42.5862069 35.1932414,42.8130345 Z" id="Path"></path>
                        <path d="M42.7924138,13.6966207 C42.4436552,13.1811034 42.0688966,12.679931 41.678,12.2056552 C41.3633103,11.8237241 40.7975862,11.7681379 40.4156552,12.0837241 C40.0337241,12.3984138 39.9790345,12.9632414 40.2937241,13.346069 C40.6487586,13.7773103 40.9894483,14.2336552 41.3068276,14.7016552 C41.4798621,14.958069 41.7622759,15.0952414 42.050069,15.0952414 C42.2231034,15.0952414 42.397931,15.0450345 42.5521379,14.9410345 C42.9627586,14.6631034 43.0703448,14.1063448 42.7924138,13.6966207 Z" id="Path"></path>
                        <path d="M45.5744138,25.0747586 C45.0795172,25.0747586 44.6778621,25.5051034 44.6778621,26 C44.6778621,26.5495862 44.6563448,27.1045517 44.6142069,27.6478621 C44.5765517,28.1418621 44.9450345,28.5731034 45.4390345,28.6107586 C45.4623448,28.6125517 45.4856552,28.6134483 45.5089655,28.6134483 C45.9724828,28.6134483 46.366069,28.2566207 46.401931,27.785931 C46.4476552,27.196 46.4709655,26.5953103 46.4709655,25.9991034 L46.4709655,25.9408276 C46.4709655,25.4468276 46.0702069,25.0747586 45.5744138,25.0747586 Z" id="Path"></path>
                        <path d="M44.7388276,32.0804138 C44.2690345,31.9226207 43.7615862,32.1754483 43.6028966,32.6443448 C43.4217931,33.1813793 43.2164828,33.7148276 42.9923448,34.2303448 C42.7951034,34.684 43.0022069,35.2129655 43.4567586,35.4102069 C43.5733103,35.4613103 43.6952414,35.4846207 43.8144828,35.4846207 C44.1605517,35.4846207 44.4895862,35.2828966 44.6366207,34.9457931 C44.8813793,34.3836552 45.1055172,33.8008966 45.3027586,33.2154483 C45.4614483,32.7465517 45.2086207,32.2382069 44.7388276,32.0804138 Z" id="Path"></path>
                        <path d="M30.5266897,5.91275862 C29.9188276,5.84193103 29.3011034,5.80606897 28.6896552,5.80606897 L28.652,5.80606897 C28.1571034,5.80606897 27.7742759,6.20772414 27.7742759,6.70262069 C27.7742759,7.19751724 28.1947586,7.59917241 28.6896552,7.59917241 C29.232069,7.59917241 29.7807586,7.63055172 30.3204828,7.69331034 C30.3554483,7.6977931 30.3904138,7.69958621 30.4253793,7.69958621 C30.8736552,7.69958621 31.2618621,7.36337931 31.3147586,6.90613793 C31.3712414,6.41393103 31.0188966,5.96924138 30.5266897,5.91275862 Z" id="Path"></path>
                        <path d="M16.0509655,37.2678621 C15.773931,36.8563448 15.2162759,36.7487586 14.8065517,37.0257931 C14.395931,37.3028276 14.2874483,37.8595862 14.5644828,38.2702069 C14.9123448,38.7857241 15.2862069,39.2877931 15.6753103,39.7629655 C15.8528276,39.9790345 16.1101379,40.0911034 16.3692414,40.0911034 C16.5691724,40.0911034 16.7708966,40.0247586 16.9376552,39.8875862 C17.3204828,39.5728966 17.376069,39.0089655 17.0622759,38.6252414 C16.7081379,38.1948966 16.3674483,37.7376552 16.0509655,37.2678621 Z" id="Path"></path>
                        <path d="M13.9386897,16.5548276 C13.4841379,16.3575862 12.9569655,16.5628966 12.757931,17.0174483 C12.5113793,17.5813793 12.2863448,18.1632414 12.0882069,18.746 C11.9295172,19.2148966 12.1805517,19.7241379 12.6494483,19.8837241 C12.7444828,19.916 12.8422069,19.9312414 12.9372414,19.9312414 C13.3111034,19.9312414 13.6598621,19.6954483 13.7862759,19.3224828 C13.9673793,18.7872414 14.1744828,18.2537931 14.4004138,17.7355862 C14.6003448,17.281931 14.3932414,16.7529655 13.9386897,16.5548276 Z" id="Path"></path>
                        <path d="M28.6896552,44.4008276 C28.132,44.4008276 27.5716552,44.3676552 27.0238621,44.3022069 C26.5352414,44.2502069 26.086069,44.5944828 26.0268966,45.0866897 C25.9686207,45.578 26.3191724,46.0244828 26.8113793,46.0836552 C27.43,46.1571724 28.0629655,46.1948276 28.6905517,46.1948276 L28.7676552,46.1948276 C29.2625517,46.1948276 29.6256552,45.7931724 29.6256552,45.2982759 C29.6256552,44.8033793 29.1845517,44.4008276 28.6896552,44.4008276 Z" id="Path"></path>
                        <path d="M16.8964138,10.8832414 C16.4651724,11.318069 16.0446897,11.7833793 15.6493103,12.2684138 C15.3355172,12.6521379 15.3928966,13.2169655 15.7766207,13.5298621 C15.9433793,13.6661379 16.1442069,13.7324828 16.3432414,13.7324828 C16.6032414,13.7324828 16.8605517,13.6204138 17.038069,13.4034483 C17.3975862,12.9632414 17.7777241,12.5409655 18.1686207,12.1482759 C18.5173793,11.7968276 18.5155862,11.2293103 18.1650345,10.8796552 C17.8135862,10.5308966 17.2469655,10.5335862 16.8964138,10.8832414 Z" id="Path"></path>
                        <path d="M23.1211724,6.81558621 C22.5402069,7.03344828 21.961931,7.28806897 21.4033793,7.57317241 C20.9622759,7.79731034 20.7865517,8.33793103 21.0115862,8.77903448 C21.1693793,9.09013793 21.484069,9.26855172 21.8113103,9.26855172 C21.9484828,9.26855172 22.0874483,9.23717241 22.2174483,9.17082759 C22.715931,8.91710345 23.2314483,8.68937931 23.7487586,8.49572414 C24.2122759,8.3217931 24.448069,7.80537931 24.2741379,7.34186207 C24.102,6.87655172 23.5837931,6.64165517 23.1211724,6.81558621 Z" id="Path"></path>
                        <path d="M22.2515172,42.8471034 C21.7584138,42.5969655 21.2697931,42.3136552 20.8,42.0061379 C20.3848966,41.7353793 19.8308276,41.851931 19.5582759,42.2652414 C19.2875172,42.6794483 19.4031724,43.2353103 19.8173793,43.506069 C20.3418621,43.8494483 20.8878621,44.165931 21.4392414,44.4456552 C21.5692414,44.512 21.7082069,44.5424828 21.8444828,44.5424828 C22.1717241,44.5424828 22.4864138,44.3631724 22.6451034,44.052069 C22.8692414,43.6109655 22.6926207,43.0712414 22.2515172,42.8471034 Z" id="Path"></path>
                    </g>
                </g>
            </g>
        </g>
    </g>
</svg>