<?xml version="1.0" encoding="UTF-8"?>
<svg width="168px" height="169px" viewBox="0 0 168 169" version="1.1" xmlns="http://www.w3.org/2000/svg" xmlns:xlink="http://www.w3.org/1999/xlink">
    <!-- Generator: Sketch 57.1 (83088) - https://sketch.com -->
    <title>Group</title>
    <desc>Created with Sketch.</desc>
    <defs>
        <linearGradient x1="54.113193%" y1="44.5949236%" x2="-13.4818354%" y2="113.134729%" id="linearGradient-1">
            <stop stop-color="#FEFF00" offset="0%"></stop>
            <stop stop-color="#46FFB3" offset="100%"></stop>
        </linearGradient>
        <filter x="-5.4%" y="-5.3%" width="110.7%" height="110.6%" filterUnits="objectBoundingBox" id="filter-2">
            <feGaussianBlur stdDeviation="2" in="SourceGraphic"></feGaussianBlur>
        </filter>
        <path d="M14.562,2.511 C5.656,8.853 -0.066,19.324 0.095,31.228 L0.095,31.228 C2.12,31.281 4.117,31.092 6.034,30.796 L6.034,30.796 C3.092,35.977 0.012,43.405 0.093,49.909 L0.093,49.909 C6.597,50.017 14.022,46.936 19.204,43.966 L19.204,43.966 C18.908,45.882 18.718,47.88 18.746,49.905 L18.746,49.905 C28.57,50.067 37.369,46.206 43.711,39.864 L43.711,39.864 C45.087,38.488 46.329,37.03 47.463,35.438 L47.463,35.438 C48.273,34.304 49.029,33.09 49.676,31.848 L49.676,31.848 C49.541,31.875 49.406,31.902 49.217,31.875 L49.217,31.875 C48.812,28.799 48.002,25.776 46.788,22.861 L46.788,22.861 C46.005,20.944 45.033,19.109 43.9,17.327 L43.9,17.327 C42.496,15.087 40.85,12.982 38.907,11.039 L38.907,11.039 C36.963,9.096 34.859,7.422 32.619,6.019 L32.619,6.019 C30.838,4.885 29.002,3.941 27.085,3.158 L27.085,3.158 C24.17,1.944 21.148,1.134 18.071,0.729 L18.071,0.729 C18.098,0.594 18.124,0.432 18.152,0.297 L18.152,0.297 C16.911,0.945 15.696,1.701 14.562,2.511" id="path-3"></path>
        <linearGradient x1="54.1900497%" y1="44.5949236%" x2="-14.6680197%" y2="113.134729%" id="linearGradient-5">
            <stop stop-color="#FEFF00" offset="0%"></stop>
            <stop stop-color="#46FFB3" offset="100%"></stop>
        </linearGradient>
        <linearGradient x1="33.7465552%" y1="66.5521401%" x2="61.4191698%" y2="38.7955877%" id="linearGradient-6">
            <stop stop-color="#7692A4" offset="0%"></stop>
            <stop stop-color="#41596B" offset="100%"></stop>
        </linearGradient>
        <linearGradient x1="19.4626504%" y1="79.6759431%" x2="83.0537576%" y2="18.8437667%" id="linearGradient-7">
            <stop stop-color="#CFDEDE" offset="0%"></stop>
            <stop stop-color="#98B7B7" offset="100%"></stop>
        </linearGradient>
        <linearGradient x1="0%" y1="42.184627%" x2="100%" y2="42.184627%" id="linearGradient-8">
            <stop stop-color="#81A1B2" offset="0%"></stop>
            <stop stop-color="#4A687B" offset="100%"></stop>
        </linearGradient>
        <path d="M116.022012,38.0449 C121.545248,38.0449 126.022012,42.5222018 126.022012,48.0452463 C126.022012,53.5682907 121.545248,58.0449 116.022012,58.0449 C110.498776,58.0449 106.022012,53.5682907 106.022012,48.0452463 C106.022012,42.5222018 110.498776,38.0449 116.022012,38.0449" id="path-9"></path>
        <filter x="-10.0%" y="-10.0%" width="120.0%" height="120.0%" filterUnits="objectBoundingBox" id="filter-10">
            <feGaussianBlur stdDeviation="1.5" in="SourceAlpha" result="shadowBlurInner1"></feGaussianBlur>
            <feOffset dx="0" dy="1" in="shadowBlurInner1" result="shadowOffsetInner1"></feOffset>
            <feComposite in="shadowOffsetInner1" in2="SourceAlpha" operator="arithmetic" k2="-1" k3="1" result="shadowInnerInner1"></feComposite>
            <feColorMatrix values="0 0 0 0 0.0199004372   0 0 0 0 0.134266512   0 0 0 0 0.206153759  0 0 0 0.2 0" type="matrix" in="shadowInnerInner1"></feColorMatrix>
        </filter>
        <linearGradient x1="100%" y1="0%" x2="4.20105497%" y2="94.9462555%" id="linearGradient-11">
            <stop stop-color="#7692A4" offset="0%"></stop>
            <stop stop-color="#41596B" offset="100%"></stop>
        </linearGradient>
        <polygon id="path-12" points="0.5059 0.742 35.304 0.742 35.304 35.5219 0.5059 35.5219"></polygon>
        <linearGradient x1="15.1514574%" y1="85.294371%" x2="94.6979232%" y2="8.0323557%" id="linearGradient-14">
            <stop stop-color="#628197" offset="0%"></stop>
            <stop stop-color="#334A5E" offset="100%"></stop>
        </linearGradient>
    </defs>
    <g id="DApp-home-page" stroke="none" stroke-width="1" fill="none" fill-rule="evenodd">
        <g id="Getting-started" transform="translate(-895.000000, -302.000000)">
            <g id="Group" transform="translate(898.959988, 301.258000)">
                <path d="M4.04001194,122.15316 C8.04226557,122.257847 21.9974088,113.568859 25.7862089,112.984195 C19.9715767,123.217803 -0.159140702,153.045568 -4.97379915e-14,165.892391 C12.8555952,166.105714 41.5738642,144.864224 51.8156807,138.997825 C51.2306599,142.782344 42.585792,156.20019 42.6411319,160.200008 C62.0574971,160.519993 87.717378,143.422315 100.251843,130.895478 C102.971399,128.177577 105.426115,125.297708 107.667377,122.15316 C109.268279,119.913262 110.762453,117.515346 112.041198,115.062125 C111.774381,115.115456 111.507564,115.168787 111.13402,115.115456 C110.33357,109.039683 108.732668,103.068597 106.333293,97.3108345 C104.785754,93.5243403 102.864673,89.899814 100.625387,86.3799743 C97.8504913,81.9554844 94.5973014,77.7976491 90.7571143,73.9597991 C86.9149509,70.1219492 82.7565599,66.8154332 78.3293757,64.0442013 C74.8093689,61.8043033 71.180659,59.9396969 67.3918589,58.3931007 C61.63059,55.9951852 55.6578441,54.395258 49.576395,53.5952945 C49.6297584,53.32864 49.6811454,53.0086545 49.7364852,52.742 C47.2837461,54.0219417 44.8823939,55.515207 42.6411319,57.1151342 C25.0391216,69.6419711 3.72180807,98.6401567 4.04001194,122.15316 Z" id="Fill-1" fill="url(#linearGradient-1)" opacity="0.297313" filter="url(#filter-2)"></path>
                <g id="Group-3" transform="translate(33.040012, 81.000000)">
                    <mask id="mask-4" fill="white">
                        <use xlink:href="#path-3"></use>
                    </mask>
                    <g id="Clip-2"></g>
                    <path d="M14.562,2.511 C5.656,8.853 -0.066,19.324 0.095,31.228 L0.095,31.228 C2.12,31.281 4.117,31.092 6.034,30.796 L6.034,30.796 C3.092,35.977 0.012,43.405 0.093,49.909 L0.093,49.909 C6.597,50.017 14.022,46.936 19.204,43.966 L19.204,43.966 C18.908,45.882 18.718,47.88 18.746,49.905 L18.746,49.905 C28.57,50.067 37.369,46.206 43.711,39.864 L43.711,39.864 C45.087,38.488 46.329,37.03 47.463,35.438 L47.463,35.438 C48.273,34.304 49.029,33.09 49.676,31.848 L49.676,31.848 C49.541,31.875 49.406,31.902 49.217,31.875 L49.217,31.875 C48.812,28.799 48.002,25.776 46.788,22.861 L46.788,22.861 C46.005,20.944 45.033,19.109 43.9,17.327 L43.9,17.327 C42.496,15.087 40.85,12.982 38.907,11.039 L38.907,11.039 C36.963,9.096 34.859,7.422 32.619,6.019 L32.619,6.019 C30.838,4.885 29.002,3.941 27.085,3.158 L27.085,3.158 C24.17,1.944 21.148,1.134 18.071,0.729 L18.071,0.729 C18.098,0.594 18.124,0.432 18.152,0.297 L18.152,0.297 C16.911,0.945 15.696,1.701 14.562,2.511" id="Fill-1" fill="url(#linearGradient-5)" mask="url(#mask-4)"></path>
                </g>
                <path d="M62.0220119,89.584 C64.4740119,91.12 66.7780119,92.952 68.9050119,95.078 C71.0320119,97.205 72.8340119,99.509 74.3700119,101.961 C75.6110119,103.911 76.6730119,105.919 77.5310119,108.017 C78.7470119,110.935 79.5730119,113.954 80.0470119,117.024 C80.1960119,116.826 80.3580119,116.641 80.5020119,116.438 C81.3130119,115.304 82.0680119,114.09 82.7160119,112.848 C82.5820119,112.875 82.4460119,112.902 82.2570119,112.875 C81.8520119,109.798 81.0430119,106.775 79.8290119,103.86 C79.0450119,101.944 78.0740119,100.109 76.9400119,98.328 C75.5370119,96.087 73.8900119,93.982 71.9470119,92.039 C70.0030119,90.096 67.8990119,88.422 65.6590119,87.019 C63.8770119,85.885 62.0420119,84.94 60.1260119,84.158 C57.2100119,82.943 54.1880119,82.134 51.1110119,81.729 C51.1380119,81.594 51.1650119,81.432 51.1920119,81.297 C49.9510119,81.945 48.7360119,82.7 47.6020119,83.51 C47.4080119,83.649 47.2270119,83.806 47.0360119,83.949 C50.0800119,84.426 53.0740119,85.247 55.9670119,86.453 C58.0640119,87.31 60.0730119,88.343 62.0220119,89.584" id="Fill-4" fill="#F4E200"></path>
                <g id="Group-8" transform="translate(23.040012, 43.000000)" fill="url(#linearGradient-6)">
                    <path d="M55.1685,97 C55.8705,96.406 56.5995,95.758 57.2735,95.057 C64.0485,88.282 67.7465,79.619 68.3945,70.739 C69.2035,59.997 65.5065,48.958 57.2735,40.726 C49.0425,32.494 38.0295,28.796 27.2615,29.606 C18.4085,30.254 9.7175,33.952 2.9425,40.726 C2.2685,41.401 1.6205,42.129 0.9995,42.831 C2.2955,32.494 6.8835,22.481 14.8185,14.546 C22.2405,7.124 31.4445,2.616 41.0255,0.997 C55.9785,-1.513 71.8755,2.994 83.4275,14.546 C94.9515,26.07 99.4855,41.995 96.9765,56.947 C95.3565,66.555 90.8495,75.759 83.4275,83.154 C75.5195,91.116 65.5065,95.705 55.1685,97" id="Fill-6"></path>
                </g>
                <path d="M120.043512,99.9741 C111.406512,105.9381 101.798512,110.6621 91.4605119,113.7661 C92.2715119,103.0241 88.5725119,91.9851 80.3415119,83.7531 C72.1085119,75.5211 61.0975119,71.8231 50.3285119,72.6331 C53.4325119,62.2691 58.1555119,52.6611 64.1195119,44.0511 C79.0725119,41.5401 94.9695119,46.0481 106.521512,57.5991 C118.019512,69.0981 122.553512,85.0211 120.043512,99.9741" id="Fill-9" fill="#25435A"></path>
                <path d="M82.3110119,112.9292 C81.6100119,107.8282 79.8550119,102.8622 76.9950119,98.3812 C75.5900119,96.1412 73.9170119,94.0362 71.9740119,92.0932 C70.0310119,90.1492 67.9250119,88.4762 65.6850119,87.0732 C61.2060119,84.2122 56.2390119,82.4572 51.1380119,81.7562 C59.1810119,43.0792 89.7600119,12.6342 128.545012,4.8342 C134.888012,3.5662 155.920012,-2.3648 161.176012,2.8912 C166.305012,8.0202 160.501012,29.1792 159.233012,35.5222 C151.432012,74.3062 120.988012,104.8862 82.3110119,112.9292" id="Fill-11" fill="url(#linearGradient-7)"></path>
                <path d="M131.352112,32.7148 C122.877112,24.2398 109.139112,24.2398 100.665112,32.7148 C96.4271119,36.9528 94.2941119,42.5118 94.3218398,48.0718 C94.3491119,53.6048 96.4541119,59.1648 100.665112,63.3758 C104.874112,67.5858 110.408112,69.7178 115.941112,69.7450532 C121.528112,69.7718 127.087112,67.6398 131.325112,63.3758 C139.827112,54.9278 139.827112,41.1898 131.352112,32.7148" id="Fill-13" fill="#CAE4E5"></path>
                <path d="M116.022012,33.6054 C123.997012,33.6054 130.461012,40.0704 130.461012,48.0454 C130.461012,56.0204 123.997012,62.4844 116.022012,62.4844 C108.047012,62.4844 101.583012,56.0204 101.583012,48.0454 C101.583012,40.0704 108.047012,33.6054 116.022012,33.6054" id="Fill-15" fill="url(#linearGradient-8)"></path>
                <g id="Fill-15">
                    <use fill="#51758B" fill-rule="evenodd" xlink:href="#path-9"></use>
                    <use fill="black" fill-opacity="1" filter="url(#filter-10)" xlink:href="#path-9"></use>
                </g>
                <path d="M55.9153119,108.1521 C70.3273119,103.0781 86.1443119,87.2881 91.2183119,72.8491 C76.7793119,77.9231 60.9623119,93.7391 55.9153119,108.1521 Z" id="Fill-17" fill="url(#linearGradient-11)"></path>
                <g id="Group-21" transform="translate(128.040012, 0.000000)">
                    <mask id="mask-13" fill="white">
                        <use xlink:href="#path-12"></use>
                    </mask>
                    <g id="Clip-20"></g>
                    <path d="M31.1929,35.5219 L0.5059,4.8349 C6.8479,3.5659 27.8539,-2.3911 33.1359,2.8909 C38.4599,8.2149 32.4619,29.1789 31.1929,35.5219" id="Fill-19" fill="url(#linearGradient-14)" mask="url(#mask-13)"></path>
                </g>
            </g>
        </g>
    </g>
</svg>