<?xml version="1.0" encoding="UTF-8"?>
<svg width="14px" height="25px" viewBox="0 0 14 25" version="1.1" xmlns="http://www.w3.org/2000/svg" xmlns:xlink="http://www.w3.org/1999/xlink">
    <!-- Generator: Sketch 60.1 (88133) - https://sketch.com -->
    <title>Group</title>
    <desc>Created with Sketch.</desc>
    <g id="New-Dapp" stroke="none" stroke-width="1" fill="none" fill-rule="evenodd">
        <g id="Issue-a-community-currency" transform="translate(-258.000000, -517.000000)">
            <g id="Group" transform="translate(259.000000, 517.000000)">
                <rect id="Rectangle" stroke="#4A687B" stroke-width="1.1" x="0" y="0.55" width="12.1" height="23.1" rx="2.2"></rect>
                <rect id="Rectangle" fill="#4A687B" x="2.75" y="0" width="6.6" height="2.2" rx="1.1"></rect>
                <g id="icons8-us-dollar" transform="translate(3.850000, 8.250000)" fill="#4A687B" fill-rule="nonzero">
                    <path d="M2.9208795,3.63371319 L1.84293588,3.37292038 C1.51259831,3.28598944 1.30396406,3.00781044 1.30396406,2.67747288 C1.30396406,2.27759056 1.63430163,1.947253 2.03418394,1.947253 L2.55576956,1.947253 C2.9208795,1.947253 3.21644469,2.24281819 3.21644469,2.60792812 C3.21644469,2.90349331 3.44246512,3.12951375 3.73803031,3.12951375 C4.0335955,3.12951375 4.25961594,2.90349331 4.25961594,2.60792812 C4.25961594,1.73861875 3.616327,1.02578506 2.78179,0.921467937 L2.78179,0.6954475 C2.78179,0.399882312 2.55576956,0.173861875 2.26020437,0.173861875 C1.96463919,0.173861875 1.73861875,0.399882312 1.73861875,0.6954475 L1.73861875,0.938854125 C0.90408175,1.07794362 0.260792813,1.8081635 0.260792813,2.67747288 C0.260792813,3.49462369 0.817150813,4.19007119 1.59952925,4.39870544 L2.67747288,4.65949825 C3.00781044,4.74642919 3.21644469,5.02460819 3.21644469,5.35494575 C3.21644469,5.75482806 2.88610712,6.08516563 2.48622481,6.08516563 L1.96463919,6.08516563 C1.59952925,6.08516563 1.30396406,5.78960044 1.30396406,5.4244905 C1.30396406,5.12892531 1.07794363,4.90290488 0.782378438,4.90290488 C0.48681325,4.90290488 0.260792813,5.12892531 0.260792813,5.4244905 C0.260792813,6.29379988 0.90408175,7.00663356 1.73861875,7.11095069 L1.73861875,7.33697113 C1.73861875,7.63253631 1.96463919,7.85855675 2.26020437,7.85855675 C2.55576956,7.85855675 2.78179,7.63253631 2.78179,7.33697113 L2.78179,7.0935645 C3.616327,6.954475 4.25961594,6.22425512 4.25961594,5.35494575 C4.25961594,4.52040875 3.70325794,3.82496125 2.9208795,3.63371319 Z" id="Path"></path>
                </g>
            </g>
        </g>
    </g>
</svg>