<?xml version="1.0" encoding="UTF-8"?>
<svg width="24px" height="22px" viewBox="0 0 24 22" version="1.1"
  xmlns="http://www.w3.org/2000/svg"
  xmlns:xlink="http://www.w3.org/1999/xlink">
  <!-- Generator: Sketch 56.3 (81716) - https://sketch.com -->
  <title>wallet-12 copy</title>
  <desc>Created with Sketch.</desc>
  <defs>
    <linearGradient x1="0%" y1="50%" x2="100%" y2="50%" id="linearGradient-1">
      <stop stop-color="#052235" offset="0%"></stop>
      <stop stop-color="#4A687B" offset="100%"></stop>
    </linearGradient>
  </defs>
  <g id="Page-1" stroke="none" stroke-width="1" fill="none" fill-rule="evenodd">
    <g id="Artboard-Copy-24" transform="translate(-1774.000000, -34.000000)" fill-rule="nonzero">
      <g id="Group-32" transform="translate(1752.000000, 25.000000)">
        <g id="wallet-12-copy" transform="translate(21.348315, 7.865169)">
          <g id="Group-2">
            <path d="M22.6097861,5.24446717 L18.090264,5.24446717 L4.14916748,5.24446717 L4.14916748,5.21822062 C3.55412068,5.15260426 3.10075169,4.69328968 3.10075169,4.12898891 C3.10075169,3.56468815 3.56828846,3.10537357 4.14916748,3.0397572 C4.17750305,3.0397572 4.19167083,3.02663393 4.22000639,3.02663393 L20.3146056,3.02663393 C20.3429411,3.02663393 20.3712767,3.01351066 20.3996123,3.01351066 C20.8813168,2.97414083 21.2780147,2.5935659 21.2780147,2.13425132 C21.2780147,1.6486902 20.8388135,1.24186872 20.3146056,1.24186872 L2.7182216,1.24186872 C2.7182216,1.24186872 2.70405382,1.24186872 2.70405382,1.24186872 C2.70405382,1.24186872 2.68988604,1.24186872 2.68988604,1.24186872 C1.88232253,1.24186872 1.2306046,1.8455393 1.2306046,2.5935659 L1.2306046,6.88487637 C1.2306046,6.88487637 1.2306046,6.88487637 1.2306046,6.88487637 L1.2306046,21.3729705 C1.2306046,22.2784763 2.02400034,23.0133797 3.00157722,23.0133797 L22.6239539,23.0133797 C23.6015308,23.0133797 24.3949265,22.2784763 24.3949265,21.3729705 L24.3949265,6.88487637 C24.3807587,5.99249377 23.587363,5.24446717 22.6097861,5.24446717 Z M20.5342062,17.0756949 C19.4653291,17.0756949 18.603846,16.1924029 18.603846,15.0964666 C18.603846,14.0005303 19.4653291,13.1172383 20.5342062,13.1172383 C21.6030833,13.1172383 22.4645664,14.0005303 22.4645664,15.0964666 C22.4645664,16.1924029 21.5871299,17.0756949 20.5342062,17.0756949 Z" id="Shape" fill="#ABC3D2"></path>
            <g id="Shape-Copy" transform="translate(0.506720, 0.737360)" fill="url(#linearGradient-1)">
              <path d="M22.1030666,4.50710762 L17.5835444,4.50710762 L3.64244794,4.50710762 L3.64244794,4.48086107 C3.04740114,4.41524471 2.59403215,3.95593013 2.59403215,3.39162936 C2.59403215,2.8273286 3.06156892,2.36801402 3.64244794,2.30239765 C3.6707835,2.30239765 3.68495129,2.28927438 3.71328685,2.28927438 L19.807886,2.28927438 C19.8362216,2.28927438 19.8645572,2.27615111 19.8928927,2.27615111 C20.3745973,2.23678128 20.7712952,1.85620635 20.7712952,1.39689177 C20.7712952,0.911330648 20.3320939,0.504509166 19.807886,0.504509166 L2.21150206,0.504509166 C2.21150206,0.504509166 2.19733428,0.504509166 2.19733428,0.504509166 C2.19733428,0.504509166 2.1831665,0.504509166 2.1831665,0.504509166 C1.37560298,0.504509166 0.72388506,1.10817975 0.72388506,1.85620635 L0.72388506,6.14751682 L0.72388506,20.6356109 C0.72388506,21.5411168 1.51728079,22.2760201 2.49485768,22.2760201 L22.1172343,22.2760201 C23.0948112,22.2760201 23.888207,21.5411168 23.888207,20.6356109 L23.888207,6.14751682 C23.8740392,5.25513422 23.0806435,4.50710762 22.1030666,4.50710762 Z M20.0274867,16.3383353 C18.9586095,16.3383353 18.0971265,15.4550434 18.0971265,14.359107 C18.0971265,13.2631707 18.9586095,12.3798788 20.0274867,12.3798788 C21.0963638,12.3798788 21.9578468,13.2631707 21.9578468,14.359107 C21.9578468,15.4550434 21.0804104,16.3383353 20.0274867,16.3383353 Z"></path>
            </g>
          </g>
        </g>
      </g>
    </g>
  </g>
</svg>