<?xml version="1.0" encoding="UTF-8"?>
<svg width="106px" height="106px" viewBox="0 0 106 106" version="1.1" xmlns="http://www.w3.org/2000/svg" xmlns:xlink="http://www.w3.org/1999/xlink">
    <!-- Generator: Sketch 60.1 (88133) - https://sketch.com -->
    <title>Group 33</title>
    <desc>Created with Sketch.</desc>
    <defs>
        <linearGradient x1="50%" y1="71.2421124%" x2="50%" y2="100%" id="linearGradient-1">
            <stop stop-color="#0C4764" offset="0%"></stop>
            <stop stop-color="#052235" offset="100%"></stop>
        </linearGradient>
        <path d="M15.5404529,0.00227213653 C7.10341632,-0.139736397 0.146450304,6.4835416 0.002306304,14.7955851 C-0.079567488,19.5085643 2.05261056,23.7443948 5.44749005,26.5612761 C5.66947181,26.3704166 5.9075977,26.1954621 6.17224608,26.0534536 L10.7312325,23.6035223 C11.3291418,23.282015 11.7016099,22.6645619 11.7016099,21.9931456 L11.7016099,20.152715 C11.7016099,20.152715 10.363377,18.5758522 9.85310726,16.3849446 C9.42990048,16.1151284 9.14622509,15.6487723 9.14622509,15.1176604 L9.14622509,13.1034114 C9.14622509,12.6603448 9.34629696,12.264425 9.65707142,11.9872243 L9.65707142,9.07548135 C9.65707142,9.07548135 9.0499369,4.54427307 15.2786874,4.54427307 C21.507438,4.54427307 20.9003034,9.07548135 20.9003034,9.07548135 L20.9003034,11.9872243 C21.2116545,12.264425 21.4111498,12.6603448 21.4111498,13.1034114 L21.4111498,15.1176604 C21.4111498,15.7947571 20.949889,16.3644953 20.3237274,16.5547868 C19.9748989,17.623259 19.4715481,18.6417442 18.8061794,19.5676398 C18.6383958,19.8011019 18.4815671,19.9987777 18.344342,20.152715 L18.344342,22.0397244 C18.344342,22.7344301 18.742756,23.3700603 19.3735302,23.680207 L24.2553992,26.0846954 C24.5482998,26.2289761 24.8129482,26.4113151 25.0568398,26.6141032 C28.3490888,23.9091247 30.4760776,19.8647217 30.5550685,15.310224 C30.7003657,6.99818052 23.9780661,0.14428067 15.5404529,0.00227213653 Z" id="path-2"></path>
        <filter x="-3.3%" y="-3.8%" width="106.5%" height="107.5%" filterUnits="objectBoundingBox" id="filter-3">
            <feGaussianBlur stdDeviation="0.5" in="SourceAlpha" result="shadowBlurInner1"></feGaussianBlur>
            <feOffset dx="0" dy="1" in="shadowBlurInner1" result="shadowOffsetInner1"></feOffset>
            <feComposite in="shadowOffsetInner1" in2="SourceAlpha" operator="arithmetic" k2="-1" k3="1" result="shadowInnerInner1"></feComposite>
            <feColorMatrix values="0 0 0 0 0   0 0 0 0 0   0 0 0 0 0  0 0 0 0.2 0" type="matrix" in="shadowInnerInner1"></feColorMatrix>
        </filter>
        <path d="M15.5404529,0.00227213653 C7.10341632,-0.139736397 0.146450304,6.4835416 0.002306304,14.7955851 C-0.079567488,19.5085643 2.05261056,23.7443948 5.44749005,26.5612761 C5.66947181,26.3704166 5.9075977,26.1954621 6.17224608,26.0534536 L10.7312325,23.6035223 C11.3291418,23.282015 11.7016099,22.6645619 11.7016099,21.9931456 L11.7016099,20.152715 C11.7016099,20.152715 10.363377,18.5758522 9.85310726,16.3849446 C9.42990048,16.1151284 9.14622509,15.6487723 9.14622509,15.1176604 L9.14622509,13.1034114 C9.14622509,12.6603448 9.34629696,12.264425 9.65707142,11.9872243 L9.65707142,9.07548135 C9.65707142,9.07548135 9.0499369,4.54427307 15.2786874,4.54427307 C21.507438,4.54427307 20.9003034,9.07548135 20.9003034,9.07548135 L20.9003034,11.9872243 C21.2116545,12.264425 21.4111498,12.6603448 21.4111498,13.1034114 L21.4111498,15.1176604 C21.4111498,15.7947571 20.949889,16.3644953 20.3237274,16.5547868 C19.9748989,17.623259 19.4715481,18.6417442 18.8061794,19.5676398 C18.6383958,19.8011019 18.4815671,19.9987777 18.344342,20.152715 L18.344342,22.0397244 C18.344342,22.7344301 18.742756,23.3700603 19.3735302,23.680207 L24.2553992,26.0846954 C24.5482998,26.2289761 24.8129482,26.4113151 25.0568398,26.6141032 C28.3490888,23.9091247 30.4760776,19.8647217 30.5550685,15.310224 C30.7003657,6.99818052 23.9780661,0.14428067 15.5404529,0.00227213653 Z" id="path-4"></path>
        <filter x="-3.3%" y="-3.8%" width="106.5%" height="107.5%" filterUnits="objectBoundingBox" id="filter-5">
            <feGaussianBlur stdDeviation="0.5" in="SourceAlpha" result="shadowBlurInner1"></feGaussianBlur>
            <feOffset dx="0" dy="1" in="shadowBlurInner1" result="shadowOffsetInner1"></feOffset>
            <feComposite in="shadowOffsetInner1" in2="SourceAlpha" operator="arithmetic" k2="-1" k3="1" result="shadowInnerInner1"></feComposite>
            <feColorMatrix values="0 0 0 0 0   0 0 0 0 0   0 0 0 0 0  0 0 0 0.2 0" type="matrix" in="shadowInnerInner1"></feColorMatrix>
        </filter>
        <linearGradient x1="6.2474301%" y1="66.0484557%" x2="88.3223684%" y2="19.6141922%" id="linearGradient-6">
            <stop stop-color="#B78600" offset="0%"></stop>
            <stop stop-color="#DDA200" offset="100%"></stop>
        </linearGradient>
        <text id="text-7" font-family="GothamSSm-Bold, Gotham SSm" font-size="16.302" font-weight="bold" line-spacing="22.308" fill="#FFC115">
            <tspan x="9.466743" y="23.4423556">10</tspan>
        </text>
        <filter x="-10.1%" y="-9.0%" width="120.3%" height="117.9%" filterUnits="objectBoundingBox" id="filter-8">
            <feGaussianBlur stdDeviation="1.5" in="SourceAlpha" result="shadowBlurInner1"></feGaussianBlur>
            <feOffset dx="0" dy="1" in="shadowBlurInner1" result="shadowOffsetInner1"></feOffset>
            <feComposite in="shadowOffsetInner1" in2="SourceAlpha" operator="arithmetic" k2="-1" k3="1" result="shadowInnerInner1"></feComposite>
            <feColorMatrix values="0 0 0 0 0   0 0 0 0 0   0 0 0 0 0  0 0 0 0.2 0" type="matrix" in="shadowInnerInner1"></feColorMatrix>
        </filter>
        <filter x="-10.1%" y="-9.0%" width="120.3%" height="117.9%" filterUnits="objectBoundingBox" id="filter-9">
            <feGaussianBlur stdDeviation="1.5" in="SourceAlpha" result="shadowBlurInner1"></feGaussianBlur>
            <feOffset dx="0" dy="1" in="shadowBlurInner1" result="shadowOffsetInner1"></feOffset>
            <feComposite in="shadowOffsetInner1" in2="SourceAlpha" operator="arithmetic" k2="-1" k3="1" result="shadowInnerInner1"></feComposite>
            <feColorMatrix values="0 0 0 0 0   0 0 0 0 0   0 0 0 0 0  0 0 0 0.2 0" type="matrix" in="shadowInnerInner1"></feColorMatrix>
        </filter>
    </defs>
    <g id="New-Dapp" stroke="none" stroke-width="1" fill="none" fill-rule="evenodd">
        <g id="p2p" transform="translate(-434.000000, -193.000000)">
            <g id="Group-33" transform="translate(434.000000, 193.000000)">
                <g id="Group-19" fill="url(#linearGradient-1)">
                    <rect id="Rectangle" x="0" y="0" width="105.963" height="105.431618" rx="20.449"></rect>
                </g>
                <g id="Group-22" transform="translate(12.000000, 34.000000)">
                    <g id="user-copy" transform="translate(0.000000, 3.842222)" fill-rule="nonzero">
                        <path d="M10.7318091,23.6029543 L6.17282266,26.0528855 C5.90529139,26.1965982 5.6648592,26.3732568 5.44114771,26.5658203 C8.09916307,28.773769 11.5303668,30.1058091 15.279264,30.1058091 C19.0004855,30.1058091 22.4097794,28.7936502 25.0602993,26.6158074 C24.815831,26.4124511 24.5506061,26.2295441 24.2565523,26.0852635 L19.3746833,23.680775 C18.7439092,23.3700603 18.3454952,22.7349982 18.3454952,22.0402924 L18.3454952,20.153283 C18.4827203,19.9993458 18.6395489,19.8016699 18.8073325,19.5682079 C19.4727012,18.6423122 19.9760521,17.623827 20.3248806,16.5553548 C20.9510421,16.3650634 21.4123029,15.7953251 21.4123029,15.1182285 L21.4123029,13.1039794 C21.4123029,12.6609128 21.212231,12.264993 20.9014566,11.9877923 L20.9014566,9.07604938 C20.9014566,9.07604938 21.5085911,4.5448411 15.2798406,4.5448411 C9.05109005,4.5448411 9.65822458,9.07604938 9.65822458,9.07604938 L9.65822458,11.9877923 C9.34687354,12.264993 9.14737824,12.6609128 9.14737824,13.1039794 L9.14737824,15.1182285 C9.14737824,15.6487723 9.43047706,16.1156964 9.85426042,16.3855126 C10.3651068,18.5764203 11.7027631,20.153283 11.7027631,20.153283 L11.7027631,21.9937136 C11.7021865,22.6639939 11.3297184,23.281447 10.7318091,23.6029543 Z" id="Path" fill="#DFDFDF"></path>
                        <g id="Path">
                            <use fill="#25435A" xlink:href="#path-2"></use>
                            <use fill="black" fill-opacity="1" filter="url(#filter-3)" xlink:href="#path-2"></use>
                        </g>
                    </g>
                    <g id="user-copy-2" transform="translate(55.380000, 3.842222)" fill-rule="nonzero">
                        <path d="M10.7318091,23.6029543 L6.17282266,26.0528855 C5.90529139,26.1965982 5.6648592,26.3732568 5.44114771,26.5658203 C8.09916307,28.773769 11.5303668,30.1058091 15.279264,30.1058091 C19.0004855,30.1058091 22.4097794,28.7936502 25.0602993,26.6158074 C24.815831,26.4124511 24.5506061,26.2295441 24.2565523,26.0852635 L19.3746833,23.680775 C18.7439092,23.3700603 18.3454952,22.7349982 18.3454952,22.0402924 L18.3454952,20.153283 C18.4827203,19.9993458 18.6395489,19.8016699 18.8073325,19.5682079 C19.4727012,18.6423122 19.9760521,17.623827 20.3248806,16.5553548 C20.9510421,16.3650634 21.4123029,15.7953251 21.4123029,15.1182285 L21.4123029,13.1039794 C21.4123029,12.6609128 21.212231,12.264993 20.9014566,11.9877923 L20.9014566,9.07604938 C20.9014566,9.07604938 21.5085911,4.5448411 15.2798406,4.5448411 C9.05109005,4.5448411 9.65822458,9.07604938 9.65822458,9.07604938 L9.65822458,11.9877923 C9.34687354,12.264993 9.14737824,12.6609128 9.14737824,13.1039794 L9.14737824,15.1182285 C9.14737824,15.6487723 9.43047706,16.1156964 9.85426042,16.3855126 C10.3651068,18.5764203 11.7027631,20.153283 11.7027631,20.153283 L11.7027631,21.9937136 C11.7021865,22.6639939 11.3297184,23.281447 10.7318091,23.6029543 Z" id="Path" fill="#DFDFDF"></path>
                        <g id="Path">
                            <use fill="#25435A" xlink:href="#path-4"></use>
                            <use fill="black" fill-opacity="1" filter="url(#filter-5)" xlink:href="#path-4"></use>
                        </g>
                    </g>
                    <g id="Group-17-Copy" transform="translate(24.180000, 0.000000)">
                        <g id="Group-7">
                            <ellipse id="Oval" fill="#D89E00" cx="18.876" cy="18.5963556" rx="18.876" ry="18.5963556"></ellipse>
                            <ellipse id="Oval" stroke="#BC8900" stroke-width="0.858" fill="url(#linearGradient-6)" cx="18.876" cy="18.5963556" rx="16.302" ry="16.0604889"></ellipse>
                        </g>
                        <g id="10" fill="#FFC115" fill-opacity="1">
                            <use filter="url(#filter-8)" xlink:href="#text-7"></use>
                            <use filter="url(#filter-9)" xlink:href="#text-7"></use>
                        </g>
                    </g>
                </g>
            </g>
        </g>
    </g>
</svg>