<?xml version="1.0" encoding="UTF-8"?>
<svg width="13px" height="13px" viewBox="0 0 13 13" version="1.1" xmlns="http://www.w3.org/2000/svg" xmlns:xlink="http://www.w3.org/1999/xlink">
    <!-- Generator: Sketch 57.1 (83088) - https://sketch.com -->
    <title>Combined Shape Copy 6</title>
    <desc>Created with Sketch.</desc>
    <g id="Plug-in-store" stroke="none" stroke-width="1" fill="none" fill-rule="evenodd">
        <path d="M5,0 C6.1045695,0 7,0.8954305 7,2 C7,2.364732 6.9023677,2.70666076 6.73181186,3.0010775 L9,3 C9.55228475,3 10,3.44771525 10,4 L9.99992752,6.26760632 C10.2941173,6.09741028 10.6356829,6 11,6 C12.1045695,6 13,6.8954305 13,8 C13,9.1045695 12.1045695,10 11,10 C10.6356829,10 10.2941173,9.90258972 9.99992752,9.73239368 L10,12 C10,12.5522847 9.55228475,13 9,13 L1,13 C0.44771525,13 6.76353751e-17,12.5522847 0,12 L0,4 C-6.76353751e-17,3.44771525 0.44771525,3 1,3 L3.26818814,3.0010775 C3.0976323,2.70666076 3,2.364732 3,2 C3,0.8954305 3.8954305,0 5,0 Z" id="Combined-Shape-Copy-6" fill="#FFFFFF"></path>
    </g>
</svg>