<?xml version="1.0" encoding="UTF-8"?>
<svg width="37px" height="37px" viewBox="0 0 37 37" version="1.1" xmlns="http://www.w3.org/2000/svg" xmlns:xlink="http://www.w3.org/1999/xlink">
    <!-- Generator: Sketch 61 (89581) - https://sketch.com -->
    <title>Group 21</title>
    <desc>Created with Sketch.</desc>
    <g id="New-Dapp" stroke="none" stroke-width="1" fill="none" fill-rule="evenodd">
        <g id="Fuse--Home-page-new-new" transform="translate(-749.000000, -896.000000)">
            <g id="Group-21" transform="translate(749.000000, 896.000000)">
                <rect id="Rectangle" fill="#254B64" x="6.16" y="6.16" width="24.64" height="23.1"></rect>
                <path d="M18.48,0 C28.68558,0 36.96,8.27442 36.96,18.48 C36.96,28.68558 28.68558,36.96 18.48,36.96 C8.27442,36.96 0,28.68558 0,18.48 C0,8.27442 8.27442,0 18.48,0 Z M18.48,9.48 C17.7702857,9.48 17.1942857,10.0547143 17.1942857,10.7657143 L17.1942857,10.7657143 L17.1942857,17.1942857 L10.7657143,17.1942857 C10.056,17.1942857 9.48,17.769 9.48,18.48 C9.48,19.191 10.056,19.7657143 10.7657143,19.7657143 L10.7657143,19.7657143 L17.1942857,19.7657143 L17.1942857,26.1942857 C17.1942857,26.9052857 17.7702857,27.48 18.48,27.48 C19.1897143,27.48 19.7657143,26.9052857 19.7657143,26.1942857 L19.7657143,26.1942857 L19.7657143,19.7657143 L26.1942857,19.7657143 C26.904,19.7657143 27.48,19.191 27.48,18.48 C27.48,17.769 26.904,17.1942857 26.1942857,17.1942857 L26.1942857,17.1942857 L19.7657143,17.1942857 L19.7657143,10.7657143 C19.7657143,10.0547143 19.1897143,9.48 18.48,9.48 Z" id="Shape" fill="#C5D1D8" fill-rule="nonzero"></path>
            </g>
        </g>
    </g>
</svg>