<?xml version="1.0" encoding="UTF-8"?>
<svg width="13px" height="13px" viewBox="0 0 13 13" version="1.1" xmlns="http://www.w3.org/2000/svg" xmlns:xlink="http://www.w3.org/1999/xlink">
    <!-- Generator: Sketch 57.1 (83088) - https://sketch.com -->
    <title>Combined Shape</title>
    <desc>Created with Sketch.</desc>
    <g id="Plug-in-store" stroke="none" stroke-width="1" fill="none" fill-rule="evenodd">
        <g id="plugin-store" transform="translate(-34.000000, -164.000000)" fill="#FAE83E">
            <path d="M39,164 C40.1045695,164 41,164.895431 41,166 C41,166.364732 40.9023677,166.706661 40.7318119,167.001078 L43,167 C43.5522847,167 44,167.447715 44,168 L43.9999275,170.267606 C44.2941173,170.09741 44.6356829,170 45,170 C46.1045695,170 47,170.895431 47,172 C47,173.104569 46.1045695,174 45,174 C44.6356829,174 44.2941173,173.90259 43.9999275,173.732394 L44,176 C44,176.552285 43.5522847,177 43,177 L35,177 C34.4477153,177 34,176.552285 34,176 L34,168 C34,167.447715 34.4477153,167 35,167 L37.2681881,167.001078 C37.0976323,166.706661 37,166.364732 37,166 C37,164.895431 37.8954305,164 39,164 Z" id="Combined-Shape"></path>
        </g>
    </g>
</svg>