<svg width="459" height="361" viewBox="0 0 459 361" fill="none"
  xmlns="http://www.w3.org/2000/svg">
  <g clip-path="url(#clip0)">
    <path d="M445.64 72.5325H65.1157C57.7374 72.5325 51.7561 78.5181 51.7561 85.9018V264.073C51.7561 271.457 57.7374 277.442 65.1157 277.442H445.64C453.019 277.442 459 271.457 459 264.073V85.9018C459 78.5181 453.019 72.5325 445.64 72.5325Z" fill="#B6B6B6"/>
    <path d="M429.109 72.5325H48.5842C41.2059 72.5325 35.2246 78.5181 35.2246 85.9018V264.073C35.2246 271.457 41.2059 277.442 48.5842 277.442H429.109C436.487 277.442 442.469 271.457 442.469 264.073V85.9018C442.469 78.5181 436.487 72.5325 429.109 72.5325Z" fill="#E1E1E1"/>
    <path d="M397.682 72.698H72.7278V277.442H397.682V72.698Z" fill="#25435A"/>
    <path d="M131.868 167.461H72.7278V277.442H131.868V167.461Z" fill="white"/>
    <path d="M202.48 96.712V95.3735L211.292 92.3127V94.1035L205.278 96.0345L211.292 97.982V99.7737L202.48 96.712Z" fill="#25435A"/>
    <path d="M216.369 99.7737V97.982L222.382 96.0345L216.369 94.1035V92.3127L225.18 95.3735V96.712L216.369 99.7737Z" fill="#25435A"/>
    <path d="M268.673 246.934H210.032V278.868H268.673V246.934Z" fill="white"/>
    <path d="M451.426 165.846V190.38" stroke="#052741" stroke-width="3.861" stroke-miterlimit="10" stroke-linecap="round"/>
    <path d="M51.7561 161.665V192.889" stroke="#B6B6B6" stroke-width="5.791" stroke-miterlimit="10" stroke-linecap="round"/>
    <g style="mix-blend-mode:multiply">
      <path d="M415.526 133.448L397.681 142.65" stroke="#E1E1E1" stroke-width="0.965" stroke-miterlimit="10"/>
    </g>
    <path d="M451.467 90.4232C452.46 90.4232 453.265 89.6176 453.265 88.6238C453.265 87.6301 452.46 86.8245 451.467 86.8245C450.474 86.8245 449.669 87.6301 449.669 88.6238C449.669 89.6176 450.474 90.4232 451.467 90.4232Z" fill="#052741" stroke="#25435A" stroke-width="0.965" stroke-miterlimit="10"/>
    <path d="M451.467 95.9982C452.46 95.9982 453.265 95.1926 453.265 94.1988C453.265 93.205 452.46 92.3994 451.467 92.3994C450.474 92.3994 449.669 93.205 449.669 94.1988C449.669 95.1926 450.474 95.9982 451.467 95.9982Z" fill="#052741" stroke="#25435A" stroke-width="0.965" stroke-miterlimit="10"/>
    <path d="M451.467 101.574C452.46 101.574 453.265 100.768 453.265 99.7745C453.265 98.7807 452.46 97.9751 451.467 97.9751C450.474 97.9751 449.669 98.7807 449.669 99.7745C449.669 100.768 450.474 101.574 451.467 101.574Z" fill="#052741" stroke="#25435A" stroke-width="0.965" stroke-miterlimit="10"/>
    <g style="mix-blend-mode:multiply">
      <path d="M169.314 139.533V127.255H118.302V139.533H112.761V277.442H174.851V139.533H169.314Z" fill="#E1E1E1"/>
    </g>
    <path d="M175.169 139.533V127.255H124.157V139.533H118.616V277.442H180.71V139.533H175.169Z" fill="#FC6E4C"/>
    <path d="M397.681 185.682C397.681 185.682 354.907 177.149 318.855 209.08C282.804 241.012 241.721 228.573 241.721 228.573V277.445H397.681V185.682Z" fill="#0A7586"/>
    <g style="mix-blend-mode:multiply">
      <path d="M229.919 179.7H171.278V277.442H229.919V179.7Z" fill="#E1E1E1"/>
    </g>
    <path d="M285.54 277.442H222.949V169.418L285.54 154.478V277.442Z" fill="white"/>
    <path opacity="0.41" d="M51.7068 359.716C23.426 363.173 0 358.697 0 357.439C0 356.181 27.7242 354.998 49.7832 353.793C49.7832 353.793 103.63 352.817 109.137 354.072C114.644 355.326 90.8315 356.913 91.4764 358.044C94.1393 362.693 67.9951 357.725 51.7068 359.716Z" fill="#B6B6B6"/>
    <path d="M364.086 72.5325C364.086 71.2406 364.34 69.9614 364.834 68.7679C365.328 67.5744 366.052 66.4899 366.965 65.5765C367.878 64.663 368.961 63.9384 370.154 63.444C371.347 62.9496 372.625 62.6952 373.916 62.6952C375.207 62.6952 376.485 62.9496 377.678 63.444C378.87 63.9384 379.954 64.663 380.867 65.5765C381.78 66.4899 382.504 67.5744 382.998 68.7679C383.492 69.9614 383.746 71.2406 383.746 72.5325H364.086Z" fill="#FEC305"/>
    <path d="M334.741 37.6069C340.17 37.6069 344.571 33.2026 344.571 27.7697C344.571 22.3367 340.17 17.9324 334.741 17.9324C329.312 17.9324 324.911 22.3367 324.911 27.7697C324.911 33.2026 329.312 37.6069 334.741 37.6069Z" fill="#FEC305"/>
    <path d="M278.815 19.6746C284.244 19.6746 288.645 15.2703 288.645 9.83728C288.645 4.4043 284.244 0 278.815 0C273.386 0 268.985 4.4043 268.985 9.83728C268.985 15.2703 273.386 19.6746 278.815 19.6746Z" fill="#FEC305"/>
    <path d="M227.265 26.0465C232.694 26.0465 237.095 21.6422 237.095 16.2092C237.095 10.7762 232.694 6.37195 227.265 6.37195C221.836 6.37195 217.435 10.7762 217.435 16.2092C217.435 21.6422 221.836 26.0465 227.265 26.0465Z" fill="#FEC305"/>
    <path d="M192.589 46.6212C198.018 46.6212 202.419 42.2169 202.419 36.7839C202.419 31.351 198.018 26.9467 192.589 26.9467C187.16 26.9467 182.759 31.351 182.759 36.7839C182.759 42.2169 187.16 46.6212 192.589 46.6212Z" fill="#FEC305"/>
    <path d="M166.523 77.1138C171.952 77.1138 176.353 72.7095 176.353 67.2765C176.353 61.8435 171.952 57.4392 166.523 57.4392C161.094 57.4392 156.693 61.8435 156.693 67.2765C156.693 72.7095 161.094 77.1138 166.523 77.1138Z" fill="#FEC305"/>
    <path d="M153.383 108.17C158.812 108.17 163.213 103.766 163.213 98.333C163.213 92.9 158.812 88.4957 153.383 88.4957C147.954 88.4957 143.553 92.9 143.553 98.333C143.553 103.766 147.954 108.17 153.383 108.17Z" fill="#FEC305"/>
    <path d="M149.667 137.555C155.096 137.555 159.497 133.15 159.497 127.717C159.497 122.284 155.096 117.88 149.667 117.88C144.238 117.88 139.836 122.284 139.836 127.717C139.836 133.15 144.238 137.555 149.667 137.555Z" fill="#FEC305"/>
    <path d="M170.709 133.901H139.4V148.372H170.709V133.901Z" fill="#FC6E4C"/>
    <path d="M415.526 101.573L325.338 148.372L230.337 127.255L138.24 196.958" stroke="white" stroke-width="0.965" stroke-miterlimit="10" stroke-dasharray="1.93 3.86"/>
    <path d="M290.474 57.3465H290.452L289.225 58.0084L289.041 57.2807L290.583 56.4551H291.397V63.5184H290.474V57.3465Z" fill="#FC6E4C"/>
    <path d="M296.589 57.3465H296.568L295.341 58.0084L295.157 57.2807L296.699 56.4551H297.513V63.5184H296.589V57.3465Z" fill="#FC6E4C"/>
    <path d="M305.322 59.9109C305.322 62.3115 304.432 63.6361 302.868 63.6361C301.489 63.6361 300.555 62.3435 300.531 60.007C300.531 57.6384 301.552 56.3346 302.985 56.3346C304.475 56.3355 305.322 57.661 305.322 59.9109ZM301.489 60.0192C301.489 61.8558 302.054 62.8988 302.923 62.8988C303.899 62.8988 304.367 61.757 304.367 59.9533C304.367 58.2146 303.922 57.0745 302.933 57.0745C302.097 57.0745 301.489 58.0959 301.489 60.02V60.0192Z" fill="#FC6E4C"/>
    <path d="M308.82 57.3465H308.799L307.572 58.0084L307.387 57.2807L308.929 56.4551H309.743V63.5184H308.82V57.3465Z" fill="#FC6E4C"/>
    <path d="M317.552 59.9109C317.552 62.3115 316.663 63.6361 315.099 63.6361C313.72 63.6361 312.786 62.3435 312.762 60.007C312.762 57.6384 313.782 56.3346 315.216 56.3346C316.706 56.3355 317.552 57.661 317.552 59.9109ZM313.72 60.0192C313.72 61.8558 314.285 62.8988 315.153 62.8988C316.13 62.8988 316.597 61.757 316.597 59.9533C316.597 58.2146 316.153 57.0745 315.164 57.0745C314.328 57.0745 313.72 58.0959 313.72 60.02V60.0192Z" fill="#FC6E4C"/>
    <path d="M323.668 59.9109C323.668 62.3115 322.778 63.6361 321.215 63.6361C319.836 63.6361 318.902 62.3435 318.877 60.007C318.877 57.6384 319.899 56.3346 321.331 56.3346C322.822 56.3355 323.668 57.661 323.668 59.9109ZM319.836 60.0192C319.836 61.8558 320.401 62.8988 321.269 62.8988C322.246 62.8988 322.713 61.757 322.713 59.9533C322.713 58.2146 322.268 57.0745 321.28 57.0745C320.444 57.0745 319.836 58.0959 319.836 60.02V60.0192Z" fill="#FC6E4C"/>
    <path d="M329.784 59.9109C329.784 62.3115 328.894 63.6361 327.331 63.6361C325.952 63.6361 325.017 62.3435 324.993 60.007C324.993 57.6384 326.014 56.3346 327.448 56.3346C328.937 56.3355 329.784 57.661 329.784 59.9109ZM325.952 60.0192C325.952 61.8558 326.516 62.8988 327.384 62.8988C328.362 62.8988 328.828 61.757 328.828 59.9533C328.828 58.2146 328.384 57.0745 327.396 57.0745C326.559 57.0745 325.952 58.0959 325.952 60.02V60.0192Z" fill="#FC6E4C"/>
    <path d="M304.474 72.9553C304.474 75.3568 303.584 76.6806 302.021 76.6806C300.642 76.6806 299.708 75.388 299.684 73.0506C299.684 70.6829 300.705 69.3782 302.138 69.3782C303.628 69.3764 304.474 70.7054 304.474 72.9553ZM300.642 73.0636C300.642 74.9002 301.206 75.9433 302.075 75.9433C303.052 75.9433 303.519 74.8023 303.519 72.9977C303.519 71.259 303.074 70.1189 302.086 70.1189C301.25 70.1198 300.642 71.1403 300.642 73.0636Z" fill="#FC6E4C"/>
    <path d="M310.59 72.9553C310.59 75.3568 309.7 76.6806 308.136 76.6806C306.757 76.6806 305.823 75.388 305.799 73.0506C305.799 70.6829 306.82 69.3782 308.253 69.3782C309.743 69.3764 310.59 70.7054 310.59 72.9553ZM306.757 73.0636C306.757 74.9002 307.323 75.9433 308.19 75.9433C309.167 75.9433 309.634 74.8023 309.634 72.9977C309.634 71.259 309.19 70.1189 308.201 70.1189C307.362 70.1198 306.756 71.1403 306.756 73.0636H306.757Z" fill="#FC6E4C"/>
    <path d="M314.089 70.3909H314.067L312.841 71.0537L312.656 70.326L314.198 69.5004H315.012V76.5627H314.089V70.3909Z" fill="#FC6E4C"/>
    <path d="M322.821 72.9553C322.821 75.3568 321.931 76.6806 320.368 76.6806C318.989 76.6806 318.055 75.388 318.031 73.0506C318.031 70.6829 319.051 69.3782 320.485 69.3782C321.975 69.3764 322.821 70.7054 322.821 72.9553ZM318.989 73.0636C318.989 74.9002 319.553 75.9433 320.422 75.9433C321.399 75.9433 321.866 74.8023 321.866 72.9977C321.866 71.259 321.421 70.1189 320.433 70.1189C319.597 70.1198 318.989 71.1403 318.989 73.0636Z" fill="#FC6E4C"/>
    <path d="M326.321 70.3909H326.3L325.073 71.0537L324.888 70.326L326.43 69.5004H327.244V76.5627H326.321V70.3909Z" fill="#FC6E4C"/>
    <path d="M335.052 72.9553C335.052 75.3568 334.161 76.6806 332.599 76.6806C331.22 76.6806 330.285 75.388 330.261 73.0506C330.261 70.6829 331.282 69.3782 332.715 69.3782C334.205 69.3764 335.052 70.7054 335.052 72.9553ZM331.22 73.0636C331.22 74.9002 331.783 75.9433 332.652 75.9433C333.63 75.9433 334.096 74.8023 334.096 72.9977C334.096 71.259 333.652 70.1189 332.664 70.1189C331.827 70.1198 331.22 71.1403 331.22 73.0636Z" fill="#FC6E4C"/>
    <path d="M338.551 70.3909H338.529L337.302 71.0537L337.118 70.326L338.66 69.5004H339.474V76.5627H338.551V70.3909Z" fill="#FC6E4C"/>
    <path d="M287.629 83.4354H287.606L286.379 84.0973L286.195 83.3704L287.738 82.5439H288.551V89.6072H287.629V83.4354Z" fill="#FC6E4C"/>
    <path d="M293.744 83.4354H293.722L292.496 84.0973L292.311 83.3704L293.853 82.5439H294.667V89.6072H293.744V83.4354Z" fill="#FC6E4C"/>
    <path d="M299.859 83.4354H299.837L298.61 84.0973L298.426 83.3704L299.968 82.5439H300.783V89.6072H299.859L299.859 83.4354Z" fill="#FC6E4C"/>
    <path d="M308.591 85.9997C308.591 88.4003 307.701 89.725 306.138 89.725C304.759 89.725 303.825 88.4316 303.8 86.095C303.8 83.7273 304.822 82.4226 306.254 82.4226C307.745 82.4243 308.591 83.7498 308.591 85.9997ZM304.759 86.108C304.759 87.9447 305.324 88.9877 306.192 88.9877C307.169 88.9877 307.636 87.8468 307.636 86.0422C307.636 84.3034 307.191 83.1625 306.203 83.1625C305.371 83.1633 304.759 84.1847 304.759 86.108Z" fill="#FC6E4C"/>
    <path d="M312.09 83.4354H312.068L310.842 84.0973L310.657 83.3704L312.199 82.5439H313.014V89.6072H312.09V83.4354Z" fill="#FC6E4C"/>
    <path d="M320.822 85.9997C320.822 88.4003 319.932 89.725 318.369 89.725C316.991 89.725 316.056 88.4316 316.031 86.095C316.031 83.7273 317.053 82.4226 318.486 82.4226C319.976 82.4243 320.822 83.7498 320.822 85.9997ZM316.991 86.108C316.991 87.9447 317.555 88.9877 318.423 88.9877C319.401 88.9877 319.867 87.8468 319.867 86.0422C319.867 84.3034 319.422 83.1625 318.435 83.1625C317.598 83.1633 316.991 84.1847 316.991 86.108Z" fill="#FC6E4C"/>
    <path d="M324.321 83.4354H324.299L323.072 84.0973L322.888 83.3704L324.43 82.5439H325.244V89.6072H324.321V83.4354Z" fill="#FC6E4C"/>
    <path d="M290.474 96.4798H290.452L289.225 97.1426L289.041 96.4149L290.583 95.5892H291.397V102.652H290.474V96.4798Z" fill="#FC6E4C"/>
    <path d="M299.207 99.0443C299.207 101.446 298.316 102.77 296.753 102.77C295.374 102.77 294.44 101.477 294.416 99.1404C294.416 96.7719 295.437 95.4672 296.87 95.4672C298.359 95.4689 299.207 96.7953 299.207 99.0443ZM295.374 99.1526C295.374 100.99 295.938 102.033 296.807 102.033C297.784 102.033 298.251 100.891 298.251 99.0876C298.251 97.3488 297.806 96.2087 296.818 96.2087C295.982 96.2087 295.374 97.2302 295.374 99.1526Z" fill="#FC6E4C"/>
    <path d="M302.706 96.4798H302.683L301.457 97.1426L301.272 96.4149L302.815 95.5892H303.629V102.652H302.706V96.4798Z" fill="#FC6E4C"/>
    <path d="M311.436 99.0443C311.436 101.446 310.547 102.77 308.984 102.77C307.605 102.77 306.671 101.477 306.646 99.1404C306.646 96.7719 307.668 95.4672 309.101 95.4672C310.591 95.4689 311.436 96.7953 311.436 99.0443ZM307.605 99.1526C307.605 100.99 308.169 102.033 309.038 102.033C310.015 102.033 310.482 100.891 310.482 99.0876C310.482 97.3488 310.037 96.2087 309.049 96.2087C308.213 96.2087 307.605 97.2302 307.605 99.1526Z" fill="#FC6E4C"/>
    <path d="M314.936 96.4798H314.914L313.687 97.1426L313.503 96.4149L315.045 95.5892H315.859V102.652H314.936V96.4798Z" fill="#FC6E4C"/>
    <path d="M323.668 99.0443C323.668 101.446 322.778 102.77 321.215 102.77C319.836 102.77 318.902 101.477 318.877 99.1404C318.877 96.7719 319.899 95.4672 321.331 95.4672C322.822 95.4689 323.668 96.7953 323.668 99.0443ZM319.836 99.1526C319.836 100.99 320.401 102.033 321.269 102.033C322.246 102.033 322.713 100.891 322.713 99.0876C322.713 97.3488 322.268 96.2087 321.28 96.2087C320.444 96.2087 319.836 97.2302 319.836 99.1526Z" fill="#FC6E4C"/>
    <path d="M327.167 96.4798H327.145L325.919 97.1426L325.734 96.4149L327.276 95.5892H328.091V102.652H327.167V96.4798Z" fill="#FC6E4C"/>
    <path d="M239.63 45.9125L245.135 43.0752V43.8948L240.495 46.2217V46.2451L245.135 48.5721V49.3908L239.63 46.5544V45.9125Z" fill="#25435A"/>
    <path d="M255.905 46.5657L250.401 49.3908V48.5721L255.075 46.2451V46.2217L250.401 43.8948V43.0752L255.905 45.9012V46.5657Z" fill="#25435A"/>
    <path d="M356.048 99.4134V97.9019H359.971V93.9522H361.509V97.9019H365.432V99.4134H361.509V103.354H359.971V99.4134H356.048Z" fill="#0A7586"/>
    <path d="M90.4229 110.819L93.935 101.686H94.7912L91.266 110.819H90.4229Z" fill="white"/>
    <path d="M95.3704 110.819L98.8825 101.686H99.7378L96.2136 110.819H95.3704Z" fill="white"/>
    <path d="M234.994 179.684H176.353V277.442H234.994V179.684Z" fill="#FEC305"/>
    <path opacity="0.5" d="M192.59 189.286H186.256V201.887H192.59V189.286Z" fill="white"/>
    <path opacity="0.5" d="M207.767 189.286H201.434V201.887H207.767V189.286Z" fill="white"/>
    <path opacity="0.5" d="M207.767 211.194H201.434V223.794H207.767V211.194Z" fill="white"/>
    <path opacity="0.5" d="M222.946 211.194H216.612V223.794H222.946V211.194Z" fill="white"/>
    <path opacity="0.5" d="M207.767 233.101H201.434V245.702H207.767V233.101Z" fill="white"/>
    <path opacity="0.5" d="M222.946 233.101H216.612V245.702H222.946V233.101Z" fill="white"/>
    <path opacity="0.5" d="M222.946 255.008H216.612V267.609H222.946V255.008Z" fill="white"/>
    <path d="M94.3419 275.619C94.3419 275.619 101.607 325.377 40.2734 309.907" stroke="#FC6E4C" stroke-width="14.634" stroke-miterlimit="10"/>
    <path d="M101.164 276.883C101.164 276.883 131.868 308.235 100.938 345.909" stroke="#FC6E4C" stroke-width="16.142" stroke-miterlimit="10"/>
    <path d="M110.385 278.052H84.6303C77.9272 252.495 81.57 245.848 88.0515 238.378C94.533 230.909 107.723 233.718 107.723 233.718C113.787 235.104 116.498 231.957 120.733 228.882C130.19 222.014 134.81 205.195 134.81 205.195L137.599 205.542C134.157 222.997 128.48 232.914 111.985 245.393C111.985 245.395 99.9152 252.508 110.385 278.052Z" fill="#0A7586"/>
    <path d="M99.6106 235.54C99.6106 235.54 99.2245 229.903 99.7361 228.879C100.164 228.126 100.656 227.413 101.208 226.746C102.09 225.059 102.278 223.093 101.732 221.269C101.319 220.56 96.643 222.027 96.643 222.027L94.8016 224.02L94.5964 228.319L96.0292 229.292C96.0292 229.292 96.063 230.572 95.9972 235.741L99.6106 235.54Z" fill="#E9B399"/>
    <path d="M98.9823 226.518C98.7443 227.186 98.5568 227.87 98.4212 228.566C98.4212 228.566 97.8491 231.799 94.2746 230.926C94.2746 230.926 91.3856 230.209 89.4084 230.936C89.4084 230.936 85.2141 232.441 81.5478 238.37C79.1801 242.197 73.2812 246.984 68.4445 239.171C66.9564 236.769 71.104 231.625 73.9045 230.945C76.7051 230.265 77.9482 225.754 78.1178 225.337C78.2875 224.919 80.9158 221.711 84.3977 222.122C85.661 222.236 86.9325 222.021 88.0885 221.499C89.2444 220.976 90.2455 220.162 90.9944 219.138C90.9944 219.138 93.2556 215.979 96.102 215.535C98.9485 215.09 102.075 217.614 102.212 219.76C102.294 221.079 102.727 223.9 100.341 225.032C100.025 225.174 99.7416 225.379 99.5078 225.634C99.274 225.89 99.0951 226.191 98.9823 226.518Z" fill="#25435A"/>
    <path d="M138.239 196.958C138.298 196.866 138.251 196.341 137.873 196.698C136.803 198.387 135.921 200.188 135.242 202.069C135.001 203.183 134.851 204.315 134.794 205.453C134.794 205.453 137.01 207.148 137.461 205.8C138.907 201.49 137.186 201.834 137.012 201.308C137.012 201.308 136.716 200.987 137.007 200.212C137.298 199.436 138.239 196.958 138.239 196.958Z" fill="#E9B399"/>
    <path d="M237.903 131.626V122.884L230.337 118.513L222.772 122.884V131.626L230.337 135.997L237.903 131.626Z" fill="#FC6E4C"/>
    <path d="M332.245 151.532V142.79L324.68 138.419L317.115 142.79V151.532L324.68 155.903L332.245 151.532Z" fill="#E9B399"/>
    <path d="M423.091 105.944V97.2015L415.526 92.8308L407.961 97.2015V105.944L415.526 110.314L423.091 105.944Z" fill="#0A7586"/>
    <path d="M423.091 136.765V128.023L415.526 123.653L407.961 128.023V136.765L415.526 141.137L423.091 136.765Z" fill="#B6B6B6"/>
    <path d="M272.852 194.251C274.988 194.251 276.719 192.518 276.719 190.381C276.719 188.243 274.988 186.511 272.852 186.511C270.716 186.511 268.985 188.243 268.985 190.381C268.985 192.518 270.716 194.251 272.852 194.251Z" fill="#E1E1E1"/>
    <path d="M272.852 177.239C274.988 177.239 276.719 175.507 276.719 173.369C276.719 171.232 274.988 169.499 272.852 169.499C270.716 169.499 268.985 171.232 268.985 173.369C268.985 175.507 270.716 177.239 272.852 177.239Z" fill="#E1E1E1"/>
    <path d="M258.197 194.251C260.333 194.251 262.064 192.518 262.064 190.381C262.064 188.243 260.333 186.511 258.197 186.511C256.061 186.511 254.33 188.243 254.33 190.381C254.33 192.518 256.061 194.251 258.197 194.251Z" fill="#E1E1E1"/>
    <path d="M243.543 194.251C245.678 194.251 247.41 192.518 247.41 190.381C247.41 188.243 245.678 186.511 243.543 186.511C241.407 186.511 239.676 188.243 239.676 190.381C239.676 192.518 241.407 194.251 243.543 194.251Z" fill="#E1E1E1"/>
    <path d="M272.852 212.935C274.988 212.935 276.719 211.202 276.719 209.065C276.719 206.928 274.988 205.195 272.852 205.195C270.716 205.195 268.985 206.928 268.985 209.065C268.985 211.202 270.716 212.935 272.852 212.935Z" fill="#E1E1E1"/>
    <path d="M258.197 212.935C260.333 212.935 262.064 211.202 262.064 209.065C262.064 206.928 260.333 205.195 258.197 205.195C256.061 205.195 254.33 206.928 254.33 209.065C254.33 211.202 256.061 212.935 258.197 212.935Z" fill="#E1E1E1"/>
    <path d="M258.197 231.619C260.333 231.619 262.064 229.887 262.064 227.749C262.064 225.612 260.333 223.879 258.197 223.879C256.061 223.879 254.33 225.612 254.33 227.749C254.33 229.887 256.061 231.619 258.197 231.619Z" fill="#E1E1E1"/>
    <path d="M243.543 231.619C245.678 231.619 247.41 229.887 247.41 227.749C247.41 225.612 245.678 223.879 243.543 223.879C241.407 223.879 239.676 225.612 239.676 227.749C239.676 229.887 241.407 231.619 243.543 231.619Z" fill="#E1E1E1"/>
    <path d="M272.852 250.303C274.988 250.303 276.719 248.57 276.719 246.433C276.719 244.295 274.988 242.563 272.852 242.563C270.716 242.563 268.985 244.295 268.985 246.433C268.985 248.57 270.716 250.303 272.852 250.303Z" fill="#E1E1E1"/>
    <path d="M243.543 250.303C245.678 250.303 247.41 248.57 247.41 246.433C247.41 244.295 245.678 242.563 243.543 242.563C241.407 242.563 239.676 244.295 239.676 246.433C239.676 248.57 241.407 250.303 243.543 250.303Z" fill="#E1E1E1"/>
    <path d="M346.439 277.442H285.066V209.212L315.753 188.194L346.439 209.212V277.442Z" fill="#FC6E4C"/>
    <path d="M320.867 179.27C319.51 177.911 317.668 177.148 315.749 177.148C313.829 177.148 311.987 177.911 310.63 179.27L310.018 178.657C310.77 177.904 311.664 177.307 312.647 176.899C313.63 176.491 314.684 176.282 315.749 176.282C316.813 176.282 317.867 176.491 318.85 176.899C319.833 177.307 320.727 177.904 321.479 178.657L320.867 179.27Z" fill="white"/>
    <path d="M318.977 181.164C318.122 180.309 316.962 179.828 315.752 179.828C314.543 179.828 313.383 180.309 312.527 181.164L311.915 180.552C312.933 179.534 314.313 178.962 315.752 178.962C317.191 178.962 318.572 179.534 319.589 180.552L318.977 181.164Z" fill="white"/>
    <path d="M317.044 183.102C316.696 182.769 316.234 182.584 315.753 182.584C315.273 182.584 314.81 182.769 314.463 183.102L313.851 182.489C314.363 181.998 315.046 181.723 315.755 181.723C316.465 181.723 317.147 181.998 317.66 182.489L317.044 183.102Z" fill="white"/>
    <g style="mix-blend-mode:multiply">
      <path d="M181.305 173.368L138.239 196.958" stroke="#E1E1E1" stroke-width="0.965" stroke-miterlimit="10"/>
    </g>
    <path d="M98.4089 343.866C98.4089 343.866 95.7815 353.15 103.871 355.068C103.871 355.068 111.075 355.415 109.817 354.673C106.41 352.672 103.183 350.948 103.11 347.678L98.4089 343.866Z" fill="#25435A"/>
    <path d="M100.032 346.778L96.9917 353.221C96.9917 353.221 95.0362 353.922 95.3928 352.761C95.7495 351.6 98.409 343.865 98.409 343.865L100.032 346.778Z" fill="#25435A"/>
    <path d="M41.0162 307.279C41.0162 307.279 32.8248 304.864 30.6355 312.889C30.6355 312.889 28.6522 321.421 29.4322 320.188C31.5463 316.848 36.3656 312.572 39.6353 312.61L41.0162 307.279Z" fill="#25435A"/>
    <path d="M38.052 308.804L31.7202 305.545C31.7202 305.545 31.0857 303.565 32.2345 303.961C33.3832 304.357 41.0162 307.279 41.0162 307.279L38.052 308.804Z" fill="#25435A"/>
  </g>
  <defs>
    <clipPath id="clip0">
      <rect width="459" height="361" fill="white"/>
    </clipPath>
  </defs>
</svg>
