<?xml version="1.0" encoding="UTF-8"?>
<svg width="68px" height="68px" viewBox="0 0 68 68" version="1.1" xmlns="http://www.w3.org/2000/svg" xmlns:xlink="http://www.w3.org/1999/xlink">
    <!-- Generator: Sketch 57.1 (83088) - https://sketch.com -->
    <title>Combined Shape</title>
    <desc>Created with Sketch.</desc>
    <g id="Plug-in-store-new" stroke="none" stroke-width="1" fill="none" fill-rule="evenodd">
        <g id="plugin-store" transform="translate(-1406.000000, -249.000000)" fill="#E3E3E3">
            <path d="M1432.15385,249 C1437.93159,249 1442.61538,253.68379 1442.61538,259.461538 C1442.61538,261.367099 1442.10591,263.153664 1441.21574,264.692449 L1453.02769,264.692308 C1455.94376,264.692308 1458.30769,267.056244 1458.30769,269.972308 L1458.30755,281.784265 C1459.84634,280.894094 1461.6329,280.384615 1463.53846,280.384615 C1469.31621,280.384615 1474,285.068406 1474,290.846154 C1474,296.623902 1469.31621,301.307692 1463.53846,301.307692 C1461.6329,301.307692 1459.84634,300.798214 1458.30755,299.908043 L1458.30769,311.72 C1458.30769,314.636063 1455.94376,317 1453.02769,317 L1411.28,317 C1408.36394,317 1406,314.636063 1406,311.72 L1406,269.972308 C1406,267.056244 1408.36394,264.692308 1411.28,264.692308 L1423.09196,264.692449 C1422.20179,263.153664 1421.69231,261.367099 1421.69231,259.461538 C1421.69231,253.68379 1426.3761,249 1432.15385,249 Z" id="Combined-Shape"></path>
        </g>
    </g>
</svg>