<?xml version="1.0" encoding="UTF-8"?>
<svg width="16px" height="10px" viewBox="0 0 16 10" version="1.1" xmlns="http://www.w3.org/2000/svg" xmlns:xlink="http://www.w3.org/1999/xlink">
    <!-- Generator: Sketch 60.1 (88133) - https://sketch.com -->
    <title>Group 11</title>
    <desc>Created with Sketch.</desc>
    <g id="Wizard-new" stroke="none" stroke-width="1" fill="none" fill-rule="evenodd">
        <g id="plugins" transform="translate(-994.000000, -513.000000)" fill="#052235" fill-rule="nonzero">
            <g id="Group-11" transform="translate(994.000000, 513.000000)">
                <g id="Group-5">
                    <g id="Group-8" transform="translate(-0.000000, -0.000000)">
                        <path d="M5.04896139,5.71827769 L7.25526153,7.8430647 L5.49334764,9.53985837 C5.24776428,9.77638471 4.84626483,9.77638471 4.60068147,9.53985837 L0.184183288,5.28658819 C-0.0613944292,5.05009006 -0.0613944292,4.66340349 0.184183288,4.42690536 L4.60068147,0.177376772 C4.84626483,-0.0591255906 5.24776428,-0.0591255906 5.49334764,0.177376772 L7.25526153,1.87418709 L5.04896139,3.99896845 C4.55782289,4.47196471 4.55782289,5.24528143 5.04896139,5.71827769 Z" id="Path"></path>
                        <path d="M9.90919264,5.2856571 L7.7028925,7.41041589 L5.49659236,5.2856571 C5.251009,5.04915897 5.251009,4.66250061 5.49659236,4.42597426 L7.7028925,2.30121829 L9.90919264,4.42597426 C10.154776,4.6662532 10.154776,5.04915897 9.90919264,5.2856571 Z" id="Path"></path>
                    </g>
                    <path d="M15.2182681,5.28658819 L10.8017742,9.53985837 C10.5561908,9.77638471 10.1546914,9.77638471 9.90913622,9.53985837 L8.14719411,7.8430647 L10.3534943,5.71827769 C10.844661,5.24528143 10.844661,4.47571731 10.3534943,3.99896845 L8.14719411,1.87418709 L9.90913622,0.177376772 C10.1546914,-0.0591255906 10.5561908,-0.0591255906 10.8017742,0.177376772 L15.2182681,4.43065795 C15.4638515,4.66715608 15.4638515,5.05009006 15.2182681,5.28658819 Z" id="Path"></path>
                </g>
            </g>
        </g>
    </g>
</svg>