<?xml version="1.0" encoding="UTF-8"?>
<svg width="12px" height="13px" viewBox="0 0 12 13" version="1.1" xmlns="http://www.w3.org/2000/svg" xmlns:xlink="http://www.w3.org/1999/xlink">
    <!-- Generator: Sketch 55 (78076) - https://sketchapp.com -->
    <title>baseline-settings-20px</title>
    <desc>Created with Sketch.</desc>
    <g id="community-page" stroke="none" stroke-width="1" fill="none" fill-rule="evenodd">
        <g id="hover-buisniss-list" transform="translate(-36.000000, -786.000000)">
            <g id="baseline-settings-20px" transform="translate(32.000000, 782.000000)">
                <polygon id="Path" points="0 0 20 0 20 20 0 20"></polygon>
                <path d="M14.5901077,11.13375 C14.6132511,10.930625 14.62868,10.719375 14.62868,10.5 C14.62868,10.280625 14.6132511,10.069375 14.5823932,9.86625 L15.8861381,8.79375 C16.0018551,8.69625 16.0327129,8.5175 15.9632827,8.379375 L14.7289681,6.12875 C14.6518234,5.9825 14.4898196,5.93375 14.3509592,5.9825 L12.8157803,6.6325 C12.4917727,6.3725 12.1523362,6.16125 11.7743273,5.99875 L11.5428933,4.27625 C11.5197499,4.11375 11.388604,4 11.2343147,4 L8.76568533,4 C8.611396,4 8.48796453,4.11375 8.46482113,4.27625 L8.23338713,5.99875 C7.85537826,6.16125 7.50822726,6.380625 7.19193413,6.6325 L5.65675526,5.9825 C5.51789486,5.925625 5.35589106,5.9825 5.27874639,6.12875 L4.04443172,8.379375 C3.96728705,8.525625 3.99814492,8.69625 4.12157639,8.79375 L5.42532126,9.86625 C5.39446339,10.069375 5.37131999,10.28875 5.37131999,10.5 C5.37131999,10.71125 5.38674892,10.930625 5.41760679,11.13375 L4.11386192,12.20625 C3.99814492,12.30375 3.96728705,12.4825 4.03671725,12.620625 L5.27103192,14.87125 C5.34817659,15.0175 5.51018039,15.06625 5.64904079,15.0175 L7.18421966,14.3675 C7.50822726,14.6275 7.8476638,14.83875 8.22567266,15.00125 L8.45710666,16.72375 C8.48796453,16.88625 8.611396,17 8.76568533,17 L11.2343147,17 C11.388604,17 11.5197499,16.88625 11.5351789,16.72375 L11.7666129,15.00125 C12.1446217,14.83875 12.4917727,14.619375 12.8080659,14.3675 L14.3432447,15.0175 C14.4821051,15.074375 14.6441089,15.0175 14.7212536,14.87125 L15.9555683,12.620625 C16.0327129,12.474375 16.0018551,12.30375 15.8784236,12.20625 L14.5901077,11.13375 L14.5901077,11.13375 Z M10,12.9375 C8.727113,12.9375 7.68566,11.840625 7.68566,10.5 C7.68566,9.159375 8.727113,8.0625 10,8.0625 C11.272887,8.0625 12.31434,9.159375 12.31434,10.5 C12.31434,11.840625 11.272887,12.9375 10,12.9375 Z" id="Shape" fill="#E2E2E2" fill-rule="nonzero"></path>
            </g>
        </g>
    </g>
</svg>