<?xml version="1.0" encoding="UTF-8"?>
<svg width="12px" height="14px" viewBox="0 0 12 14" version="1.1" xmlns="http://www.w3.org/2000/svg" xmlns:xlink="http://www.w3.org/1999/xlink">
    <!-- Generator: Sketch 63.1 (92452) - https://sketch.com -->
    <title>Shape Copy 3</title>
    <desc>Created with Sketch.</desc>
    <g id="community-page" stroke="none" stroke-width="1" fill="none" fill-rule="evenodd">
        <path d="M10.5901077,7.63375 C10.6132511,7.430625 10.62868,7.219375 10.62868,7 C10.62868,6.780625 10.6132511,6.569375 10.5823932,6.36625 L11.8861381,5.29375 C12.0018551,5.19625 12.0327129,5.0175 11.9632827,4.879375 L10.7289681,2.62875 C10.6518234,2.4825 10.4898196,2.43375 10.3509592,2.4825 L8.81578034,3.1325 C8.49177274,2.8725 8.1523362,2.66125 7.77432734,2.49875 L7.54289334,0.77625 C7.51974994,0.61375 7.388604,0.5 7.23431467,0.5 L4.76568533,0.5 C4.611396,0.5 4.48796453,0.61375 4.46482113,0.77625 L4.23338713,2.49875 C3.85537826,2.66125 3.50822726,2.880625 3.19193413,3.1325 L1.65675526,2.4825 C1.51789486,2.425625 1.35589106,2.4825 1.27874639,2.62875 L0.044431721,4.879375 C-0.0327129458,5.025625 -0.00185507912,5.19625 0.121576388,5.29375 L1.42532126,6.36625 C1.39446339,6.569375 1.37131999,6.78875 1.37131999,7 C1.37131999,7.21125 1.38674892,7.430625 1.41760679,7.63375 L0.113861921,8.70625 C-0.00185507912,8.80375 -0.0327129458,8.9825 0.0367172543,9.120625 L1.27103192,11.37125 C1.34817659,11.5175 1.51018039,11.56625 1.64904079,11.5175 L3.18421966,10.8675 C3.50822726,11.1275 3.8476638,11.33875 4.22567266,11.50125 L4.45710666,13.22375 C4.48796453,13.38625 4.611396,13.5 4.76568533,13.5 L7.23431467,13.5 C7.388604,13.5 7.51974994,13.38625 7.53517887,13.22375 L7.76661287,11.50125 C8.14462174,11.33875 8.49177274,11.119375 8.80806587,10.8675 L10.3432447,11.5175 C10.4821051,11.574375 10.6441089,11.5175 10.7212536,11.37125 L11.9555683,9.120625 C12.0327129,8.974375 12.0018551,8.80375 11.8784236,8.70625 L10.5901077,7.63375 L10.5901077,7.63375 Z M6,9.4375 C4.727113,9.4375 3.68566,8.340625 3.68566,7 C3.68566,5.659375 4.727113,4.5625 6,4.5625 C7.272887,4.5625 8.31434,5.659375 8.31434,7 C8.31434,8.340625 7.272887,9.4375 6,9.4375 Z" id="Shape-Copy-3" fill="#FAE83E" fill-rule="nonzero"></path>
    </g>
</svg>