<?xml version="1.0" encoding="UTF-8"?>
<svg width="47px" height="47px" viewBox="0 0 47 47" version="1.1"
  xmlns="http://www.w3.org/2000/svg"
  xmlns:xlink="http://www.w3.org/1999/xlink">
  <title>icons8-wallet</title>
  <defs>
    <linearGradient x1="55.4636769%" y1="100%" x2="55.4636769%" y2="0%" id="linearGradient-1">
      <stop stop-color="#E0EAF2" offset="0%"></stop>
      <stop stop-color="#FFFFFF" offset="100%"></stop>
    </linearGradient>
    <rect id="path-2" x="579" y="201" width="847" height="220" rx="5"></rect>
    <filter x="-0.7%" y="-2.7%" width="101.4%" height="105.5%" filterUnits="objectBoundingBox" id="filter-3">
      <feOffset dx="0" dy="0" in="SourceAlpha" result="shadowOffsetOuter1"></feOffset>
      <feGaussianBlur stdDeviation="2" in="shadowOffsetOuter1" result="shadowBlurOuter1"></feGaussianBlur>
      <feColorMatrix values="0 0 0 0 0   0 0 0 0 0   0 0 0 0 0  0 0 0 0.165346372 0" type="matrix" in="shadowBlurOuter1"></feColorMatrix>
    </filter>
    <rect id="path-4" x="0" y="0" width="847" height="220" rx="5"></rect>
    <rect id="path-6" x="597" y="314" width="250" height="87" rx="5.8653"></rect>
    <filter x="-9.2%" y="-26.4%" width="118.4%" height="152.9%" filterUnits="objectBoundingBox" id="filter-7">
      <feMorphology radius="0.5" operator="dilate" in="SourceAlpha" result="shadowSpreadOuter1"></feMorphology>
      <feOffset dx="0" dy="0" in="shadowSpreadOuter1" result="shadowOffsetOuter1"></feOffset>
      <feGaussianBlur stdDeviation="7.5" in="shadowOffsetOuter1" result="shadowBlurOuter1"></feGaussianBlur>
      <feComposite in="shadowBlurOuter1" in2="SourceAlpha" operator="out" result="shadowBlurOuter1"></feComposite>
      <feColorMatrix values="0 0 0 0 0   0 0 0 0 0   0 0 0 0 0  0 0 0 0.247514205 0" type="matrix" in="shadowBlurOuter1"></feColorMatrix>
    </filter>
    <linearGradient x1="50%" y1="12.6834876%" x2="50%" y2="94.1438793%" id="linearGradient-8">
      <stop stop-color="#E3E3E3" offset="0%"></stop>
      <stop stop-color="#FFFFFF" offset="100%"></stop>
    </linearGradient>
    <filter x="0.0%" y="0.0%" width="100.0%" height="100.0%" filterUnits="objectBoundingBox" id="filter-9">
      <feGaussianBlur stdDeviation="0" in="SourceGraphic"></feGaussianBlur>
    </filter>
    <linearGradient x1="50%" y1="62.4563117%" x2="50%" y2="0%" id="linearGradient-10">
      <stop stop-color="#B4873C" offset="0%"></stop>
      <stop stop-color="#FFD381" offset="100%"></stop>
    </linearGradient>
    <linearGradient x1="50%" y1="0%" x2="50%" y2="99.8574747%" id="linearGradient-11">
      <stop stop-color="#FFD381" offset="0%"></stop>
      <stop stop-color="#ECB456" offset="100%"></stop>
    </linearGradient>
    <linearGradient x1="50%" y1="0%" x2="50%" y2="99.8574747%" id="linearGradient-12">
      <stop stop-color="#FFE5B4" offset="0%"></stop>
      <stop stop-color="#ECB456" offset="100%"></stop>
    </linearGradient>
    <linearGradient x1="53.5727536%" y1="-3.55271368e-13%" x2="53.5727536%" y2="121.478671%" id="linearGradient-13">
      <stop stop-color="#87B5D1" offset="0%"></stop>
      <stop stop-color="#42697D" offset="100%"></stop>
    </linearGradient>
  </defs>
  <g id="new-studio-form" stroke="none" stroke-width="1" fill="none" fill-rule="evenodd">
    <g id="hover-set-up-wallet" transform="translate(-617.000000, -331.000000)">
      <g id="Combined-Shape">
        <use fill="black" fill-opacity="1" filter="url(#filter-3)" xlink:href="#path-2"></use>
        <use fill="url(#linearGradient-1)" fill-rule="evenodd" xlink:href="#path-2"></use>
      </g>
      <g id="confetti-png-confetti-png-image-free-download-searchpngcom-confettipng-715_715" transform="translate(579.000000, 202.000000)">
        <mask id="mask-5" fill="white">
          <use xlink:href="#path-4"></use>
        </mask>
        <g id="Mask"></g>
      </g>
      <g id="Rectangle-Copy">
        <use fill="black" fill-opacity="1" filter="url(#filter-7)" xlink:href="#path-6"></use>
        <use stroke="#E5E5E5" stroke-width="1" fill="#FFFFFF" fill-rule="evenodd" xlink:href="#path-6"></use>
      </g>
      <g id="Group-10" transform="translate(617.000000, 331.000000)">
        <polygon id="Path-8-Copy-2" fill="url(#linearGradient-8)" filter="url(#filter-9)" points="8.70570015e-13 41.7744141 8.57683051 69 34.4567845 68.9217849 44 42.4111328"></polygon>
        <g id="icons8-wallet" fill-rule="nonzero">
          <path d="M36,17 L2,17 L2,12 C2,9.239 4.239,7 7,7 L36,7 L36,17 Z" id="Path" fill="#3D6278"></path>
          <path d="M18,0 L18,38 L11,38 C9.34,38 8,36.62 8,34.89 L8,3.11 C8,1.38 9.34,0 11,0 L18,0 Z" id="Path" fill="url(#linearGradient-10)"></path>
          <path d="M14.997,0 L36.003,0 C37.659,0 39,1.385 39,3.106 L39,34.894 C39,36.615 37.659,38 36.003,38 L14.997,38 C13.341,38 12,36.615 12,34.894 L12,3.106 C12,1.385 13.341,0 14.997,0 Z" id="Path" fill="url(#linearGradient-11)"></path>
          <path d="M35,6 L35,32 C35,33.105 34.105,34 33,34 L18,34 C16.895,34 16,33.105 16,32 L16,6 C16,4.895 16.895,4 18,4 L33,4 C34.105,4 35,4.895 35,6 Z" id="Path" fill="url(#linearGradient-12)"></path>
          <path d="M44,20 L44,42 C44,44.76 41.76,47 39,47 L5,47 C2.24,47 0,44.76 0,42 L0,12 C0,8.14 3.14,5 7,5 L8,5 L8,9 L7,9 C5.35,9 4,10.35 4,12 C4,13.65 5.35,15 7,15 L39,15 C41.76,15 44,17.24 44,20 Z" id="Path" fill="url(#linearGradient-13)"></path>
          <path d="M45,37 L35,37 C32.791,37 31,35.209 31,33 L31,29 C31,26.791 32.791,25 35,25 L45,25 C46.105,25 47,25.895 47,27 L47,35 C47,36.105 46.105,37 45,37 Z" id="Path" fill="#3D6278"></path>
          <circle id="Oval" fill="#78A4BF" cx="37" cy="31" r="3"></circle>
        </g>
      </g>
    </g>
  </g>
</svg>