<?xml version="1.0" encoding="UTF-8"?>
<svg width="80px" height="68px" viewBox="0 0 80 68" version="1.1"
  xmlns="http://www.w3.org/2000/svg"
  xmlns:xlink="http://www.w3.org/1999/xlink">
  <title>Group 11</title>
  <defs>
    <linearGradient x1="50%" y1="12.6834876%" x2="50%" y2="94.1438793%" id="linearGradient-1">
      <stop stop-color="#E3E3E3" offset="0%"></stop>
      <stop stop-color="#FFFFFF" offset="100%"></stop>
    </linearGradient>
    <filter x="0.0%" y="0.0%" width="100.0%" height="100.0%" filterUnits="objectBoundingBox" id="filter-2">
      <feGaussianBlur stdDeviation="0" in="SourceGraphic"></feGaussianBlur>
    </filter>
    <circle id="path-3" cx="13.3025004" cy="13.3025004" r="13.3025004"></circle>
    <filter x="-7.5%" y="-3.8%" width="115.0%" height="115.0%" filterUnits="objectBoundingBox" id="filter-4">
      <feOffset dx="0" dy="1" in="SourceAlpha" result="shadowOffsetOuter1"></feOffset>
      <feGaussianBlur stdDeviation="0.5" in="shadowOffsetOuter1" result="shadowBlurOuter1"></feGaussianBlur>
      <feColorMatrix values="0 0 0 0 0.776211504   0 0 0 0 0.776211504   0 0 0 0 0.776211504  0 0 0 1 0" type="matrix" in="shadowBlurOuter1"></feColorMatrix>
    </filter>
    <linearGradient x1="50%" y1="0%" x2="50%" y2="99.8574747%" id="linearGradient-5">
      <stop stop-color="#FFD381" offset="0%"></stop>
      <stop stop-color="#ECB456" offset="100%"></stop>
    </linearGradient>
    <circle id="path-6" cx="13.3025004" cy="13.3025004" r="13.3025004"></circle>
    <filter x="-7.5%" y="-3.8%" width="115.0%" height="115.0%" filterUnits="objectBoundingBox" id="filter-7">
      <feOffset dx="0" dy="1" in="SourceAlpha" result="shadowOffsetOuter1"></feOffset>
      <feGaussianBlur stdDeviation="0.5" in="shadowOffsetOuter1" result="shadowBlurOuter1"></feGaussianBlur>
      <feColorMatrix values="0 0 0 0 0.776211504   0 0 0 0 0.776211504   0 0 0 0 0.776211504  0 0 0 1 0" type="matrix" in="shadowBlurOuter1"></feColorMatrix>
    </filter>
    <linearGradient x1="53.5727536%" y1="-3.55271368e-13%" x2="53.5727536%" y2="121.478671%" id="linearGradient-8">
      <stop stop-color="#87B5D1" offset="0%"></stop>
      <stop stop-color="#42697D" offset="100%"></stop>
    </linearGradient>
    <circle id="path-9" cx="24.63426" cy="24.63426" r="24.63426"></circle>
    <filter x="-7.1%" y="-5.1%" width="114.2%" height="114.2%" filterUnits="objectBoundingBox" id="filter-10">
      <feOffset dx="0" dy="1" in="SourceAlpha" result="shadowOffsetOuter1"></feOffset>
      <feGaussianBlur stdDeviation="1" in="shadowOffsetOuter1" result="shadowBlurOuter1"></feGaussianBlur>
      <feColorMatrix values="0 0 0 0 0   0 0 0 0 0   0 0 0 0 0  0 0 0 0.245574738 0" type="matrix" in="shadowBlurOuter1"></feColorMatrix>
    </filter>
    <linearGradient x1="86.4389273%" y1="14.0362079%" x2="0%" y2="94.7178231%" id="linearGradient-11">
      <stop stop-color="#EDEDED" offset="0%"></stop>
      <stop stop-color="#CECECE" offset="100%"></stop>
    </linearGradient>
  </defs>
  <g id="community-page" stroke="none" stroke-width="1" fill="none" fill-rule="evenodd">
    <g id="New-studio" transform="translate(-681.000000, -366.000000)">
      <g id="Group-11" transform="translate(682.000000, 367.000000)">
        <polygon id="Path-8-Copy" fill="url(#linearGradient-1)" filter="url(#filter-2)" points="1.89094293 28.7466605 24.4677734 67 50.3477274 66.9217849 77.1518616 25"></polygon>
        <g id="Group-9">
          <g id="Group-27-Copy" transform="translate(0.000000, 10.000000)">
            <g id="Group-5" transform="translate(13.813249, 13.820143) rotate(1.000000) translate(-13.813249, -13.820143) translate(0.313249, 0.320143)">
              <g id="Oval">
                <use fill="black" fill-opacity="1" filter="url(#filter-4)" xlink:href="#path-3"></use>
                <use fill="#D7A450" fill-rule="evenodd" xlink:href="#path-3"></use>
              </g>
              <circle id="Oval" fill="url(#linearGradient-5)" cx="13.3025004" cy="13.3025004" r="11.5288337"></circle>
              <path d="M19.0429442,12.2261633 L17.5324583,11.543546 L19.0426888,10.8611829 C19.4094554,10.6956769 19.6370244,10.3438175 19.6370244,9.94314534 C19.6370244,9.54272739 19.4094554,9.19086806 19.0429442,9.02510774 L15.4276367,7.39165673 C14.1776675,6.82674962 12.7440595,6.82674962 11.4940903,7.39165673 L7.8787828,9.02510774 C7.51227158,9.19086806 7.2847026,9.54272739 7.2847026,9.94314534 C7.2847026,10.3438175 7.51252699,10.6956769 7.8790382,10.8611829 L9.38901332,11.543546 L7.8787828,12.2261633 C7.51227158,12.3916693 7.2847026,12.7435287 7.2847026,13.1442009 C7.2847026,13.544873 7.51252699,13.8964781 7.8790382,14.0619842 L9.38901332,14.7446015 L7.8787828,15.4269645 C7.51227158,15.5927249 7.2847026,15.9445842 7.2847026,16.3450021 C7.2847026,16.7456743 7.51252699,17.0975337 7.8790382,17.2630397 L11.4940903,18.896745 C12.1190749,19.1791985 12.790033,19.3202982 13.4607358,19.3202982 C14.131694,19.3202982 14.8026521,19.1791985 15.4276367,18.896745 L19.0426888,17.2630397 C19.4094554,17.0975337 19.6370244,16.7456743 19.6370244,16.3450021 C19.6370244,15.9445842 19.4094554,15.5927249 19.0429442,15.4269645 L17.5324583,14.7446015 L19.0426888,14.0619842 C19.4094554,13.8964781 19.6370244,13.544873 19.6370244,13.1442009 C19.6370244,12.7435287 19.4094554,12.3916693 19.0429442,12.2261633 Z M15.3731548,14.7460658 L18.6860858,16.2449686 C18.7429359,16.2706932 18.7547157,16.3167937 18.7547157,16.3509233 C18.7547157,16.385053 18.7429359,16.4311535 18.6860858,16.4568781 L15.0615032,18.093573 C14.044346,18.552795 12.877381,18.552795 11.8602238,18.093573 L8.23564124,16.4568781 C8.17879107,16.4311535 8.1670113,16.385053 8.1670113,16.3509233 C8.1670113,16.3167937 8.17879107,16.2706932 8.23564124,16.2449686 L10.465346,15.2383987 L11.4881369,15.7001677 C12.1150253,15.9831382 12.7877523,16.1247507 13.4607355,16.1247507 C14.1337186,16.1247507 14.8069578,15.9831382 15.4335901,15.7001677 L15.7270599,15.5677243 L14.6002997,15.0593454 C13.7011963,15.3344202 12.7262927,15.2776223 11.8594556,14.8864049 L8.23564124,13.2499647 C8.17879107,13.2244948 8.1670113,13.1783943 8.1670113,13.1442646 C8.1670113,13.1098803 8.17879107,13.0637798 8.23564124,13.0380552 L10.465346,12.0314853 L11.4891612,12.4940185 C12.1157935,12.7767342 12.7882645,12.9183468 13.4607355,12.9183468 C14.1334625,12.9183468 14.8059335,12.7767342 15.4325658,12.4940185 L15.7260356,12.3613203 L14.5990193,11.8529414 C13.7006842,12.1277615 12.7265488,12.0709636 11.860736,11.6802556 L8.23564124,10.043306 C8.17879107,10.0175814 8.1670113,9.97148091 8.1670113,9.93735126 C8.1670113,9.90322161 8.17879107,9.85712112 8.23564124,9.83139653 L11.8604799,8.19470164 C12.8776371,7.73547959 14.0440899,7.73547959 15.0612471,8.19470164 L18.6860858,9.83139653 C18.7429359,9.85712112 18.7547157,9.90322161 18.7547157,9.93735126 C18.7547157,9.97148091 18.7429359,10.0175814 18.6860858,10.043306 L15.3718744,11.5399165 L18.6860858,13.0380552 C18.7429359,13.0637798 18.7547157,13.1098803 18.7547157,13.1442646 C18.7547157,13.1783943 18.7429359,13.2244948 18.6860858,13.2499647 L15.3731548,14.7460658 Z" id="Fill-10" fill="#D7A450"></path>
            </g>
          </g>
          <g id="Group-27-Copy-2" transform="translate(50.000000, 10.000000)">
            <g id="Group-5" transform="translate(13.813249, 13.820143) rotate(1.000000) translate(-13.813249, -13.820143) translate(0.313249, 0.320143)">
              <g id="Oval">
                <use fill="black" fill-opacity="1" filter="url(#filter-7)" xlink:href="#path-6"></use>
                <use fill="#4A687B" fill-rule="evenodd" xlink:href="#path-6"></use>
              </g>
              <circle id="Oval" fill="url(#linearGradient-8)" cx="13.3025004" cy="13.3025004" r="11.5288337"></circle>
              <path d="M19.0429442,12.2261633 L17.5324583,11.543546 L19.0426888,10.8611829 C19.4094554,10.6956769 19.6370244,10.3438175 19.6370244,9.94314534 C19.6370244,9.54272739 19.4094554,9.19086806 19.0429442,9.02510774 L15.4276367,7.39165673 C14.1776675,6.82674962 12.7440595,6.82674962 11.4940903,7.39165673 L7.8787828,9.02510774 C7.51227158,9.19086806 7.2847026,9.54272739 7.2847026,9.94314534 C7.2847026,10.3438175 7.51252699,10.6956769 7.8790382,10.8611829 L9.38901332,11.543546 L7.8787828,12.2261633 C7.51227158,12.3916693 7.2847026,12.7435287 7.2847026,13.1442009 C7.2847026,13.544873 7.51252699,13.8964781 7.8790382,14.0619842 L9.38901332,14.7446015 L7.8787828,15.4269645 C7.51227158,15.5927249 7.2847026,15.9445842 7.2847026,16.3450021 C7.2847026,16.7456743 7.51252699,17.0975337 7.8790382,17.2630397 L11.4940903,18.896745 C12.1190749,19.1791985 12.790033,19.3202982 13.4607358,19.3202982 C14.131694,19.3202982 14.8026521,19.1791985 15.4276367,18.896745 L19.0426888,17.2630397 C19.4094554,17.0975337 19.6370244,16.7456743 19.6370244,16.3450021 C19.6370244,15.9445842 19.4094554,15.5927249 19.0429442,15.4269645 L17.5324583,14.7446015 L19.0426888,14.0619842 C19.4094554,13.8964781 19.6370244,13.544873 19.6370244,13.1442009 C19.6370244,12.7435287 19.4094554,12.3916693 19.0429442,12.2261633 Z M15.3731548,14.7460658 L18.6860858,16.2449686 C18.7429359,16.2706932 18.7547157,16.3167937 18.7547157,16.3509233 C18.7547157,16.385053 18.7429359,16.4311535 18.6860858,16.4568781 L15.0615032,18.093573 C14.044346,18.552795 12.877381,18.552795 11.8602238,18.093573 L8.23564124,16.4568781 C8.17879107,16.4311535 8.1670113,16.385053 8.1670113,16.3509233 C8.1670113,16.3167937 8.17879107,16.2706932 8.23564124,16.2449686 L10.465346,15.2383987 L11.4881369,15.7001677 C12.1150253,15.9831382 12.7877523,16.1247507 13.4607355,16.1247507 C14.1337186,16.1247507 14.8069578,15.9831382 15.4335901,15.7001677 L15.7270599,15.5677243 L14.6002997,15.0593454 C13.7011963,15.3344202 12.7262927,15.2776223 11.8594556,14.8864049 L8.23564124,13.2499647 C8.17879107,13.2244948 8.1670113,13.1783943 8.1670113,13.1442646 C8.1670113,13.1098803 8.17879107,13.0637798 8.23564124,13.0380552 L10.465346,12.0314853 L11.4891612,12.4940185 C12.1157935,12.7767342 12.7882645,12.9183468 13.4607355,12.9183468 C14.1334625,12.9183468 14.8059335,12.7767342 15.4325658,12.4940185 L15.7260356,12.3613203 L14.5990193,11.8529414 C13.7006842,12.1277615 12.7265488,12.0709636 11.860736,11.6802556 L8.23564124,10.043306 C8.17879107,10.0175814 8.1670113,9.97148091 8.1670113,9.93735126 C8.1670113,9.90322161 8.17879107,9.85712112 8.23564124,9.83139653 L11.8604799,8.19470164 C12.8776371,7.73547959 14.0440899,7.73547959 15.0612471,8.19470164 L18.6860858,9.83139653 C18.7429359,9.85712112 18.7547157,9.90322161 18.7547157,9.93735126 C18.7547157,9.97148091 18.7429359,10.0175814 18.6860858,10.043306 L15.3718744,11.5399165 L18.6860858,13.0380552 C18.7429359,13.0637798 18.7547157,13.1098803 18.7547157,13.1442646 C18.7547157,13.1783943 18.7429359,13.2244948 18.6860858,13.2499647 L15.3731548,14.7460658 Z" id="Fill-10" fill="#4A687B"></path>
            </g>
          </g>
          <g id="Group-27" transform="translate(13.000000, 0.000000)">
            <g id="Group-5" transform="translate(25.580091, 25.592857) rotate(1.000000) translate(-25.580091, -25.592857) translate(0.580091, 0.592857)">
              <g id="Oval">
                <use fill="black" fill-opacity="1" filter="url(#filter-10)" xlink:href="#path-9"></use>
                <use fill="#F0F0F0" fill-rule="evenodd" xlink:href="#path-9"></use>
              </g>
              <circle id="Oval" fill="url(#linearGradient-11)" cx="24.63426" cy="24.63426" r="21.349692"></circle>
              <path d="M35.2647115,22.6410431 L32.4675153,21.376937 L35.2642385,20.1133018 C35.943436,19.806809 36.36486,19.1552176 36.36486,18.4132321 C36.36486,17.6717174 35.943436,17.020126 35.2647115,16.7131625 L28.5696977,13.6882532 C26.2549398,12.6421289 23.6001102,12.6421289 21.2853523,13.6882532 L14.5903385,16.7131625 C13.911614,17.020126 13.49019,17.6717174 13.49019,18.4132321 C13.49019,19.1552176 13.912087,19.806809 14.5908115,20.1133018 L17.3870617,21.376937 L14.5903385,22.6410431 C13.911614,22.9475358 13.49019,23.5991272 13.49019,24.3411127 C13.49019,25.0830982 13.912087,25.7342188 14.5908115,26.0407115 L17.3870617,27.3048176 L14.5903385,28.5684528 C13.911614,28.8754164 13.49019,29.5270078 13.49019,30.2685225 C13.49019,31.010508 13.912087,31.6620994 14.5908115,31.9685921 L21.2853523,34.9939722 C22.4427313,35.5170343 23.6852464,35.77833 24.9272885,35.77833 C26.1698036,35.77833 27.4123187,35.5170343 28.5696977,34.9939722 L35.2642385,31.9685921 C35.943436,31.6620994 36.36486,31.010508 36.36486,30.2685225 C36.36486,29.5270078 35.943436,28.8754164 35.2647115,28.5684528 L32.4675153,27.3048176 L35.2642385,26.0407115 C35.943436,25.7342188 36.36486,25.0830982 36.36486,24.3411127 C36.36486,23.5991272 35.943436,22.9475358 35.2647115,22.6410431 Z M28.4688051,27.3075293 L34.6038625,30.0832752 C34.7091406,30.1309133 34.730955,30.2162846 34.730955,30.2794877 C34.730955,30.3426907 34.7091406,30.428062 34.6038625,30.4757001 L27.8916725,33.5066166 C26.0080482,34.3570278 23.8470018,34.3570278 21.9633775,33.5066166 L15.2511875,30.4757001 C15.1459094,30.428062 15.124095,30.3426907 15.124095,30.2794877 C15.124095,30.2162846 15.1459094,30.1309133 15.2511875,30.0832752 L19.3802703,28.2192569 L21.2743276,29.0743847 C22.435232,29.598404 23.6810228,29.8606495 24.9272879,29.8606495 C26.1735529,29.8606495 27.4202922,29.598404 28.5807224,29.0743847 L29.124185,28.8291191 L27.0375921,27.8876767 C25.3725858,28.3970744 23.5672087,28.2918932 21.9619548,27.5674164 L15.2511875,24.5369716 C15.1459094,24.4898052 15.124095,24.4044339 15.124095,24.3412308 C15.124095,24.2775561 15.1459094,24.1921848 15.2511875,24.1445467 L19.3802703,22.2805284 L21.2762245,23.1370712 C22.4366547,23.6606189 23.6819713,23.9228644 24.9272879,23.9228644 C26.1730787,23.9228644 27.4183953,23.6606189 28.5788255,23.1370712 L29.1222881,22.891334 L27.035221,21.9498915 C25.3716373,22.4588176 23.5676829,22.3536364 21.964326,21.6301029 L15.2511875,18.5987148 C15.1459094,18.5510767 15.124095,18.4657054 15.124095,18.4025023 C15.124095,18.3392993 15.1459094,18.253928 15.2511875,18.2062899 L21.9638517,15.1753734 C23.8474761,14.3249622 26.0075739,14.3249622 27.8911983,15.1753734 L34.6038625,18.2062899 C34.7091406,18.253928 34.730955,18.3392993 34.730955,18.4025023 C34.730955,18.4657054 34.7091406,18.5510767 34.6038625,18.5987148 L28.466434,21.3702158 L34.6038625,24.1445467 C34.7091406,24.1921848 34.730955,24.2775561 34.730955,24.3412308 C34.730955,24.4044339 34.7091406,24.4898052 34.6038625,24.5369716 L28.4688051,27.3075293 Z" id="Fill-10" fill="#A4A4A4"></path>
            </g>
          </g>
        </g>
      </g>
    </g>
  </g>
</svg>