<?xml version="1.0" encoding="UTF-8"?>
<svg width="13px" height="12px" viewBox="0 0 13 12" version="1.1" xmlns="http://www.w3.org/2000/svg" xmlns:xlink="http://www.w3.org/1999/xlink">
    <!-- Generator: Sketch 54.1 (76490) - https://sketchapp.com -->
    <title>Combined Shape</title>
    <desc>Created with Sketch.</desc>
    <g id="Symbols" stroke="none" stroke-width="1" fill="none" fill-rule="evenodd">
        <g id="Sign" transform="translate(-16.000000, -10.000000)" fill="#05283E" fill-rule="nonzero">
            <g id="Group-14">
                <g id="41-512" transform="translate(16.000000, 9.500000)">
                    <path d="M11.508919,4.12005458 C10.2854143,5.2899513 9.1209893,6.40306502 7.9405575,7.53148789 C7.0200186,6.64995971 6.11024794,5.77873042 5.19261937,4.89970738 C5.19582074,4.89581051 5.21182758,4.87382101 5.23161786,4.85489335 C6.56513327,3.57922438 7.89166387,2.29659672 9.23536546,1.03039159 C10.2836681,0.0428128216 12.0464579,0.500973659 12.4524496,1.85374502 C12.5968022,2.33500875 12.5374313,2.79957159 12.2932542,3.2396398 C12.2461068,3.32453595 12.2440696,3.37463859 12.3209024,3.43949368 C12.4259655,3.5282867 12.5240438,3.6257085 12.6180476,3.72563544 C13.1305576,4.27175425 13.1317217,5.09622108 12.5947649,5.61923701 C11.6538537,6.53583703 10.6992639,7.43963304 9.74729335,8.34593419 C9.5208693,8.56137555 9.1931656,8.55803538 8.97896496,8.3512228 C8.76010778,8.140235 8.76534638,7.83099035 8.99962834,7.6063635 C9.9067797,6.73596925 10.8162593,5.86780179 11.7248659,4.99879927 C12.1913925,4.61050379 11.6087435,4.19047663 11.508919,4.12005458 Z M4.74500988,5.3183428 C5.66438464,6.19847923 6.57095394,7.06609 7.49091077,7.94650478 C6.58899801,8.56248894 5.67777218,9.18515346 4.75490501,9.81561172 C4.36550222,9.44039859 3.98395732,9.07242251 3.60153933,8.70472478 C3.35881741,8.47146914 3.11725962,8.23737846 2.87104529,8.007463 C2.8154579,7.95541192 2.80643586,7.91866998 2.85329225,7.85632002 C3.47726803,7.02461615 4.09920658,6.19124218 4.72114513,5.35814657 C4.7322044,5.34339412 4.74006231,5.32669324 4.74500988,5.3183428 Z M2.37483321,8.33006835 C3.03926264,8.96442348 3.69030454,9.58625295 4.34891331,10.2147628 C4.09425901,10.674037 3.83814955,11.141105 3.57563735,11.6051111 C3.50229691,11.734543 3.37657045,11.8032949 3.2223227,11.8219442 C2.53577472,11.9054486 1.84922674,11.988118 1.16355186,12.0771894 C1.15685809,12.0780244 1.15016432,12.0796945 1.14347055,12.0819213 C1.07333148,12.3151769 0.849526731,12.4858043 0.583231096,12.4858043 C0.261057033,12.4858043 -7.10542736e-14,12.2361261 -7.10542736e-14,11.9279948 C-7.10542736e-14,11.6733064 0.178694557,11.4589784 0.422580615,11.3921749 C0.426073016,11.3832678 0.428983351,11.3743606 0.430147485,11.3660102 C0.524151299,10.7102222 0.610006176,10.0533209 0.698189321,9.39669795 C0.717979598,9.2491735 0.793939336,9.13198899 0.929851972,9.06212363 C1.41151238,8.81467225 1.89608313,8.57223112 2.37483321,8.33006835 Z M2.25405431,10.7670052 C2.53170025,10.7850979 2.77995181,10.5799554 2.79159315,10.3116279 C2.80352552,10.042187 2.56196773,9.81004476 2.27791906,9.81756015 C1.99852691,9.82507555 1.76773736,10.0650115 1.80528068,10.3272154 C1.81750409,10.4115548 1.78752764,10.4546988 1.73397748,10.5056365 C1.45138397,10.7742423 0.882413515,11.3264848 0.796849671,11.4097108 C0.950515349,11.4676072 1.07187631,11.5861835 1.12950094,11.734543 C1.41005722,11.4653804 1.74358159,11.1422184 2.08292662,10.8249016 C2.12279821,10.787603 2.19788485,10.7633867 2.25405431,10.7670052 Z M12.5397596,11.8096969 C12.7388265,11.8096969 12.9006411,11.9641801 12.9009322,12.1548485 C12.9009322,12.3455169 12.7394086,12.5 12.5400506,12.5 C12.5121114,12.5 12.4853363,12.4966598 12.4594344,12.4910929 C12.4405172,12.4913712 12.4201448,12.4902578 12.3974442,12.4883094 C11.8078104,12.4340315 11.3363362,12.209683 11.0787715,11.6399046 C10.9399486,11.7938311 10.8284827,11.9346752 10.6983908,12.05687 C10.5645154,12.1826833 10.4245283,12.30961 10.265624,12.4020215 C9.97575463,12.5707004 9.67249774,12.5189277 9.45946124,12.2659093 C9.34566715,12.1309105 9.26825224,11.9672419 9.18036013,11.8135938 C9.13903337,11.7415017 9.11196726,11.6618941 9.06918534,11.5647507 C9.02291101,11.6109564 8.98915113,11.6468633 8.95306298,11.6808218 C8.76010778,11.862583 8.58461459,12.0674472 8.36779465,12.2180335 C8.19375663,12.3391148 7.97751875,12.4290213 7.76651948,12.4716085 C7.21064553,12.5840611 6.77642357,12.2389096 6.77031187,11.6886155 C6.76740154,11.4225148 6.81018346,11.1555791 6.83463027,10.858025 C6.78981111,10.9220451 6.7566333,10.9674158 6.72578375,11.0144566 C6.46327155,11.4136077 6.16350706,11.780192 5.75606019,12.0565916 C5.37014979,12.3185171 4.93825611,12.4524025 4.4714384,12.4924846 C4.4670729,12.4930413 4.46299843,12.4930413 4.45892396,12.4933196 C4.43622335,12.4977732 4.41264964,12.5 4.38849386,12.5 C4.18913593,12.5 4.02761235,12.3455169 4.02761235,12.1548485 C4.02761235,11.9661285 4.18593456,11.8130371 4.38267319,11.8099753 C4.39169523,11.8083052 4.40071727,11.8066351 4.41090344,11.8058 C5.16846359,11.747347 5.66583981,11.324258 6.04942194,10.7394488 C6.18824491,10.5276259 6.32532168,10.3138547 6.47636806,10.1101039 C6.61955653,9.9169304 6.81483999,9.8039211 7.07473289,9.84428156 C7.37740771,9.89160073 7.59131732,10.0947948 7.59539179,10.3915138 C7.59917523,10.6765421 7.55319194,10.9621272 7.52758099,11.2471556 C7.51593965,11.3763091 7.49236594,11.5049058 7.4885825,11.6340593 C7.48450803,11.7768519 7.52990926,11.816934 7.67397083,11.7785219 C7.78252632,11.7495737 7.89690248,11.7005845 7.97984702,11.6298841 C8.15621331,11.4792978 8.31278932,11.3072787 8.47984254,11.1463936 C8.58898009,11.041178 8.69171491,10.926777 8.81540414,10.8402108 C9.10265419,10.6389652 9.42075378,10.7024285 9.59275457,10.9999825 C9.70451143,11.1937128 9.7833815,11.4044222 9.87913152,11.6067812 C9.90270523,11.6566055 9.93471891,11.7025329 9.9763367,11.7735117 C10.0994439,11.6463066 10.2123649,11.533854 10.3200472,11.4172262 C10.4515944,11.274712 10.5738284,11.1241257 10.7100321,10.9860651 C10.7854098,10.9095194 10.8733019,10.837984 10.9690519,10.7873246 C11.2207959,10.6542743 11.491166,10.7411189 11.6134,10.990797 C11.6602564,11.0862704 11.691688,11.1898159 11.7216645,11.2919696 C11.8078104,11.5853484 12.0167724,11.7373264 12.3226486,11.7829755 C12.3753257,11.7907693 12.4280027,11.799398 12.4809708,11.8044083 C12.4946494,11.8058 12.5074549,11.8077485 12.5190962,11.8108103 C12.526081,11.8102536 12.5327748,11.8096969 12.5397596,11.8096969 Z" id="Combined-Shape"></path>
                </g>
            </g>
        </g>
    </g>
</svg>