<?xml version="1.0" encoding="UTF-8"?>
<svg width="127px" height="36px" viewBox="0 0 127 36" version="1.1" xmlns="http://www.w3.org/2000/svg" xmlns:xlink="http://www.w3.org/1999/xlink">
    <title>Group 21</title>
    <g id="Nwtwork-page" stroke="none" stroke-width="1" fill="none" fill-rule="evenodd">
        <g id="Network-page01" transform="translate(-51.000000, -41.000000)" fill="#FFFFFF">
            <g id="Group-21" transform="translate(51.000000, 41.000000)">
                <path d="M52.2828055,5.02991149 C50.6809454,5.02991149 49.3456511,6.28738937 49.3456511,7.8145552 L49.3456511,10.5455456 L55.7537958,10.5455456 L55.7537958,15.2609988 L49.3456511,15.2609988 L49.3456511,33 L43.7375562,33 L43.7375562,15.2609988 L40,15.2609988 L40,10.5455456 L43.7375562,10.5455456 L43.7375562,7.45461593 C43.7375562,2.91931003 47.432152,0 51.7038963,0 C55.1308698,0 57,1.88603915 57,1.88603915 L54.8643039,5.88267976 C54.8643039,5.88267976 53.6180997,5.02991149 52.2828055,5.02991149" id="Fill-1"></path>
                <path d="M81,11 L81,33.7722451 L76.3973814,33.7722451 L75.5692814,31.2218949 L74.9706024,31.2218949 C74.0507341,32.3606694 72.025276,34 68.2511214,34 C62.1295913,34 59,29.7187848 59,23.3427291 L59,11 L65.2595468,11 L65.2595468,21.9765602 C65.2595468,24.8000721 65.4893318,28.7173119 69.4477513,28.7173119 C71.4728452,28.7173119 74.7870657,27.6697115 74.7870657,21.7026777 L74.7870657,11 L81,11 Z" id="Fill-3"></path>
                <path d="M93.2257872,15.7803376 C91.3260973,15.7803376 90.5127624,16.7273418 90.5127624,17.6750597 C90.5127624,19.2076081 92.5477099,19.6582736 93.9042223,19.9291011 C97.9293893,20.7858295 102,22.0040181 102,26.7839989 C102,31.4291011 98.1548187,34 93.497376,34 C88.2971135,34 84.2719466,30.8424866 84,26.0625058 L89.5634542,26.0625058 C89.6987118,27.4155729 90.6025763,29.1739893 93.3610448,29.1739893 C95.6679389,29.1739893 96.2104008,27.9565143 96.2104008,27.0095101 C96.2104008,25.3406559 94.6273855,24.8450309 93.0901718,24.4842843 C90.4222328,23.8976698 84.6780773,22.8150734 84.6780773,17.6750597 C84.6780773,13.254755 88.9290315,11 93.3163168,11 C98.3816794,11 101.727696,14.0661671 102,17.8545409 L96.4376193,17.8545409 C96.2565601,17.0880884 95.5323235,15.7803376 93.2257872,15.7803376" id="Fill-5"></path>
                <path d="M126.940105,24.2134568 L110.630953,24.2134568 C111.301279,27.6403705 114.072386,28.9035186 116.484288,28.9035186 C119.523029,28.9035186 120.819135,27.0098669 120.819135,27.0098669 L126.449027,27.0098669 C124.750938,31.5190201 120.684433,34 116.305039,34 C110.273163,34 105,29.3548978 105,22.3187347 C105,15.3293152 110.228616,11 116.126851,11 C121.846898,11 127.654978,15.0135282 126.940105,24.2134568 M110.988036,19.6582736 L121.04187,19.6582736 C120.372251,16.9974557 118.539814,15.9159298 116.305039,15.9159298 C113.848236,15.9159298 111.882158,17.3135996 110.988036,19.6582736" id="Fill-7"></path>
                <path d="M8.95149865,25.0274212 L11.5501925,26.2017561 C13.2740964,26.9808059 15.1075751,27.3753709 16.9996384,27.3753709 C18.8927865,27.3753709 20.7266268,26.9808059 22.4498075,26.2017561 L23.964326,25.5173874 L20.086175,23.7663253 L19.9552639,23.8062858 C17.6050118,24.5255749 15.0804527,24.3668129 12.8466464,23.3573601 L3.20479057,18.999505 L8.95149865,16.4031522 L11.5527239,17.579647 C13.2769895,18.3579769 15.1097449,18.7525419 16.9996384,18.7525419 C18.8898934,18.7525419 20.7226489,18.3579769 22.4472761,17.579287 L23.9610713,16.8945584 L20.0825587,15.1431362 L19.9516476,15.1830967 C17.6035653,15.9016658 15.0815376,15.7429038 12.8502627,14.7352511 L3.2051522,10.3759559 L12.8495394,6.0170208 C15.4876513,4.82540573 18.5134336,4.82576574 21.1504606,6.0170208 L30.7948478,10.3759559 L21.2603969,14.6852104 L30.7952094,18.999505 L21.2640133,23.3076795 L30.7952094,27.6237741 L21.1511838,31.9823492 C18.513072,33.1750443 15.486928,33.1750443 12.8488162,31.9823492 L3.20479057,27.6237741 L8.95149865,25.0274212 Z M34,19.000225 C34,17.7769295 33.3053032,16.704116 32.187496,16.1990296 L28.8434768,14.6873705 L32.1864111,13.1771514 C33.3049416,12.672425 34,11.5985314 34,10.3759559 C34,9.15338047 33.3053032,8.0802069 32.1871344,7.5747605 L22.4479993,3.17370484 C18.9857261,1.60876505 15.0142739,1.60876505 11.5520007,3.17370484 L1.81250399,7.5747605 C0.694335127,8.0802069 0,9.15338047 0,10.3759559 C0,11.5981714 0.69469676,12.672065 1.81322725,13.1771514 L5.15579995,14.6873705 L1.81286562,16.1990296 C0.69469676,16.704116 0,17.7769295 0,19.000225 C0,20.2220805 0.69469676,21.295614 1.81322725,21.8010604 L5.15579995,23.3116395 L1.81250399,24.8229386 C0.694335127,25.328385 0,26.4011986 0,27.6237741 C0,28.8463495 0.69469676,29.9198831 1.81322725,30.4253295 L11.5520007,34.8267452 C13.2748197,35.605435 15.1075751,36 16.9996384,36 C18.8920632,36 20.7251803,35.605435 22.4479993,34.8267452 L32.1864111,30.4253295 C33.3049416,29.9206031 34,28.8467095 34,27.6237741 C34,26.4011986 33.3053032,25.328385 32.1871344,24.8229386 L28.8434768,23.3116395 L32.1864111,21.8010604 C33.3049416,21.296334 34,20.2228005 34,19.000225 L34,19.000225 Z" id="Fill-9"></path>
            </g>
        </g>
    </g>
</svg>