<?xml version="1.0" encoding="UTF-8"?>
<svg width="1280px" height="491px" viewBox="0 0 1280 491" version="1.1" xmlns="http://www.w3.org/2000/svg" xmlns:xlink="http://www.w3.org/1999/xlink">
    <!-- Generator: Sketch 52.5 (67469) - http://www.bohemiancoding.com/sketch -->
    <title>Group 15</title>
    <desc>Created with Sketch.</desc>
    <defs>
        <rect id="path-1" x="0" y="0" width="1280" height="483"></rect>
        <filter x="-0.8%" y="-1.7%" width="101.6%" height="104.1%" filterUnits="objectBoundingBox" id="filter-2">
            <feOffset dx="0" dy="2" in="SourceAlpha" result="shadowOffsetOuter1"></feOffset>
            <feGaussianBlur stdDeviation="3" in="shadowOffsetOuter1" result="shadowBlurOuter1"></feGaussianBlur>
            <feColorMatrix values="0 0 0 0 0.145   0 0 0 0 0.263   0 0 0 0 0.353  0 0 0 0.312273551 0" type="matrix" in="shadowBlurOuter1"></feColorMatrix>
        </filter>
        <rect id="path-3" x="0" y="0" width="606" height="319"></rect>
    </defs>
    <g id="Store" stroke="none" stroke-width="1" fill="none" fill-rule="evenodd">
        <g id="Fuse--AppStore-">
            <g id="Group-15">
                <g id="Rectangle-Copy-2">
                    <use fill="black" fill-opacity="1" filter="url(#filter-2)" xlink:href="#path-1"></use>
                    <use fill="#FC6E4C" fill-rule="evenodd" xlink:href="#path-1"></use>
                </g>
                <g id="Group-8" transform="translate(673.000000, 122.000000)">
                    <mask id="mask-4" fill="white">
                        <use xlink:href="#path-3"></use>
                    </mask>
                    <g id="Rectangle"></g>
                    <g id="Group-6" mask="url(#mask-4)">
                        <g transform="translate(43.000000, 20.000000)">
                            <path d="M357.7903,292.762611 C565.012895,292.762611 733,278.675994 733,265.219585 C733,251.763175 565.012895,240.854599 357.7903,240.854599 C284.418475,240.854599 84.2651697,198.072301 31.3366619,201.658754 C0.0691868759,203.777448 -10.5299572,241.913947 14.3780314,257.804154 C39.28602,273.694362 150.567704,292.762611 357.7903,292.762611 Z" id="Oval" fill-opacity="0.0628962862" fill="#000000"></path>
                            <g id="Group-5" stroke-width="1" fill="none" transform="translate(34.000000, 0.000000)">
                                <g id="Group-117" transform="translate(0.829659, 0.267206)">
                                    <polygon id="Fill-112-Copy" fill="#D25B3F" points="88.1494072 238.47164 0 238.47164 0 141.611073 44.0747036 111.771683 88.1494072 141.611073"></polygon>
                                    <polygon id="Fill-112-Copy-3" fill="#E1684D" points="104.904402 250.734056 44.6546513 250.734056 44.6546513 183.613707 74.7795266 162.936249 104.904402 183.613707"></polygon>
                                    <polygon id="Fill-2" fill="#D25B3F" points="88.2132003 260.59919 169.19581 260.59919 169.19581 110.283401 88.2132003 110.283401"></polygon>
                                    <polygon id="Fill-20" fill-opacity="0.177904212" fill="#E1E1E1" points="220.445758 72.9921926 220.445758 56.1738389 150.358684 56.1738389 150.358684 72.9921926 142.750039 72.9921926 142.750039 261.917693 228.054403 261.917693 228.054403 72.9921926"></polygon>
                                    <polygon id="Fill-22" fill="#E1684D" points="228.494009 72.9921926 228.494009 56.1738389 158.406935 56.1738389 158.406935 72.9921926 150.79829 72.9921926 150.79829 261.917693 236.102654 261.917693 236.102654 72.9921926"></polygon>
                                    <path d="M534.203344,132.499968 C534.203344,132.499968 475.43349,120.809842 425.901771,164.553465 C376.370051,208.297087 319.923112,191.252052 319.923112,191.252052 L319.923112,258.20384 L534.203344,258.20384 L534.203344,132.499968 Z" id="Fill-24" fill="#D25B3F"></path>
                                    <polygon id="Fill-26" fill="#D25B3F" points="223.143455 261.917574 303.710406 261.917574 303.710406 128.018746 223.143455 128.018746"></polygon>
                                    <polygon id="Fill-28" fill-opacity="0.0926743659" fill="#000000" points="380.129652 261.917693 294.129484 261.917693 294.129484 113.932559 380.129652 93.4659361"></polygon>
                                    <polyline id="Stroke-51" stroke="#FFFFFF" stroke-width="0.965" points="305.406026 56.4220019 304.285604 56.1739576 303.36857 56.8646839"></polyline>
                                    <path d="M178.666602,150.969728 L177.749568,151.660454" id="Stroke-53" stroke="#FFFFFF" stroke-width="0.965"></path>
                                    <polygon id="Fill-89" fill="#E1684D" points="234.317754 273.672744 317.428752 273.672744 317.428752 135.825428 234.317754 135.825428"></polygon>
                                    <polygon id="Fill-91" fill="#D25B3F" points="248.354245 167.135206 257.329502 167.135206 257.329502 149.366938 248.354245 149.366938"></polygon>
                                    <polygon id="Fill-92" fill="#D25B3F" points="269.865414 167.135206 278.841897 167.135206 278.841897 149.366938 269.865414 149.366938"></polygon>
                                    <polygon id="Fill-93" fill="#D25B3F" points="269.865414 198.025974 278.841897 198.025974 278.841897 180.257705 269.865414 180.257705"></polygon>
                                    <polygon id="Fill-94" fill="#D25B3F" points="291.376582 198.025974 300.353066 198.025974 300.353066 180.257705 291.376582 180.257705"></polygon>
                                    <polygon id="Fill-95" fill="#D25B3F" points="269.865414 228.915519 278.841897 228.915519 278.841897 211.147251 269.865414 211.147251"></polygon>
                                    <polygon id="Fill-96" fill="#D25B3F" points="291.376582 228.915519 300.353066 228.915519 300.353066 211.147251 291.376582 211.147251"></polygon>
                                    <polygon id="Fill-97" fill="#D25B3F" points="291.376582 259.807508 300.353066 259.807508 300.353066 242.03924 291.376582 242.03924"></polygon>
                                    <polygon id="Fill-98" fill="#D25B3F" points="317.213617 62.2793317 317.213617 49.952099 306.491161 43.7890935 295.767478 49.952099 295.767478 62.2793317 306.491161 68.4423373"></polygon>
                                    <polygon id="Fill-99" fill="#D25B3F" points="450.925309 90.3481877 450.925309 78.020955 440.202853 71.8579495 429.480396 78.020955 429.480396 90.3481877 440.202853 96.5111932"></polygon>
                                    <path d="M376.565325,150.908605 C376.565325,153.922309 374.111393,156.3643 371.084468,156.3643 C368.057543,156.3643 365.603611,153.922309 365.603611,150.908605 C365.603611,147.894902 368.057543,145.451688 371.084468,145.451688 C374.111393,145.451688 376.565325,147.894902 376.565325,150.908605" id="Fill-102" fill="#D25B3F"></path>
                                    <path d="M376.565325,126.920282 C376.565325,129.933986 374.111393,132.377199 371.084468,132.377199 C368.057543,132.377199 365.603611,129.933986 365.603611,126.920282 C365.603611,123.906578 368.057543,121.464587 371.084468,121.464587 C374.111393,121.464587 376.565325,123.906578 376.565325,126.920282" id="Fill-103" fill="#D25B3F"></path>
                                    <path d="M355.795489,150.908605 C355.795489,153.922309 353.341557,156.3643 350.314632,156.3643 C347.287707,156.3643 344.833775,153.922309 344.833775,150.908605 C344.833775,147.894902 347.287707,145.451688 350.314632,145.451688 C353.341557,145.451688 355.795489,147.894902 355.795489,150.908605" id="Fill-104" fill="#D25B3F"></path>
                                    <path d="M335.025776,150.908605 C335.025776,153.922309 332.571844,156.3643 329.544919,156.3643 C326.517994,156.3643 324.064062,153.922309 324.064062,150.908605 C324.064062,147.894902 326.517994,145.451688 329.544919,145.451688 C332.571844,145.451688 335.025776,147.894902 335.025776,150.908605" id="Fill-105" fill="#D25B3F"></path>
                                    <path d="M376.565325,177.254874 C376.565325,180.268577 374.111393,182.710569 371.084468,182.710569 C368.057543,182.710569 365.603611,180.268577 365.603611,177.254874 C365.603611,174.24117 368.057543,171.797957 371.084468,171.797957 C374.111393,171.797957 376.565325,174.24117 376.565325,177.254874" id="Fill-106" fill="#D25B3F"></path>
                                    <path d="M355.795489,177.254874 C355.795489,180.268577 353.341557,182.710569 350.314632,182.710569 C347.287707,182.710569 344.833775,180.268577 344.833775,177.254874 C344.833775,174.24117 347.287707,171.797957 350.314632,171.797957 C353.341557,171.797957 355.795489,174.24117 355.795489,177.254874" id="Fill-107" fill="#D25B3F"></path>
                                    <path d="M355.795489,203.600531 C355.795489,206.614235 353.341557,209.057448 350.314632,209.057448 C347.287707,209.057448 344.833775,206.614235 344.833775,203.600531 C344.833775,200.586828 347.287707,198.144836 350.314632,198.144836 C353.341557,198.144836 355.795489,200.586828 355.795489,203.600531" id="Fill-108" fill="#D25B3F"></path>
                                    <path d="M335.025776,203.600531 C335.025776,206.614235 332.571844,209.057448 329.544919,209.057448 C326.517994,209.057448 324.064062,206.614235 324.064062,203.600531 C324.064062,200.586828 326.517994,198.144836 329.544919,198.144836 C332.571844,198.144836 335.025776,200.586828 335.025776,203.600531" id="Fill-109" fill="#D25B3F"></path>
                                    <path d="M376.565325,229.9468 C376.565325,232.960503 374.111393,235.403717 371.084468,235.403717 C368.057543,235.403717 365.603611,232.960503 365.603611,229.9468 C365.603611,226.933096 368.057543,224.491104 371.084468,224.491104 C374.111393,224.491104 376.565325,226.933096 376.565325,229.9468" id="Fill-110" fill="#D25B3F"></path>
                                    <path d="M335.025776,229.9468 C335.025776,232.960503 332.571844,235.403717 329.544919,235.403717 C326.517994,235.403717 324.064062,232.960503 324.064062,229.9468 C324.064062,226.933096 326.517994,224.491104 329.544919,224.491104 C332.571844,224.491104 335.025776,226.933096 335.025776,229.9468" id="Fill-111" fill="#D25B3F"></path>
                                    <polygon id="Fill-112" fill="#E1684D" points="475.852118 273.078756 388.867588 273.078756 388.867588 176.869903 432.359853 147.231282 475.852118 176.869903"></polygon>
                                    <path d="M439.144151,135.241866 C437.206772,133.311728 434.628916,132.250152 431.889101,132.250152 C429.149286,132.250152 426.57143,133.311728 424.634051,135.241866 L423.766586,134.378191 C425.935862,132.217168 428.820459,131.028545 431.889101,131.028545 C434.957743,131.028545 437.841113,132.217168 440.011616,134.378191 L439.144151,135.241866 Z" id="Fill-113" fill="#E1684D"></path>
                                    <path d="M436.460163,137.914131 C435.239332,136.698632 433.616056,136.029192 431.888488,136.029192 C430.162146,136.029192 428.53887,136.698632 427.318039,137.914131 L426.450574,137.050455 C427.902075,135.604073 429.834546,134.807585 431.888488,134.807585 C433.943656,134.807585 435.8749,135.604073 437.327628,137.050455 L436.460163,137.914131 Z" id="Fill-114" fill="#E1684D"></path>
                                    <path d="M433.71863,140.644788 C432.740738,139.671168 431.037709,139.673611 430.061044,140.644788 L429.193579,139.781112 C430.630357,138.346946 433.140729,138.345725 434.586095,139.779891 L433.71863,140.644788 Z" id="Fill-115" fill="#E1684D"></path>
                                </g>
                            </g>
                        </g>
                    </g>
                </g>
            </g>
        </g>
    </g>
</svg>