<?xml version="1.0" encoding="UTF-8"?>
<svg width="80px" height="80px" viewBox="0 0 80 80" version="1.1" xmlns="http://www.w3.org/2000/svg" xmlns:xlink="http://www.w3.org/1999/xlink">
    <!-- Generator: Sketch 53.2 (72643) - https://sketchapp.com -->
    <title>Group 4</title>
    <desc>Created with Sketch.</desc>
    <g id="Curency-type\mint\burn" stroke="none" stroke-width="1" fill="none" fill-rule="evenodd">
        <g id="Mintable-burnable-token-Copy-3" transform="translate(-808.000000, -511.000000)" stroke-width="2">
            <g id="Group-18-Copy-4" transform="translate(808.000000, 511.000000)">
                <g id="Group-4" transform="translate(0.000000, 0.000000)">
                    <path d="M39.6039604,78.2079208 C60.8891737,78.2079208 78.2079208,60.8891737 78.2079208,39.6039604 C78.2079208,18.3187471 60.8891737,1 39.6039604,1 C18.3187471,1 1,18.3187471 1,39.6039604 C1,60.8891737 18.3187471,78.2079208 39.6039604,78.2079208 Z" id="Path" stroke="#05283E" fill="#05283E"></path>
                    <path d="M39.6039604,70.6039604 C56.6963741,70.6039604 70.6039604,56.6963741 70.6039604,39.6039604 C70.6039604,22.5115467 56.6963741,8.6039604 39.6039604,8.6039604 C22.5115467,8.6039604 8.6039604,22.5115467 8.6039604,39.6039604 C8.6039604,56.6963741 22.5115467,70.6039604 39.6039604,70.6039604 Z" id="Path" stroke="#34D080"></path>
                </g>
            </g>
        </g>
    </g>
</svg>