<?xml version="1.0" encoding="UTF-8"?>
<svg width="14px" height="12px" viewBox="0 0 14 12" version="1.1" xmlns="http://www.w3.org/2000/svg" xmlns:xlink="http://www.w3.org/1999/xlink">
    <!-- Generator: Sketch 56.2 (81672) - https://sketch.com -->
    <title>Group 7</title>
    <desc>Created with Sketch.</desc>
    <defs>
        <polygon id="path-1" points="1.24444444e-05 0.00192 13.9405156 0.00192 13.9405156 5.88001095 1.24444444e-05 5.88001095"></polygon>
        <polygon id="path-3" points="0 0.00188504724 13.9405156 0.00188504724 13.9405156 5.87997222 0 5.87997222"></polygon>
    </defs>
    <g id="Transfer-" stroke="none" stroke-width="1" fill="none" fill-rule="evenodd">
        <g id="Transfer-new" transform="translate(-33.000000, -336.000000)">
            <g id="Group-7" transform="translate(33.000000, 336.000000)">
                <g id="Group-3" transform="translate(0.000000, 0.058080)">
                    <mask id="mask-2" fill="white">
                        <use xlink:href="#path-1"></use>
                    </mask>
                    <g id="Clip-2"></g>
                    <path d="M13.9399058,2.941902 L13.9399058,2.939982 L13.9405487,2.939982 C13.9405487,2.741622 13.9405487,2.663262 13.9405487,2.464902 C13.9400924,1.900782 13.8362436,1.799502 13.255088,1.799442 C10.1234436,1.799262 6.99179911,1.799382 3.86015467,1.799382 L3.48713244,1.799382 C3.48713244,1.386162 3.48445689,0.897042 3.48819022,0.527982 C3.49030578,0.314082 3.446128,0.124362 3.21808356,0.035442 C2.99402133,-0.051918 2.81843022,0.042042 2.66107022,0.194142 C1.84813689,0.979842 1.03203022,1.762602 0.220714667,2.549862 C0.188856889,2.580762 0.161105778,2.610642 0.136154667,2.639982 C0.0547057778,2.735682 0.0100924444,2.824242 0.002128,2.911902 C0.00125688889,2.921262 1.24444444e-05,2.930682 1.24444444e-05,2.939982 L0.002128,2.939982 L0.002128,2.941902 L1.24444444e-05,2.941902 C1.24444444e-05,2.951262 0.00125688889,2.960622 0.002128,2.969982 C0.0125813333,3.084462 0.0849457778,3.200322 0.220714667,3.332022 C0.230296889,3.341382 0.240003556,3.350622 0.249648,3.359982 C1.05144356,4.137822 1.85778133,4.911402 2.66107022,5.687802 C2.81843022,5.839842 2.99402133,5.933802 3.21808356,5.846502 C3.446128,5.757582 3.49030578,5.567802 3.48819022,5.353962 C3.48445689,4.984842 3.48713244,4.495722 3.48713244,4.082502 L3.86015467,4.082502 C6.99179911,4.082502 10.1234436,4.082742 13.255088,4.082502 C13.8362436,4.082442 13.9400924,3.981102 13.9405487,3.416982 C13.9405487,3.218622 13.9405487,3.140262 13.9405487,2.941902 L13.9399058,2.941902 Z" id="Fill-1" fill="#FAE83E" mask="url(#mask-2)"></path>
                </g>
                <g id="Group-6" transform="translate(0.000000, 6.118080)">
                    <mask id="mask-4" fill="white">
                        <use xlink:href="#path-3"></use>
                    </mask>
                    <g id="Clip-5"></g>
                    <path d="M0.000640888889,2.939994 L0.000640888889,2.941914 L-2.07407407e-06,2.941914 C-2.07407407e-06,3.140274 -2.07407407e-06,3.218634 -2.07407407e-06,3.416994 C0.000454222222,3.981114 0.104303111,4.082394 0.685458667,4.082394 C3.81710311,4.082574 6.94874756,4.082514 10.080392,4.082514 L10.4534142,4.082514 C10.4534142,4.495674 10.4560898,4.984854 10.4523564,5.353914 C10.4502409,5.567814 10.4944187,5.757534 10.7224631,5.846454 C10.9465253,5.933754 11.1221164,5.839854 11.2794764,5.687754 C12.0924098,4.902054 12.9085164,4.119294 13.719832,3.332034 C13.7516898,3.301134 13.7794409,3.271254 13.804392,3.241914 C13.8858409,3.146154 13.9304542,3.057594 13.9384187,2.969994 C13.9392898,2.960634 13.9405342,2.951214 13.9405342,2.941914 L13.9384187,2.941914 L13.9384187,2.939994 L13.9405342,2.939994 C13.9405342,2.930634 13.9392898,2.921274 13.9384187,2.911914 C13.9279653,2.797374 13.8556009,2.681574 13.719832,2.549874 C13.7102498,2.540514 13.7005431,2.531214 13.6908987,2.521914 C12.8891031,1.744014 12.0827653,0.970494 11.2794764,0.194094 C11.1221164,0.042054 10.9465253,-0.051906 10.7224631,0.035394 C10.4944187,0.124314 10.4502409,0.314034 10.4523564,0.527934 C10.4560898,0.897054 10.4534142,1.386174 10.4534142,1.799394 L10.080392,1.799394 C6.94874756,1.799394 3.81710311,1.799154 0.685458667,1.799394 C0.104303111,1.799394 0.000454222222,1.900794 -2.07407407e-06,2.464914 C-2.07407407e-06,2.663274 -2.07407407e-06,2.741634 -2.07407407e-06,2.939994 L0.000640888889,2.939994 Z" id="Fill-4" fill="#FAE83E" mask="url(#mask-4)"></path>
                </g>
            </g>
        </g>
    </g>
</svg>