<?xml version="1.0" encoding="UTF-8"?>
<svg width="36px" height="36px" viewBox="0 0 36 36" version="1.1" xmlns="http://www.w3.org/2000/svg" xmlns:xlink="http://www.w3.org/1999/xlink">
    <title>Group 29</title>
    <defs>
        <linearGradient x1="24.6379431%" y1="8.76684776%" x2="81.1188918%" y2="87.1815286%" id="linearGradient-1">
            <stop stop-color="#0096FF" offset="0%"></stop>
            <stop stop-color="#005FEB" offset="100%"></stop>
        </linearGradient>
    </defs>
    <g id="plugins" stroke="none" stroke-width="1" fill="none" fill-rule="evenodd">
        <g id="Fiat-on-ramp-new" transform="translate(-640.000000, -420.000000)">
            <g id="Group-28" transform="translate(640.000000, 420.000000)">
                <circle id="Oval-Copy-4" fill="url(#linearGradient-1)" cx="18" cy="18" r="18"></circle>
                <path d="M28.5738024,17.6216216 L23.7808076,12.8783784 C23.503879,12.5929054 23.1417416,12.4611486 22.7796042,12.4831081 C22.758302,12.4831081 22.758302,12.4831081 22.7369998,12.4831081 C22.2044448,12.4831081 21.7570986,12.7905405 21.5227744,13.2297297 L14.4504442,20.3006757 L14.4504442,13.4273649 C14.4504442,12.6368243 13.8326805,12 13.0658013,12 C12.2989221,12 11.6811583,12.6368243 11.6811583,13.4273649 L11.6811583,20.0371622 L9.35921858,17.6435811 C8.8266636,17.0945946 7.93197122,17.0945946 7.39941624,17.6435811 C6.86686125,18.1925676 6.86686125,19.1148649 7.39941624,19.6638514 L11.8302737,24.2314189 C12.0645979,24.6925676 12.5332463,25 13.0658013,25 C13.0871035,25 13.0871035,25 13.1084057,25 C13.1297079,25 13.1510101,25 13.1510101,25 C13.4918453,25 13.8539827,24.8682432 14.109609,24.6047297 L21.3310546,17.3800676 L21.3310546,23.5726351 C21.3310546,24.3631757 21.9488184,25 22.7156976,25 C23.4825768,25 24.1003406,24.3631757 24.1003406,23.5726351 L24.1003406,17.160473 L26.6353023,19.6638514 C27.1891595,20.2128378 28.0625496,20.1908784 28.5951046,19.6199324 C29.1489618,19.0709459 29.1276596,18.1706081 28.5738024,17.6216216 Z" id="Path" fill="#FFFFFF" fill-rule="nonzero"></path>
            </g>
        </g>
    </g>
</svg>