<?xml version="1.0" encoding="UTF-8"?>
<svg width="19px" height="19px" viewBox="0 0 19 19" version="1.1" xmlns="http://www.w3.org/2000/svg" xmlns:xlink="http://www.w3.org/1999/xlink">
    <title>transak-02</title>
    <g id="plugins" stroke="none" stroke-width="1" fill="none" fill-rule="evenodd">
        <g id="Fiat-on-ramp" transform="translate(-622.000000, -439.000000)" fill-rule="nonzero">
            <g id="transak-02" transform="translate(622.000000, 439.000000)">
                <path d="M16.7616,18.5904 L1.3968,18.5904 C0.6624,18.5904 0.072,18 0.072,17.2656 L0.072,1.3968 C0.072,0.6624 0.6624,0.072 1.3968,0.072 L16.776,0.072 C17.5104,0.072 18.1008,0.6624 18.1008,1.3968 L18.1008,17.28 C18.0864,18 17.496,18.5904 16.7616,18.5904 Z" id="Path" fill="#052235"></path>
                <path d="M16.2288,8.7552 L12.9888,5.6448 C12.8016,5.4576 12.5568,5.3712 12.312,5.3856 C12.2976,5.3856 12.2976,5.3856 12.2832,5.3856 C11.9232,5.3856 11.6208,5.5872 11.4624,5.8752 L6.6816,10.512 L6.6816,6.0048 C6.6816,5.4864 6.264,5.0688 5.7456,5.0688 C5.2272,5.0688 4.8096,5.4864 4.8096,6.0048 L4.8096,10.3392 L3.24,8.7696 C2.88,8.4096 2.2752,8.4096 1.9152,8.7696 C1.5552,9.1296 1.5552,9.7344 1.9152,10.0944 L4.9104,13.0896 C5.0688,13.392 5.3856,13.5936 5.7456,13.5936 C5.76,13.5936 5.76,13.5936 5.7744,13.5936 C5.7888,13.5936 5.8032,13.5936 5.8032,13.5936 C6.0336,13.5936 6.2784,13.5072 6.4512,13.3344 L11.3328,8.5968 L11.3328,12.6576 C11.3328,13.176 11.7504,13.5936 12.2688,13.5936 C12.7872,13.5936 13.2048,13.176 13.2048,12.6576 L13.2048,8.4528 L14.9184,10.0944 C15.2928,10.4544 15.8832,10.44 16.2432,10.0656 C16.6176,9.7056 16.6032,9.1152 16.2288,8.7552 Z" id="Path" fill="#FFFFFF"></path>
            </g>
        </g>
    </g>
</svg>