<?xml version="1.0" encoding="UTF-8"?>
<svg width="15px" height="20px" color='#5fddbb' viewBox="0 0 15 20" version="1.1" xmlns="http://www.w3.org/2000/svg" xmlns:xlink="http://www.w3.org/1999/xlink">
    <!-- Generator: Sketch 51.3 (57544) - http://www.bohemiancoding.com/sketch -->
    <title>My User</title>
    <desc>Created with Sketch.</desc>
    <defs></defs>
    <g id="Presenting-new-CC's" stroke="none" stroke-width="1" fill="#5fddbb" fill-rule="evenodd">
        <g id="Artboard-2" transform="translate(-227.000000, -264.000000)" fill="#5fddbb" fill-rule="nonzero">
            <path fill="#5fddbb" d="M232.304102,273.493252 C230.643496,272.680171 229.5,270.973624 229.5,269 C229.5,266.238576 231.738576,264 234.5,264 C237.261424,264 239.5,266.238576 239.5,269 C239.5,270.973624 238.356504,272.680171 236.695898,273.493252 C239.766633,274.432093 242,277.288564 242,280.666667 L242,283.469697 L240.333333,283.469697 L240.333333,280.666667 C240.333333,277.445006 237.721661,274.833333 234.5,274.833333 C231.278339,274.833333 228.666667,277.445006 228.666667,280.666667 L228.666667,283.469697 L227,283.469697 L227,280.666667 C227,277.288564 229.233367,274.432093 232.304102,273.493252 Z M234.5,272.333333 C236.340949,272.333333 237.833333,270.840949 237.833333,269 C237.833333,267.159051 236.340949,265.666667 234.5,265.666667 C232.659051,265.666667 231.166667,267.159051 231.166667,269 C231.166667,270.840949 232.659051,272.333333 234.5,272.333333 Z" id="My-User"></path>
        </g>
    </g>
</svg>
