<?xml version="1.0" encoding="UTF-8"?>
<svg width="13px" height="12px" viewBox="0 0 13 12" version="1.1" xmlns="http://www.w3.org/2000/svg" xmlns:xlink="http://www.w3.org/1999/xlink">
    <!-- Generator: Sketch 55.2 (78181) - https://sketchapp.com -->
    <title>Group 2</title>
    <desc>Created with Sketch.</desc>
    <g id="community-page" stroke="none" stroke-width="1" fill="none" fill-rule="evenodd">
        <g transform="translate(-33.000000, -268.000000)" fill-rule="nonzero" id="Group-2">
            <g transform="translate(32.000000, 267.000000)">
                <path d="M12.9271701,3.20614828 L10.4057869,3.20614828 L2.62822865,3.20614828 L2.62822865,3.19168174 C2.2962597,3.15551537 2.04333098,2.90235081 2.04333098,2.59132007 C2.04333098,2.28028933 2.30416373,2.02712477 2.62822865,1.99095841 C2.6440367,1.99095841 2.65194072,1.98372514 2.66774876,1.98372514 L11.6467184,1.98372514 C11.6625265,1.98372514 11.6783345,1.97649186 11.6941426,1.97649186 C11.9628793,1.95479204 12.184192,1.74502712 12.184192,1.49186257 C12.184192,1.22423146 11.9391673,1 11.6467184,1 L1.82992237,1 C1.82992237,1 1.82201835,1 1.82201835,1 C1.82201835,1 1.81411433,1 1.81411433,1 C1.36358504,1 1,1.33273056 1,1.74502712 L1,4.11030741 C1,4.11030741 1,4.11030741 1,4.11030741 L1,12.0958409 C1,12.5949367 1.44262526,13 1.98800282,13 L12.9350741,13 C13.4804517,13 13.9230769,12.5949367 13.9230769,12.0958409 L13.9230769,4.11030741 C13.9151729,3.61844485 13.4725476,3.20614828 12.9271701,3.20614828 Z M11.7692308,9.72727273 C11.172918,9.72727273 10.6923077,9.24042074 10.6923077,8.63636364 C10.6923077,8.03230654 11.172918,7.54545455 11.7692308,7.54545455 C12.3655435,7.54545455 12.8461538,8.03230654 12.8461538,8.63636364 C12.8461538,9.24042074 12.3566434,9.72727273 11.7692308,9.72727273 Z" id="Shape" fill="#ABC3D2"></path>
                <g id="Shape-Copy" transform="translate(0.461538, 0.090909)" fill="#FAE83E">
                    <path d="M12.4656316,3.11523919 L9.94424841,3.11523919 L2.16669019,3.11523919 L2.16669019,3.10077265 C1.83472124,3.06460628 1.58179252,2.81144172 1.58179252,2.50041098 C1.58179252,2.18938024 1.84262526,1.93621568 2.16669019,1.90004932 C2.18249824,1.90004932 2.19040226,1.89281604 2.2062103,1.89281604 L11.18518,1.89281604 C11.200988,1.89281604 11.216796,1.88558277 11.2326041,1.88558277 C11.5013409,1.86388295 11.7226535,1.65411803 11.7226535,1.40095348 C11.7226535,1.13332237 11.4776288,0.909090909 11.18518,0.909090909 L1.36838391,0.909090909 C1.36838391,0.909090909 1.36047989,0.909090909 1.36047989,0.909090909 C1.36047989,0.909090909 1.35257586,0.909090909 1.35257586,0.909090909 C0.902046577,0.909090909 0.538461538,1.24182147 0.538461538,1.65411803 L0.538461538,4.01939832 C0.538461538,4.01939832 0.538461538,4.01939832 0.538461538,4.01939832 L0.538461538,12.0049318 C0.538461538,12.5040276 0.981086803,12.9090909 1.52646436,12.9090909 L12.4735356,12.9090909 C13.0189132,12.9090909 13.4615385,12.5040276 13.4615385,12.0049318 L13.4615385,4.01939832 C13.4536344,3.52753576 13.0110092,3.11523919 12.4656316,3.11523919 Z M11.3076923,9.63636364 C10.7113795,9.63636364 10.2307692,9.14951165 10.2307692,8.54545455 C10.2307692,7.94139745 10.7113795,7.45454545 11.3076923,7.45454545 C11.9040051,7.45454545 12.3846154,7.94139745 12.3846154,8.54545455 C12.3846154,9.14951165 11.8951049,9.63636364 11.3076923,9.63636364 Z"></path>
                </g>
            </g>
        </g>
    </g>
</svg>