<?xml version="1.0" encoding="UTF-8"?>
<svg width="13px" height="12px" viewBox="0 0 13 12" version="1.1" xmlns="http://www.w3.org/2000/svg" xmlns:xlink="http://www.w3.org/1999/xlink">
    <!-- Generator: Sketch 55.1 (78136) - https://sketchapp.com -->
    <title>Group 2</title>
    <desc>Created with Sketch.</desc>
    <g id="community-page" stroke="none" stroke-width="1" fill="none" fill-rule="evenodd">
        <g id="buisniss-list" transform="translate(-33.000000, -268.000000)" fill="#FFFFFF" fill-rule="nonzero">
            <g id="Group-2" transform="translate(33.000000, 268.000000)">
                <path d="M11.9271701,2.20614828 L9.40578687,2.20614828 L1.62822865,2.20614828 L1.62822865,2.19168174 C1.2962597,2.15551537 1.04333098,1.90235081 1.04333098,1.59132007 C1.04333098,1.28028933 1.30416373,1.02712477 1.62822865,0.990958409 C1.6440367,0.990958409 1.65194072,0.983725136 1.66774876,0.983725136 L10.6467184,0.983725136 C10.6625265,0.983725136 10.6783345,0.976491863 10.6941426,0.976491863 C10.9628793,0.954792043 11.184192,0.745027125 11.184192,0.491862568 C11.184192,0.224231465 10.9391673,0 10.6467184,0 L0.829922371,0 C0.829922371,0 0.822018349,0 0.822018349,0 C0.822018349,0 0.814114326,0 0.814114326,0 C0.363585039,0 0,0.332730561 0,0.745027125 L0,3.11030741 C0,3.11030741 0,3.11030741 0,3.11030741 L0,11.0958409 C0,11.5949367 0.442625265,12 0.988002823,12 L11.9350741,12 C12.4804517,12 12.9230769,11.5949367 12.9230769,11.0958409 L12.9230769,3.11030741 C12.9151729,2.61844485 12.4725476,2.20614828 11.9271701,2.20614828 Z M10.7692308,8.72727273 C10.172918,8.72727273 9.69230769,8.24042074 9.69230769,7.63636364 C9.69230769,7.03230654 10.172918,6.54545455 10.7692308,6.54545455 C11.3655435,6.54545455 11.8461538,7.03230654 11.8461538,7.63636364 C11.8461538,8.24042074 11.3566434,8.72727273 10.7692308,8.72727273 Z" id="Shape"></path>
            </g>
        </g>
    </g>
</svg>