<?xml version="1.0" encoding="UTF-8"?>
<svg width="15px" height="15px" viewBox="0 0 15 15" version="1.1" xmlns="http://www.w3.org/2000/svg" xmlns:xlink="http://www.w3.org/1999/xlink">
    <!-- Generator: Sketch 62 (91390) - https://sketch.com -->
    <title>Group 13 Copy</title>
    <desc>Created with Sketch.</desc>
    <g id="plugins" stroke="none" stroke-width="1" fill="none" fill-rule="evenodd">
        <g id="Group-13-Copy" fill-rule="nonzero">
            <g id="icons8-us-dollar-(1)" fill="#FFFFFF">
                <path d="M15,7.5 C15,11.6415 11.6415,15 7.5,15 C3.3585,15 0,11.6415 0,7.5 C0,3.3585 3.3585,0 7.5,0 C11.6415,0 15,3.3585 15,7.5 Z" id="Path"></path>
            </g>
            <path d="M9.82116788,3.00236418 C9.25045629,3.02972206 8.70164251,3.27867896 8.27737226,3.70272596 L6.61313869,5.36608519 C6.87454388,5.10344953 7.84489051,5.28401155 8.08029197,5.51928933 L9.08759124,4.51251927 C9.31067527,4.28955245 9.58987235,4.15276304 9.87591241,4.14045208 C10.0702556,4.13087673 10.3453468,4.17191373 10.5875912,4.4140309 C10.8134123,4.63973334 10.8613139,4.902369 10.8613139,5.08156322 C10.8613139,5.38113212 10.7244526,5.67933286 10.4890511,5.91324284 L8.73722628,7.67509044 C8.29653302,8.11555252 7.62591241,8.15111759 7.23722628,7.76263567 C7.01551112,7.541037 6.65009133,7.53966884 6.4270073,7.76263567 C6.20392327,7.98560249 6.20392327,8.34946215 6.4270073,8.57242898 C6.82664234,8.97185406 7.35218978,9.17430238 7.89416058,9.17430238 C8.47992701,9.17430238 9.07801086,8.93492083 9.53649635,8.4739406 L11.2992701,6.72303615 C11.7468067,6.27710284 12,5.68070101 12,5.08156322 C12,4.52483023 11.7892338,3.99545548 11.3978102,3.60423759 C10.9790148,3.18566217 10.4165147,2.9750063 9.82116788,3.00236418 Z M7.10583942,5.82569761 C6.52007299,5.82569761 5.91240876,6.06644698 5.45255474,6.5260594 L3.70072993,8.27696385 C3.25319334,8.7228975 3,9.31929933 3,9.91843678 C3,10.4751698 3.2107666,11.0045449 3.60218978,11.3957624 C4.02098558,11.8143382 4.58348531,12.0249937 5.17883212,11.9976358 C5.74954371,11.9702779 6.29835784,11.7213214 6.72262774,11.297274 L8.38686131,9.6339148 C8.12408759,9.89655047 7.15510949,9.71598845 6.91970803,9.48071066 L5.91240876,10.4874807 C5.68932473,10.7104476 5.41012765,10.8458692 5.12408759,10.8595479 C4.9297447,10.8691233 4.6546532,10.8280863 4.41240876,10.5859691 C4.18658768,10.3602667 4.13868613,10.0962632 4.13868613,9.91843678 C4.13868613,9.61886788 4.27554745,9.32066714 4.51094891,9.08675716 L6.26277372,7.32490955 C6.70346733,6.88444783 7.37408759,6.85025021 7.76277372,7.23736433 C7.98585775,7.46033116 8.35127755,7.46033116 8.5729927,7.23736433 C8.79607673,7.0143975 8.79607673,6.65053785 8.5729927,6.42757102 C8.17335766,6.02814594 7.64644169,5.82569761 7.10583942,5.82569761 Z" id="Shape" fill="#052235"></path>
        </g>
    </g>
</svg>