<?xml version="1.0" encoding="UTF-8"?>
<svg width="69px" height="162px" viewBox="0 0 69 162" version="1.1" xmlns="http://www.w3.org/2000/svg" xmlns:xlink="http://www.w3.org/1999/xlink">
    <!-- Generator: Sketch 55.2 (78181) - https://sketchapp.com -->
    <title>Group 12</title>
    <desc>Created with Sketch.</desc>
    <defs>
        <path d="M12.2333254,0.355102049 C20.8133655,-1.27192156 29.4641202,2.84628053 31.5443085,9.5537245 C33.6303897,16.2611685 28.3562579,23.0174139 19.7703249,24.644898 C11.1843919,26.2719216 2.53953007,22.1537195 0.453448887,15.4462755 C-1.62673941,8.73883152 3.64739239,1.98212566 12.2333254,0.355102049" id="path-1"></path>
        <path d="M4.2052056,0.14204082 C7.15459439,-0.508768625 10.1282913,1.13851221 10.843356,3.8214898 C11.5604465,6.50446739 9.74746365,9.20696558 6.79604918,9.85795918 C3.84463472,10.5087686 0.87296346,8.86148779 0.155873055,6.1785102 C-0.559191672,3.49553261 1.25379113,0.792850264 4.2052056,0.14204082" id="path-3"></path>
        <path d="M2.29374851,0.0852244918 C3.90250603,-0.305261175 5.52452254,0.683107328 5.91455784,2.29289388 C6.30569807,3.90268043 5.31679835,5.52417935 3.70693592,5.91477551 C2.09707348,6.30526117 0.476161888,5.31689267 0.0850216663,3.70710612 C-0.305013639,2.09731957 0.683886073,0.475710159 2.29374851,0.0852244918" id="path-5"></path>
        <linearGradient x1="6.171875%" y1="48.1296446%" x2="90.7849702%" y2="52.1936928%" id="linearGradient-7">
            <stop stop-color="#97FBA2" offset="0%"></stop>
            <stop stop-color="#FAE83E" offset="100%"></stop>
        </linearGradient>
    </defs>
    <g id="Buisniss-list" stroke="none" stroke-width="1" fill="none" fill-rule="evenodd">
        <g id="pop-up-worng-network" transform="translate(-1073.000000, -246.000000)">
            <g id="Group-12" transform="translate(1073.000000, 246.000000)">
                <g id="Group-10" transform="translate(0.000000, 0.000000)">
                    <path d="M50.5924143,47.600862 C50.0176778,47.5106151 49.5700186,47.5422344 48.5793923,47.5046864 C45.4024566,47.3831495 43.0110904,49.637676 43.0110904,52.8552756 C43.0110904,53.5308101 42.9417754,54.1990985 43.1497203,54.802172 C43.0746291,58.6083528 45.2089523,61.8895205 48.5389586,62.4267203 C52.1375603,63.0064087 55.4386854,60.0835938 55.9094495,55.8986393 C56.3802136,51.7133554 55.0747818,48.3007698 50.5924143,47.600862" id="Fill-304-Copy" fill="#804E4E"></path>
                    <path d="M36.3475435,56.4814314 L33.6859867,55.9440467 C33.2166497,55.8493279 32.9166304,55.4190888 33.0205975,54.9827744 L34.6187197,48.1370577 C34.7197163,47.7007434 35.1831124,47.4240427 35.6524494,47.5184855 L38.3169767,48.0561462 C38.7833432,48.150589 39.0833625,48.5811042 38.9793954,49.0171424 L37.3812731,55.8631353 C37.2802765,56.2991735 36.8168805,56.5761502 36.3475435,56.4814314" id="Fill-305-Copy" fill="#102257"></path>
                    <polyline id="Fill-306-Copy" fill="#DBA992" points="52.2682152 69.3425361 49.3342298 70 46.6555012 69.446812 46.5 56.5 52.5 57.0744857 52.2682152 69.3425361"></polyline>
                    <path d="M38.9896612,156 L36.1740484,156.011116 L35.9672715,158.493207 C35.8776681,158.55949 34.5680808,159.026348 34.0545847,159.482915 C33.3928985,160.076575 32.996576,161.008234 33,162 L34.6507916,161.993413 C35.3710646,161.990531 36.9149991,161.846439 37.621487,161.684644 L39,161.370111 L38.9896612,156" id="Fill-309-Copy" fill="#102257"></path>
                    <path d="M57.3354492,156 L58.022324,158.492912 C58.1150544,158.559114 59.4235833,159.017148 59.9353177,159.472285 C60.6016027,160.063136 60.9965655,160.996996 61,161.993333 L59.3583286,161.999953 C58.6370922,162.00285 57.0984545,161.870446 56.3909559,161.713631 L55.0171723,161.408275 L55,156.011172 L57.3354492,156 Z" id="Fill-310-Copy" fill="#102257"></path>
                    <path d="M35.8602037,103.725573 C35.8602037,103.725573 31.7838091,140.633742 33.3640001,150.222248 C33.6601129,152.019405 35.9958068,157.000033 35.9958068,157.000033 L39.5,157.000033 L46.4095699,118.15108 C46.4095699,118.15108 46.774868,117.057944 47.0350045,118.184377 L54.4571976,156.437663 C55.0606398,156.435614 55.5132214,156.434078 55.8149425,156.433053 C56.048869,156.432259 56.6319985,156.432259 57.5643311,156.433053 C63.8380491,145.327588 58.0520629,103.192831 58.0520629,103.192831 L46.5534752,99.9995535 C46.5534752,99.9910193 35.8602037,103.725573 35.8602037,103.725573 Z" id="Fill-311-Copy" fill="#FC6E4C"></path>
                    <path d="M38.3352557,51.7152611 C38.0474901,51.0944709 37.4387552,50.9308859 37.0569124,51.024433 L33.9136267,51.9111712 C33.9855681,51.3758468 33.3408624,51.3222164 33.1720768,51.429967 C31.6327657,52.5644673 30.8254068,53.5607934 30.75,54.4189453 C30.6745932,55.2770972 31.3465496,55.8216936 32.7658691,56.0527344 L37.9810827,53.5132264 C38.6285553,53.1662205 38.5732157,52.2297701 38.3352557,51.7152611 Z" id="Fill-313-Copy" fill="#E9B399"></path>
                    <path d="M24.8234809,70.9849166 L26.1027452,71.5 L33,55.7922351 L31.497201,53.5 L23.7839103,63.2444209 C21.7532464,65.5506157 22.1545315,69.4892374 24.8234809,70.9849166" id="Fill-314-Copy" fill="#E9B399"></path>
                    <path d="M66.5184158,111.986964 C65.6418043,111.896237 65.2453954,111.335013 65.2421725,110.91802 L65.3581946,108.300331 C64.7039588,108.545467 64.4332405,107.910673 64.5138114,107.705375 L66.0124305,104.5 C67.1727216,103.351136 67.9873851,103.351136 68.4564209,104.5 C68.9254567,105.648864 69.0024447,107.832888 68.6873848,111.052075 C68.4521178,111.816852 67.2467769,112.062569 66.5184158,111.986964 Z" id="Fill-315-Copy" fill="#E9B399"></path>
                    <path d="M63.2648926,90.822876 L66.2167904,105.097868 L68.4605164,106 L68.9995934,93.4234509 C69.0287327,89.6014524 67.4819216,88 67.4819216,88 L63.2648926,90.822876 Z" id="Fill-316-Copy" fill="#E9B399"></path>
                    <g id="Group-330-Copy">
                        <mask id="mask-2" fill="white">
                            <use xlink:href="#path-1"></use>
                        </mask>
                        <g id="Clip-319"></g>
                        <path d="M12.2333254,0.355094436 C20.8133655,-1.27190107 29.4641202,2.84622989 31.5443085,9.5540184 C33.6303897,16.2613465 28.3562579,23.0174753 19.7703249,24.6449312 C11.1843919,26.2719267 2.53953007,22.1533354 0.453448887,15.4460072 C-1.62673941,8.73867911 3.64739239,1.98255033 12.2333254,0.355094436" id="Fill-318" fill="#F0E3D5" mask="url(#mask-2)"></path>
                    </g>
                    <g id="Group-9" transform="translate(11.000000, 7.000000)" stroke="#FC6E4C" stroke-width="2">
                        <path d="M0,1 C3.66666667,4 7.33333333,7 11,10" id="Path-2"></path>
                        <path d="M9,0 C6.33333333,3.66666667 3.66666667,7.33333333 1,11" id="Path-4"></path>
                    </g>
                    <path d="M10,19 C13.6666667,14.6666667 17.3333333,10.3333333 21,6" id="Path-3"></path>
                    <g id="Group-330-Copy-2" transform="translate(21.000000, 25.000000)">
                        <mask id="mask-4" fill="white">
                            <use xlink:href="#path-3"></use>
                        </mask>
                        <g id="Clip-319"></g>
                        <path d="M4.2052056,0.142037774 C7.15459439,-0.50876043 10.1282913,1.13849196 10.843356,3.82160736 C11.5604465,6.50453861 9.74746365,9.20699012 6.79604918,9.85797248 C3.84463472,10.5087707 0.87296346,8.86133414 0.155873055,6.1784029 C-0.559191672,3.49547165 1.25379113,0.793020132 4.2052056,0.142037774" id="Fill-318" fill="#F0E3D5" mask="url(#mask-4)"></path>
                    </g>
                    <g id="Group-330-Copy-3" transform="translate(28.000000, 38.000000)">
                        <mask id="mask-6" fill="white">
                            <use xlink:href="#path-5"></use>
                        </mask>
                        <g id="Clip-319"></g>
                        <path d="M2.29374851,0.0852226647 C3.90250603,-0.305256258 5.52452254,0.683095175 5.91455784,2.29296442 C6.30569807,3.90272317 5.31679835,5.52419407 3.70693592,5.91478349 C2.09707348,6.30526241 0.476161888,5.31680049 0.0850216663,3.70704174 C-0.305013639,2.09728299 0.683886073,0.475812079 2.29374851,0.0852226647" id="Fill-318" fill="#F0E3D5" mask="url(#mask-6)"></path>
                    </g>
                    <path d="M47.5420229,62.5 L47.2848319,62.5 C44.825443,62.5 43.0840457,60.2889173 43.0840457,57.5614145 L43.0009945,54.2131873 C42.9661665,52.91165 43.8502605,50.9253319 45.0049409,50.6863955 C45.7550813,50.5310727 46.5320124,50.5075475 47.400032,50.5013119 C48.3671773,50.4945095 49.2539504,50.5109487 49.9933745,50.6277243 C51.1614502,50.812241 51.9651721,52.6667615 51.9732093,53.9742509 L52,57.5614145 C52,60.2889173 50.0040908,62.5 47.5420229,62.5" id="Fill-331-Copy" fill="#E9B399"></path>
                    <path d="M52,57.9836546 C51.9101862,56.5355924 51.9101862,55.6584318 52,55.3521729 C52.0898138,55.0459139 52.3765278,54.9453999 52.8601419,55.0506307 C53.2378246,55.078546 53.5229141,55.4441819 53.4985475,55.8675642 L53.4449409,56.753465 C53.4035177,57.4885683 52.8382119,58.0455062 52.1827497,57.9970649 L52,57.9836546 Z" id="Fill-332-Copy" fill="#E9B399"></path>
                    <path d="M49.5,68.5 C47.2915377,68.5 45.5,67.8285173 45.5,67 C45.5,66.1714827 47.2915377,65.5 49.5,65.5 C51.7084623,65.5 53.5,66.1714827 53.5,67 C53.5,67.8285173 51.7084623,68.5 49.5,68.5 Z" id="Fill-342-Copy" fill="#DBA992"></path>
                    <path d="M61.338498,70.7621961 C60.3685837,67.8977943 58.4119843,65.9858343 55.3401233,65.9736998 L39.0891677,65.9736998 C38.8571709,65.9730974 38.6335596,65.9776261 38.4127434,65.9852683 L28.2636719,66.3707275 L25.7329102,72.1114502 L35.078139,74.8264201 L34.4073049,105.639968 L58.4008038,106 L58.2638418,80.3364311 L62.0065369,88.8851988 L63.2224237,91.0994494 C63.2224237,91.0994494 68.3543044,89.7844286 67.3760047,86.8172818 L61.338498,70.7621961 Z" id="Fill-312-Copy" fill="#25435A"></path>
                    <path d="M58.5,99.2682697 L46.828578,99.2237753 C46.3260469,98.7755955 45.6578463,98.5 44.9233778,98.5 L37.3301887,98.5 C35.7673723,98.5 34.5,99.7372135 34.5,101.264045 L34.5,101.735955 C34.5,103.262247 35.7673723,104.5 37.3301887,104.5 L44.9233778,104.5 C46.4558214,104.5 47.6983433,103.312944 47.7508053,101.830876 L58.5,101.875371 L58.5,99.2682697" id="Fill-340-Copy" fill="url(#linearGradient-7)"></path>
                </g>
                <path d="M41.8557161,101.277052 L41.4888655,101.111265 L41.8556541,100.94554 C41.9447305,100.905344 42,100.819888 42,100.722577 C42,100.625328 41.9447305,100.539872 41.8557161,100.499614 L40.9776689,100.102899 C40.6740897,99.9657003 40.3259103,99.9657003 40.0223311,100.102899 L39.1442839,100.499614 C39.0552695,100.539872 39,100.625328 39,100.722577 C39,100.819888 39.0553316,100.905344 39.1443459,100.94554 L39.5110725,101.111265 L39.1442839,101.277052 C39.0552695,101.317249 39,101.402704 39,101.500015 C39,101.597326 39.0553316,101.682721 39.1443459,101.722917 L39.5110725,101.888704 L39.1442839,102.054429 C39.0552695,102.094687 39,102.180143 39,102.277392 C39,102.374703 39.0553316,102.460159 39.1443459,102.500355 L40.0223311,102.897132 C40.1741207,102.965731 40.3370759,103 40.499969,103 C40.6629241,103 40.8258793,102.965731 40.9776689,102.897132 L41.8556541,102.500355 C41.9447305,102.460159 42,102.374703 42,102.277392 C42,102.180143 41.9447305,102.094687 41.8557161,102.054429 L41.4888655,101.888704 L41.8556541,101.722917 C41.9447305,101.682721 42,101.597326 42,101.500015 C42,101.402704 41.9447305,101.317249 41.8557161,101.277052 Z M40.9632157,101.888333 L41.7657093,102.251706 C41.7794802,102.257942 41.7823336,102.269118 41.7823336,102.277392 C41.7823336,102.285666 41.7794802,102.296842 41.7657093,102.303078 L40.8877241,102.699855 C40.6413374,102.811182 40.3586626,102.811182 40.1122759,102.699855 L39.2342907,102.303078 C39.2205198,102.296842 39.2176664,102.285666 39.2176664,102.277392 C39.2176664,102.269118 39.2205198,102.257942 39.2342907,102.251706 L39.7743936,102.007687 L40.022145,102.119632 C40.1739967,102.188231 40.3369518,102.222562 40.499969,102.222562 C40.6629862,102.222562 40.8260654,102.188231 40.977855,102.119632 L41.0489424,102.087524 L40.7760065,101.96428 C40.558216,102.030965 40.3220644,102.017196 40.1120898,101.922355 L39.2342907,101.52564 C39.2205198,101.519465 39.2176664,101.508289 39.2176664,101.500015 C39.2176664,101.49168 39.2205198,101.480504 39.2342907,101.474268 L39.7743936,101.230249 L40.0223932,101.342379 C40.1741827,101.410917 40.3370759,101.445247 40.499969,101.445247 C40.6629241,101.445247 40.8258173,101.410917 40.9776068,101.342379 L41.0486942,101.31021 L40.7756963,101.186966 C40.5580919,101.253589 40.3221264,101.23982 40.1124,101.145102 L39.2342907,100.748263 C39.2205198,100.742027 39.2176664,100.730851 39.2176664,100.722577 C39.2176664,100.714303 39.2205198,100.703127 39.2342907,100.696891 L40.1123379,100.300114 C40.3587246,100.188787 40.6412754,100.188787 40.8876621,100.300114 L41.7657093,100.696891 C41.7794802,100.703127 41.7823336,100.714303 41.7823336,100.722577 C41.7823336,100.730851 41.7794802,100.742027 41.7657093,100.748263 L40.9629055,101.11108 L41.7657093,101.474268 C41.7794802,101.480504 41.7823336,101.49168 41.7823336,101.500015 C41.7823336,101.508289 41.7794802,101.519465 41.7657093,101.52564 L40.9632157,101.888333 Z" id="Fill-10" fill="#05283E"></path>
            </g>
        </g>
    </g>
</svg>