<?xml version="1.0" encoding="UTF-8"?>
<svg width="15px" height="17px" viewBox="0 0 15 17" version="1.1" xmlns="http://www.w3.org/2000/svg" xmlns:xlink="http://www.w3.org/1999/xlink">
    <!-- Generator: Sketch 60.1 (88133) - https://sketch.com -->
    <title>Group 21</title>
    <desc>Created with Sketch.</desc>
    <g id="Wizard-new" stroke="none" stroke-width="1" fill="none" fill-rule="evenodd" stroke-linejoin="round">
        <g id="plugins" transform="translate(-678.000000, -595.000000)" fill="#052235" stroke="#FFFFFF" stroke-width="0.9">
            <g id="Group-21" transform="translate(679.000000, 596.000000)">
                <g id="Group-12" transform="translate(-0.000000, 0.000000)">
                    <path d="M5.98312269,8.0380147e-14 L9.4711428,8.0380147e-14 L9.4711428,8.0380147e-14 L7.39535638,5.05359008 C6.74820063,6.6291182 5.21358988,7.65779619 3.51032847,7.65779619 L2.27373675e-13,7.65779619 L2.27373675e-13,7.65779619 L2.10413172,2.5895873 C2.7550081,1.02182546 4.28561945,8.15801517e-14 5.98312269,8.0380147e-14 Z" id="Path-2"></path>
                    <path d="M7.78312269,3.89487 L11.2711428,3.89487 L11.2711428,3.89487 L9.19535638,8.94846008 C8.54820063,10.5239882 7.01358988,11.5526662 5.31032847,11.5526662 L1.8,11.5526662 L1.8,11.5526662 L3.90413172,6.4844573 C4.5550081,4.91669546 6.08561945,3.89487 7.78312269,3.89487 Z" id="Path-2-Copy"></path>
                    <path d="M9.28312269,7.79487 L12.7711428,7.79487 L12.7711428,7.79487 L10.6953564,12.8484601 C10.0482006,14.4239882 8.51358988,15.4526662 6.81032847,15.4526662 L3.3,15.4526662 L3.3,15.4526662 L5.40413172,10.3844573 C6.0550081,8.81669546 7.58561945,7.79487 9.28312269,7.79487 Z" id="Path-2-Copy-2"></path>
                </g>
            </g>
        </g>
    </g>
</svg>